G04 #@! TF.FileFunction,Legend,Bot*
%FSLAX46Y46*%
G04 Gerber Fmt 4.6, Leading zero omitted, Abs format (unit mm)*
G04 Created by KiCad (PCBNEW 4.0.7) date 01/06/18 14:04:23*
%MOMM*%
%LPD*%
G01*
G04 APERTURE LIST*
%ADD10C,0.100000*%
%ADD11C,0.300000*%
%ADD12C,0.120000*%
%ADD13C,0.150000*%
G04 APERTURE END LIST*
D10*
D11*
X172892857Y-95928571D02*
X172035714Y-95928571D01*
X172464285Y-97428571D02*
X172464285Y-95928571D01*
X171321428Y-97428571D02*
X171464286Y-97357143D01*
X171535714Y-97285714D01*
X171607143Y-97142857D01*
X171607143Y-96714286D01*
X171535714Y-96571429D01*
X171464286Y-96500000D01*
X171321428Y-96428571D01*
X171107143Y-96428571D01*
X170964286Y-96500000D01*
X170892857Y-96571429D01*
X170821428Y-96714286D01*
X170821428Y-97142857D01*
X170892857Y-97285714D01*
X170964286Y-97357143D01*
X171107143Y-97428571D01*
X171321428Y-97428571D01*
X168178571Y-97428571D02*
X168678571Y-96714286D01*
X169035714Y-97428571D02*
X169035714Y-95928571D01*
X168464286Y-95928571D01*
X168321428Y-96000000D01*
X168250000Y-96071429D01*
X168178571Y-96214286D01*
X168178571Y-96428571D01*
X168250000Y-96571429D01*
X168321428Y-96642857D01*
X168464286Y-96714286D01*
X169035714Y-96714286D01*
X167678571Y-95928571D02*
X166678571Y-97428571D01*
X166678571Y-95928571D02*
X167678571Y-97428571D01*
X137571429Y-96653571D02*
X137000000Y-96653571D01*
X137357143Y-96153571D02*
X137357143Y-97439286D01*
X137285715Y-97582143D01*
X137142857Y-97653571D01*
X137000000Y-97653571D01*
X136285714Y-97653571D02*
X136428572Y-97582143D01*
X136500000Y-97510714D01*
X136571429Y-97367857D01*
X136571429Y-96939286D01*
X136500000Y-96796429D01*
X136428572Y-96725000D01*
X136285714Y-96653571D01*
X136071429Y-96653571D01*
X135928572Y-96725000D01*
X135857143Y-96796429D01*
X135785714Y-96939286D01*
X135785714Y-97367857D01*
X135857143Y-97510714D01*
X135928572Y-97582143D01*
X136071429Y-97653571D01*
X136285714Y-97653571D01*
X133785714Y-97653571D02*
X133928572Y-97582143D01*
X134000000Y-97439286D01*
X134000000Y-96153571D01*
X133214286Y-96653571D02*
X133214286Y-98153571D01*
X133214286Y-96725000D02*
X133071429Y-96653571D01*
X132785715Y-96653571D01*
X132642858Y-96725000D01*
X132571429Y-96796429D01*
X132500000Y-96939286D01*
X132500000Y-97367857D01*
X132571429Y-97510714D01*
X132642858Y-97582143D01*
X132785715Y-97653571D01*
X133071429Y-97653571D01*
X133214286Y-97582143D01*
X132071429Y-96653571D02*
X131500000Y-96653571D01*
X131857143Y-97653571D02*
X131857143Y-96367857D01*
X131785715Y-96225000D01*
X131642857Y-96153571D01*
X131500000Y-96153571D01*
X129214286Y-96153571D02*
X129500000Y-96153571D01*
X129642857Y-96225000D01*
X129714286Y-96296429D01*
X129857143Y-96510714D01*
X129928572Y-96796429D01*
X129928572Y-97367857D01*
X129857143Y-97510714D01*
X129785715Y-97582143D01*
X129642857Y-97653571D01*
X129357143Y-97653571D01*
X129214286Y-97582143D01*
X129142857Y-97510714D01*
X129071429Y-97367857D01*
X129071429Y-97010714D01*
X129142857Y-96867857D01*
X129214286Y-96796429D01*
X129357143Y-96725000D01*
X129642857Y-96725000D01*
X129785715Y-96796429D01*
X129857143Y-96867857D01*
X129928572Y-97010714D01*
X128142858Y-96153571D02*
X128000001Y-96153571D01*
X127857144Y-96225000D01*
X127785715Y-96296429D01*
X127714286Y-96439286D01*
X127642858Y-96725000D01*
X127642858Y-97082143D01*
X127714286Y-97367857D01*
X127785715Y-97510714D01*
X127857144Y-97582143D01*
X128000001Y-97653571D01*
X128142858Y-97653571D01*
X128285715Y-97582143D01*
X128357144Y-97510714D01*
X128428572Y-97367857D01*
X128500001Y-97082143D01*
X128500001Y-96725000D01*
X128428572Y-96439286D01*
X128357144Y-96296429D01*
X128285715Y-96225000D01*
X128142858Y-96153571D01*
X127000001Y-97653571D02*
X127000001Y-96153571D01*
X126500001Y-97225000D01*
X126000001Y-96153571D01*
X126000001Y-97653571D01*
X125285715Y-97653571D02*
X125285715Y-96153571D01*
X125285715Y-96867857D02*
X124428572Y-96867857D01*
X124428572Y-97653571D02*
X124428572Y-96153571D01*
X123857143Y-96653571D02*
X123071429Y-96653571D01*
X123857143Y-97653571D01*
X123071429Y-97653571D01*
X121428572Y-96082143D02*
X122714286Y-98010714D01*
X137071428Y-100203571D02*
X137071428Y-98703571D01*
X136500000Y-98703571D01*
X136357142Y-98775000D01*
X136285714Y-98846429D01*
X136214285Y-98989286D01*
X136214285Y-99203571D01*
X136285714Y-99346429D01*
X136357142Y-99417857D01*
X136500000Y-99489286D01*
X137071428Y-99489286D01*
X135642857Y-100132143D02*
X135428571Y-100203571D01*
X135071428Y-100203571D01*
X134928571Y-100132143D01*
X134857142Y-100060714D01*
X134785714Y-99917857D01*
X134785714Y-99775000D01*
X134857142Y-99632143D01*
X134928571Y-99560714D01*
X135071428Y-99489286D01*
X135357142Y-99417857D01*
X135500000Y-99346429D01*
X135571428Y-99275000D01*
X135642857Y-99132143D01*
X135642857Y-98989286D01*
X135571428Y-98846429D01*
X135500000Y-98775000D01*
X135357142Y-98703571D01*
X135000000Y-98703571D01*
X134785714Y-98775000D01*
X134142857Y-99632143D02*
X133000000Y-99632143D01*
X131428571Y-100203571D02*
X131928571Y-99489286D01*
X132285714Y-100203571D02*
X132285714Y-98703571D01*
X131714286Y-98703571D01*
X131571428Y-98775000D01*
X131500000Y-98846429D01*
X131428571Y-98989286D01*
X131428571Y-99203571D01*
X131500000Y-99346429D01*
X131571428Y-99417857D01*
X131714286Y-99489286D01*
X132285714Y-99489286D01*
X130928571Y-98703571D02*
X129928571Y-100203571D01*
X129928571Y-98703571D02*
X130928571Y-100203571D01*
X128285715Y-100132143D02*
X128142858Y-100203571D01*
X127857143Y-100203571D01*
X127714286Y-100132143D01*
X127642858Y-99989286D01*
X127642858Y-99917857D01*
X127714286Y-99775000D01*
X127857143Y-99703571D01*
X128071429Y-99703571D01*
X128214286Y-99632143D01*
X128285715Y-99489286D01*
X128285715Y-99417857D01*
X128214286Y-99275000D01*
X128071429Y-99203571D01*
X127857143Y-99203571D01*
X127714286Y-99275000D01*
X127142857Y-99203571D02*
X126857143Y-100203571D01*
X126571429Y-99489286D01*
X126285714Y-100203571D01*
X126000000Y-99203571D01*
X125428571Y-100203571D02*
X125428571Y-99203571D01*
X125428571Y-98703571D02*
X125500000Y-98775000D01*
X125428571Y-98846429D01*
X125357143Y-98775000D01*
X125428571Y-98703571D01*
X125428571Y-98846429D01*
X124928571Y-99203571D02*
X124357142Y-99203571D01*
X124714285Y-98703571D02*
X124714285Y-99989286D01*
X124642857Y-100132143D01*
X124499999Y-100203571D01*
X124357142Y-100203571D01*
X123214285Y-100132143D02*
X123357142Y-100203571D01*
X123642856Y-100203571D01*
X123785714Y-100132143D01*
X123857142Y-100060714D01*
X123928571Y-99917857D01*
X123928571Y-99489286D01*
X123857142Y-99346429D01*
X123785714Y-99275000D01*
X123642856Y-99203571D01*
X123357142Y-99203571D01*
X123214285Y-99275000D01*
X122571428Y-100203571D02*
X122571428Y-98703571D01*
X121928571Y-100203571D02*
X121928571Y-99417857D01*
X122000000Y-99275000D01*
X122142857Y-99203571D01*
X122357142Y-99203571D01*
X122500000Y-99275000D01*
X122571428Y-99346429D01*
X145153571Y-90328571D02*
X145153571Y-90042857D01*
X145225000Y-89900000D01*
X145296429Y-89828571D01*
X145510714Y-89685714D01*
X145796429Y-89614285D01*
X146367857Y-89614285D01*
X146510714Y-89685714D01*
X146582143Y-89757142D01*
X146653571Y-89900000D01*
X146653571Y-90185714D01*
X146582143Y-90328571D01*
X146510714Y-90400000D01*
X146367857Y-90471428D01*
X146010714Y-90471428D01*
X145867857Y-90400000D01*
X145796429Y-90328571D01*
X145725000Y-90185714D01*
X145725000Y-89900000D01*
X145796429Y-89757142D01*
X145867857Y-89685714D01*
X146010714Y-89614285D01*
X146653571Y-91114285D02*
X145653571Y-91114285D01*
X145796429Y-91114285D02*
X145725000Y-91185713D01*
X145653571Y-91328571D01*
X145653571Y-91542856D01*
X145725000Y-91685713D01*
X145867857Y-91757142D01*
X146653571Y-91757142D01*
X145867857Y-91757142D02*
X145725000Y-91828571D01*
X145653571Y-91971428D01*
X145653571Y-92185713D01*
X145725000Y-92328571D01*
X145867857Y-92399999D01*
X146653571Y-92399999D01*
X145082143Y-94185713D02*
X147010714Y-92899999D01*
X146653571Y-95400000D02*
X146653571Y-94685714D01*
X145153571Y-94685714D01*
X146653571Y-95900000D02*
X145153571Y-95900000D01*
X146653571Y-96757143D01*
X145153571Y-96757143D01*
X146225000Y-97400000D02*
X146225000Y-98114286D01*
X146653571Y-97257143D02*
X145153571Y-97757143D01*
X146653571Y-98257143D01*
X147846429Y-92257143D02*
X147775000Y-92328572D01*
X147703571Y-92471429D01*
X147703571Y-92828572D01*
X147775000Y-92971429D01*
X147846429Y-93042858D01*
X147989286Y-93114286D01*
X148132143Y-93114286D01*
X148346429Y-93042858D01*
X149203571Y-92185715D01*
X149203571Y-93114286D01*
X147703571Y-94042857D02*
X147703571Y-94185714D01*
X147775000Y-94328571D01*
X147846429Y-94400000D01*
X147989286Y-94471429D01*
X148275000Y-94542857D01*
X148632143Y-94542857D01*
X148917857Y-94471429D01*
X149060714Y-94400000D01*
X149132143Y-94328571D01*
X149203571Y-94185714D01*
X149203571Y-94042857D01*
X149132143Y-93900000D01*
X149060714Y-93828571D01*
X148917857Y-93757143D01*
X148632143Y-93685714D01*
X148275000Y-93685714D01*
X147989286Y-93757143D01*
X147846429Y-93828571D01*
X147775000Y-93900000D01*
X147703571Y-94042857D01*
X149203571Y-95185714D02*
X147703571Y-95185714D01*
X149203571Y-95828571D02*
X148417857Y-95828571D01*
X148275000Y-95757142D01*
X148203571Y-95614285D01*
X148203571Y-95400000D01*
X148275000Y-95257142D01*
X148346429Y-95185714D01*
X148203571Y-96542857D02*
X149703571Y-96542857D01*
X148275000Y-96542857D02*
X148203571Y-96685714D01*
X148203571Y-96971428D01*
X148275000Y-97114285D01*
X148346429Y-97185714D01*
X148489286Y-97257143D01*
X148917857Y-97257143D01*
X149060714Y-97185714D01*
X149132143Y-97114285D01*
X149203571Y-96971428D01*
X149203571Y-96685714D01*
X149132143Y-96542857D01*
X148203571Y-97685714D02*
X148203571Y-98257143D01*
X149203571Y-97900000D02*
X147917857Y-97900000D01*
X147775000Y-97971428D01*
X147703571Y-98114286D01*
X147703571Y-98257143D01*
X151753571Y-93114286D02*
X151753571Y-92257143D01*
X151753571Y-92685715D02*
X150253571Y-92685715D01*
X150467857Y-92542858D01*
X150610714Y-92400000D01*
X150682143Y-92257143D01*
X150253571Y-93614286D02*
X150253571Y-94542857D01*
X150825000Y-94042857D01*
X150825000Y-94257143D01*
X150896429Y-94400000D01*
X150967857Y-94471429D01*
X151110714Y-94542857D01*
X151467857Y-94542857D01*
X151610714Y-94471429D01*
X151682143Y-94400000D01*
X151753571Y-94257143D01*
X151753571Y-93828571D01*
X151682143Y-93685714D01*
X151610714Y-93614286D01*
X151753571Y-95185714D02*
X150253571Y-95185714D01*
X151753571Y-95828571D02*
X150967857Y-95828571D01*
X150825000Y-95757142D01*
X150753571Y-95614285D01*
X150753571Y-95400000D01*
X150825000Y-95257142D01*
X150896429Y-95185714D01*
X150753571Y-96542857D02*
X152253571Y-96542857D01*
X150825000Y-96542857D02*
X150753571Y-96685714D01*
X150753571Y-96971428D01*
X150825000Y-97114285D01*
X150896429Y-97185714D01*
X151039286Y-97257143D01*
X151467857Y-97257143D01*
X151610714Y-97185714D01*
X151682143Y-97114285D01*
X151753571Y-96971428D01*
X151753571Y-96685714D01*
X151682143Y-96542857D01*
X150753571Y-97685714D02*
X150753571Y-98257143D01*
X151753571Y-97900000D02*
X150467857Y-97900000D01*
X150325000Y-97971428D01*
X150253571Y-98114286D01*
X150253571Y-98257143D01*
X154303571Y-91685714D02*
X154303571Y-91971429D01*
X154232143Y-92114286D01*
X154160714Y-92185714D01*
X153946429Y-92328572D01*
X153660714Y-92400000D01*
X153089286Y-92400000D01*
X152946429Y-92328572D01*
X152875000Y-92257143D01*
X152803571Y-92114286D01*
X152803571Y-91828572D01*
X152875000Y-91685714D01*
X152946429Y-91614286D01*
X153089286Y-91542857D01*
X153446429Y-91542857D01*
X153589286Y-91614286D01*
X153660714Y-91685714D01*
X153732143Y-91828572D01*
X153732143Y-92114286D01*
X153660714Y-92257143D01*
X153589286Y-92328572D01*
X153446429Y-92400000D01*
X154160714Y-93042857D02*
X154232143Y-93114285D01*
X154303571Y-93042857D01*
X154232143Y-92971428D01*
X154160714Y-93042857D01*
X154303571Y-93042857D01*
X152803571Y-94471429D02*
X152803571Y-93757143D01*
X153517857Y-93685714D01*
X153446429Y-93757143D01*
X153375000Y-93900000D01*
X153375000Y-94257143D01*
X153446429Y-94400000D01*
X153517857Y-94471429D01*
X153660714Y-94542857D01*
X154017857Y-94542857D01*
X154160714Y-94471429D01*
X154232143Y-94400000D01*
X154303571Y-94257143D01*
X154303571Y-93900000D01*
X154232143Y-93757143D01*
X154160714Y-93685714D01*
X154303571Y-95185714D02*
X152803571Y-95185714D01*
X154303571Y-95828571D02*
X153517857Y-95828571D01*
X153375000Y-95757142D01*
X153303571Y-95614285D01*
X153303571Y-95400000D01*
X153375000Y-95257142D01*
X153446429Y-95185714D01*
X153303571Y-96542857D02*
X154803571Y-96542857D01*
X153375000Y-96542857D02*
X153303571Y-96685714D01*
X153303571Y-96971428D01*
X153375000Y-97114285D01*
X153446429Y-97185714D01*
X153589286Y-97257143D01*
X154017857Y-97257143D01*
X154160714Y-97185714D01*
X154232143Y-97114285D01*
X154303571Y-96971428D01*
X154303571Y-96685714D01*
X154232143Y-96542857D01*
X153303571Y-97685714D02*
X153303571Y-98257143D01*
X154303571Y-97900000D02*
X153017857Y-97900000D01*
X152875000Y-97971428D01*
X152803571Y-98114286D01*
X152803571Y-98257143D01*
X164914285Y-98828571D02*
X165199999Y-98828571D01*
X165342856Y-98900000D01*
X165414285Y-98971429D01*
X165557142Y-99185714D01*
X165628571Y-99471429D01*
X165628571Y-100042857D01*
X165557142Y-100185714D01*
X165485714Y-100257143D01*
X165342856Y-100328571D01*
X165057142Y-100328571D01*
X164914285Y-100257143D01*
X164842856Y-100185714D01*
X164771428Y-100042857D01*
X164771428Y-99685714D01*
X164842856Y-99542857D01*
X164914285Y-99471429D01*
X165057142Y-99400000D01*
X165342856Y-99400000D01*
X165485714Y-99471429D01*
X165557142Y-99542857D01*
X165628571Y-99685714D01*
X164128571Y-100185714D02*
X164057143Y-100257143D01*
X164128571Y-100328571D01*
X164200000Y-100257143D01*
X164128571Y-100185714D01*
X164128571Y-100328571D01*
X162699999Y-98828571D02*
X163414285Y-98828571D01*
X163485714Y-99542857D01*
X163414285Y-99471429D01*
X163271428Y-99400000D01*
X162914285Y-99400000D01*
X162771428Y-99471429D01*
X162699999Y-99542857D01*
X162628571Y-99685714D01*
X162628571Y-100042857D01*
X162699999Y-100185714D01*
X162771428Y-100257143D01*
X162914285Y-100328571D01*
X163271428Y-100328571D01*
X163414285Y-100257143D01*
X163485714Y-100185714D01*
X160842857Y-100328571D02*
X160842857Y-98828571D01*
X160200000Y-100328571D02*
X160200000Y-99542857D01*
X160271429Y-99400000D01*
X160414286Y-99328571D01*
X160628571Y-99328571D01*
X160771429Y-99400000D01*
X160842857Y-99471429D01*
X159485714Y-99328571D02*
X159485714Y-100828571D01*
X159485714Y-99400000D02*
X159342857Y-99328571D01*
X159057143Y-99328571D01*
X158914286Y-99400000D01*
X158842857Y-99471429D01*
X158771428Y-99614286D01*
X158771428Y-100042857D01*
X158842857Y-100185714D01*
X158914286Y-100257143D01*
X159057143Y-100328571D01*
X159342857Y-100328571D01*
X159485714Y-100257143D01*
X158342857Y-99328571D02*
X157771428Y-99328571D01*
X158128571Y-100328571D02*
X158128571Y-99042857D01*
X158057143Y-98900000D01*
X157914285Y-98828571D01*
X157771428Y-98828571D01*
X164771428Y-102878571D02*
X165628571Y-102878571D01*
X165199999Y-102878571D02*
X165199999Y-101378571D01*
X165342856Y-101592857D01*
X165485714Y-101735714D01*
X165628571Y-101807143D01*
X164128571Y-102735714D02*
X164057143Y-102807143D01*
X164128571Y-102878571D01*
X164200000Y-102807143D01*
X164128571Y-102735714D01*
X164128571Y-102878571D01*
X162699999Y-101378571D02*
X163414285Y-101378571D01*
X163485714Y-102092857D01*
X163414285Y-102021429D01*
X163271428Y-101950000D01*
X162914285Y-101950000D01*
X162771428Y-102021429D01*
X162699999Y-102092857D01*
X162628571Y-102235714D01*
X162628571Y-102592857D01*
X162699999Y-102735714D01*
X162771428Y-102807143D01*
X162914285Y-102878571D01*
X163271428Y-102878571D01*
X163414285Y-102807143D01*
X163485714Y-102735714D01*
X160842857Y-102878571D02*
X160842857Y-101378571D01*
X160200000Y-102878571D02*
X160200000Y-102092857D01*
X160271429Y-101950000D01*
X160414286Y-101878571D01*
X160628571Y-101878571D01*
X160771429Y-101950000D01*
X160842857Y-102021429D01*
X159485714Y-101878571D02*
X159485714Y-103378571D01*
X159485714Y-101950000D02*
X159342857Y-101878571D01*
X159057143Y-101878571D01*
X158914286Y-101950000D01*
X158842857Y-102021429D01*
X158771428Y-102164286D01*
X158771428Y-102592857D01*
X158842857Y-102735714D01*
X158914286Y-102807143D01*
X159057143Y-102878571D01*
X159342857Y-102878571D01*
X159485714Y-102807143D01*
X158342857Y-101878571D02*
X157771428Y-101878571D01*
X158128571Y-102878571D02*
X158128571Y-101592857D01*
X158057143Y-101450000D01*
X157914285Y-101378571D01*
X157771428Y-101378571D01*
X161271429Y-104642857D02*
X161057143Y-104714286D01*
X160985715Y-104785714D01*
X160914286Y-104928571D01*
X160914286Y-105142857D01*
X160985715Y-105285714D01*
X161057143Y-105357143D01*
X161200001Y-105428571D01*
X161771429Y-105428571D01*
X161771429Y-103928571D01*
X161271429Y-103928571D01*
X161128572Y-104000000D01*
X161057143Y-104071429D01*
X160985715Y-104214286D01*
X160985715Y-104357143D01*
X161057143Y-104500000D01*
X161128572Y-104571429D01*
X161271429Y-104642857D01*
X161771429Y-104642857D01*
X160414286Y-104428571D02*
X160057143Y-105428571D01*
X159700001Y-104428571D02*
X160057143Y-105428571D01*
X160200001Y-105785714D01*
X160271429Y-105857143D01*
X160414286Y-105928571D01*
X159128572Y-105428571D02*
X159128572Y-103928571D01*
X158557144Y-103928571D01*
X158414286Y-104000000D01*
X158342858Y-104071429D01*
X158271429Y-104214286D01*
X158271429Y-104428571D01*
X158342858Y-104571429D01*
X158414286Y-104642857D01*
X158557144Y-104714286D01*
X159128572Y-104714286D01*
X156985715Y-105428571D02*
X156985715Y-104642857D01*
X157057144Y-104500000D01*
X157200001Y-104428571D01*
X157485715Y-104428571D01*
X157628572Y-104500000D01*
X156985715Y-105357143D02*
X157128572Y-105428571D01*
X157485715Y-105428571D01*
X157628572Y-105357143D01*
X157700001Y-105214286D01*
X157700001Y-105071429D01*
X157628572Y-104928571D01*
X157485715Y-104857143D01*
X157128572Y-104857143D01*
X156985715Y-104785714D01*
X156342858Y-105357143D02*
X156200001Y-105428571D01*
X155914286Y-105428571D01*
X155771429Y-105357143D01*
X155700001Y-105214286D01*
X155700001Y-105142857D01*
X155771429Y-105000000D01*
X155914286Y-104928571D01*
X156128572Y-104928571D01*
X156271429Y-104857143D01*
X156342858Y-104714286D01*
X156342858Y-104642857D01*
X156271429Y-104500000D01*
X156128572Y-104428571D01*
X155914286Y-104428571D01*
X155771429Y-104500000D01*
X155128572Y-105357143D02*
X154985715Y-105428571D01*
X154700000Y-105428571D01*
X154557143Y-105357143D01*
X154485715Y-105214286D01*
X154485715Y-105142857D01*
X154557143Y-105000000D01*
X154700000Y-104928571D01*
X154914286Y-104928571D01*
X155057143Y-104857143D01*
X155128572Y-104714286D01*
X155128572Y-104642857D01*
X155057143Y-104500000D01*
X154914286Y-104428571D01*
X154700000Y-104428571D01*
X154557143Y-104500000D01*
X141114286Y-100375000D02*
X140400000Y-100375000D01*
X141257143Y-100803571D02*
X140757143Y-99303571D01*
X140257143Y-100803571D01*
X139971429Y-99803571D02*
X139400000Y-99803571D01*
X139757143Y-99303571D02*
X139757143Y-100589286D01*
X139685715Y-100732143D01*
X139542857Y-100803571D01*
X139400000Y-100803571D01*
X139114286Y-99803571D02*
X138542857Y-99803571D01*
X138900000Y-99303571D02*
X138900000Y-100589286D01*
X138828572Y-100732143D01*
X138685714Y-100803571D01*
X138542857Y-100803571D01*
X138114286Y-99446429D02*
X138042857Y-99375000D01*
X137900000Y-99303571D01*
X137542857Y-99303571D01*
X137400000Y-99375000D01*
X137328571Y-99446429D01*
X137257143Y-99589286D01*
X137257143Y-99732143D01*
X137328571Y-99946429D01*
X138185714Y-100803571D01*
X137257143Y-100803571D01*
X141114286Y-102925000D02*
X140400000Y-102925000D01*
X141257143Y-103353571D02*
X140757143Y-101853571D01*
X140257143Y-103353571D01*
X139971429Y-102353571D02*
X139400000Y-102353571D01*
X139757143Y-101853571D02*
X139757143Y-103139286D01*
X139685715Y-103282143D01*
X139542857Y-103353571D01*
X139400000Y-103353571D01*
X139114286Y-102353571D02*
X138542857Y-102353571D01*
X138900000Y-101853571D02*
X138900000Y-103139286D01*
X138828572Y-103282143D01*
X138685714Y-103353571D01*
X138542857Y-103353571D01*
X137257143Y-103353571D02*
X138114286Y-103353571D01*
X137685714Y-103353571D02*
X137685714Y-101853571D01*
X137828571Y-102067857D01*
X137971429Y-102210714D01*
X138114286Y-102282143D01*
X146171428Y-105107143D02*
X145028571Y-105107143D01*
X145600000Y-105678571D02*
X145600000Y-104535714D01*
X150964286Y-104250000D02*
X151107143Y-104178571D01*
X151321429Y-104178571D01*
X151535714Y-104250000D01*
X151678572Y-104392857D01*
X151750000Y-104535714D01*
X151821429Y-104821429D01*
X151821429Y-105035714D01*
X151750000Y-105321429D01*
X151678572Y-105464286D01*
X151535714Y-105607143D01*
X151321429Y-105678571D01*
X151178572Y-105678571D01*
X150964286Y-105607143D01*
X150892857Y-105535714D01*
X150892857Y-105035714D01*
X151178572Y-105035714D01*
X150250000Y-104678571D02*
X150250000Y-105678571D01*
X150250000Y-104821429D02*
X150178572Y-104750000D01*
X150035714Y-104678571D01*
X149821429Y-104678571D01*
X149678572Y-104750000D01*
X149607143Y-104892857D01*
X149607143Y-105678571D01*
X148250000Y-105678571D02*
X148250000Y-104178571D01*
X148250000Y-105607143D02*
X148392857Y-105678571D01*
X148678571Y-105678571D01*
X148821429Y-105607143D01*
X148892857Y-105535714D01*
X148964286Y-105392857D01*
X148964286Y-104964286D01*
X148892857Y-104821429D01*
X148821429Y-104750000D01*
X148678571Y-104678571D01*
X148392857Y-104678571D01*
X148250000Y-104750000D01*
D12*
X105500000Y-109650000D02*
X106500000Y-109650000D01*
X106500000Y-111350000D02*
X105500000Y-111350000D01*
X103400000Y-94380000D02*
X104600000Y-94380000D01*
X104600000Y-92620000D02*
X103400000Y-92620000D01*
X110350000Y-92620000D02*
X109150000Y-92620000D01*
X109150000Y-94380000D02*
X110350000Y-94380000D01*
X107600000Y-94870000D02*
X106400000Y-94870000D01*
X106400000Y-96630000D02*
X107600000Y-96630000D01*
X118350000Y-94870000D02*
X117150000Y-94870000D01*
X117150000Y-96630000D02*
X118350000Y-96630000D01*
X114400000Y-94380000D02*
X115600000Y-94380000D01*
X115600000Y-92620000D02*
X114400000Y-92620000D01*
X121350000Y-92620000D02*
X120150000Y-92620000D01*
X120150000Y-94380000D02*
X121350000Y-94380000D01*
X106120000Y-105900000D02*
X106120000Y-107100000D01*
X107880000Y-107100000D02*
X107880000Y-105900000D01*
X111100000Y-29120000D02*
X109900000Y-29120000D01*
X109900000Y-30880000D02*
X111100000Y-30880000D01*
X109400000Y-41880000D02*
X110600000Y-41880000D01*
X110600000Y-40120000D02*
X109400000Y-40120000D01*
X109400000Y-63880000D02*
X110600000Y-63880000D01*
X110600000Y-62120000D02*
X109400000Y-62120000D01*
X109400000Y-74880000D02*
X110600000Y-74880000D01*
X110600000Y-73120000D02*
X109400000Y-73120000D01*
X109400000Y-85880000D02*
X110600000Y-85880000D01*
X110600000Y-84120000D02*
X109400000Y-84120000D01*
X109400000Y-52880000D02*
X110600000Y-52880000D01*
X110600000Y-51120000D02*
X109400000Y-51120000D01*
X114900000Y-19880000D02*
X116100000Y-19880000D01*
X116100000Y-18120000D02*
X114900000Y-18120000D01*
X162900000Y-19880000D02*
X164100000Y-19880000D01*
X164100000Y-18120000D02*
X162900000Y-18120000D01*
X172600000Y-29120000D02*
X171400000Y-29120000D01*
X171400000Y-30880000D02*
X172600000Y-30880000D01*
X172400000Y-41880000D02*
X173600000Y-41880000D01*
X173600000Y-40120000D02*
X172400000Y-40120000D01*
X173900000Y-63880000D02*
X175100000Y-63880000D01*
X175100000Y-62120000D02*
X173900000Y-62120000D01*
X173900000Y-74880000D02*
X175100000Y-74880000D01*
X175100000Y-73120000D02*
X173900000Y-73120000D01*
X172400000Y-85380000D02*
X173600000Y-85380000D01*
X173600000Y-83620000D02*
X172400000Y-83620000D01*
X173900000Y-53380000D02*
X175100000Y-53380000D01*
X175100000Y-51620000D02*
X173900000Y-51620000D01*
X118880000Y-107100000D02*
X118880000Y-105900000D01*
X117120000Y-105900000D02*
X117120000Y-107100000D01*
X136350000Y-81450000D02*
X136350000Y-87250000D01*
X139650000Y-81450000D02*
X139650000Y-87250000D01*
X136350000Y-81450000D02*
X139650000Y-81450000D01*
D13*
X102166666Y-109357143D02*
X102214285Y-109404762D01*
X102357142Y-109452381D01*
X102452380Y-109452381D01*
X102595238Y-109404762D01*
X102690476Y-109309524D01*
X102738095Y-109214286D01*
X102785714Y-109023810D01*
X102785714Y-108880952D01*
X102738095Y-108690476D01*
X102690476Y-108595238D01*
X102595238Y-108500000D01*
X102452380Y-108452381D01*
X102357142Y-108452381D01*
X102214285Y-108500000D01*
X102166666Y-108547619D01*
X101785714Y-108547619D02*
X101738095Y-108500000D01*
X101642857Y-108452381D01*
X101404761Y-108452381D01*
X101309523Y-108500000D01*
X101261904Y-108547619D01*
X101214285Y-108642857D01*
X101214285Y-108738095D01*
X101261904Y-108880952D01*
X101833333Y-109452381D01*
X101214285Y-109452381D01*
X104166666Y-92252381D02*
X104500000Y-91776190D01*
X104738095Y-92252381D02*
X104738095Y-91252381D01*
X104357142Y-91252381D01*
X104261904Y-91300000D01*
X104214285Y-91347619D01*
X104166666Y-91442857D01*
X104166666Y-91585714D01*
X104214285Y-91680952D01*
X104261904Y-91728571D01*
X104357142Y-91776190D01*
X104738095Y-91776190D01*
X103214285Y-92252381D02*
X103785714Y-92252381D01*
X103500000Y-92252381D02*
X103500000Y-91252381D01*
X103595238Y-91395238D01*
X103690476Y-91490476D01*
X103785714Y-91538095D01*
X109766666Y-92052381D02*
X110100000Y-91576190D01*
X110338095Y-92052381D02*
X110338095Y-91052381D01*
X109957142Y-91052381D01*
X109861904Y-91100000D01*
X109814285Y-91147619D01*
X109766666Y-91242857D01*
X109766666Y-91385714D01*
X109814285Y-91480952D01*
X109861904Y-91528571D01*
X109957142Y-91576190D01*
X110338095Y-91576190D01*
X109385714Y-91147619D02*
X109338095Y-91100000D01*
X109242857Y-91052381D01*
X109004761Y-91052381D01*
X108909523Y-91100000D01*
X108861904Y-91147619D01*
X108814285Y-91242857D01*
X108814285Y-91338095D01*
X108861904Y-91480952D01*
X109433333Y-92052381D01*
X108814285Y-92052381D01*
X107642857Y-98452381D02*
X107976191Y-97976190D01*
X108214286Y-98452381D02*
X108214286Y-97452381D01*
X107833333Y-97452381D01*
X107738095Y-97500000D01*
X107690476Y-97547619D01*
X107642857Y-97642857D01*
X107642857Y-97785714D01*
X107690476Y-97880952D01*
X107738095Y-97928571D01*
X107833333Y-97976190D01*
X108214286Y-97976190D01*
X106690476Y-98452381D02*
X107261905Y-98452381D01*
X106976191Y-98452381D02*
X106976191Y-97452381D01*
X107071429Y-97595238D01*
X107166667Y-97690476D01*
X107261905Y-97738095D01*
X106071429Y-97452381D02*
X105976190Y-97452381D01*
X105880952Y-97500000D01*
X105833333Y-97547619D01*
X105785714Y-97642857D01*
X105738095Y-97833333D01*
X105738095Y-98071429D01*
X105785714Y-98261905D01*
X105833333Y-98357143D01*
X105880952Y-98404762D01*
X105976190Y-98452381D01*
X106071429Y-98452381D01*
X106166667Y-98404762D01*
X106214286Y-98357143D01*
X106261905Y-98261905D01*
X106309524Y-98071429D01*
X106309524Y-97833333D01*
X106261905Y-97642857D01*
X106214286Y-97547619D01*
X106166667Y-97500000D01*
X106071429Y-97452381D01*
X118442857Y-98452381D02*
X118776191Y-97976190D01*
X119014286Y-98452381D02*
X119014286Y-97452381D01*
X118633333Y-97452381D01*
X118538095Y-97500000D01*
X118490476Y-97547619D01*
X118442857Y-97642857D01*
X118442857Y-97785714D01*
X118490476Y-97880952D01*
X118538095Y-97928571D01*
X118633333Y-97976190D01*
X119014286Y-97976190D01*
X117490476Y-98452381D02*
X118061905Y-98452381D01*
X117776191Y-98452381D02*
X117776191Y-97452381D01*
X117871429Y-97595238D01*
X117966667Y-97690476D01*
X118061905Y-97738095D01*
X116538095Y-98452381D02*
X117109524Y-98452381D01*
X116823810Y-98452381D02*
X116823810Y-97452381D01*
X116919048Y-97595238D01*
X117014286Y-97690476D01*
X117109524Y-97738095D01*
X115642857Y-92252381D02*
X115976191Y-91776190D01*
X116214286Y-92252381D02*
X116214286Y-91252381D01*
X115833333Y-91252381D01*
X115738095Y-91300000D01*
X115690476Y-91347619D01*
X115642857Y-91442857D01*
X115642857Y-91585714D01*
X115690476Y-91680952D01*
X115738095Y-91728571D01*
X115833333Y-91776190D01*
X116214286Y-91776190D01*
X114690476Y-92252381D02*
X115261905Y-92252381D01*
X114976191Y-92252381D02*
X114976191Y-91252381D01*
X115071429Y-91395238D01*
X115166667Y-91490476D01*
X115261905Y-91538095D01*
X114309524Y-91347619D02*
X114261905Y-91300000D01*
X114166667Y-91252381D01*
X113928571Y-91252381D01*
X113833333Y-91300000D01*
X113785714Y-91347619D01*
X113738095Y-91442857D01*
X113738095Y-91538095D01*
X113785714Y-91680952D01*
X114357143Y-92252381D01*
X113738095Y-92252381D01*
X121042857Y-92252381D02*
X121376191Y-91776190D01*
X121614286Y-92252381D02*
X121614286Y-91252381D01*
X121233333Y-91252381D01*
X121138095Y-91300000D01*
X121090476Y-91347619D01*
X121042857Y-91442857D01*
X121042857Y-91585714D01*
X121090476Y-91680952D01*
X121138095Y-91728571D01*
X121233333Y-91776190D01*
X121614286Y-91776190D01*
X120090476Y-92252381D02*
X120661905Y-92252381D01*
X120376191Y-92252381D02*
X120376191Y-91252381D01*
X120471429Y-91395238D01*
X120566667Y-91490476D01*
X120661905Y-91538095D01*
X119757143Y-91252381D02*
X119138095Y-91252381D01*
X119471429Y-91633333D01*
X119328571Y-91633333D01*
X119233333Y-91680952D01*
X119185714Y-91728571D01*
X119138095Y-91823810D01*
X119138095Y-92061905D01*
X119185714Y-92157143D01*
X119233333Y-92204762D01*
X119328571Y-92252381D01*
X119614286Y-92252381D01*
X119709524Y-92204762D01*
X119757143Y-92157143D01*
X107652381Y-102833334D02*
X107652381Y-102357143D01*
X106652381Y-102357143D01*
X107652381Y-103690477D02*
X107652381Y-103119048D01*
X107652381Y-103404762D02*
X106652381Y-103404762D01*
X106795238Y-103309524D01*
X106890476Y-103214286D01*
X106938095Y-103119048D01*
X107166666Y-30452381D02*
X107642857Y-30452381D01*
X107642857Y-29452381D01*
X106880952Y-29547619D02*
X106833333Y-29500000D01*
X106738095Y-29452381D01*
X106499999Y-29452381D01*
X106404761Y-29500000D01*
X106357142Y-29547619D01*
X106309523Y-29642857D01*
X106309523Y-29738095D01*
X106357142Y-29880952D01*
X106928571Y-30452381D01*
X106309523Y-30452381D01*
X106666666Y-41452381D02*
X107142857Y-41452381D01*
X107142857Y-40452381D01*
X106428571Y-40452381D02*
X105809523Y-40452381D01*
X106142857Y-40833333D01*
X105999999Y-40833333D01*
X105904761Y-40880952D01*
X105857142Y-40928571D01*
X105809523Y-41023810D01*
X105809523Y-41261905D01*
X105857142Y-41357143D01*
X105904761Y-41404762D01*
X105999999Y-41452381D01*
X106285714Y-41452381D01*
X106380952Y-41404762D01*
X106428571Y-41357143D01*
X106666666Y-63452381D02*
X107142857Y-63452381D01*
X107142857Y-62452381D01*
X105904761Y-62785714D02*
X105904761Y-63452381D01*
X106142857Y-62404762D02*
X106380952Y-63119048D01*
X105761904Y-63119048D01*
X106166666Y-74452381D02*
X106642857Y-74452381D01*
X106642857Y-73452381D01*
X105357142Y-73452381D02*
X105833333Y-73452381D01*
X105880952Y-73928571D01*
X105833333Y-73880952D01*
X105738095Y-73833333D01*
X105499999Y-73833333D01*
X105404761Y-73880952D01*
X105357142Y-73928571D01*
X105309523Y-74023810D01*
X105309523Y-74261905D01*
X105357142Y-74357143D01*
X105404761Y-74404762D01*
X105499999Y-74452381D01*
X105738095Y-74452381D01*
X105833333Y-74404762D01*
X105880952Y-74357143D01*
X106166666Y-85452381D02*
X106642857Y-85452381D01*
X106642857Y-84452381D01*
X105404761Y-84452381D02*
X105595238Y-84452381D01*
X105690476Y-84500000D01*
X105738095Y-84547619D01*
X105833333Y-84690476D01*
X105880952Y-84880952D01*
X105880952Y-85261905D01*
X105833333Y-85357143D01*
X105785714Y-85404762D01*
X105690476Y-85452381D01*
X105499999Y-85452381D01*
X105404761Y-85404762D01*
X105357142Y-85357143D01*
X105309523Y-85261905D01*
X105309523Y-85023810D01*
X105357142Y-84928571D01*
X105404761Y-84880952D01*
X105499999Y-84833333D01*
X105690476Y-84833333D01*
X105785714Y-84880952D01*
X105833333Y-84928571D01*
X105880952Y-85023810D01*
X106666666Y-52452381D02*
X107142857Y-52452381D01*
X107142857Y-51452381D01*
X106428571Y-51452381D02*
X105761904Y-51452381D01*
X106190476Y-52452381D01*
X112366666Y-19452381D02*
X112842857Y-19452381D01*
X112842857Y-18452381D01*
X111890476Y-18880952D02*
X111985714Y-18833333D01*
X112033333Y-18785714D01*
X112080952Y-18690476D01*
X112080952Y-18642857D01*
X112033333Y-18547619D01*
X111985714Y-18500000D01*
X111890476Y-18452381D01*
X111699999Y-18452381D01*
X111604761Y-18500000D01*
X111557142Y-18547619D01*
X111509523Y-18642857D01*
X111509523Y-18690476D01*
X111557142Y-18785714D01*
X111604761Y-18833333D01*
X111699999Y-18880952D01*
X111890476Y-18880952D01*
X111985714Y-18928571D01*
X112033333Y-18976190D01*
X112080952Y-19071429D01*
X112080952Y-19261905D01*
X112033333Y-19357143D01*
X111985714Y-19404762D01*
X111890476Y-19452381D01*
X111699999Y-19452381D01*
X111604761Y-19404762D01*
X111557142Y-19357143D01*
X111509523Y-19261905D01*
X111509523Y-19071429D01*
X111557142Y-18976190D01*
X111604761Y-18928571D01*
X111699999Y-18880952D01*
X167166666Y-19452381D02*
X167642857Y-19452381D01*
X167642857Y-18452381D01*
X166785714Y-19452381D02*
X166595238Y-19452381D01*
X166499999Y-19404762D01*
X166452380Y-19357143D01*
X166357142Y-19214286D01*
X166309523Y-19023810D01*
X166309523Y-18642857D01*
X166357142Y-18547619D01*
X166404761Y-18500000D01*
X166499999Y-18452381D01*
X166690476Y-18452381D01*
X166785714Y-18500000D01*
X166833333Y-18547619D01*
X166880952Y-18642857D01*
X166880952Y-18880952D01*
X166833333Y-18976190D01*
X166785714Y-19023810D01*
X166690476Y-19071429D01*
X166499999Y-19071429D01*
X166404761Y-19023810D01*
X166357142Y-18976190D01*
X166309523Y-18880952D01*
X176642857Y-30452381D02*
X177119048Y-30452381D01*
X177119048Y-29452381D01*
X175785714Y-30452381D02*
X176357143Y-30452381D01*
X176071429Y-30452381D02*
X176071429Y-29452381D01*
X176166667Y-29595238D01*
X176261905Y-29690476D01*
X176357143Y-29738095D01*
X175166667Y-29452381D02*
X175071428Y-29452381D01*
X174976190Y-29500000D01*
X174928571Y-29547619D01*
X174880952Y-29642857D01*
X174833333Y-29833333D01*
X174833333Y-30071429D01*
X174880952Y-30261905D01*
X174928571Y-30357143D01*
X174976190Y-30404762D01*
X175071428Y-30452381D01*
X175166667Y-30452381D01*
X175261905Y-30404762D01*
X175309524Y-30357143D01*
X175357143Y-30261905D01*
X175404762Y-30071429D01*
X175404762Y-29833333D01*
X175357143Y-29642857D01*
X175309524Y-29547619D01*
X175261905Y-29500000D01*
X175166667Y-29452381D01*
X177642857Y-41452381D02*
X178119048Y-41452381D01*
X178119048Y-40452381D01*
X176785714Y-41452381D02*
X177357143Y-41452381D01*
X177071429Y-41452381D02*
X177071429Y-40452381D01*
X177166667Y-40595238D01*
X177261905Y-40690476D01*
X177357143Y-40738095D01*
X175833333Y-41452381D02*
X176404762Y-41452381D01*
X176119048Y-41452381D02*
X176119048Y-40452381D01*
X176214286Y-40595238D01*
X176309524Y-40690476D01*
X176404762Y-40738095D01*
X179142857Y-63452381D02*
X179619048Y-63452381D01*
X179619048Y-62452381D01*
X178285714Y-63452381D02*
X178857143Y-63452381D01*
X178571429Y-63452381D02*
X178571429Y-62452381D01*
X178666667Y-62595238D01*
X178761905Y-62690476D01*
X178857143Y-62738095D01*
X177904762Y-62547619D02*
X177857143Y-62500000D01*
X177761905Y-62452381D01*
X177523809Y-62452381D01*
X177428571Y-62500000D01*
X177380952Y-62547619D01*
X177333333Y-62642857D01*
X177333333Y-62738095D01*
X177380952Y-62880952D01*
X177952381Y-63452381D01*
X177333333Y-63452381D01*
X179642857Y-74452381D02*
X180119048Y-74452381D01*
X180119048Y-73452381D01*
X178785714Y-74452381D02*
X179357143Y-74452381D01*
X179071429Y-74452381D02*
X179071429Y-73452381D01*
X179166667Y-73595238D01*
X179261905Y-73690476D01*
X179357143Y-73738095D01*
X178452381Y-73452381D02*
X177833333Y-73452381D01*
X178166667Y-73833333D01*
X178023809Y-73833333D01*
X177928571Y-73880952D01*
X177880952Y-73928571D01*
X177833333Y-74023810D01*
X177833333Y-74261905D01*
X177880952Y-74357143D01*
X177928571Y-74404762D01*
X178023809Y-74452381D01*
X178309524Y-74452381D01*
X178404762Y-74404762D01*
X178452381Y-74357143D01*
X177642857Y-84952381D02*
X178119048Y-84952381D01*
X178119048Y-83952381D01*
X176785714Y-84952381D02*
X177357143Y-84952381D01*
X177071429Y-84952381D02*
X177071429Y-83952381D01*
X177166667Y-84095238D01*
X177261905Y-84190476D01*
X177357143Y-84238095D01*
X175928571Y-84285714D02*
X175928571Y-84952381D01*
X176166667Y-83904762D02*
X176404762Y-84619048D01*
X175785714Y-84619048D01*
X179142857Y-52952381D02*
X179619048Y-52952381D01*
X179619048Y-51952381D01*
X178285714Y-52952381D02*
X178857143Y-52952381D01*
X178571429Y-52952381D02*
X178571429Y-51952381D01*
X178666667Y-52095238D01*
X178761905Y-52190476D01*
X178857143Y-52238095D01*
X177380952Y-51952381D02*
X177857143Y-51952381D01*
X177904762Y-52428571D01*
X177857143Y-52380952D01*
X177761905Y-52333333D01*
X177523809Y-52333333D01*
X177428571Y-52380952D01*
X177380952Y-52428571D01*
X177333333Y-52523810D01*
X177333333Y-52761905D01*
X177380952Y-52857143D01*
X177428571Y-52904762D01*
X177523809Y-52952381D01*
X177761905Y-52952381D01*
X177857143Y-52904762D01*
X177904762Y-52857143D01*
X118452381Y-102157143D02*
X118452381Y-101680952D01*
X117452381Y-101680952D01*
X118452381Y-103014286D02*
X118452381Y-102442857D01*
X118452381Y-102728571D02*
X117452381Y-102728571D01*
X117595238Y-102633333D01*
X117690476Y-102538095D01*
X117738095Y-102442857D01*
X117452381Y-103871429D02*
X117452381Y-103680952D01*
X117500000Y-103585714D01*
X117547619Y-103538095D01*
X117690476Y-103442857D01*
X117880952Y-103395238D01*
X118261905Y-103395238D01*
X118357143Y-103442857D01*
X118404762Y-103490476D01*
X118452381Y-103585714D01*
X118452381Y-103776191D01*
X118404762Y-103871429D01*
X118357143Y-103919048D01*
X118261905Y-103966667D01*
X118023810Y-103966667D01*
X117928571Y-103919048D01*
X117880952Y-103871429D01*
X117833333Y-103776191D01*
X117833333Y-103585714D01*
X117880952Y-103490476D01*
X117928571Y-103442857D01*
X118023810Y-103395238D01*
X135207143Y-85333334D02*
X135254762Y-85285715D01*
X135302381Y-85142858D01*
X135302381Y-85047620D01*
X135254762Y-84904762D01*
X135159524Y-84809524D01*
X135064286Y-84761905D01*
X134873810Y-84714286D01*
X134730952Y-84714286D01*
X134540476Y-84761905D01*
X134445238Y-84809524D01*
X134350000Y-84904762D01*
X134302381Y-85047620D01*
X134302381Y-85142858D01*
X134350000Y-85285715D01*
X134397619Y-85333334D01*
X135302381Y-85809524D02*
X135302381Y-86000000D01*
X135254762Y-86095239D01*
X135207143Y-86142858D01*
X135064286Y-86238096D01*
X134873810Y-86285715D01*
X134492857Y-86285715D01*
X134397619Y-86238096D01*
X134350000Y-86190477D01*
X134302381Y-86095239D01*
X134302381Y-85904762D01*
X134350000Y-85809524D01*
X134397619Y-85761905D01*
X134492857Y-85714286D01*
X134730952Y-85714286D01*
X134826190Y-85761905D01*
X134873810Y-85809524D01*
X134921429Y-85904762D01*
X134921429Y-86095239D01*
X134873810Y-86190477D01*
X134826190Y-86238096D01*
X134730952Y-86285715D01*
M02*
