G04 #@! TF.FileFunction,Soldermask,Top*
%FSLAX46Y46*%
G04 Gerber Fmt 4.6, Leading zero omitted, Abs format (unit mm)*
G04 Created by KiCad (PCBNEW 4.0.7) date 01/14/18 17:14:03*
%MOMM*%
%LPD*%
G01*
G04 APERTURE LIST*
%ADD10C,0.100000*%
%ADD11R,1.900000X1.650000*%
%ADD12C,4.900000*%
%ADD13R,2.400000X2.000000*%
%ADD14R,2.000000X2.400000*%
%ADD15R,1.400000X2.000000*%
%ADD16C,7.400000*%
%ADD17R,1.650000X1.900000*%
%ADD18R,1.300000X1.200000*%
%ADD19C,2.600000*%
%ADD20C,2.400000*%
%ADD21C,2.200000*%
%ADD22R,2.127200X2.127200*%
%ADD23O,2.127200X2.127200*%
%ADD24R,3.600000X2.900000*%
%ADD25R,1.700000X1.900000*%
%ADD26R,1.900000X1.700000*%
%ADD27R,1.400000X2.900000*%
%ADD28R,2.400000X4.400000*%
%ADD29R,2.400000X4.200000*%
%ADD30R,2.400000X1.900000*%
%ADD31R,1.800000X4.400000*%
%ADD32R,1.900000X4.400000*%
%ADD33C,0.254000*%
G04 APERTURE END LIST*
D10*
D11*
X175350000Y-36000000D03*
X177850000Y-36000000D03*
D12*
X138960000Y-40730000D03*
X144040000Y-44540000D03*
D13*
X141000000Y-24000000D03*
X137000000Y-24000000D03*
D14*
X168000000Y-43500000D03*
X168000000Y-39500000D03*
D12*
X154460000Y-27730000D03*
X159540000Y-31540000D03*
D11*
X158750000Y-21500000D03*
X156250000Y-21500000D03*
X111450000Y-69000000D03*
X108950000Y-69000000D03*
X172250000Y-57500000D03*
X169750000Y-57500000D03*
X172250000Y-68500000D03*
X169750000Y-68500000D03*
X172250000Y-79000000D03*
X169750000Y-79000000D03*
D10*
G36*
X172972271Y-88361002D02*
X174138998Y-89527729D01*
X172795495Y-90871232D01*
X171628768Y-89704505D01*
X172972271Y-88361002D01*
X172972271Y-88361002D01*
G37*
G36*
X171204505Y-90128768D02*
X172371232Y-91295495D01*
X171027729Y-92638998D01*
X169861002Y-91472271D01*
X171204505Y-90128768D01*
X171204505Y-90128768D01*
G37*
D11*
X170250000Y-35000000D03*
X172750000Y-35000000D03*
X105150000Y-90000000D03*
X107650000Y-90000000D03*
X104350000Y-35200000D03*
X106850000Y-35200000D03*
X104350000Y-46000000D03*
X106850000Y-46000000D03*
X104350000Y-57000000D03*
X106850000Y-57000000D03*
X104150000Y-68200000D03*
X106650000Y-68200000D03*
X104150000Y-79000000D03*
X106650000Y-79000000D03*
X122450000Y-21600000D03*
X119950000Y-21600000D03*
X171750000Y-24600000D03*
X174250000Y-24600000D03*
X178350000Y-47600000D03*
X180850000Y-47600000D03*
X175350000Y-58000000D03*
X177850000Y-58000000D03*
X175350000Y-69000000D03*
X177850000Y-69000000D03*
X158450000Y-16600000D03*
X155950000Y-16600000D03*
X175350000Y-79400000D03*
X177850000Y-79400000D03*
X111750000Y-58000000D03*
X109250000Y-58000000D03*
X111750000Y-47000000D03*
X109250000Y-47000000D03*
X111850000Y-80000000D03*
X109350000Y-80000000D03*
X171950000Y-45800000D03*
X174450000Y-45800000D03*
X109250000Y-24500000D03*
X106750000Y-24500000D03*
X119750000Y-16500000D03*
X122250000Y-16500000D03*
X111750000Y-36000000D03*
X109250000Y-36000000D03*
D15*
X150500000Y-95000000D03*
X147500000Y-95000000D03*
D16*
X95000000Y-17500000D03*
X185000000Y-107500000D03*
D17*
X111500000Y-108000000D03*
X111500000Y-105500000D03*
X113250000Y-108000000D03*
X113250000Y-105500000D03*
X122750000Y-108000000D03*
X122750000Y-105500000D03*
D14*
X114500000Y-37500000D03*
X114500000Y-41500000D03*
X114500000Y-49500000D03*
X114500000Y-53500000D03*
X114500000Y-60500000D03*
X114500000Y-64500000D03*
X114500000Y-70500000D03*
X114500000Y-74500000D03*
D13*
X123000000Y-34000000D03*
X119000000Y-34000000D03*
X129000000Y-34000000D03*
X133000000Y-34000000D03*
X128500000Y-47000000D03*
X132500000Y-47000000D03*
X129000000Y-57500000D03*
X133000000Y-57500000D03*
X122500000Y-68500000D03*
X118500000Y-68500000D03*
X123000000Y-79500000D03*
X119000000Y-79500000D03*
X123000000Y-36500000D03*
X119000000Y-36500000D03*
X122500000Y-47000000D03*
X118500000Y-47000000D03*
X122000000Y-57500000D03*
X118000000Y-57500000D03*
X130000000Y-23750000D03*
X126000000Y-23750000D03*
X129000000Y-36500000D03*
X133000000Y-36500000D03*
D14*
X133500000Y-44000000D03*
X133500000Y-40000000D03*
X131000000Y-44000000D03*
X131000000Y-40000000D03*
X133500000Y-54500000D03*
X133500000Y-50500000D03*
X131000000Y-54500000D03*
X131000000Y-50500000D03*
X132500000Y-65500000D03*
X132500000Y-61500000D03*
X132500000Y-75500000D03*
X132500000Y-71500000D03*
D13*
X139500000Y-34000000D03*
X135500000Y-34000000D03*
X147000000Y-57500000D03*
X151000000Y-57500000D03*
X141000000Y-68500000D03*
X137000000Y-68500000D03*
X141500000Y-79500000D03*
X137500000Y-79500000D03*
X141000000Y-47000000D03*
X137000000Y-47000000D03*
X146000000Y-34000000D03*
X150000000Y-34000000D03*
X141000000Y-57500000D03*
X137000000Y-57500000D03*
X147000000Y-68500000D03*
X151000000Y-68500000D03*
X146500000Y-79500000D03*
X150500000Y-79500000D03*
X151000000Y-24000000D03*
X147000000Y-24000000D03*
D14*
X151000000Y-44000000D03*
X151000000Y-40000000D03*
X152000000Y-54500000D03*
X152000000Y-50500000D03*
X149500000Y-54500000D03*
X149500000Y-50500000D03*
X149500000Y-65500000D03*
X149500000Y-61500000D03*
X152000000Y-65500000D03*
X152000000Y-61500000D03*
X149500000Y-76500000D03*
X149500000Y-72500000D03*
X152000000Y-76500000D03*
X152000000Y-72500000D03*
D13*
X162500000Y-34000000D03*
X166500000Y-34000000D03*
X165500000Y-47500000D03*
X169500000Y-47500000D03*
X159500000Y-58000000D03*
X155500000Y-58000000D03*
X159500000Y-68500000D03*
X155500000Y-68500000D03*
X160000000Y-79500000D03*
X156000000Y-79500000D03*
X156500000Y-34000000D03*
X152500000Y-34000000D03*
X159500000Y-47500000D03*
X155500000Y-47500000D03*
D14*
X167500000Y-30500000D03*
X167500000Y-26500000D03*
X165000000Y-30500000D03*
X165000000Y-26500000D03*
X170500000Y-54500000D03*
X170500000Y-50500000D03*
X168000000Y-54500000D03*
X168000000Y-50500000D03*
X169500000Y-65000000D03*
X169500000Y-61000000D03*
X169500000Y-76000000D03*
X169500000Y-72000000D03*
X115000000Y-26000000D03*
X115000000Y-30000000D03*
D18*
X124000000Y-97800000D03*
X124000000Y-95700000D03*
X124000000Y-94300000D03*
X124000000Y-92200000D03*
X126250000Y-95700000D03*
X126250000Y-97800000D03*
X126250000Y-92200000D03*
X126250000Y-94300000D03*
D19*
X126960000Y-107540000D03*
X126960000Y-102460000D03*
X132040000Y-102460000D03*
X132040000Y-107540000D03*
D20*
X129500000Y-105000000D03*
D12*
X120960000Y-27730000D03*
X126040000Y-31540000D03*
X120460000Y-40730000D03*
X125540000Y-44540000D03*
X120460000Y-51230000D03*
X125540000Y-55040000D03*
X120460000Y-62230000D03*
X125540000Y-66040000D03*
X120460000Y-72730000D03*
X125540000Y-76540000D03*
X137460000Y-27730000D03*
X142540000Y-31540000D03*
X138960000Y-51230000D03*
X144040000Y-55040000D03*
X138960000Y-62230000D03*
X144040000Y-66040000D03*
X138960000Y-72730000D03*
X144040000Y-76540000D03*
X157460000Y-41230000D03*
X162540000Y-45040000D03*
X157460000Y-51730000D03*
X162540000Y-55540000D03*
X157460000Y-62230000D03*
X162540000Y-66040000D03*
X157460000Y-72730000D03*
X162540000Y-76540000D03*
D16*
X95000000Y-107500000D03*
X185000000Y-17500000D03*
D19*
X167460000Y-107540000D03*
X167460000Y-102460000D03*
X172540000Y-102460000D03*
X172540000Y-107540000D03*
D20*
X170000000Y-105000000D03*
D21*
X109540000Y-108000000D03*
X104460000Y-108000000D03*
X109540000Y-97840000D03*
X109540000Y-102920000D03*
X109540000Y-100400000D03*
X104460000Y-97840000D03*
X104460000Y-102920000D03*
X104460000Y-100380000D03*
X120540000Y-108000000D03*
X115460000Y-108000000D03*
X120540000Y-97840000D03*
X120540000Y-102920000D03*
X120540000Y-100400000D03*
X115460000Y-97840000D03*
X115460000Y-102920000D03*
X115460000Y-100380000D03*
X112000000Y-27460000D03*
X112000000Y-32540000D03*
X101840000Y-27460000D03*
X106920000Y-27460000D03*
X104400000Y-27460000D03*
X101840000Y-32540000D03*
X106920000Y-32540000D03*
X104380000Y-32540000D03*
X111500000Y-38460000D03*
X111500000Y-43540000D03*
X101340000Y-38460000D03*
X106420000Y-38460000D03*
X103900000Y-38460000D03*
X101340000Y-43540000D03*
X106420000Y-43540000D03*
X103880000Y-43540000D03*
X111500000Y-49460000D03*
X111500000Y-54540000D03*
X101340000Y-49460000D03*
X106420000Y-49460000D03*
X103900000Y-49460000D03*
X101340000Y-54540000D03*
X106420000Y-54540000D03*
X103880000Y-54540000D03*
X111500000Y-60460000D03*
X111500000Y-65540000D03*
X101340000Y-60460000D03*
X106420000Y-60460000D03*
X103900000Y-60460000D03*
X101340000Y-65540000D03*
X106420000Y-65540000D03*
X103880000Y-65540000D03*
X111500000Y-71460000D03*
X111500000Y-76540000D03*
X101340000Y-71460000D03*
X106420000Y-71460000D03*
X103900000Y-71460000D03*
X101340000Y-76540000D03*
X106420000Y-76540000D03*
X103880000Y-76540000D03*
X111500000Y-82460000D03*
X111500000Y-87540000D03*
X101340000Y-82460000D03*
X106420000Y-82460000D03*
X103900000Y-82460000D03*
X101340000Y-87540000D03*
X106420000Y-87540000D03*
X103880000Y-87540000D03*
X117000000Y-16460000D03*
X117000000Y-21540000D03*
X106840000Y-16460000D03*
X111920000Y-16460000D03*
X109400000Y-16460000D03*
X106840000Y-21540000D03*
X111920000Y-21540000D03*
X109380000Y-21540000D03*
X170500000Y-32540000D03*
X170500000Y-27460000D03*
X180660000Y-32540000D03*
X175580000Y-32540000D03*
X178100000Y-32540000D03*
X180660000Y-27460000D03*
X175580000Y-27460000D03*
X178120000Y-27460000D03*
X171500000Y-43540000D03*
X171500000Y-38460000D03*
X181660000Y-43540000D03*
X176580000Y-43540000D03*
X179100000Y-43540000D03*
X181660000Y-38460000D03*
X176580000Y-38460000D03*
X179120000Y-38460000D03*
X173000000Y-55040000D03*
X173000000Y-49960000D03*
X183160000Y-55040000D03*
X178080000Y-55040000D03*
X180600000Y-55040000D03*
X183160000Y-49960000D03*
X178080000Y-49960000D03*
X180620000Y-49960000D03*
X173000000Y-65540000D03*
X173000000Y-60460000D03*
X183160000Y-65540000D03*
X178080000Y-65540000D03*
X180600000Y-65540000D03*
X183160000Y-60460000D03*
X178080000Y-60460000D03*
X180620000Y-60460000D03*
X173000000Y-76540000D03*
X173000000Y-71460000D03*
X183160000Y-76540000D03*
X178080000Y-76540000D03*
X180600000Y-76540000D03*
X183160000Y-71460000D03*
X178080000Y-71460000D03*
X180620000Y-71460000D03*
X173000000Y-87040000D03*
X173000000Y-81960000D03*
X183160000Y-87040000D03*
X178080000Y-87040000D03*
X180600000Y-87040000D03*
X183160000Y-81960000D03*
X178080000Y-81960000D03*
X180620000Y-81960000D03*
X162000000Y-21540000D03*
X162000000Y-16460000D03*
X172160000Y-21540000D03*
X167080000Y-21540000D03*
X169600000Y-21540000D03*
X172160000Y-16460000D03*
X167080000Y-16460000D03*
X169620000Y-16460000D03*
D22*
X156000000Y-100000000D03*
D23*
X156000000Y-102540000D03*
X153460000Y-100000000D03*
X153460000Y-102540000D03*
X150920000Y-100000000D03*
X150920000Y-102540000D03*
X148380000Y-100000000D03*
X148380000Y-102540000D03*
X145840000Y-100000000D03*
X145840000Y-102540000D03*
X143300000Y-100000000D03*
X143300000Y-102540000D03*
D11*
X148250000Y-84500000D03*
X145750000Y-84500000D03*
X142750000Y-90500000D03*
X145250000Y-90500000D03*
X142750000Y-92500000D03*
X145250000Y-92500000D03*
X142750000Y-94500000D03*
X145250000Y-94500000D03*
X157250000Y-84500000D03*
X154750000Y-84500000D03*
D17*
X125500000Y-87750000D03*
X125500000Y-90250000D03*
D11*
X161750000Y-84500000D03*
X159250000Y-84500000D03*
D17*
X123500000Y-87750000D03*
X123500000Y-90250000D03*
D24*
X115350000Y-89500000D03*
X119650000Y-89500000D03*
D11*
X166250000Y-84500000D03*
X163750000Y-84500000D03*
X170750000Y-84500000D03*
X168250000Y-84500000D03*
D25*
X159000000Y-86650000D03*
X159000000Y-89350000D03*
X164000000Y-86650000D03*
X164000000Y-89350000D03*
X168250000Y-86650000D03*
X168250000Y-89350000D03*
D26*
X145350000Y-86500000D03*
X142650000Y-86500000D03*
X137450000Y-90800000D03*
X140150000Y-90800000D03*
D27*
X153000000Y-85020000D03*
X151500000Y-85020000D03*
X150000000Y-85020000D03*
D28*
X151500000Y-88980000D03*
D10*
G36*
X150300000Y-87205000D02*
X150800000Y-86055000D01*
X152200000Y-86055000D01*
X152700000Y-87205000D01*
X150300000Y-87205000D01*
X150300000Y-87205000D01*
G37*
D26*
X148350000Y-88500000D03*
X145650000Y-88500000D03*
D29*
X134650000Y-88000000D03*
D30*
X128350000Y-88000000D03*
X128350000Y-90300000D03*
X128350000Y-85700000D03*
D31*
X170000000Y-110500000D03*
D32*
X172540000Y-110500000D03*
X167460000Y-110500000D03*
D31*
X129500000Y-110500000D03*
D32*
X132040000Y-110500000D03*
X126960000Y-110500000D03*
D29*
X128350000Y-95500000D03*
D30*
X134650000Y-95500000D03*
X134650000Y-93200000D03*
X134650000Y-97800000D03*
D33*
G36*
X189873000Y-112373000D02*
X90127000Y-112373000D01*
X90127000Y-15000000D01*
X92373000Y-15000000D01*
X92373000Y-110000000D01*
X92383006Y-110049410D01*
X92411447Y-110091035D01*
X92453841Y-110118315D01*
X92500000Y-110127000D01*
X187500000Y-110127000D01*
X187549410Y-110116994D01*
X187591035Y-110088553D01*
X187618315Y-110046159D01*
X187627000Y-110000000D01*
X187627000Y-15000000D01*
X187616994Y-14950590D01*
X187588553Y-14908965D01*
X187546159Y-14881685D01*
X187500000Y-14873000D01*
X92500000Y-14873000D01*
X92450590Y-14883006D01*
X92408965Y-14911447D01*
X92381685Y-14953841D01*
X92373000Y-15000000D01*
X90127000Y-15000000D01*
X90127000Y-12627000D01*
X189873000Y-12627000D01*
X189873000Y-112373000D01*
X189873000Y-112373000D01*
G37*
X189873000Y-112373000D02*
X90127000Y-112373000D01*
X90127000Y-15000000D01*
X92373000Y-15000000D01*
X92373000Y-110000000D01*
X92383006Y-110049410D01*
X92411447Y-110091035D01*
X92453841Y-110118315D01*
X92500000Y-110127000D01*
X187500000Y-110127000D01*
X187549410Y-110116994D01*
X187591035Y-110088553D01*
X187618315Y-110046159D01*
X187627000Y-110000000D01*
X187627000Y-15000000D01*
X187616994Y-14950590D01*
X187588553Y-14908965D01*
X187546159Y-14881685D01*
X187500000Y-14873000D01*
X92500000Y-14873000D01*
X92450590Y-14883006D01*
X92408965Y-14911447D01*
X92381685Y-14953841D01*
X92373000Y-15000000D01*
X90127000Y-15000000D01*
X90127000Y-12627000D01*
X189873000Y-12627000D01*
X189873000Y-112373000D01*
M02*
