G04 #@! TF.GenerationSoftware,KiCad,Pcbnew,(5.0.2)-1*
G04 #@! TF.CreationDate,2019-03-14T15:44:50+01:00*
G04 #@! TF.ProjectId,HPF,4850462e-6b69-4636-9164-5f7063625858,rev?*
G04 #@! TF.SameCoordinates,Original*
G04 #@! TF.FileFunction,Soldermask,Bot*
G04 #@! TF.FilePolarity,Negative*
%FSLAX46Y46*%
G04 Gerber Fmt 4.6, Leading zero omitted, Abs format (unit mm)*
G04 Created by KiCad (PCBNEW (5.0.2)-1) date 14/03/2019 15:44:50*
%MOMM*%
%LPD*%
G01*
G04 APERTURE LIST*
%ADD10C,0.150000*%
%ADD11C,0.100000*%
G04 APERTURE END LIST*
D10*
X190000000Y-112500000D02*
X90000000Y-112500000D01*
X190000000Y-12500000D02*
X190000000Y-112500000D01*
X90000000Y-12500000D02*
X190000000Y-12500000D01*
X90000000Y-112500000D02*
X90000000Y-12500000D01*
D11*
G36*
X190000000Y-112500000D02*
X90000000Y-112500000D01*
X90000000Y-20513365D01*
X92500000Y-20513365D01*
X92500000Y-104486635D01*
X92502402Y-104511021D01*
X92509515Y-104534470D01*
X92521066Y-104556081D01*
X92536612Y-104575023D01*
X92555554Y-104590569D01*
X92577165Y-104602120D01*
X92600614Y-104609233D01*
X92625000Y-104611635D01*
X92649386Y-104609233D01*
X92672835Y-104602120D01*
X92694446Y-104590569D01*
X93063134Y-104344220D01*
X93247393Y-104221102D01*
X93526307Y-104105572D01*
X93920751Y-103942188D01*
X94635580Y-103800000D01*
X95364420Y-103800000D01*
X96079249Y-103942188D01*
X96473693Y-104105572D01*
X96752607Y-104221102D01*
X97290939Y-104580804D01*
X97358616Y-104626024D01*
X97873976Y-105141384D01*
X97873978Y-105141387D01*
X98278898Y-105747393D01*
X98296010Y-105788705D01*
X98557812Y-106420751D01*
X98700000Y-107135580D01*
X98700000Y-107864420D01*
X98557812Y-108579249D01*
X98394428Y-108973693D01*
X98278898Y-109252607D01*
X98164230Y-109424220D01*
X97909431Y-109805554D01*
X97897880Y-109827165D01*
X97890767Y-109850614D01*
X97888365Y-109875000D01*
X97890767Y-109899386D01*
X97897880Y-109922836D01*
X97909431Y-109944446D01*
X97924977Y-109963388D01*
X97943919Y-109978934D01*
X97965530Y-109990485D01*
X97988979Y-109997598D01*
X98013365Y-110000000D01*
X103675000Y-110000000D01*
X103699386Y-109997598D01*
X103722835Y-109990485D01*
X103744446Y-109978934D01*
X103763388Y-109963388D01*
X103778934Y-109944446D01*
X103790485Y-109922835D01*
X103797598Y-109899386D01*
X103800000Y-109875000D01*
X103800000Y-109675000D01*
X105700000Y-109675000D01*
X105700000Y-109875000D01*
X105702402Y-109899386D01*
X105709515Y-109922835D01*
X105721066Y-109944446D01*
X105736612Y-109963388D01*
X105755554Y-109978934D01*
X105777165Y-109990485D01*
X105800614Y-109997598D01*
X105825000Y-110000000D01*
X106175000Y-110000000D01*
X106199386Y-109997598D01*
X106222835Y-109990485D01*
X106244446Y-109978934D01*
X106263388Y-109963388D01*
X106278934Y-109944446D01*
X106290485Y-109922835D01*
X106297598Y-109899386D01*
X106300000Y-109875000D01*
X106300000Y-109675000D01*
X108200000Y-109675000D01*
X108200000Y-109875000D01*
X108202402Y-109899386D01*
X108209515Y-109922835D01*
X108221066Y-109944446D01*
X108236612Y-109963388D01*
X108255554Y-109978934D01*
X108277165Y-109990485D01*
X108300614Y-109997598D01*
X108325000Y-110000000D01*
X125539903Y-110000000D01*
X125564289Y-109997598D01*
X125587738Y-109990485D01*
X125609349Y-109978934D01*
X125628291Y-109963388D01*
X125643837Y-109944446D01*
X125655388Y-109922835D01*
X125662501Y-109899386D01*
X125709958Y-109660805D01*
X125807954Y-109424220D01*
X125950226Y-109211295D01*
X126131295Y-109030226D01*
X126344220Y-108887954D01*
X126580804Y-108789958D01*
X126831960Y-108740000D01*
X127088040Y-108740000D01*
X127339196Y-108789958D01*
X127575780Y-108887954D01*
X127788705Y-109030226D01*
X127969774Y-109211295D01*
X128112046Y-109424220D01*
X128210042Y-109660805D01*
X128257499Y-109899386D01*
X128264612Y-109922836D01*
X128276163Y-109944446D01*
X128291709Y-109963388D01*
X128310651Y-109978934D01*
X128332262Y-109990485D01*
X128355711Y-109997598D01*
X128380097Y-110000000D01*
X130619903Y-110000000D01*
X130644289Y-109997598D01*
X130667738Y-109990485D01*
X130689349Y-109978934D01*
X130708291Y-109963388D01*
X130723837Y-109944446D01*
X130735388Y-109922835D01*
X130742501Y-109899386D01*
X130789958Y-109660805D01*
X130887954Y-109424220D01*
X131030226Y-109211295D01*
X131211295Y-109030226D01*
X131424220Y-108887954D01*
X131660804Y-108789958D01*
X131911960Y-108740000D01*
X132168040Y-108740000D01*
X132419196Y-108789958D01*
X132655780Y-108887954D01*
X132868705Y-109030226D01*
X133049774Y-109211295D01*
X133192046Y-109424220D01*
X133290042Y-109660805D01*
X133337499Y-109899386D01*
X133344612Y-109922836D01*
X133356163Y-109944446D01*
X133371709Y-109963388D01*
X133390651Y-109978934D01*
X133412262Y-109990485D01*
X133435711Y-109997598D01*
X133460097Y-110000000D01*
X166039903Y-110000000D01*
X166064289Y-109997598D01*
X166087738Y-109990485D01*
X166109349Y-109978934D01*
X166128291Y-109963388D01*
X166143837Y-109944446D01*
X166155388Y-109922835D01*
X166162501Y-109899386D01*
X166209958Y-109660805D01*
X166307954Y-109424220D01*
X166450226Y-109211295D01*
X166631295Y-109030226D01*
X166844220Y-108887954D01*
X167080804Y-108789958D01*
X167331960Y-108740000D01*
X167588040Y-108740000D01*
X167839196Y-108789958D01*
X168075780Y-108887954D01*
X168288705Y-109030226D01*
X168469774Y-109211295D01*
X168612046Y-109424220D01*
X168710042Y-109660805D01*
X168757499Y-109899386D01*
X168764612Y-109922836D01*
X168776163Y-109944446D01*
X168791709Y-109963388D01*
X168810651Y-109978934D01*
X168832262Y-109990485D01*
X168855711Y-109997598D01*
X168880097Y-110000000D01*
X171119903Y-110000000D01*
X171144289Y-109997598D01*
X171167738Y-109990485D01*
X171189349Y-109978934D01*
X171208291Y-109963388D01*
X171223837Y-109944446D01*
X171235388Y-109922835D01*
X171242501Y-109899386D01*
X171289958Y-109660805D01*
X171387954Y-109424220D01*
X171530226Y-109211295D01*
X171711295Y-109030226D01*
X171924220Y-108887954D01*
X172160804Y-108789958D01*
X172411960Y-108740000D01*
X172668040Y-108740000D01*
X172919196Y-108789958D01*
X173155780Y-108887954D01*
X173368705Y-109030226D01*
X173549774Y-109211295D01*
X173692046Y-109424220D01*
X173790042Y-109660805D01*
X173837499Y-109899386D01*
X173844612Y-109922836D01*
X173856163Y-109944446D01*
X173871709Y-109963388D01*
X173890651Y-109978934D01*
X173912262Y-109990485D01*
X173935711Y-109997598D01*
X173960097Y-110000000D01*
X181986635Y-110000000D01*
X182011021Y-109997598D01*
X182034470Y-109990485D01*
X182056081Y-109978934D01*
X182075023Y-109963388D01*
X182090569Y-109944446D01*
X182102120Y-109922835D01*
X182109233Y-109899386D01*
X182111635Y-109875000D01*
X182109233Y-109850614D01*
X182102120Y-109827165D01*
X182090569Y-109805554D01*
X181835770Y-109424220D01*
X181721102Y-109252607D01*
X181605572Y-108973693D01*
X181442188Y-108579249D01*
X181300000Y-107864420D01*
X181300000Y-107135580D01*
X181442188Y-106420751D01*
X181703990Y-105788705D01*
X181721102Y-105747393D01*
X182126022Y-105141387D01*
X182126024Y-105141384D01*
X182641384Y-104626024D01*
X182709061Y-104580804D01*
X183247393Y-104221102D01*
X183526307Y-104105572D01*
X183920751Y-103942188D01*
X184635580Y-103800000D01*
X185364420Y-103800000D01*
X186079249Y-103942188D01*
X186473693Y-104105572D01*
X186752607Y-104221102D01*
X186936866Y-104344220D01*
X187305554Y-104590569D01*
X187327165Y-104602120D01*
X187350614Y-104609233D01*
X187375000Y-104611635D01*
X187399386Y-104609233D01*
X187422836Y-104602120D01*
X187444446Y-104590569D01*
X187463388Y-104575023D01*
X187478934Y-104556081D01*
X187490485Y-104534470D01*
X187497598Y-104511021D01*
X187500000Y-104486635D01*
X187500000Y-20513365D01*
X187497598Y-20488979D01*
X187490485Y-20465530D01*
X187478934Y-20443919D01*
X187463388Y-20424977D01*
X187444446Y-20409431D01*
X187422835Y-20397880D01*
X187399386Y-20390767D01*
X187375000Y-20388365D01*
X187350614Y-20390767D01*
X187327165Y-20397880D01*
X187305554Y-20409431D01*
X186752607Y-20778898D01*
X186608012Y-20838791D01*
X186079249Y-21057812D01*
X185364420Y-21200000D01*
X184635580Y-21200000D01*
X183920751Y-21057812D01*
X183391988Y-20838791D01*
X183247393Y-20778898D01*
X182641387Y-20373978D01*
X182641384Y-20373976D01*
X182126024Y-19858616D01*
X182120267Y-19850000D01*
X181721102Y-19252607D01*
X181605572Y-18973693D01*
X181442188Y-18579249D01*
X181300000Y-17864420D01*
X181300000Y-17135580D01*
X181442188Y-16420751D01*
X181716381Y-15758791D01*
X181721102Y-15747393D01*
X182090569Y-15194446D01*
X182102120Y-15172835D01*
X182109233Y-15149386D01*
X182111635Y-15125000D01*
X182109233Y-15100614D01*
X182102120Y-15077164D01*
X182090569Y-15055554D01*
X182075023Y-15036612D01*
X182056081Y-15021066D01*
X182034470Y-15009515D01*
X182011021Y-15002402D01*
X181986635Y-15000000D01*
X98013365Y-15000000D01*
X97988979Y-15002402D01*
X97965530Y-15009515D01*
X97943919Y-15021066D01*
X97924977Y-15036612D01*
X97909431Y-15055554D01*
X97897880Y-15077165D01*
X97890767Y-15100614D01*
X97888365Y-15125000D01*
X97890767Y-15149386D01*
X97897880Y-15172835D01*
X97909431Y-15194446D01*
X98278898Y-15747393D01*
X98283619Y-15758791D01*
X98557812Y-16420751D01*
X98700000Y-17135580D01*
X98700000Y-17864420D01*
X98557812Y-18579249D01*
X98394428Y-18973693D01*
X98278898Y-19252607D01*
X97879733Y-19850000D01*
X97873976Y-19858616D01*
X97358616Y-20373976D01*
X97358613Y-20373978D01*
X96752607Y-20778898D01*
X96608012Y-20838791D01*
X96079249Y-21057812D01*
X95364420Y-21200000D01*
X94635580Y-21200000D01*
X93920751Y-21057812D01*
X93391988Y-20838791D01*
X93247393Y-20778898D01*
X92694446Y-20409431D01*
X92672835Y-20397880D01*
X92649386Y-20390767D01*
X92625000Y-20388365D01*
X92600614Y-20390767D01*
X92577164Y-20397880D01*
X92555554Y-20409431D01*
X92536612Y-20424977D01*
X92521066Y-20443919D01*
X92509515Y-20465530D01*
X92502402Y-20488979D01*
X92500000Y-20513365D01*
X90000000Y-20513365D01*
X90000000Y-12500000D01*
X190000000Y-12500000D01*
X190000000Y-112500000D01*
X190000000Y-112500000D01*
G37*
G36*
X120860857Y-106942272D02*
X121061042Y-107025191D01*
X121241213Y-107145578D01*
X121394422Y-107298787D01*
X121394424Y-107298790D01*
X121394425Y-107298791D01*
X121514807Y-107478955D01*
X121514809Y-107478958D01*
X121597728Y-107679143D01*
X121640000Y-107891658D01*
X121640000Y-108108342D01*
X121597728Y-108320857D01*
X121514809Y-108521042D01*
X121514807Y-108521045D01*
X121426047Y-108653884D01*
X121394422Y-108701213D01*
X121241213Y-108854422D01*
X121061042Y-108974809D01*
X120860857Y-109057728D01*
X120648342Y-109100000D01*
X120431658Y-109100000D01*
X120219143Y-109057728D01*
X120018958Y-108974809D01*
X119838787Y-108854422D01*
X119685578Y-108701213D01*
X119653954Y-108653884D01*
X119565193Y-108521045D01*
X119565191Y-108521042D01*
X119482272Y-108320857D01*
X119440000Y-108108342D01*
X119440000Y-107891658D01*
X119482272Y-107679143D01*
X119565191Y-107478958D01*
X119565193Y-107478955D01*
X119685575Y-107298791D01*
X119685576Y-107298790D01*
X119685578Y-107298787D01*
X119838787Y-107145578D01*
X120018958Y-107025191D01*
X120219143Y-106942272D01*
X120431658Y-106900000D01*
X120648342Y-106900000D01*
X120860857Y-106942272D01*
X120860857Y-106942272D01*
G37*
G36*
X109860857Y-106942272D02*
X110061042Y-107025191D01*
X110241213Y-107145578D01*
X110394422Y-107298787D01*
X110394424Y-107298790D01*
X110394425Y-107298791D01*
X110514807Y-107478955D01*
X110514809Y-107478958D01*
X110597728Y-107679143D01*
X110640000Y-107891658D01*
X110640000Y-108108342D01*
X110597728Y-108320857D01*
X110514809Y-108521042D01*
X110514807Y-108521045D01*
X110426047Y-108653884D01*
X110394422Y-108701213D01*
X110241213Y-108854422D01*
X110061042Y-108974809D01*
X109860857Y-109057728D01*
X109648342Y-109100000D01*
X109431658Y-109100000D01*
X109219143Y-109057728D01*
X109018958Y-108974809D01*
X108838787Y-108854422D01*
X108685578Y-108701213D01*
X108653954Y-108653884D01*
X108565193Y-108521045D01*
X108565191Y-108521042D01*
X108482272Y-108320857D01*
X108440000Y-108108342D01*
X108440000Y-107891658D01*
X108482272Y-107679143D01*
X108565191Y-107478958D01*
X108565193Y-107478955D01*
X108685575Y-107298791D01*
X108685576Y-107298790D01*
X108685578Y-107298787D01*
X108838787Y-107145578D01*
X109018958Y-107025191D01*
X109219143Y-106942272D01*
X109431658Y-106900000D01*
X109648342Y-106900000D01*
X109860857Y-106942272D01*
X109860857Y-106942272D01*
G37*
G36*
X104780857Y-106942272D02*
X104981042Y-107025191D01*
X105161213Y-107145578D01*
X105314422Y-107298787D01*
X105314424Y-107298790D01*
X105314425Y-107298791D01*
X105434807Y-107478955D01*
X105434809Y-107478958D01*
X105517728Y-107679143D01*
X105560000Y-107891658D01*
X105560000Y-108108342D01*
X105517728Y-108320857D01*
X105434809Y-108521042D01*
X105434807Y-108521045D01*
X105346047Y-108653884D01*
X105314422Y-108701213D01*
X105161213Y-108854422D01*
X104981042Y-108974809D01*
X104780857Y-109057728D01*
X104568342Y-109100000D01*
X104351658Y-109100000D01*
X104139143Y-109057728D01*
X103938958Y-108974809D01*
X103758787Y-108854422D01*
X103605578Y-108701213D01*
X103573954Y-108653884D01*
X103485193Y-108521045D01*
X103485191Y-108521042D01*
X103402272Y-108320857D01*
X103360000Y-108108342D01*
X103360000Y-107891658D01*
X103402272Y-107679143D01*
X103485191Y-107478958D01*
X103485193Y-107478955D01*
X103605575Y-107298791D01*
X103605576Y-107298790D01*
X103605578Y-107298787D01*
X103758787Y-107145578D01*
X103938958Y-107025191D01*
X104139143Y-106942272D01*
X104351658Y-106900000D01*
X104568342Y-106900000D01*
X104780857Y-106942272D01*
X104780857Y-106942272D01*
G37*
G36*
X115780857Y-106942272D02*
X115981042Y-107025191D01*
X116161213Y-107145578D01*
X116314422Y-107298787D01*
X116314424Y-107298790D01*
X116314425Y-107298791D01*
X116434807Y-107478955D01*
X116434809Y-107478958D01*
X116517728Y-107679143D01*
X116560000Y-107891658D01*
X116560000Y-108108342D01*
X116517728Y-108320857D01*
X116434809Y-108521042D01*
X116434807Y-108521045D01*
X116346047Y-108653884D01*
X116314422Y-108701213D01*
X116161213Y-108854422D01*
X115981042Y-108974809D01*
X115780857Y-109057728D01*
X115568342Y-109100000D01*
X115351658Y-109100000D01*
X115139143Y-109057728D01*
X114938958Y-108974809D01*
X114758787Y-108854422D01*
X114605578Y-108701213D01*
X114573954Y-108653884D01*
X114485193Y-108521045D01*
X114485191Y-108521042D01*
X114402272Y-108320857D01*
X114360000Y-108108342D01*
X114360000Y-107891658D01*
X114402272Y-107679143D01*
X114485191Y-107478958D01*
X114485193Y-107478955D01*
X114605575Y-107298791D01*
X114605576Y-107298790D01*
X114605578Y-107298787D01*
X114758787Y-107145578D01*
X114938958Y-107025191D01*
X115139143Y-106942272D01*
X115351658Y-106900000D01*
X115568342Y-106900000D01*
X115780857Y-106942272D01*
X115780857Y-106942272D01*
G37*
G36*
X118850000Y-108800000D02*
X117150000Y-108800000D01*
X117150000Y-106900000D01*
X118850000Y-106900000D01*
X118850000Y-108800000D01*
X118850000Y-108800000D01*
G37*
G36*
X107850000Y-108800000D02*
X106150000Y-108800000D01*
X106150000Y-106900000D01*
X107850000Y-106900000D01*
X107850000Y-108800000D01*
X107850000Y-108800000D01*
G37*
G36*
X170350026Y-106346115D02*
X170568412Y-106436573D01*
X170764958Y-106567901D01*
X170932099Y-106735042D01*
X171063427Y-106931588D01*
X171153885Y-107149974D01*
X171200000Y-107381809D01*
X171200000Y-107618191D01*
X171153885Y-107850026D01*
X171063427Y-108068412D01*
X170932099Y-108264958D01*
X170764958Y-108432099D01*
X170568412Y-108563427D01*
X170350026Y-108653885D01*
X170118191Y-108700000D01*
X169881809Y-108700000D01*
X169649974Y-108653885D01*
X169431588Y-108563427D01*
X169235042Y-108432099D01*
X169067901Y-108264958D01*
X168936573Y-108068412D01*
X168846115Y-107850026D01*
X168800000Y-107618191D01*
X168800000Y-107381809D01*
X168846115Y-107149974D01*
X168936573Y-106931588D01*
X169067901Y-106735042D01*
X169235042Y-106567901D01*
X169431588Y-106436573D01*
X169649974Y-106346115D01*
X169881809Y-106300000D01*
X170118191Y-106300000D01*
X170350026Y-106346115D01*
X170350026Y-106346115D01*
G37*
G36*
X129850026Y-106346115D02*
X130068412Y-106436573D01*
X130264958Y-106567901D01*
X130432099Y-106735042D01*
X130563427Y-106931588D01*
X130653885Y-107149974D01*
X130700000Y-107381809D01*
X130700000Y-107618191D01*
X130653885Y-107850026D01*
X130563427Y-108068412D01*
X130432099Y-108264958D01*
X130264958Y-108432099D01*
X130068412Y-108563427D01*
X129850026Y-108653885D01*
X129618191Y-108700000D01*
X129381809Y-108700000D01*
X129149974Y-108653885D01*
X128931588Y-108563427D01*
X128735042Y-108432099D01*
X128567901Y-108264958D01*
X128436573Y-108068412D01*
X128346115Y-107850026D01*
X128300000Y-107618191D01*
X128300000Y-107381809D01*
X128346115Y-107149974D01*
X128436573Y-106931588D01*
X128567901Y-106735042D01*
X128735042Y-106567901D01*
X128931588Y-106436573D01*
X129149974Y-106346115D01*
X129381809Y-106300000D01*
X129618191Y-106300000D01*
X129850026Y-106346115D01*
X129850026Y-106346115D01*
G37*
G36*
X127339196Y-103709958D02*
X127575780Y-103807954D01*
X127788705Y-103950226D01*
X127969774Y-104131295D01*
X128112046Y-104344220D01*
X128210042Y-104580804D01*
X128260000Y-104831960D01*
X128260000Y-105088040D01*
X128210042Y-105339196D01*
X128112046Y-105575780D01*
X127969774Y-105788705D01*
X127788705Y-105969774D01*
X127575780Y-106112046D01*
X127339196Y-106210042D01*
X127088040Y-106260000D01*
X126831960Y-106260000D01*
X126580804Y-106210042D01*
X126344220Y-106112046D01*
X126131295Y-105969774D01*
X125950226Y-105788705D01*
X125807954Y-105575780D01*
X125709958Y-105339196D01*
X125660000Y-105088040D01*
X125660000Y-104831960D01*
X125709958Y-104580804D01*
X125807954Y-104344220D01*
X125950226Y-104131295D01*
X126131295Y-103950226D01*
X126344220Y-103807954D01*
X126580804Y-103709958D01*
X126831960Y-103660000D01*
X127088040Y-103660000D01*
X127339196Y-103709958D01*
X127339196Y-103709958D01*
G37*
G36*
X132419196Y-103709958D02*
X132655780Y-103807954D01*
X132868705Y-103950226D01*
X133049774Y-104131295D01*
X133192046Y-104344220D01*
X133290042Y-104580804D01*
X133340000Y-104831960D01*
X133340000Y-105088040D01*
X133290042Y-105339196D01*
X133192046Y-105575780D01*
X133049774Y-105788705D01*
X132868705Y-105969774D01*
X132655780Y-106112046D01*
X132419196Y-106210042D01*
X132168040Y-106260000D01*
X131911960Y-106260000D01*
X131660804Y-106210042D01*
X131424220Y-106112046D01*
X131211295Y-105969774D01*
X131030226Y-105788705D01*
X130887954Y-105575780D01*
X130789958Y-105339196D01*
X130740000Y-105088040D01*
X130740000Y-104831960D01*
X130789958Y-104580804D01*
X130887954Y-104344220D01*
X131030226Y-104131295D01*
X131211295Y-103950226D01*
X131424220Y-103807954D01*
X131660804Y-103709958D01*
X131911960Y-103660000D01*
X132168040Y-103660000D01*
X132419196Y-103709958D01*
X132419196Y-103709958D01*
G37*
G36*
X172919196Y-103709958D02*
X173155780Y-103807954D01*
X173368705Y-103950226D01*
X173549774Y-104131295D01*
X173692046Y-104344220D01*
X173790042Y-104580804D01*
X173840000Y-104831960D01*
X173840000Y-105088040D01*
X173790042Y-105339196D01*
X173692046Y-105575780D01*
X173549774Y-105788705D01*
X173368705Y-105969774D01*
X173155780Y-106112046D01*
X172919196Y-106210042D01*
X172668040Y-106260000D01*
X172411960Y-106260000D01*
X172160804Y-106210042D01*
X171924220Y-106112046D01*
X171711295Y-105969774D01*
X171530226Y-105788705D01*
X171387954Y-105575780D01*
X171289958Y-105339196D01*
X171240000Y-105088040D01*
X171240000Y-104831960D01*
X171289958Y-104580804D01*
X171387954Y-104344220D01*
X171530226Y-104131295D01*
X171711295Y-103950226D01*
X171924220Y-103807954D01*
X172160804Y-103709958D01*
X172411960Y-103660000D01*
X172668040Y-103660000D01*
X172919196Y-103709958D01*
X172919196Y-103709958D01*
G37*
G36*
X167839196Y-103709958D02*
X168075780Y-103807954D01*
X168288705Y-103950226D01*
X168469774Y-104131295D01*
X168612046Y-104344220D01*
X168710042Y-104580804D01*
X168760000Y-104831960D01*
X168760000Y-105088040D01*
X168710042Y-105339196D01*
X168612046Y-105575780D01*
X168469774Y-105788705D01*
X168288705Y-105969774D01*
X168075780Y-106112046D01*
X167839196Y-106210042D01*
X167588040Y-106260000D01*
X167331960Y-106260000D01*
X167080804Y-106210042D01*
X166844220Y-106112046D01*
X166631295Y-105969774D01*
X166450226Y-105788705D01*
X166307954Y-105575780D01*
X166209958Y-105339196D01*
X166160000Y-105088040D01*
X166160000Y-104831960D01*
X166209958Y-104580804D01*
X166307954Y-104344220D01*
X166450226Y-104131295D01*
X166631295Y-103950226D01*
X166844220Y-103807954D01*
X167080804Y-103709958D01*
X167331960Y-103660000D01*
X167588040Y-103660000D01*
X167839196Y-103709958D01*
X167839196Y-103709958D01*
G37*
G36*
X107850000Y-106100000D02*
X106150000Y-106100000D01*
X106150000Y-104200000D01*
X107850000Y-104200000D01*
X107850000Y-106100000D01*
X107850000Y-106100000D01*
G37*
G36*
X118850000Y-106100000D02*
X117150000Y-106100000D01*
X117150000Y-104200000D01*
X118850000Y-104200000D01*
X118850000Y-106100000D01*
X118850000Y-106100000D01*
G37*
G36*
X115780857Y-101862272D02*
X115981042Y-101945191D01*
X116161213Y-102065578D01*
X116314422Y-102218787D01*
X116314424Y-102218790D01*
X116314425Y-102218791D01*
X116434807Y-102398955D01*
X116434809Y-102398958D01*
X116517728Y-102599143D01*
X116560000Y-102811658D01*
X116560000Y-103028342D01*
X116517728Y-103240857D01*
X116434809Y-103441042D01*
X116434807Y-103441045D01*
X116336474Y-103588211D01*
X116314422Y-103621213D01*
X116161213Y-103774422D01*
X115981042Y-103894809D01*
X115780857Y-103977728D01*
X115568342Y-104020000D01*
X115351658Y-104020000D01*
X115139143Y-103977728D01*
X114938958Y-103894809D01*
X114758787Y-103774422D01*
X114605578Y-103621213D01*
X114583527Y-103588211D01*
X114485193Y-103441045D01*
X114485191Y-103441042D01*
X114402272Y-103240857D01*
X114360000Y-103028342D01*
X114360000Y-102811658D01*
X114402272Y-102599143D01*
X114485191Y-102398958D01*
X114485193Y-102398955D01*
X114605575Y-102218791D01*
X114605576Y-102218790D01*
X114605578Y-102218787D01*
X114758787Y-102065578D01*
X114938958Y-101945191D01*
X115139143Y-101862272D01*
X115351658Y-101820000D01*
X115568342Y-101820000D01*
X115780857Y-101862272D01*
X115780857Y-101862272D01*
G37*
G36*
X109860857Y-101862272D02*
X110061042Y-101945191D01*
X110241213Y-102065578D01*
X110394422Y-102218787D01*
X110394424Y-102218790D01*
X110394425Y-102218791D01*
X110514807Y-102398955D01*
X110514809Y-102398958D01*
X110597728Y-102599143D01*
X110640000Y-102811658D01*
X110640000Y-103028342D01*
X110597728Y-103240857D01*
X110514809Y-103441042D01*
X110514807Y-103441045D01*
X110416474Y-103588211D01*
X110394422Y-103621213D01*
X110241213Y-103774422D01*
X110061042Y-103894809D01*
X109860857Y-103977728D01*
X109648342Y-104020000D01*
X109431658Y-104020000D01*
X109219143Y-103977728D01*
X109018958Y-103894809D01*
X108838787Y-103774422D01*
X108685578Y-103621213D01*
X108663527Y-103588211D01*
X108565193Y-103441045D01*
X108565191Y-103441042D01*
X108482272Y-103240857D01*
X108440000Y-103028342D01*
X108440000Y-102811658D01*
X108482272Y-102599143D01*
X108565191Y-102398958D01*
X108565193Y-102398955D01*
X108685575Y-102218791D01*
X108685576Y-102218790D01*
X108685578Y-102218787D01*
X108838787Y-102065578D01*
X109018958Y-101945191D01*
X109219143Y-101862272D01*
X109431658Y-101820000D01*
X109648342Y-101820000D01*
X109860857Y-101862272D01*
X109860857Y-101862272D01*
G37*
G36*
X120860857Y-101862272D02*
X121061042Y-101945191D01*
X121241213Y-102065578D01*
X121394422Y-102218787D01*
X121394424Y-102218790D01*
X121394425Y-102218791D01*
X121514807Y-102398955D01*
X121514809Y-102398958D01*
X121597728Y-102599143D01*
X121640000Y-102811658D01*
X121640000Y-103028342D01*
X121597728Y-103240857D01*
X121514809Y-103441042D01*
X121514807Y-103441045D01*
X121416474Y-103588211D01*
X121394422Y-103621213D01*
X121241213Y-103774422D01*
X121061042Y-103894809D01*
X120860857Y-103977728D01*
X120648342Y-104020000D01*
X120431658Y-104020000D01*
X120219143Y-103977728D01*
X120018958Y-103894809D01*
X119838787Y-103774422D01*
X119685578Y-103621213D01*
X119663527Y-103588211D01*
X119565193Y-103441045D01*
X119565191Y-103441042D01*
X119482272Y-103240857D01*
X119440000Y-103028342D01*
X119440000Y-102811658D01*
X119482272Y-102599143D01*
X119565191Y-102398958D01*
X119565193Y-102398955D01*
X119685575Y-102218791D01*
X119685576Y-102218790D01*
X119685578Y-102218787D01*
X119838787Y-102065578D01*
X120018958Y-101945191D01*
X120219143Y-101862272D01*
X120431658Y-101820000D01*
X120648342Y-101820000D01*
X120860857Y-101862272D01*
X120860857Y-101862272D01*
G37*
G36*
X104780857Y-101862272D02*
X104981042Y-101945191D01*
X105161213Y-102065578D01*
X105314422Y-102218787D01*
X105314424Y-102218790D01*
X105314425Y-102218791D01*
X105434807Y-102398955D01*
X105434809Y-102398958D01*
X105517728Y-102599143D01*
X105560000Y-102811658D01*
X105560000Y-103028342D01*
X105517728Y-103240857D01*
X105434809Y-103441042D01*
X105434807Y-103441045D01*
X105336474Y-103588211D01*
X105314422Y-103621213D01*
X105161213Y-103774422D01*
X104981042Y-103894809D01*
X104780857Y-103977728D01*
X104568342Y-104020000D01*
X104351658Y-104020000D01*
X104139143Y-103977728D01*
X103938958Y-103894809D01*
X103758787Y-103774422D01*
X103605578Y-103621213D01*
X103583527Y-103588211D01*
X103485193Y-103441045D01*
X103485191Y-103441042D01*
X103402272Y-103240857D01*
X103360000Y-103028342D01*
X103360000Y-102811658D01*
X103402272Y-102599143D01*
X103485191Y-102398958D01*
X103485193Y-102398955D01*
X103605575Y-102218791D01*
X103605576Y-102218790D01*
X103605578Y-102218787D01*
X103758787Y-102065578D01*
X103938958Y-101945191D01*
X104139143Y-101862272D01*
X104351658Y-101820000D01*
X104568342Y-101820000D01*
X104780857Y-101862272D01*
X104780857Y-101862272D01*
G37*
G36*
X146048503Y-101491789D02*
X146248991Y-101552607D01*
X146433764Y-101651369D01*
X146595718Y-101784282D01*
X146728631Y-101946236D01*
X146827393Y-102131009D01*
X146888211Y-102331497D01*
X146908746Y-102540000D01*
X146888211Y-102748503D01*
X146827393Y-102948991D01*
X146728631Y-103133764D01*
X146595718Y-103295718D01*
X146433764Y-103428631D01*
X146248991Y-103527393D01*
X146048503Y-103588211D01*
X145892251Y-103603600D01*
X145787749Y-103603600D01*
X145631497Y-103588211D01*
X145431009Y-103527393D01*
X145246236Y-103428631D01*
X145084282Y-103295718D01*
X144951369Y-103133764D01*
X144852607Y-102948991D01*
X144791789Y-102748503D01*
X144771254Y-102540000D01*
X144791789Y-102331497D01*
X144852607Y-102131009D01*
X144951369Y-101946236D01*
X145084282Y-101784282D01*
X145246236Y-101651369D01*
X145431009Y-101552607D01*
X145631497Y-101491789D01*
X145787749Y-101476400D01*
X145892251Y-101476400D01*
X146048503Y-101491789D01*
X146048503Y-101491789D01*
G37*
G36*
X153668503Y-101491789D02*
X153868991Y-101552607D01*
X154053764Y-101651369D01*
X154215718Y-101784282D01*
X154348631Y-101946236D01*
X154447393Y-102131009D01*
X154508211Y-102331497D01*
X154528746Y-102540000D01*
X154508211Y-102748503D01*
X154447393Y-102948991D01*
X154348631Y-103133764D01*
X154215718Y-103295718D01*
X154053764Y-103428631D01*
X153868991Y-103527393D01*
X153668503Y-103588211D01*
X153512251Y-103603600D01*
X153407749Y-103603600D01*
X153251497Y-103588211D01*
X153051009Y-103527393D01*
X152866236Y-103428631D01*
X152704282Y-103295718D01*
X152571369Y-103133764D01*
X152472607Y-102948991D01*
X152411789Y-102748503D01*
X152391254Y-102540000D01*
X152411789Y-102331497D01*
X152472607Y-102131009D01*
X152571369Y-101946236D01*
X152704282Y-101784282D01*
X152866236Y-101651369D01*
X153051009Y-101552607D01*
X153251497Y-101491789D01*
X153407749Y-101476400D01*
X153512251Y-101476400D01*
X153668503Y-101491789D01*
X153668503Y-101491789D01*
G37*
G36*
X151128503Y-101491789D02*
X151328991Y-101552607D01*
X151513764Y-101651369D01*
X151675718Y-101784282D01*
X151808631Y-101946236D01*
X151907393Y-102131009D01*
X151968211Y-102331497D01*
X151988746Y-102540000D01*
X151968211Y-102748503D01*
X151907393Y-102948991D01*
X151808631Y-103133764D01*
X151675718Y-103295718D01*
X151513764Y-103428631D01*
X151328991Y-103527393D01*
X151128503Y-103588211D01*
X150972251Y-103603600D01*
X150867749Y-103603600D01*
X150711497Y-103588211D01*
X150511009Y-103527393D01*
X150326236Y-103428631D01*
X150164282Y-103295718D01*
X150031369Y-103133764D01*
X149932607Y-102948991D01*
X149871789Y-102748503D01*
X149851254Y-102540000D01*
X149871789Y-102331497D01*
X149932607Y-102131009D01*
X150031369Y-101946236D01*
X150164282Y-101784282D01*
X150326236Y-101651369D01*
X150511009Y-101552607D01*
X150711497Y-101491789D01*
X150867749Y-101476400D01*
X150972251Y-101476400D01*
X151128503Y-101491789D01*
X151128503Y-101491789D01*
G37*
G36*
X148588503Y-101491789D02*
X148788991Y-101552607D01*
X148973764Y-101651369D01*
X149135718Y-101784282D01*
X149268631Y-101946236D01*
X149367393Y-102131009D01*
X149428211Y-102331497D01*
X149448746Y-102540000D01*
X149428211Y-102748503D01*
X149367393Y-102948991D01*
X149268631Y-103133764D01*
X149135718Y-103295718D01*
X148973764Y-103428631D01*
X148788991Y-103527393D01*
X148588503Y-103588211D01*
X148432251Y-103603600D01*
X148327749Y-103603600D01*
X148171497Y-103588211D01*
X147971009Y-103527393D01*
X147786236Y-103428631D01*
X147624282Y-103295718D01*
X147491369Y-103133764D01*
X147392607Y-102948991D01*
X147331789Y-102748503D01*
X147311254Y-102540000D01*
X147331789Y-102331497D01*
X147392607Y-102131009D01*
X147491369Y-101946236D01*
X147624282Y-101784282D01*
X147786236Y-101651369D01*
X147971009Y-101552607D01*
X148171497Y-101491789D01*
X148327749Y-101476400D01*
X148432251Y-101476400D01*
X148588503Y-101491789D01*
X148588503Y-101491789D01*
G37*
G36*
X143508503Y-101491789D02*
X143708991Y-101552607D01*
X143893764Y-101651369D01*
X144055718Y-101784282D01*
X144188631Y-101946236D01*
X144287393Y-102131009D01*
X144348211Y-102331497D01*
X144368746Y-102540000D01*
X144348211Y-102748503D01*
X144287393Y-102948991D01*
X144188631Y-103133764D01*
X144055718Y-103295718D01*
X143893764Y-103428631D01*
X143708991Y-103527393D01*
X143508503Y-103588211D01*
X143352251Y-103603600D01*
X143247749Y-103603600D01*
X143091497Y-103588211D01*
X142891009Y-103527393D01*
X142706236Y-103428631D01*
X142544282Y-103295718D01*
X142411369Y-103133764D01*
X142312607Y-102948991D01*
X142251789Y-102748503D01*
X142231254Y-102540000D01*
X142251789Y-102331497D01*
X142312607Y-102131009D01*
X142411369Y-101946236D01*
X142544282Y-101784282D01*
X142706236Y-101651369D01*
X142891009Y-101552607D01*
X143091497Y-101491789D01*
X143247749Y-101476400D01*
X143352251Y-101476400D01*
X143508503Y-101491789D01*
X143508503Y-101491789D01*
G37*
G36*
X156208503Y-101491789D02*
X156408991Y-101552607D01*
X156593764Y-101651369D01*
X156755718Y-101784282D01*
X156888631Y-101946236D01*
X156987393Y-102131009D01*
X157048211Y-102331497D01*
X157068746Y-102540000D01*
X157048211Y-102748503D01*
X156987393Y-102948991D01*
X156888631Y-103133764D01*
X156755718Y-103295718D01*
X156593764Y-103428631D01*
X156408991Y-103527393D01*
X156208503Y-103588211D01*
X156052251Y-103603600D01*
X155947749Y-103603600D01*
X155791497Y-103588211D01*
X155591009Y-103527393D01*
X155406236Y-103428631D01*
X155244282Y-103295718D01*
X155111369Y-103133764D01*
X155012607Y-102948991D01*
X154951789Y-102748503D01*
X154931254Y-102540000D01*
X154951789Y-102331497D01*
X155012607Y-102131009D01*
X155111369Y-101946236D01*
X155244282Y-101784282D01*
X155406236Y-101651369D01*
X155591009Y-101552607D01*
X155791497Y-101491789D01*
X155947749Y-101476400D01*
X156052251Y-101476400D01*
X156208503Y-101491789D01*
X156208503Y-101491789D01*
G37*
G36*
X109860857Y-99342272D02*
X110061042Y-99425191D01*
X110241213Y-99545578D01*
X110394422Y-99698787D01*
X110514809Y-99878958D01*
X110597728Y-100079143D01*
X110640000Y-100291658D01*
X110640000Y-100508342D01*
X110597728Y-100720857D01*
X110514809Y-100921042D01*
X110514807Y-100921045D01*
X110407789Y-101081209D01*
X110394422Y-101101213D01*
X110241213Y-101254422D01*
X110061042Y-101374809D01*
X109860857Y-101457728D01*
X109648342Y-101500000D01*
X109431658Y-101500000D01*
X109219143Y-101457728D01*
X109018958Y-101374809D01*
X108838787Y-101254422D01*
X108685578Y-101101213D01*
X108672212Y-101081209D01*
X108565193Y-100921045D01*
X108565191Y-100921042D01*
X108482272Y-100720857D01*
X108440000Y-100508342D01*
X108440000Y-100291658D01*
X108482272Y-100079143D01*
X108565191Y-99878958D01*
X108685578Y-99698787D01*
X108838787Y-99545578D01*
X109018958Y-99425191D01*
X109219143Y-99342272D01*
X109431658Y-99300000D01*
X109648342Y-99300000D01*
X109860857Y-99342272D01*
X109860857Y-99342272D01*
G37*
G36*
X120860857Y-99342272D02*
X121061042Y-99425191D01*
X121241213Y-99545578D01*
X121394422Y-99698787D01*
X121514809Y-99878958D01*
X121597728Y-100079143D01*
X121640000Y-100291658D01*
X121640000Y-100508342D01*
X121597728Y-100720857D01*
X121514809Y-100921042D01*
X121514807Y-100921045D01*
X121407789Y-101081209D01*
X121394422Y-101101213D01*
X121241213Y-101254422D01*
X121061042Y-101374809D01*
X120860857Y-101457728D01*
X120648342Y-101500000D01*
X120431658Y-101500000D01*
X120219143Y-101457728D01*
X120018958Y-101374809D01*
X119838787Y-101254422D01*
X119685578Y-101101213D01*
X119672212Y-101081209D01*
X119565193Y-100921045D01*
X119565191Y-100921042D01*
X119482272Y-100720857D01*
X119440000Y-100508342D01*
X119440000Y-100291658D01*
X119482272Y-100079143D01*
X119565191Y-99878958D01*
X119685578Y-99698787D01*
X119838787Y-99545578D01*
X120018958Y-99425191D01*
X120219143Y-99342272D01*
X120431658Y-99300000D01*
X120648342Y-99300000D01*
X120860857Y-99342272D01*
X120860857Y-99342272D01*
G37*
G36*
X104780857Y-99322272D02*
X104981042Y-99405191D01*
X105161213Y-99525578D01*
X105314422Y-99678787D01*
X105314424Y-99678790D01*
X105314425Y-99678791D01*
X105434807Y-99858955D01*
X105434809Y-99858958D01*
X105517728Y-100059143D01*
X105560000Y-100271658D01*
X105560000Y-100488342D01*
X105517728Y-100700857D01*
X105434809Y-100901042D01*
X105434807Y-100901045D01*
X105336474Y-101048211D01*
X105314422Y-101081213D01*
X105161213Y-101234422D01*
X104981042Y-101354809D01*
X104780857Y-101437728D01*
X104568342Y-101480000D01*
X104351658Y-101480000D01*
X104139143Y-101437728D01*
X103938958Y-101354809D01*
X103758787Y-101234422D01*
X103605578Y-101081213D01*
X103583527Y-101048211D01*
X103485193Y-100901045D01*
X103485191Y-100901042D01*
X103402272Y-100700857D01*
X103360000Y-100488342D01*
X103360000Y-100271658D01*
X103402272Y-100059143D01*
X103485191Y-99858958D01*
X103485193Y-99858955D01*
X103605575Y-99678791D01*
X103605576Y-99678790D01*
X103605578Y-99678787D01*
X103758787Y-99525578D01*
X103938958Y-99405191D01*
X104139143Y-99322272D01*
X104351658Y-99280000D01*
X104568342Y-99280000D01*
X104780857Y-99322272D01*
X104780857Y-99322272D01*
G37*
G36*
X115780857Y-99322272D02*
X115981042Y-99405191D01*
X116161213Y-99525578D01*
X116314422Y-99678787D01*
X116314424Y-99678790D01*
X116314425Y-99678791D01*
X116434807Y-99858955D01*
X116434809Y-99858958D01*
X116517728Y-100059143D01*
X116560000Y-100271658D01*
X116560000Y-100488342D01*
X116517728Y-100700857D01*
X116434809Y-100901042D01*
X116434807Y-100901045D01*
X116336474Y-101048211D01*
X116314422Y-101081213D01*
X116161213Y-101234422D01*
X115981042Y-101354809D01*
X115780857Y-101437728D01*
X115568342Y-101480000D01*
X115351658Y-101480000D01*
X115139143Y-101437728D01*
X114938958Y-101354809D01*
X114758787Y-101234422D01*
X114605578Y-101081213D01*
X114583527Y-101048211D01*
X114485193Y-100901045D01*
X114485191Y-100901042D01*
X114402272Y-100700857D01*
X114360000Y-100488342D01*
X114360000Y-100271658D01*
X114402272Y-100059143D01*
X114485191Y-99858958D01*
X114485193Y-99858955D01*
X114605575Y-99678791D01*
X114605576Y-99678790D01*
X114605578Y-99678787D01*
X114758787Y-99525578D01*
X114938958Y-99405191D01*
X115139143Y-99322272D01*
X115351658Y-99280000D01*
X115568342Y-99280000D01*
X115780857Y-99322272D01*
X115780857Y-99322272D01*
G37*
G36*
X153668503Y-98951789D02*
X153868991Y-99012607D01*
X154053764Y-99111369D01*
X154215718Y-99244282D01*
X154348631Y-99406236D01*
X154447393Y-99591009D01*
X154508211Y-99791497D01*
X154528746Y-100000000D01*
X154508211Y-100208503D01*
X154447393Y-100408991D01*
X154348631Y-100593764D01*
X154215718Y-100755718D01*
X154053764Y-100888631D01*
X153868991Y-100987393D01*
X153668503Y-101048211D01*
X153512251Y-101063600D01*
X153407749Y-101063600D01*
X153251497Y-101048211D01*
X153051009Y-100987393D01*
X152866236Y-100888631D01*
X152704282Y-100755718D01*
X152571369Y-100593764D01*
X152472607Y-100408991D01*
X152411789Y-100208503D01*
X152391254Y-100000000D01*
X152411789Y-99791497D01*
X152472607Y-99591009D01*
X152571369Y-99406236D01*
X152704282Y-99244282D01*
X152866236Y-99111369D01*
X153051009Y-99012607D01*
X153251497Y-98951789D01*
X153407749Y-98936400D01*
X153512251Y-98936400D01*
X153668503Y-98951789D01*
X153668503Y-98951789D01*
G37*
G36*
X157063600Y-101063600D02*
X154936400Y-101063600D01*
X154936400Y-98936400D01*
X157063600Y-98936400D01*
X157063600Y-101063600D01*
X157063600Y-101063600D01*
G37*
G36*
X143508503Y-98951789D02*
X143708991Y-99012607D01*
X143893764Y-99111369D01*
X144055718Y-99244282D01*
X144188631Y-99406236D01*
X144287393Y-99591009D01*
X144348211Y-99791497D01*
X144368746Y-100000000D01*
X144348211Y-100208503D01*
X144287393Y-100408991D01*
X144188631Y-100593764D01*
X144055718Y-100755718D01*
X143893764Y-100888631D01*
X143708991Y-100987393D01*
X143508503Y-101048211D01*
X143352251Y-101063600D01*
X143247749Y-101063600D01*
X143091497Y-101048211D01*
X142891009Y-100987393D01*
X142706236Y-100888631D01*
X142544282Y-100755718D01*
X142411369Y-100593764D01*
X142312607Y-100408991D01*
X142251789Y-100208503D01*
X142231254Y-100000000D01*
X142251789Y-99791497D01*
X142312607Y-99591009D01*
X142411369Y-99406236D01*
X142544282Y-99244282D01*
X142706236Y-99111369D01*
X142891009Y-99012607D01*
X143091497Y-98951789D01*
X143247749Y-98936400D01*
X143352251Y-98936400D01*
X143508503Y-98951789D01*
X143508503Y-98951789D01*
G37*
G36*
X146048503Y-98951789D02*
X146248991Y-99012607D01*
X146433764Y-99111369D01*
X146595718Y-99244282D01*
X146728631Y-99406236D01*
X146827393Y-99591009D01*
X146888211Y-99791497D01*
X146908746Y-100000000D01*
X146888211Y-100208503D01*
X146827393Y-100408991D01*
X146728631Y-100593764D01*
X146595718Y-100755718D01*
X146433764Y-100888631D01*
X146248991Y-100987393D01*
X146048503Y-101048211D01*
X145892251Y-101063600D01*
X145787749Y-101063600D01*
X145631497Y-101048211D01*
X145431009Y-100987393D01*
X145246236Y-100888631D01*
X145084282Y-100755718D01*
X144951369Y-100593764D01*
X144852607Y-100408991D01*
X144791789Y-100208503D01*
X144771254Y-100000000D01*
X144791789Y-99791497D01*
X144852607Y-99591009D01*
X144951369Y-99406236D01*
X145084282Y-99244282D01*
X145246236Y-99111369D01*
X145431009Y-99012607D01*
X145631497Y-98951789D01*
X145787749Y-98936400D01*
X145892251Y-98936400D01*
X146048503Y-98951789D01*
X146048503Y-98951789D01*
G37*
G36*
X148588503Y-98951789D02*
X148788991Y-99012607D01*
X148973764Y-99111369D01*
X149135718Y-99244282D01*
X149268631Y-99406236D01*
X149367393Y-99591009D01*
X149428211Y-99791497D01*
X149448746Y-100000000D01*
X149428211Y-100208503D01*
X149367393Y-100408991D01*
X149268631Y-100593764D01*
X149135718Y-100755718D01*
X148973764Y-100888631D01*
X148788991Y-100987393D01*
X148588503Y-101048211D01*
X148432251Y-101063600D01*
X148327749Y-101063600D01*
X148171497Y-101048211D01*
X147971009Y-100987393D01*
X147786236Y-100888631D01*
X147624282Y-100755718D01*
X147491369Y-100593764D01*
X147392607Y-100408991D01*
X147331789Y-100208503D01*
X147311254Y-100000000D01*
X147331789Y-99791497D01*
X147392607Y-99591009D01*
X147491369Y-99406236D01*
X147624282Y-99244282D01*
X147786236Y-99111369D01*
X147971009Y-99012607D01*
X148171497Y-98951789D01*
X148327749Y-98936400D01*
X148432251Y-98936400D01*
X148588503Y-98951789D01*
X148588503Y-98951789D01*
G37*
G36*
X151128503Y-98951789D02*
X151328991Y-99012607D01*
X151513764Y-99111369D01*
X151675718Y-99244282D01*
X151808631Y-99406236D01*
X151907393Y-99591009D01*
X151968211Y-99791497D01*
X151988746Y-100000000D01*
X151968211Y-100208503D01*
X151907393Y-100408991D01*
X151808631Y-100593764D01*
X151675718Y-100755718D01*
X151513764Y-100888631D01*
X151328991Y-100987393D01*
X151128503Y-101048211D01*
X150972251Y-101063600D01*
X150867749Y-101063600D01*
X150711497Y-101048211D01*
X150511009Y-100987393D01*
X150326236Y-100888631D01*
X150164282Y-100755718D01*
X150031369Y-100593764D01*
X149932607Y-100408991D01*
X149871789Y-100208503D01*
X149851254Y-100000000D01*
X149871789Y-99791497D01*
X149932607Y-99591009D01*
X150031369Y-99406236D01*
X150164282Y-99244282D01*
X150326236Y-99111369D01*
X150511009Y-99012607D01*
X150711497Y-98951789D01*
X150867749Y-98936400D01*
X150972251Y-98936400D01*
X151128503Y-98951789D01*
X151128503Y-98951789D01*
G37*
G36*
X109300000Y-96615000D02*
X109302402Y-96639386D01*
X109309515Y-96662835D01*
X109321066Y-96684446D01*
X109336612Y-96703388D01*
X109355554Y-96718934D01*
X109377165Y-96730485D01*
X109400614Y-96737598D01*
X109425000Y-96740000D01*
X109648342Y-96740000D01*
X109860857Y-96782272D01*
X110061042Y-96865191D01*
X110241213Y-96985578D01*
X110394422Y-97138787D01*
X110514809Y-97318958D01*
X110597728Y-97519143D01*
X110640000Y-97731658D01*
X110640000Y-97948342D01*
X110597728Y-98160857D01*
X110514809Y-98361042D01*
X110394422Y-98541213D01*
X110241213Y-98694422D01*
X110061042Y-98814809D01*
X109860857Y-98897728D01*
X109648342Y-98940000D01*
X109431658Y-98940000D01*
X109219143Y-98897728D01*
X109018958Y-98814809D01*
X108838787Y-98694422D01*
X108685578Y-98541213D01*
X108565191Y-98361042D01*
X108482272Y-98160857D01*
X108440000Y-97948342D01*
X108440000Y-97731658D01*
X108482272Y-97519143D01*
X108565191Y-97318958D01*
X108685578Y-97138787D01*
X108838787Y-96985578D01*
X109018958Y-96865191D01*
X109078604Y-96840485D01*
X109100215Y-96828934D01*
X109119157Y-96813388D01*
X109134703Y-96794446D01*
X109146254Y-96772836D01*
X109153367Y-96749386D01*
X109155769Y-96725000D01*
X109153367Y-96700614D01*
X109146254Y-96677165D01*
X109134703Y-96655554D01*
X109119157Y-96636612D01*
X109100215Y-96621066D01*
X109078605Y-96609515D01*
X109055155Y-96602402D01*
X109030769Y-96600000D01*
X107400000Y-96600000D01*
X107400000Y-94900000D01*
X109300000Y-94900000D01*
X109300000Y-96615000D01*
X109300000Y-96615000D01*
G37*
G36*
X117350000Y-96600000D02*
X115969231Y-96600000D01*
X115944845Y-96602402D01*
X115921396Y-96609515D01*
X115899785Y-96621066D01*
X115880843Y-96636612D01*
X115865297Y-96655554D01*
X115853746Y-96677165D01*
X115846633Y-96700614D01*
X115844231Y-96725000D01*
X115846633Y-96749386D01*
X115853746Y-96772835D01*
X115865297Y-96794446D01*
X115880843Y-96813388D01*
X115899785Y-96828934D01*
X115921396Y-96840485D01*
X115981042Y-96865191D01*
X116161213Y-96985578D01*
X116314422Y-97138787D01*
X116434809Y-97318958D01*
X116517728Y-97519143D01*
X116560000Y-97731658D01*
X116560000Y-97948342D01*
X116517728Y-98160857D01*
X116434809Y-98361042D01*
X116314422Y-98541213D01*
X116161213Y-98694422D01*
X115981042Y-98814809D01*
X115780857Y-98897728D01*
X115568342Y-98940000D01*
X115351658Y-98940000D01*
X115139143Y-98897728D01*
X114938958Y-98814809D01*
X114758787Y-98694422D01*
X114605578Y-98541213D01*
X114485191Y-98361042D01*
X114402272Y-98160857D01*
X114360000Y-97948342D01*
X114360000Y-97731658D01*
X114402272Y-97519143D01*
X114485191Y-97318958D01*
X114605578Y-97138787D01*
X114758787Y-96985578D01*
X114938958Y-96865191D01*
X115139143Y-96782272D01*
X115349386Y-96740452D01*
X115372835Y-96733339D01*
X115394446Y-96721788D01*
X115413388Y-96706242D01*
X115428934Y-96687300D01*
X115440485Y-96665689D01*
X115447598Y-96642240D01*
X115450000Y-96617854D01*
X115450000Y-94900000D01*
X117350000Y-94900000D01*
X117350000Y-96600000D01*
X117350000Y-96600000D01*
G37*
G36*
X106600000Y-96600000D02*
X104969231Y-96600000D01*
X104944845Y-96602402D01*
X104921396Y-96609515D01*
X104899785Y-96621066D01*
X104880843Y-96636612D01*
X104865297Y-96655554D01*
X104853746Y-96677165D01*
X104846633Y-96700614D01*
X104844231Y-96725000D01*
X104846633Y-96749386D01*
X104853746Y-96772835D01*
X104865297Y-96794446D01*
X104880843Y-96813388D01*
X104899785Y-96828934D01*
X104921396Y-96840485D01*
X104981042Y-96865191D01*
X105161213Y-96985578D01*
X105314422Y-97138787D01*
X105434809Y-97318958D01*
X105517728Y-97519143D01*
X105560000Y-97731658D01*
X105560000Y-97948342D01*
X105517728Y-98160857D01*
X105434809Y-98361042D01*
X105314422Y-98541213D01*
X105161213Y-98694422D01*
X104981042Y-98814809D01*
X104780857Y-98897728D01*
X104568342Y-98940000D01*
X104351658Y-98940000D01*
X104139143Y-98897728D01*
X103938958Y-98814809D01*
X103758787Y-98694422D01*
X103605578Y-98541213D01*
X103485191Y-98361042D01*
X103402272Y-98160857D01*
X103360000Y-97948342D01*
X103360000Y-97731658D01*
X103402272Y-97519143D01*
X103485191Y-97318958D01*
X103605578Y-97138787D01*
X103758787Y-96985578D01*
X103938958Y-96865191D01*
X104139143Y-96782272D01*
X104351658Y-96740000D01*
X104575000Y-96740000D01*
X104599386Y-96737598D01*
X104622835Y-96730485D01*
X104644446Y-96718934D01*
X104663388Y-96703388D01*
X104678934Y-96684446D01*
X104690485Y-96662835D01*
X104697598Y-96639386D01*
X104700000Y-96615000D01*
X104700000Y-94900000D01*
X106600000Y-94900000D01*
X106600000Y-96600000D01*
X106600000Y-96600000D01*
G37*
G36*
X120860857Y-96782272D02*
X121061042Y-96865191D01*
X121241213Y-96985578D01*
X121394422Y-97138787D01*
X121514809Y-97318958D01*
X121597728Y-97519143D01*
X121640000Y-97731658D01*
X121640000Y-97948342D01*
X121597728Y-98160857D01*
X121514809Y-98361042D01*
X121394422Y-98541213D01*
X121241213Y-98694422D01*
X121061042Y-98814809D01*
X120860857Y-98897728D01*
X120648342Y-98940000D01*
X120431658Y-98940000D01*
X120219143Y-98897728D01*
X120018958Y-98814809D01*
X119838787Y-98694422D01*
X119685578Y-98541213D01*
X119565191Y-98361042D01*
X119482272Y-98160857D01*
X119440000Y-97948342D01*
X119440000Y-97731658D01*
X119482272Y-97519143D01*
X119565191Y-97318958D01*
X119685578Y-97138787D01*
X119838787Y-96985578D01*
X120018958Y-96865191D01*
X120078604Y-96840485D01*
X120100215Y-96828934D01*
X120119157Y-96813388D01*
X120134703Y-96794446D01*
X120139954Y-96784622D01*
X120150614Y-96787856D01*
X120175000Y-96790258D01*
X120199386Y-96787856D01*
X120215225Y-96783051D01*
X120431658Y-96740000D01*
X120648342Y-96740000D01*
X120860857Y-96782272D01*
X120860857Y-96782272D01*
G37*
G36*
X120050000Y-96601894D02*
X120030769Y-96600000D01*
X118150000Y-96600000D01*
X118150000Y-94900000D01*
X120050000Y-94900000D01*
X120050000Y-96601894D01*
X120050000Y-96601894D01*
G37*
G36*
X103600000Y-94350000D02*
X101700000Y-94350000D01*
X101700000Y-92650000D01*
X103600000Y-92650000D01*
X103600000Y-94350000D01*
X103600000Y-94350000D01*
G37*
G36*
X120350000Y-94350000D02*
X118450000Y-94350000D01*
X118450000Y-92650000D01*
X120350000Y-92650000D01*
X120350000Y-94350000D01*
X120350000Y-94350000D01*
G37*
G36*
X106300000Y-94350000D02*
X104400000Y-94350000D01*
X104400000Y-92650000D01*
X106300000Y-92650000D01*
X106300000Y-94350000D01*
X106300000Y-94350000D01*
G37*
G36*
X109350000Y-94350000D02*
X107450000Y-94350000D01*
X107450000Y-92650000D01*
X109350000Y-92650000D01*
X109350000Y-94350000D01*
X109350000Y-94350000D01*
G37*
G36*
X112050000Y-94350000D02*
X110150000Y-94350000D01*
X110150000Y-92650000D01*
X112050000Y-92650000D01*
X112050000Y-94350000D01*
X112050000Y-94350000D01*
G37*
G36*
X123050000Y-94350000D02*
X121150000Y-94350000D01*
X121150000Y-92650000D01*
X123050000Y-92650000D01*
X123050000Y-94350000D01*
X123050000Y-94350000D01*
G37*
G36*
X117300000Y-94350000D02*
X115400000Y-94350000D01*
X115400000Y-92650000D01*
X117300000Y-92650000D01*
X117300000Y-94350000D01*
X117300000Y-94350000D01*
G37*
G36*
X114600000Y-94350000D02*
X112700000Y-94350000D01*
X112700000Y-92650000D01*
X114600000Y-92650000D01*
X114600000Y-94350000D01*
X114600000Y-94350000D01*
G37*
G36*
X139450000Y-89450000D02*
X136550000Y-89450000D01*
X136550000Y-85850000D01*
X139450000Y-85850000D01*
X139450000Y-89450000D01*
X139450000Y-89450000D01*
G37*
G36*
X111820857Y-86482272D02*
X112021042Y-86565191D01*
X112201213Y-86685578D01*
X112354422Y-86838787D01*
X112354424Y-86838790D01*
X112354425Y-86838791D01*
X112474807Y-87018955D01*
X112474809Y-87018958D01*
X112557728Y-87219143D01*
X112600000Y-87431658D01*
X112600000Y-87648342D01*
X112557728Y-87860857D01*
X112474809Y-88061042D01*
X112354422Y-88241213D01*
X112201213Y-88394422D01*
X112021042Y-88514809D01*
X111820857Y-88597728D01*
X111608342Y-88640000D01*
X111391658Y-88640000D01*
X111179143Y-88597728D01*
X110978958Y-88514809D01*
X110798787Y-88394422D01*
X110645578Y-88241213D01*
X110525191Y-88061042D01*
X110442272Y-87860857D01*
X110400000Y-87648342D01*
X110400000Y-87431658D01*
X110442272Y-87219143D01*
X110525191Y-87018958D01*
X110525193Y-87018955D01*
X110645575Y-86838791D01*
X110645576Y-86838790D01*
X110645578Y-86838787D01*
X110798787Y-86685578D01*
X110978958Y-86565191D01*
X111179143Y-86482272D01*
X111391658Y-86440000D01*
X111608342Y-86440000D01*
X111820857Y-86482272D01*
X111820857Y-86482272D01*
G37*
G36*
X101660857Y-86482272D02*
X101861042Y-86565191D01*
X102041213Y-86685578D01*
X102194422Y-86838787D01*
X102194424Y-86838790D01*
X102194425Y-86838791D01*
X102314807Y-87018955D01*
X102314809Y-87018958D01*
X102397728Y-87219143D01*
X102440000Y-87431658D01*
X102440000Y-87648342D01*
X102397728Y-87860857D01*
X102314809Y-88061042D01*
X102194422Y-88241213D01*
X102041213Y-88394422D01*
X101861042Y-88514809D01*
X101660857Y-88597728D01*
X101448342Y-88640000D01*
X101231658Y-88640000D01*
X101019143Y-88597728D01*
X100818958Y-88514809D01*
X100638787Y-88394422D01*
X100485578Y-88241213D01*
X100365191Y-88061042D01*
X100282272Y-87860857D01*
X100240000Y-87648342D01*
X100240000Y-87431658D01*
X100282272Y-87219143D01*
X100365191Y-87018958D01*
X100365193Y-87018955D01*
X100485575Y-86838791D01*
X100485576Y-86838790D01*
X100485578Y-86838787D01*
X100638787Y-86685578D01*
X100818958Y-86565191D01*
X101019143Y-86482272D01*
X101231658Y-86440000D01*
X101448342Y-86440000D01*
X101660857Y-86482272D01*
X101660857Y-86482272D01*
G37*
G36*
X106740857Y-86482272D02*
X106941042Y-86565191D01*
X107121213Y-86685578D01*
X107274422Y-86838787D01*
X107274424Y-86838790D01*
X107274425Y-86838791D01*
X107394807Y-87018955D01*
X107394809Y-87018958D01*
X107477728Y-87219143D01*
X107520000Y-87431658D01*
X107520000Y-87648342D01*
X107477728Y-87860857D01*
X107394809Y-88061042D01*
X107274422Y-88241213D01*
X107121213Y-88394422D01*
X106941042Y-88514809D01*
X106740857Y-88597728D01*
X106528342Y-88640000D01*
X106311658Y-88640000D01*
X106099143Y-88597728D01*
X105898958Y-88514809D01*
X105718787Y-88394422D01*
X105565578Y-88241213D01*
X105445191Y-88061042D01*
X105362272Y-87860857D01*
X105320000Y-87648342D01*
X105320000Y-87431658D01*
X105362272Y-87219143D01*
X105445191Y-87018958D01*
X105445193Y-87018955D01*
X105565575Y-86838791D01*
X105565576Y-86838790D01*
X105565578Y-86838787D01*
X105718787Y-86685578D01*
X105898958Y-86565191D01*
X106099143Y-86482272D01*
X106311658Y-86440000D01*
X106528342Y-86440000D01*
X106740857Y-86482272D01*
X106740857Y-86482272D01*
G37*
G36*
X104200857Y-86482272D02*
X104401042Y-86565191D01*
X104581213Y-86685578D01*
X104734422Y-86838787D01*
X104734424Y-86838790D01*
X104734425Y-86838791D01*
X104854807Y-87018955D01*
X104854809Y-87018958D01*
X104937728Y-87219143D01*
X104980000Y-87431658D01*
X104980000Y-87648342D01*
X104937728Y-87860857D01*
X104854809Y-88061042D01*
X104734422Y-88241213D01*
X104581213Y-88394422D01*
X104401042Y-88514809D01*
X104200857Y-88597728D01*
X103988342Y-88640000D01*
X103771658Y-88640000D01*
X103559143Y-88597728D01*
X103358958Y-88514809D01*
X103178787Y-88394422D01*
X103025578Y-88241213D01*
X102905191Y-88061042D01*
X102822272Y-87860857D01*
X102780000Y-87648342D01*
X102780000Y-87431658D01*
X102822272Y-87219143D01*
X102905191Y-87018958D01*
X102905193Y-87018955D01*
X103025575Y-86838791D01*
X103025576Y-86838790D01*
X103025578Y-86838787D01*
X103178787Y-86685578D01*
X103358958Y-86565191D01*
X103559143Y-86482272D01*
X103771658Y-86440000D01*
X103988342Y-86440000D01*
X104200857Y-86482272D01*
X104200857Y-86482272D01*
G37*
G36*
X173320857Y-85982272D02*
X173521042Y-86065191D01*
X173701213Y-86185578D01*
X173854422Y-86338787D01*
X173974809Y-86518958D01*
X174057728Y-86719143D01*
X174100000Y-86931658D01*
X174100000Y-87148342D01*
X174057728Y-87360857D01*
X173974809Y-87561042D01*
X173974807Y-87561045D01*
X173916478Y-87648341D01*
X173854422Y-87741213D01*
X173701213Y-87894422D01*
X173521042Y-88014809D01*
X173320857Y-88097728D01*
X173108342Y-88140000D01*
X172891658Y-88140000D01*
X172679143Y-88097728D01*
X172478958Y-88014809D01*
X172298787Y-87894422D01*
X172145578Y-87741213D01*
X172083523Y-87648341D01*
X172025193Y-87561045D01*
X172025191Y-87561042D01*
X171942272Y-87360857D01*
X171900000Y-87148342D01*
X171900000Y-86931658D01*
X171942272Y-86719143D01*
X172025191Y-86518958D01*
X172145578Y-86338787D01*
X172298787Y-86185578D01*
X172478958Y-86065191D01*
X172679143Y-85982272D01*
X172891658Y-85940000D01*
X173108342Y-85940000D01*
X173320857Y-85982272D01*
X173320857Y-85982272D01*
G37*
G36*
X178400857Y-85982272D02*
X178601042Y-86065191D01*
X178781213Y-86185578D01*
X178934422Y-86338787D01*
X179054809Y-86518958D01*
X179137728Y-86719143D01*
X179180000Y-86931658D01*
X179180000Y-87148342D01*
X179137728Y-87360857D01*
X179054809Y-87561042D01*
X179054807Y-87561045D01*
X178996478Y-87648341D01*
X178934422Y-87741213D01*
X178781213Y-87894422D01*
X178601042Y-88014809D01*
X178400857Y-88097728D01*
X178188342Y-88140000D01*
X177971658Y-88140000D01*
X177759143Y-88097728D01*
X177558958Y-88014809D01*
X177378787Y-87894422D01*
X177225578Y-87741213D01*
X177163523Y-87648341D01*
X177105193Y-87561045D01*
X177105191Y-87561042D01*
X177022272Y-87360857D01*
X176980000Y-87148342D01*
X176980000Y-86931658D01*
X177022272Y-86719143D01*
X177105191Y-86518958D01*
X177225578Y-86338787D01*
X177378787Y-86185578D01*
X177558958Y-86065191D01*
X177759143Y-85982272D01*
X177971658Y-85940000D01*
X178188342Y-85940000D01*
X178400857Y-85982272D01*
X178400857Y-85982272D01*
G37*
G36*
X180920857Y-85982272D02*
X181121042Y-86065191D01*
X181301213Y-86185578D01*
X181454422Y-86338787D01*
X181574809Y-86518958D01*
X181657728Y-86719143D01*
X181700000Y-86931658D01*
X181700000Y-87148342D01*
X181657728Y-87360857D01*
X181574809Y-87561042D01*
X181574807Y-87561045D01*
X181516478Y-87648341D01*
X181454422Y-87741213D01*
X181301213Y-87894422D01*
X181121042Y-88014809D01*
X180920857Y-88097728D01*
X180708342Y-88140000D01*
X180491658Y-88140000D01*
X180279143Y-88097728D01*
X180078958Y-88014809D01*
X179898787Y-87894422D01*
X179745578Y-87741213D01*
X179683523Y-87648341D01*
X179625193Y-87561045D01*
X179625191Y-87561042D01*
X179542272Y-87360857D01*
X179500000Y-87148342D01*
X179500000Y-86931658D01*
X179542272Y-86719143D01*
X179625191Y-86518958D01*
X179745578Y-86338787D01*
X179898787Y-86185578D01*
X180078958Y-86065191D01*
X180279143Y-85982272D01*
X180491658Y-85940000D01*
X180708342Y-85940000D01*
X180920857Y-85982272D01*
X180920857Y-85982272D01*
G37*
G36*
X183480857Y-85982272D02*
X183681042Y-86065191D01*
X183861213Y-86185578D01*
X184014422Y-86338787D01*
X184134809Y-86518958D01*
X184217728Y-86719143D01*
X184260000Y-86931658D01*
X184260000Y-87148342D01*
X184217728Y-87360857D01*
X184134809Y-87561042D01*
X184134807Y-87561045D01*
X184076478Y-87648341D01*
X184014422Y-87741213D01*
X183861213Y-87894422D01*
X183681042Y-88014809D01*
X183480857Y-88097728D01*
X183268342Y-88140000D01*
X183051658Y-88140000D01*
X182839143Y-88097728D01*
X182638958Y-88014809D01*
X182458787Y-87894422D01*
X182305578Y-87741213D01*
X182243523Y-87648341D01*
X182185193Y-87561045D01*
X182185191Y-87561042D01*
X182102272Y-87360857D01*
X182060000Y-87148342D01*
X182060000Y-86931658D01*
X182102272Y-86719143D01*
X182185191Y-86518958D01*
X182305578Y-86338787D01*
X182458787Y-86185578D01*
X182638958Y-86065191D01*
X182839143Y-85982272D01*
X183051658Y-85940000D01*
X183268342Y-85940000D01*
X183480857Y-85982272D01*
X183480857Y-85982272D01*
G37*
G36*
X112300000Y-85850000D02*
X110400000Y-85850000D01*
X110400000Y-84150000D01*
X112300000Y-84150000D01*
X112300000Y-85850000D01*
X112300000Y-85850000D01*
G37*
G36*
X109600000Y-85850000D02*
X107700000Y-85850000D01*
X107700000Y-84150000D01*
X109600000Y-84150000D01*
X109600000Y-85850000D01*
X109600000Y-85850000D01*
G37*
G36*
X172600000Y-85350000D02*
X170700000Y-85350000D01*
X170700000Y-83650000D01*
X172600000Y-83650000D01*
X172600000Y-85350000D01*
X172600000Y-85350000D01*
G37*
G36*
X175300000Y-85350000D02*
X173400000Y-85350000D01*
X173400000Y-83650000D01*
X175300000Y-83650000D01*
X175300000Y-85350000D01*
X175300000Y-85350000D01*
G37*
G36*
X139450000Y-85150000D02*
X136550000Y-85150000D01*
X136550000Y-81550000D01*
X139450000Y-81550000D01*
X139450000Y-85150000D01*
X139450000Y-85150000D01*
G37*
G36*
X101660857Y-81402272D02*
X101861042Y-81485191D01*
X102041213Y-81605578D01*
X102194422Y-81758787D01*
X102194424Y-81758790D01*
X102194425Y-81758791D01*
X102314807Y-81938955D01*
X102314809Y-81938958D01*
X102397728Y-82139143D01*
X102440000Y-82351658D01*
X102440000Y-82568342D01*
X102397728Y-82780857D01*
X102314809Y-82981042D01*
X102194422Y-83161213D01*
X102041213Y-83314422D01*
X101861042Y-83434809D01*
X101660857Y-83517728D01*
X101448342Y-83560000D01*
X101231658Y-83560000D01*
X101019143Y-83517728D01*
X100818958Y-83434809D01*
X100638787Y-83314422D01*
X100485578Y-83161213D01*
X100365191Y-82981042D01*
X100282272Y-82780857D01*
X100240000Y-82568342D01*
X100240000Y-82351658D01*
X100282272Y-82139143D01*
X100365191Y-81938958D01*
X100365193Y-81938955D01*
X100485575Y-81758791D01*
X100485576Y-81758790D01*
X100485578Y-81758787D01*
X100638787Y-81605578D01*
X100818958Y-81485191D01*
X101019143Y-81402272D01*
X101231658Y-81360000D01*
X101448342Y-81360000D01*
X101660857Y-81402272D01*
X101660857Y-81402272D01*
G37*
G36*
X111820857Y-81402272D02*
X112021042Y-81485191D01*
X112201213Y-81605578D01*
X112354422Y-81758787D01*
X112354424Y-81758790D01*
X112354425Y-81758791D01*
X112474807Y-81938955D01*
X112474809Y-81938958D01*
X112557728Y-82139143D01*
X112600000Y-82351658D01*
X112600000Y-82568342D01*
X112557728Y-82780857D01*
X112474809Y-82981042D01*
X112354422Y-83161213D01*
X112201213Y-83314422D01*
X112021042Y-83434809D01*
X111820857Y-83517728D01*
X111608342Y-83560000D01*
X111391658Y-83560000D01*
X111179143Y-83517728D01*
X110978958Y-83434809D01*
X110798787Y-83314422D01*
X110645578Y-83161213D01*
X110525191Y-82981042D01*
X110442272Y-82780857D01*
X110400000Y-82568342D01*
X110400000Y-82351658D01*
X110442272Y-82139143D01*
X110525191Y-81938958D01*
X110525193Y-81938955D01*
X110645575Y-81758791D01*
X110645576Y-81758790D01*
X110645578Y-81758787D01*
X110798787Y-81605578D01*
X110978958Y-81485191D01*
X111179143Y-81402272D01*
X111391658Y-81360000D01*
X111608342Y-81360000D01*
X111820857Y-81402272D01*
X111820857Y-81402272D01*
G37*
G36*
X106740857Y-81402272D02*
X106941042Y-81485191D01*
X107121213Y-81605578D01*
X107274422Y-81758787D01*
X107274424Y-81758790D01*
X107274425Y-81758791D01*
X107394807Y-81938955D01*
X107394809Y-81938958D01*
X107477728Y-82139143D01*
X107520000Y-82351658D01*
X107520000Y-82568342D01*
X107477728Y-82780857D01*
X107394809Y-82981042D01*
X107274422Y-83161213D01*
X107121213Y-83314422D01*
X106941042Y-83434809D01*
X106740857Y-83517728D01*
X106528342Y-83560000D01*
X106311658Y-83560000D01*
X106099143Y-83517728D01*
X105898958Y-83434809D01*
X105718787Y-83314422D01*
X105565578Y-83161213D01*
X105445191Y-82981042D01*
X105362272Y-82780857D01*
X105320000Y-82568342D01*
X105320000Y-82351658D01*
X105362272Y-82139143D01*
X105445191Y-81938958D01*
X105445193Y-81938955D01*
X105565575Y-81758791D01*
X105565576Y-81758790D01*
X105565578Y-81758787D01*
X105718787Y-81605578D01*
X105898958Y-81485191D01*
X106099143Y-81402272D01*
X106311658Y-81360000D01*
X106528342Y-81360000D01*
X106740857Y-81402272D01*
X106740857Y-81402272D01*
G37*
G36*
X104220857Y-81402272D02*
X104421042Y-81485191D01*
X104601213Y-81605578D01*
X104754422Y-81758787D01*
X104754424Y-81758790D01*
X104754425Y-81758791D01*
X104874807Y-81938955D01*
X104874809Y-81938958D01*
X104957728Y-82139143D01*
X105000000Y-82351658D01*
X105000000Y-82568342D01*
X104957728Y-82780857D01*
X104874809Y-82981042D01*
X104754422Y-83161213D01*
X104601213Y-83314422D01*
X104421042Y-83434809D01*
X104220857Y-83517728D01*
X104008342Y-83560000D01*
X103791658Y-83560000D01*
X103579143Y-83517728D01*
X103378958Y-83434809D01*
X103198787Y-83314422D01*
X103045578Y-83161213D01*
X102925191Y-82981042D01*
X102842272Y-82780857D01*
X102800000Y-82568342D01*
X102800000Y-82351658D01*
X102842272Y-82139143D01*
X102925191Y-81938958D01*
X102925193Y-81938955D01*
X103045575Y-81758791D01*
X103045576Y-81758790D01*
X103045578Y-81758787D01*
X103198787Y-81605578D01*
X103378958Y-81485191D01*
X103579143Y-81402272D01*
X103791658Y-81360000D01*
X104008342Y-81360000D01*
X104220857Y-81402272D01*
X104220857Y-81402272D01*
G37*
G36*
X178400857Y-80902272D02*
X178601042Y-80985191D01*
X178781213Y-81105578D01*
X178934422Y-81258787D01*
X179054809Y-81438958D01*
X179137728Y-81639143D01*
X179180000Y-81851658D01*
X179180000Y-82068342D01*
X179137728Y-82280857D01*
X179054809Y-82481042D01*
X179054807Y-82481045D01*
X178996478Y-82568341D01*
X178934422Y-82661213D01*
X178781213Y-82814422D01*
X178601042Y-82934809D01*
X178400857Y-83017728D01*
X178188342Y-83060000D01*
X177971658Y-83060000D01*
X177759143Y-83017728D01*
X177558958Y-82934809D01*
X177378787Y-82814422D01*
X177225578Y-82661213D01*
X177163523Y-82568341D01*
X177105193Y-82481045D01*
X177105191Y-82481042D01*
X177022272Y-82280857D01*
X176980000Y-82068342D01*
X176980000Y-81851658D01*
X177022272Y-81639143D01*
X177105191Y-81438958D01*
X177225578Y-81258787D01*
X177378787Y-81105578D01*
X177558958Y-80985191D01*
X177759143Y-80902272D01*
X177971658Y-80860000D01*
X178188342Y-80860000D01*
X178400857Y-80902272D01*
X178400857Y-80902272D01*
G37*
G36*
X173320857Y-80902272D02*
X173521042Y-80985191D01*
X173701213Y-81105578D01*
X173854422Y-81258787D01*
X173974809Y-81438958D01*
X174057728Y-81639143D01*
X174100000Y-81851658D01*
X174100000Y-82068342D01*
X174057728Y-82280857D01*
X173974809Y-82481042D01*
X173974807Y-82481045D01*
X173916478Y-82568341D01*
X173854422Y-82661213D01*
X173701213Y-82814422D01*
X173521042Y-82934809D01*
X173320857Y-83017728D01*
X173108342Y-83060000D01*
X172891658Y-83060000D01*
X172679143Y-83017728D01*
X172478958Y-82934809D01*
X172298787Y-82814422D01*
X172145578Y-82661213D01*
X172083523Y-82568341D01*
X172025193Y-82481045D01*
X172025191Y-82481042D01*
X171942272Y-82280857D01*
X171900000Y-82068342D01*
X171900000Y-81851658D01*
X171942272Y-81639143D01*
X172025191Y-81438958D01*
X172145578Y-81258787D01*
X172298787Y-81105578D01*
X172478958Y-80985191D01*
X172679143Y-80902272D01*
X172891658Y-80860000D01*
X173108342Y-80860000D01*
X173320857Y-80902272D01*
X173320857Y-80902272D01*
G37*
G36*
X180940857Y-80902272D02*
X181141042Y-80985191D01*
X181321213Y-81105578D01*
X181474422Y-81258787D01*
X181594809Y-81438958D01*
X181677728Y-81639143D01*
X181720000Y-81851658D01*
X181720000Y-82068342D01*
X181677728Y-82280857D01*
X181594809Y-82481042D01*
X181594807Y-82481045D01*
X181536478Y-82568341D01*
X181474422Y-82661213D01*
X181321213Y-82814422D01*
X181141042Y-82934809D01*
X180940857Y-83017728D01*
X180728342Y-83060000D01*
X180511658Y-83060000D01*
X180299143Y-83017728D01*
X180098958Y-82934809D01*
X179918787Y-82814422D01*
X179765578Y-82661213D01*
X179703523Y-82568341D01*
X179645193Y-82481045D01*
X179645191Y-82481042D01*
X179562272Y-82280857D01*
X179520000Y-82068342D01*
X179520000Y-81851658D01*
X179562272Y-81639143D01*
X179645191Y-81438958D01*
X179765578Y-81258787D01*
X179918787Y-81105578D01*
X180098958Y-80985191D01*
X180299143Y-80902272D01*
X180511658Y-80860000D01*
X180728342Y-80860000D01*
X180940857Y-80902272D01*
X180940857Y-80902272D01*
G37*
G36*
X183480857Y-80902272D02*
X183681042Y-80985191D01*
X183861213Y-81105578D01*
X184014422Y-81258787D01*
X184134809Y-81438958D01*
X184217728Y-81639143D01*
X184260000Y-81851658D01*
X184260000Y-82068342D01*
X184217728Y-82280857D01*
X184134809Y-82481042D01*
X184134807Y-82481045D01*
X184076478Y-82568341D01*
X184014422Y-82661213D01*
X183861213Y-82814422D01*
X183681042Y-82934809D01*
X183480857Y-83017728D01*
X183268342Y-83060000D01*
X183051658Y-83060000D01*
X182839143Y-83017728D01*
X182638958Y-82934809D01*
X182458787Y-82814422D01*
X182305578Y-82661213D01*
X182243523Y-82568341D01*
X182185193Y-82481045D01*
X182185191Y-82481042D01*
X182102272Y-82280857D01*
X182060000Y-82068342D01*
X182060000Y-81851658D01*
X182102272Y-81639143D01*
X182185191Y-81438958D01*
X182305578Y-81258787D01*
X182458787Y-81105578D01*
X182638958Y-80985191D01*
X182839143Y-80902272D01*
X183051658Y-80860000D01*
X183268342Y-80860000D01*
X183480857Y-80902272D01*
X183480857Y-80902272D01*
G37*
G36*
X144517971Y-74137076D02*
X144754639Y-74184152D01*
X145200510Y-74368838D01*
X145601784Y-74636960D01*
X145943040Y-74978216D01*
X146211162Y-75379490D01*
X146395848Y-75825361D01*
X146490000Y-76298696D01*
X146490000Y-76781304D01*
X146395848Y-77254639D01*
X146211162Y-77700510D01*
X145943040Y-78101784D01*
X145601784Y-78443040D01*
X145200510Y-78711162D01*
X144754639Y-78895848D01*
X144281305Y-78990000D01*
X143798695Y-78990000D01*
X143562029Y-78942924D01*
X143325361Y-78895848D01*
X142879490Y-78711162D01*
X142478216Y-78443040D01*
X142136960Y-78101784D01*
X141868838Y-77700510D01*
X141684152Y-77254639D01*
X141590000Y-76781304D01*
X141590000Y-76298696D01*
X141684152Y-75825361D01*
X141868838Y-75379490D01*
X142136960Y-74978216D01*
X142478216Y-74636960D01*
X142879490Y-74368838D01*
X143325361Y-74184152D01*
X143562029Y-74137076D01*
X143798695Y-74090000D01*
X144281305Y-74090000D01*
X144517971Y-74137076D01*
X144517971Y-74137076D01*
G37*
G36*
X163017971Y-74137076D02*
X163254639Y-74184152D01*
X163700510Y-74368838D01*
X164101784Y-74636960D01*
X164443040Y-74978216D01*
X164711162Y-75379490D01*
X164895848Y-75825361D01*
X164990000Y-76298696D01*
X164990000Y-76781304D01*
X164895848Y-77254639D01*
X164711162Y-77700510D01*
X164443040Y-78101784D01*
X164101784Y-78443040D01*
X163700510Y-78711162D01*
X163254639Y-78895848D01*
X162781305Y-78990000D01*
X162298695Y-78990000D01*
X162062029Y-78942924D01*
X161825361Y-78895848D01*
X161379490Y-78711162D01*
X160978216Y-78443040D01*
X160636960Y-78101784D01*
X160368838Y-77700510D01*
X160184152Y-77254639D01*
X160090000Y-76781304D01*
X160090000Y-76298696D01*
X160184152Y-75825361D01*
X160368838Y-75379490D01*
X160636960Y-74978216D01*
X160978216Y-74636960D01*
X161379490Y-74368838D01*
X161825361Y-74184152D01*
X162062029Y-74137076D01*
X162298695Y-74090000D01*
X162781305Y-74090000D01*
X163017971Y-74137076D01*
X163017971Y-74137076D01*
G37*
G36*
X126017971Y-74137076D02*
X126254639Y-74184152D01*
X126700510Y-74368838D01*
X127101784Y-74636960D01*
X127443040Y-74978216D01*
X127711162Y-75379490D01*
X127895848Y-75825361D01*
X127990000Y-76298696D01*
X127990000Y-76781304D01*
X127895848Y-77254639D01*
X127711162Y-77700510D01*
X127443040Y-78101784D01*
X127101784Y-78443040D01*
X126700510Y-78711162D01*
X126254639Y-78895848D01*
X126017971Y-78942924D01*
X125781305Y-78990000D01*
X125298695Y-78990000D01*
X125062029Y-78942924D01*
X124825361Y-78895848D01*
X124379490Y-78711162D01*
X123978216Y-78443040D01*
X123636960Y-78101784D01*
X123368838Y-77700510D01*
X123184152Y-77254639D01*
X123090000Y-76781304D01*
X123090000Y-76298696D01*
X123184152Y-75825361D01*
X123368838Y-75379490D01*
X123636960Y-74978216D01*
X123978216Y-74636960D01*
X124379490Y-74368838D01*
X124825361Y-74184152D01*
X125062029Y-74137076D01*
X125298695Y-74090000D01*
X125781305Y-74090000D01*
X126017971Y-74137076D01*
X126017971Y-74137076D01*
G37*
G36*
X101660857Y-75482272D02*
X101861042Y-75565191D01*
X102041213Y-75685578D01*
X102194422Y-75838787D01*
X102314809Y-76018958D01*
X102397728Y-76219143D01*
X102440000Y-76431658D01*
X102440000Y-76648342D01*
X102397728Y-76860857D01*
X102314809Y-77061042D01*
X102194422Y-77241213D01*
X102041213Y-77394422D01*
X101861042Y-77514809D01*
X101660857Y-77597728D01*
X101448342Y-77640000D01*
X101231658Y-77640000D01*
X101019143Y-77597728D01*
X100818958Y-77514809D01*
X100638787Y-77394422D01*
X100485578Y-77241213D01*
X100365191Y-77061042D01*
X100282272Y-76860857D01*
X100240000Y-76648342D01*
X100240000Y-76431658D01*
X100282272Y-76219143D01*
X100365191Y-76018958D01*
X100485578Y-75838787D01*
X100638787Y-75685578D01*
X100818958Y-75565191D01*
X101019143Y-75482272D01*
X101231658Y-75440000D01*
X101448342Y-75440000D01*
X101660857Y-75482272D01*
X101660857Y-75482272D01*
G37*
G36*
X180920857Y-75482272D02*
X181121042Y-75565191D01*
X181301213Y-75685578D01*
X181454422Y-75838787D01*
X181574809Y-76018958D01*
X181657728Y-76219143D01*
X181700000Y-76431658D01*
X181700000Y-76648342D01*
X181657728Y-76860857D01*
X181574809Y-77061042D01*
X181454422Y-77241213D01*
X181301213Y-77394422D01*
X181121042Y-77514809D01*
X180920857Y-77597728D01*
X180708342Y-77640000D01*
X180491658Y-77640000D01*
X180279143Y-77597728D01*
X180078958Y-77514809D01*
X179898787Y-77394422D01*
X179745578Y-77241213D01*
X179625191Y-77061042D01*
X179542272Y-76860857D01*
X179500000Y-76648342D01*
X179500000Y-76431658D01*
X179542272Y-76219143D01*
X179625191Y-76018958D01*
X179745578Y-75838787D01*
X179898787Y-75685578D01*
X180078958Y-75565191D01*
X180279143Y-75482272D01*
X180491658Y-75440000D01*
X180708342Y-75440000D01*
X180920857Y-75482272D01*
X180920857Y-75482272D01*
G37*
G36*
X183480857Y-75482272D02*
X183681042Y-75565191D01*
X183861213Y-75685578D01*
X184014422Y-75838787D01*
X184134809Y-76018958D01*
X184217728Y-76219143D01*
X184260000Y-76431658D01*
X184260000Y-76648342D01*
X184217728Y-76860857D01*
X184134809Y-77061042D01*
X184014422Y-77241213D01*
X183861213Y-77394422D01*
X183681042Y-77514809D01*
X183480857Y-77597728D01*
X183268342Y-77640000D01*
X183051658Y-77640000D01*
X182839143Y-77597728D01*
X182638958Y-77514809D01*
X182458787Y-77394422D01*
X182305578Y-77241213D01*
X182185191Y-77061042D01*
X182102272Y-76860857D01*
X182060000Y-76648342D01*
X182060000Y-76431658D01*
X182102272Y-76219143D01*
X182185191Y-76018958D01*
X182305578Y-75838787D01*
X182458787Y-75685578D01*
X182638958Y-75565191D01*
X182839143Y-75482272D01*
X183051658Y-75440000D01*
X183268342Y-75440000D01*
X183480857Y-75482272D01*
X183480857Y-75482272D01*
G37*
G36*
X104200857Y-75482272D02*
X104401042Y-75565191D01*
X104581213Y-75685578D01*
X104734422Y-75838787D01*
X104854809Y-76018958D01*
X104937728Y-76219143D01*
X104980000Y-76431658D01*
X104980000Y-76648342D01*
X104937728Y-76860857D01*
X104854809Y-77061042D01*
X104734422Y-77241213D01*
X104581213Y-77394422D01*
X104401042Y-77514809D01*
X104200857Y-77597728D01*
X103988342Y-77640000D01*
X103771658Y-77640000D01*
X103559143Y-77597728D01*
X103358958Y-77514809D01*
X103178787Y-77394422D01*
X103025578Y-77241213D01*
X102905191Y-77061042D01*
X102822272Y-76860857D01*
X102780000Y-76648342D01*
X102780000Y-76431658D01*
X102822272Y-76219143D01*
X102905191Y-76018958D01*
X103025578Y-75838787D01*
X103178787Y-75685578D01*
X103358958Y-75565191D01*
X103559143Y-75482272D01*
X103771658Y-75440000D01*
X103988342Y-75440000D01*
X104200857Y-75482272D01*
X104200857Y-75482272D01*
G37*
G36*
X178400857Y-75482272D02*
X178601042Y-75565191D01*
X178781213Y-75685578D01*
X178934422Y-75838787D01*
X179054809Y-76018958D01*
X179137728Y-76219143D01*
X179180000Y-76431658D01*
X179180000Y-76648342D01*
X179137728Y-76860857D01*
X179054809Y-77061042D01*
X178934422Y-77241213D01*
X178781213Y-77394422D01*
X178601042Y-77514809D01*
X178400857Y-77597728D01*
X178188342Y-77640000D01*
X177971658Y-77640000D01*
X177759143Y-77597728D01*
X177558958Y-77514809D01*
X177378787Y-77394422D01*
X177225578Y-77241213D01*
X177105191Y-77061042D01*
X177022272Y-76860857D01*
X176980000Y-76648342D01*
X176980000Y-76431658D01*
X177022272Y-76219143D01*
X177105191Y-76018958D01*
X177225578Y-75838787D01*
X177378787Y-75685578D01*
X177558958Y-75565191D01*
X177759143Y-75482272D01*
X177971658Y-75440000D01*
X178188342Y-75440000D01*
X178400857Y-75482272D01*
X178400857Y-75482272D01*
G37*
G36*
X173320857Y-75482272D02*
X173521042Y-75565191D01*
X173701213Y-75685578D01*
X173854422Y-75838787D01*
X173974809Y-76018958D01*
X174057728Y-76219143D01*
X174100000Y-76431658D01*
X174100000Y-76648342D01*
X174057728Y-76860857D01*
X173974809Y-77061042D01*
X173854422Y-77241213D01*
X173701213Y-77394422D01*
X173521042Y-77514809D01*
X173320857Y-77597728D01*
X173108342Y-77640000D01*
X172891658Y-77640000D01*
X172679143Y-77597728D01*
X172478958Y-77514809D01*
X172298787Y-77394422D01*
X172145578Y-77241213D01*
X172025191Y-77061042D01*
X171942272Y-76860857D01*
X171900000Y-76648342D01*
X171900000Y-76431658D01*
X171942272Y-76219143D01*
X172025191Y-76018958D01*
X172145578Y-75838787D01*
X172298787Y-75685578D01*
X172478958Y-75565191D01*
X172679143Y-75482272D01*
X172891658Y-75440000D01*
X173108342Y-75440000D01*
X173320857Y-75482272D01*
X173320857Y-75482272D01*
G37*
G36*
X111820857Y-75482272D02*
X112021042Y-75565191D01*
X112201213Y-75685578D01*
X112354422Y-75838787D01*
X112474809Y-76018958D01*
X112557728Y-76219143D01*
X112600000Y-76431658D01*
X112600000Y-76648342D01*
X112557728Y-76860857D01*
X112474809Y-77061042D01*
X112354422Y-77241213D01*
X112201213Y-77394422D01*
X112021042Y-77514809D01*
X111820857Y-77597728D01*
X111608342Y-77640000D01*
X111391658Y-77640000D01*
X111179143Y-77597728D01*
X110978958Y-77514809D01*
X110798787Y-77394422D01*
X110645578Y-77241213D01*
X110525191Y-77061042D01*
X110442272Y-76860857D01*
X110400000Y-76648342D01*
X110400000Y-76431658D01*
X110442272Y-76219143D01*
X110525191Y-76018958D01*
X110645578Y-75838787D01*
X110798787Y-75685578D01*
X110978958Y-75565191D01*
X111179143Y-75482272D01*
X111391658Y-75440000D01*
X111608342Y-75440000D01*
X111820857Y-75482272D01*
X111820857Y-75482272D01*
G37*
G36*
X106740857Y-75482272D02*
X106941042Y-75565191D01*
X107121213Y-75685578D01*
X107274422Y-75838787D01*
X107394809Y-76018958D01*
X107477728Y-76219143D01*
X107520000Y-76431658D01*
X107520000Y-76648342D01*
X107477728Y-76860857D01*
X107394809Y-77061042D01*
X107274422Y-77241213D01*
X107121213Y-77394422D01*
X106941042Y-77514809D01*
X106740857Y-77597728D01*
X106528342Y-77640000D01*
X106311658Y-77640000D01*
X106099143Y-77597728D01*
X105898958Y-77514809D01*
X105718787Y-77394422D01*
X105565578Y-77241213D01*
X105445191Y-77061042D01*
X105362272Y-76860857D01*
X105320000Y-76648342D01*
X105320000Y-76431658D01*
X105362272Y-76219143D01*
X105445191Y-76018958D01*
X105565578Y-75838787D01*
X105718787Y-75685578D01*
X105898958Y-75565191D01*
X106099143Y-75482272D01*
X106311658Y-75440000D01*
X106528342Y-75440000D01*
X106740857Y-75482272D01*
X106740857Y-75482272D01*
G37*
G36*
X158174639Y-70374152D02*
X158620510Y-70558838D01*
X159021784Y-70826960D01*
X159363040Y-71168216D01*
X159631162Y-71569490D01*
X159815848Y-72015361D01*
X159910000Y-72488696D01*
X159910000Y-72971304D01*
X159815848Y-73444639D01*
X159631162Y-73890510D01*
X159363040Y-74291784D01*
X159021784Y-74633040D01*
X158620510Y-74901162D01*
X158174639Y-75085848D01*
X157937971Y-75132924D01*
X157701305Y-75180000D01*
X157218695Y-75180000D01*
X156982029Y-75132924D01*
X156745361Y-75085848D01*
X156299490Y-74901162D01*
X155898216Y-74633040D01*
X155556960Y-74291784D01*
X155288838Y-73890510D01*
X155104152Y-73444639D01*
X155010000Y-72971304D01*
X155010000Y-72488696D01*
X155104152Y-72015361D01*
X155288838Y-71569490D01*
X155556960Y-71168216D01*
X155898216Y-70826960D01*
X156299490Y-70558838D01*
X156745361Y-70374152D01*
X157218695Y-70280000D01*
X157701305Y-70280000D01*
X158174639Y-70374152D01*
X158174639Y-70374152D01*
G37*
G36*
X139674639Y-70374152D02*
X140120510Y-70558838D01*
X140521784Y-70826960D01*
X140863040Y-71168216D01*
X141131162Y-71569490D01*
X141315848Y-72015361D01*
X141410000Y-72488696D01*
X141410000Y-72971304D01*
X141315848Y-73444639D01*
X141131162Y-73890510D01*
X140863040Y-74291784D01*
X140521784Y-74633040D01*
X140120510Y-74901162D01*
X139674639Y-75085848D01*
X139437971Y-75132924D01*
X139201305Y-75180000D01*
X138718695Y-75180000D01*
X138482029Y-75132924D01*
X138245361Y-75085848D01*
X137799490Y-74901162D01*
X137398216Y-74633040D01*
X137056960Y-74291784D01*
X136788838Y-73890510D01*
X136604152Y-73444639D01*
X136510000Y-72971304D01*
X136510000Y-72488696D01*
X136604152Y-72015361D01*
X136788838Y-71569490D01*
X137056960Y-71168216D01*
X137398216Y-70826960D01*
X137799490Y-70558838D01*
X138245361Y-70374152D01*
X138718695Y-70280000D01*
X139201305Y-70280000D01*
X139674639Y-70374152D01*
X139674639Y-70374152D01*
G37*
G36*
X121174639Y-70374152D02*
X121620510Y-70558838D01*
X122021784Y-70826960D01*
X122363040Y-71168216D01*
X122631162Y-71569490D01*
X122815848Y-72015361D01*
X122910000Y-72488696D01*
X122910000Y-72971304D01*
X122815848Y-73444639D01*
X122631162Y-73890510D01*
X122363040Y-74291784D01*
X122021784Y-74633040D01*
X121620510Y-74901162D01*
X121174639Y-75085848D01*
X120937971Y-75132924D01*
X120701305Y-75180000D01*
X120218695Y-75180000D01*
X119982029Y-75132924D01*
X119745361Y-75085848D01*
X119299490Y-74901162D01*
X118898216Y-74633040D01*
X118556960Y-74291784D01*
X118288838Y-73890510D01*
X118104152Y-73444639D01*
X118010000Y-72971304D01*
X118010000Y-72488696D01*
X118104152Y-72015361D01*
X118288838Y-71569490D01*
X118556960Y-71168216D01*
X118898216Y-70826960D01*
X119299490Y-70558838D01*
X119745361Y-70374152D01*
X120218695Y-70280000D01*
X120701305Y-70280000D01*
X121174639Y-70374152D01*
X121174639Y-70374152D01*
G37*
G36*
X174100000Y-74850000D02*
X172200000Y-74850000D01*
X172200000Y-73150000D01*
X174100000Y-73150000D01*
X174100000Y-74850000D01*
X174100000Y-74850000D01*
G37*
G36*
X112300000Y-74850000D02*
X110400000Y-74850000D01*
X110400000Y-73150000D01*
X112300000Y-73150000D01*
X112300000Y-74850000D01*
X112300000Y-74850000D01*
G37*
G36*
X109600000Y-74850000D02*
X107700000Y-74850000D01*
X107700000Y-73150000D01*
X109600000Y-73150000D01*
X109600000Y-74850000D01*
X109600000Y-74850000D01*
G37*
G36*
X176800000Y-74850000D02*
X174900000Y-74850000D01*
X174900000Y-73150000D01*
X176800000Y-73150000D01*
X176800000Y-74850000D01*
X176800000Y-74850000D01*
G37*
G36*
X111820857Y-70402272D02*
X112021042Y-70485191D01*
X112201213Y-70605578D01*
X112354422Y-70758787D01*
X112474809Y-70938958D01*
X112557728Y-71139143D01*
X112600000Y-71351658D01*
X112600000Y-71568342D01*
X112557728Y-71780857D01*
X112474809Y-71981042D01*
X112354422Y-72161213D01*
X112201213Y-72314422D01*
X112021042Y-72434809D01*
X111820857Y-72517728D01*
X111608342Y-72560000D01*
X111391658Y-72560000D01*
X111179143Y-72517728D01*
X110978958Y-72434809D01*
X110798787Y-72314422D01*
X110645578Y-72161213D01*
X110525191Y-71981042D01*
X110442272Y-71780857D01*
X110400000Y-71568342D01*
X110400000Y-71351658D01*
X110442272Y-71139143D01*
X110525191Y-70938958D01*
X110645578Y-70758787D01*
X110798787Y-70605578D01*
X110978958Y-70485191D01*
X111179143Y-70402272D01*
X111391658Y-70360000D01*
X111608342Y-70360000D01*
X111820857Y-70402272D01*
X111820857Y-70402272D01*
G37*
G36*
X101660857Y-70402272D02*
X101861042Y-70485191D01*
X102041213Y-70605578D01*
X102194422Y-70758787D01*
X102314809Y-70938958D01*
X102397728Y-71139143D01*
X102440000Y-71351658D01*
X102440000Y-71568342D01*
X102397728Y-71780857D01*
X102314809Y-71981042D01*
X102194422Y-72161213D01*
X102041213Y-72314422D01*
X101861042Y-72434809D01*
X101660857Y-72517728D01*
X101448342Y-72560000D01*
X101231658Y-72560000D01*
X101019143Y-72517728D01*
X100818958Y-72434809D01*
X100638787Y-72314422D01*
X100485578Y-72161213D01*
X100365191Y-71981042D01*
X100282272Y-71780857D01*
X100240000Y-71568342D01*
X100240000Y-71351658D01*
X100282272Y-71139143D01*
X100365191Y-70938958D01*
X100485578Y-70758787D01*
X100638787Y-70605578D01*
X100818958Y-70485191D01*
X101019143Y-70402272D01*
X101231658Y-70360000D01*
X101448342Y-70360000D01*
X101660857Y-70402272D01*
X101660857Y-70402272D01*
G37*
G36*
X106740857Y-70402272D02*
X106941042Y-70485191D01*
X107121213Y-70605578D01*
X107274422Y-70758787D01*
X107394809Y-70938958D01*
X107477728Y-71139143D01*
X107520000Y-71351658D01*
X107520000Y-71568342D01*
X107477728Y-71780857D01*
X107394809Y-71981042D01*
X107274422Y-72161213D01*
X107121213Y-72314422D01*
X106941042Y-72434809D01*
X106740857Y-72517728D01*
X106528342Y-72560000D01*
X106311658Y-72560000D01*
X106099143Y-72517728D01*
X105898958Y-72434809D01*
X105718787Y-72314422D01*
X105565578Y-72161213D01*
X105445191Y-71981042D01*
X105362272Y-71780857D01*
X105320000Y-71568342D01*
X105320000Y-71351658D01*
X105362272Y-71139143D01*
X105445191Y-70938958D01*
X105565578Y-70758787D01*
X105718787Y-70605578D01*
X105898958Y-70485191D01*
X106099143Y-70402272D01*
X106311658Y-70360000D01*
X106528342Y-70360000D01*
X106740857Y-70402272D01*
X106740857Y-70402272D01*
G37*
G36*
X104220857Y-70402272D02*
X104421042Y-70485191D01*
X104601213Y-70605578D01*
X104754422Y-70758787D01*
X104874809Y-70938958D01*
X104957728Y-71139143D01*
X105000000Y-71351658D01*
X105000000Y-71568342D01*
X104957728Y-71780857D01*
X104874809Y-71981042D01*
X104754422Y-72161213D01*
X104601213Y-72314422D01*
X104421042Y-72434809D01*
X104220857Y-72517728D01*
X104008342Y-72560000D01*
X103791658Y-72560000D01*
X103579143Y-72517728D01*
X103378958Y-72434809D01*
X103198787Y-72314422D01*
X103045578Y-72161213D01*
X102925191Y-71981042D01*
X102842272Y-71780857D01*
X102800000Y-71568342D01*
X102800000Y-71351658D01*
X102842272Y-71139143D01*
X102925191Y-70938958D01*
X103045578Y-70758787D01*
X103198787Y-70605578D01*
X103378958Y-70485191D01*
X103579143Y-70402272D01*
X103791658Y-70360000D01*
X104008342Y-70360000D01*
X104220857Y-70402272D01*
X104220857Y-70402272D01*
G37*
G36*
X173320857Y-70402272D02*
X173521042Y-70485191D01*
X173701213Y-70605578D01*
X173854422Y-70758787D01*
X173974809Y-70938958D01*
X174057728Y-71139143D01*
X174100000Y-71351658D01*
X174100000Y-71568342D01*
X174057728Y-71780857D01*
X173974809Y-71981042D01*
X173854422Y-72161213D01*
X173701213Y-72314422D01*
X173521042Y-72434809D01*
X173320857Y-72517728D01*
X173108342Y-72560000D01*
X172891658Y-72560000D01*
X172679143Y-72517728D01*
X172478958Y-72434809D01*
X172298787Y-72314422D01*
X172145578Y-72161213D01*
X172025191Y-71981042D01*
X171942272Y-71780857D01*
X171900000Y-71568342D01*
X171900000Y-71351658D01*
X171942272Y-71139143D01*
X172025191Y-70938958D01*
X172145578Y-70758787D01*
X172298787Y-70605578D01*
X172478958Y-70485191D01*
X172679143Y-70402272D01*
X172891658Y-70360000D01*
X173108342Y-70360000D01*
X173320857Y-70402272D01*
X173320857Y-70402272D01*
G37*
G36*
X180940857Y-70402272D02*
X181141042Y-70485191D01*
X181321213Y-70605578D01*
X181474422Y-70758787D01*
X181594809Y-70938958D01*
X181677728Y-71139143D01*
X181720000Y-71351658D01*
X181720000Y-71568342D01*
X181677728Y-71780857D01*
X181594809Y-71981042D01*
X181474422Y-72161213D01*
X181321213Y-72314422D01*
X181141042Y-72434809D01*
X180940857Y-72517728D01*
X180728342Y-72560000D01*
X180511658Y-72560000D01*
X180299143Y-72517728D01*
X180098958Y-72434809D01*
X179918787Y-72314422D01*
X179765578Y-72161213D01*
X179645191Y-71981042D01*
X179562272Y-71780857D01*
X179520000Y-71568342D01*
X179520000Y-71351658D01*
X179562272Y-71139143D01*
X179645191Y-70938958D01*
X179765578Y-70758787D01*
X179918787Y-70605578D01*
X180098958Y-70485191D01*
X180299143Y-70402272D01*
X180511658Y-70360000D01*
X180728342Y-70360000D01*
X180940857Y-70402272D01*
X180940857Y-70402272D01*
G37*
G36*
X178400857Y-70402272D02*
X178601042Y-70485191D01*
X178781213Y-70605578D01*
X178934422Y-70758787D01*
X179054809Y-70938958D01*
X179137728Y-71139143D01*
X179180000Y-71351658D01*
X179180000Y-71568342D01*
X179137728Y-71780857D01*
X179054809Y-71981042D01*
X178934422Y-72161213D01*
X178781213Y-72314422D01*
X178601042Y-72434809D01*
X178400857Y-72517728D01*
X178188342Y-72560000D01*
X177971658Y-72560000D01*
X177759143Y-72517728D01*
X177558958Y-72434809D01*
X177378787Y-72314422D01*
X177225578Y-72161213D01*
X177105191Y-71981042D01*
X177022272Y-71780857D01*
X176980000Y-71568342D01*
X176980000Y-71351658D01*
X177022272Y-71139143D01*
X177105191Y-70938958D01*
X177225578Y-70758787D01*
X177378787Y-70605578D01*
X177558958Y-70485191D01*
X177759143Y-70402272D01*
X177971658Y-70360000D01*
X178188342Y-70360000D01*
X178400857Y-70402272D01*
X178400857Y-70402272D01*
G37*
G36*
X183480857Y-70402272D02*
X183681042Y-70485191D01*
X183861213Y-70605578D01*
X184014422Y-70758787D01*
X184134809Y-70938958D01*
X184217728Y-71139143D01*
X184260000Y-71351658D01*
X184260000Y-71568342D01*
X184217728Y-71780857D01*
X184134809Y-71981042D01*
X184014422Y-72161213D01*
X183861213Y-72314422D01*
X183681042Y-72434809D01*
X183480857Y-72517728D01*
X183268342Y-72560000D01*
X183051658Y-72560000D01*
X182839143Y-72517728D01*
X182638958Y-72434809D01*
X182458787Y-72314422D01*
X182305578Y-72161213D01*
X182185191Y-71981042D01*
X182102272Y-71780857D01*
X182060000Y-71568342D01*
X182060000Y-71351658D01*
X182102272Y-71139143D01*
X182185191Y-70938958D01*
X182305578Y-70758787D01*
X182458787Y-70605578D01*
X182638958Y-70485191D01*
X182839143Y-70402272D01*
X183051658Y-70360000D01*
X183268342Y-70360000D01*
X183480857Y-70402272D01*
X183480857Y-70402272D01*
G37*
G36*
X126254639Y-63684152D02*
X126700510Y-63868838D01*
X127101784Y-64136960D01*
X127443040Y-64478216D01*
X127711162Y-64879490D01*
X127851851Y-65219143D01*
X127895848Y-65325362D01*
X127990000Y-65798695D01*
X127990000Y-66281305D01*
X127967499Y-66394425D01*
X127895848Y-66754639D01*
X127711162Y-67200510D01*
X127443040Y-67601784D01*
X127101784Y-67943040D01*
X126700510Y-68211162D01*
X126254639Y-68395848D01*
X126017971Y-68442924D01*
X125781305Y-68490000D01*
X125298695Y-68490000D01*
X125062029Y-68442924D01*
X124825361Y-68395848D01*
X124379490Y-68211162D01*
X123978216Y-67943040D01*
X123636960Y-67601784D01*
X123368838Y-67200510D01*
X123184152Y-66754639D01*
X123112501Y-66394425D01*
X123090000Y-66281305D01*
X123090000Y-65798695D01*
X123184152Y-65325362D01*
X123228149Y-65219143D01*
X123368838Y-64879490D01*
X123636960Y-64478216D01*
X123978216Y-64136960D01*
X124379490Y-63868838D01*
X124825361Y-63684152D01*
X125298695Y-63590000D01*
X125781305Y-63590000D01*
X126254639Y-63684152D01*
X126254639Y-63684152D01*
G37*
G36*
X163254639Y-63684152D02*
X163700510Y-63868838D01*
X164101784Y-64136960D01*
X164443040Y-64478216D01*
X164711162Y-64879490D01*
X164851851Y-65219143D01*
X164895848Y-65325362D01*
X164990000Y-65798695D01*
X164990000Y-66281305D01*
X164967499Y-66394425D01*
X164895848Y-66754639D01*
X164711162Y-67200510D01*
X164443040Y-67601784D01*
X164101784Y-67943040D01*
X163700510Y-68211162D01*
X163254639Y-68395848D01*
X163017971Y-68442924D01*
X162781305Y-68490000D01*
X162298695Y-68490000D01*
X162062029Y-68442924D01*
X161825361Y-68395848D01*
X161379490Y-68211162D01*
X160978216Y-67943040D01*
X160636960Y-67601784D01*
X160368838Y-67200510D01*
X160184152Y-66754639D01*
X160112501Y-66394425D01*
X160090000Y-66281305D01*
X160090000Y-65798695D01*
X160184152Y-65325362D01*
X160228149Y-65219143D01*
X160368838Y-64879490D01*
X160636960Y-64478216D01*
X160978216Y-64136960D01*
X161379490Y-63868838D01*
X161825361Y-63684152D01*
X162298695Y-63590000D01*
X162781305Y-63590000D01*
X163254639Y-63684152D01*
X163254639Y-63684152D01*
G37*
G36*
X144754639Y-63684152D02*
X145200510Y-63868838D01*
X145601784Y-64136960D01*
X145943040Y-64478216D01*
X146211162Y-64879490D01*
X146351851Y-65219143D01*
X146395848Y-65325362D01*
X146490000Y-65798695D01*
X146490000Y-66281305D01*
X146467499Y-66394425D01*
X146395848Y-66754639D01*
X146211162Y-67200510D01*
X145943040Y-67601784D01*
X145601784Y-67943040D01*
X145200510Y-68211162D01*
X144754639Y-68395848D01*
X144517971Y-68442924D01*
X144281305Y-68490000D01*
X143798695Y-68490000D01*
X143562029Y-68442924D01*
X143325361Y-68395848D01*
X142879490Y-68211162D01*
X142478216Y-67943040D01*
X142136960Y-67601784D01*
X141868838Y-67200510D01*
X141684152Y-66754639D01*
X141612501Y-66394425D01*
X141590000Y-66281305D01*
X141590000Y-65798695D01*
X141684152Y-65325362D01*
X141728149Y-65219143D01*
X141868838Y-64879490D01*
X142136960Y-64478216D01*
X142478216Y-64136960D01*
X142879490Y-63868838D01*
X143325361Y-63684152D01*
X143798695Y-63590000D01*
X144281305Y-63590000D01*
X144754639Y-63684152D01*
X144754639Y-63684152D01*
G37*
G36*
X101660857Y-64482272D02*
X101861042Y-64565191D01*
X102041213Y-64685578D01*
X102194422Y-64838787D01*
X102314809Y-65018958D01*
X102397728Y-65219143D01*
X102440000Y-65431658D01*
X102440000Y-65648342D01*
X102397728Y-65860857D01*
X102314809Y-66061042D01*
X102194422Y-66241213D01*
X102041213Y-66394422D01*
X101861042Y-66514809D01*
X101660857Y-66597728D01*
X101448342Y-66640000D01*
X101231658Y-66640000D01*
X101019143Y-66597728D01*
X100818958Y-66514809D01*
X100638787Y-66394422D01*
X100485578Y-66241213D01*
X100365191Y-66061042D01*
X100282272Y-65860857D01*
X100240000Y-65648342D01*
X100240000Y-65431658D01*
X100282272Y-65219143D01*
X100365191Y-65018958D01*
X100485578Y-64838787D01*
X100638787Y-64685578D01*
X100818958Y-64565191D01*
X101019143Y-64482272D01*
X101231658Y-64440000D01*
X101448342Y-64440000D01*
X101660857Y-64482272D01*
X101660857Y-64482272D01*
G37*
G36*
X106740857Y-64482272D02*
X106941042Y-64565191D01*
X107121213Y-64685578D01*
X107274422Y-64838787D01*
X107394809Y-65018958D01*
X107477728Y-65219143D01*
X107520000Y-65431658D01*
X107520000Y-65648342D01*
X107477728Y-65860857D01*
X107394809Y-66061042D01*
X107274422Y-66241213D01*
X107121213Y-66394422D01*
X106941042Y-66514809D01*
X106740857Y-66597728D01*
X106528342Y-66640000D01*
X106311658Y-66640000D01*
X106099143Y-66597728D01*
X105898958Y-66514809D01*
X105718787Y-66394422D01*
X105565578Y-66241213D01*
X105445191Y-66061042D01*
X105362272Y-65860857D01*
X105320000Y-65648342D01*
X105320000Y-65431658D01*
X105362272Y-65219143D01*
X105445191Y-65018958D01*
X105565578Y-64838787D01*
X105718787Y-64685578D01*
X105898958Y-64565191D01*
X106099143Y-64482272D01*
X106311658Y-64440000D01*
X106528342Y-64440000D01*
X106740857Y-64482272D01*
X106740857Y-64482272D01*
G37*
G36*
X173320857Y-64482272D02*
X173521042Y-64565191D01*
X173701213Y-64685578D01*
X173854422Y-64838787D01*
X173974809Y-65018958D01*
X174057728Y-65219143D01*
X174100000Y-65431658D01*
X174100000Y-65648342D01*
X174057728Y-65860857D01*
X173974809Y-66061042D01*
X173854422Y-66241213D01*
X173701213Y-66394422D01*
X173521042Y-66514809D01*
X173320857Y-66597728D01*
X173108342Y-66640000D01*
X172891658Y-66640000D01*
X172679143Y-66597728D01*
X172478958Y-66514809D01*
X172298787Y-66394422D01*
X172145578Y-66241213D01*
X172025191Y-66061042D01*
X171942272Y-65860857D01*
X171900000Y-65648342D01*
X171900000Y-65431658D01*
X171942272Y-65219143D01*
X172025191Y-65018958D01*
X172145578Y-64838787D01*
X172298787Y-64685578D01*
X172478958Y-64565191D01*
X172679143Y-64482272D01*
X172891658Y-64440000D01*
X173108342Y-64440000D01*
X173320857Y-64482272D01*
X173320857Y-64482272D01*
G37*
G36*
X111820857Y-64482272D02*
X112021042Y-64565191D01*
X112201213Y-64685578D01*
X112354422Y-64838787D01*
X112474809Y-65018958D01*
X112557728Y-65219143D01*
X112600000Y-65431658D01*
X112600000Y-65648342D01*
X112557728Y-65860857D01*
X112474809Y-66061042D01*
X112354422Y-66241213D01*
X112201213Y-66394422D01*
X112021042Y-66514809D01*
X111820857Y-66597728D01*
X111608342Y-66640000D01*
X111391658Y-66640000D01*
X111179143Y-66597728D01*
X110978958Y-66514809D01*
X110798787Y-66394422D01*
X110645578Y-66241213D01*
X110525191Y-66061042D01*
X110442272Y-65860857D01*
X110400000Y-65648342D01*
X110400000Y-65431658D01*
X110442272Y-65219143D01*
X110525191Y-65018958D01*
X110645578Y-64838787D01*
X110798787Y-64685578D01*
X110978958Y-64565191D01*
X111179143Y-64482272D01*
X111391658Y-64440000D01*
X111608342Y-64440000D01*
X111820857Y-64482272D01*
X111820857Y-64482272D01*
G37*
G36*
X178400857Y-64482272D02*
X178601042Y-64565191D01*
X178781213Y-64685578D01*
X178934422Y-64838787D01*
X179054809Y-65018958D01*
X179137728Y-65219143D01*
X179180000Y-65431658D01*
X179180000Y-65648342D01*
X179137728Y-65860857D01*
X179054809Y-66061042D01*
X178934422Y-66241213D01*
X178781213Y-66394422D01*
X178601042Y-66514809D01*
X178400857Y-66597728D01*
X178188342Y-66640000D01*
X177971658Y-66640000D01*
X177759143Y-66597728D01*
X177558958Y-66514809D01*
X177378787Y-66394422D01*
X177225578Y-66241213D01*
X177105191Y-66061042D01*
X177022272Y-65860857D01*
X176980000Y-65648342D01*
X176980000Y-65431658D01*
X177022272Y-65219143D01*
X177105191Y-65018958D01*
X177225578Y-64838787D01*
X177378787Y-64685578D01*
X177558958Y-64565191D01*
X177759143Y-64482272D01*
X177971658Y-64440000D01*
X178188342Y-64440000D01*
X178400857Y-64482272D01*
X178400857Y-64482272D01*
G37*
G36*
X183480857Y-64482272D02*
X183681042Y-64565191D01*
X183861213Y-64685578D01*
X184014422Y-64838787D01*
X184134809Y-65018958D01*
X184217728Y-65219143D01*
X184260000Y-65431658D01*
X184260000Y-65648342D01*
X184217728Y-65860857D01*
X184134809Y-66061042D01*
X184014422Y-66241213D01*
X183861213Y-66394422D01*
X183681042Y-66514809D01*
X183480857Y-66597728D01*
X183268342Y-66640000D01*
X183051658Y-66640000D01*
X182839143Y-66597728D01*
X182638958Y-66514809D01*
X182458787Y-66394422D01*
X182305578Y-66241213D01*
X182185191Y-66061042D01*
X182102272Y-65860857D01*
X182060000Y-65648342D01*
X182060000Y-65431658D01*
X182102272Y-65219143D01*
X182185191Y-65018958D01*
X182305578Y-64838787D01*
X182458787Y-64685578D01*
X182638958Y-64565191D01*
X182839143Y-64482272D01*
X183051658Y-64440000D01*
X183268342Y-64440000D01*
X183480857Y-64482272D01*
X183480857Y-64482272D01*
G37*
G36*
X104200857Y-64482272D02*
X104401042Y-64565191D01*
X104581213Y-64685578D01*
X104734422Y-64838787D01*
X104854809Y-65018958D01*
X104937728Y-65219143D01*
X104980000Y-65431658D01*
X104980000Y-65648342D01*
X104937728Y-65860857D01*
X104854809Y-66061042D01*
X104734422Y-66241213D01*
X104581213Y-66394422D01*
X104401042Y-66514809D01*
X104200857Y-66597728D01*
X103988342Y-66640000D01*
X103771658Y-66640000D01*
X103559143Y-66597728D01*
X103358958Y-66514809D01*
X103178787Y-66394422D01*
X103025578Y-66241213D01*
X102905191Y-66061042D01*
X102822272Y-65860857D01*
X102780000Y-65648342D01*
X102780000Y-65431658D01*
X102822272Y-65219143D01*
X102905191Y-65018958D01*
X103025578Y-64838787D01*
X103178787Y-64685578D01*
X103358958Y-64565191D01*
X103559143Y-64482272D01*
X103771658Y-64440000D01*
X103988342Y-64440000D01*
X104200857Y-64482272D01*
X104200857Y-64482272D01*
G37*
G36*
X180920857Y-64482272D02*
X181121042Y-64565191D01*
X181301213Y-64685578D01*
X181454422Y-64838787D01*
X181574809Y-65018958D01*
X181657728Y-65219143D01*
X181700000Y-65431658D01*
X181700000Y-65648342D01*
X181657728Y-65860857D01*
X181574809Y-66061042D01*
X181454422Y-66241213D01*
X181301213Y-66394422D01*
X181121042Y-66514809D01*
X180920857Y-66597728D01*
X180708342Y-66640000D01*
X180491658Y-66640000D01*
X180279143Y-66597728D01*
X180078958Y-66514809D01*
X179898787Y-66394422D01*
X179745578Y-66241213D01*
X179625191Y-66061042D01*
X179542272Y-65860857D01*
X179500000Y-65648342D01*
X179500000Y-65431658D01*
X179542272Y-65219143D01*
X179625191Y-65018958D01*
X179745578Y-64838787D01*
X179898787Y-64685578D01*
X180078958Y-64565191D01*
X180279143Y-64482272D01*
X180491658Y-64440000D01*
X180708342Y-64440000D01*
X180920857Y-64482272D01*
X180920857Y-64482272D01*
G37*
G36*
X120937971Y-59827076D02*
X121174639Y-59874152D01*
X121620510Y-60058838D01*
X122021784Y-60326960D01*
X122363040Y-60668216D01*
X122631162Y-61069490D01*
X122815848Y-61515361D01*
X122910000Y-61988696D01*
X122910000Y-62471304D01*
X122815848Y-62944639D01*
X122631162Y-63390510D01*
X122363040Y-63791784D01*
X122021784Y-64133040D01*
X121620510Y-64401162D01*
X121174639Y-64585848D01*
X120701305Y-64680000D01*
X120218695Y-64680000D01*
X119745361Y-64585848D01*
X119299490Y-64401162D01*
X118898216Y-64133040D01*
X118556960Y-63791784D01*
X118288838Y-63390510D01*
X118104152Y-62944639D01*
X118010000Y-62471304D01*
X118010000Y-61988696D01*
X118104152Y-61515361D01*
X118288838Y-61069490D01*
X118556960Y-60668216D01*
X118898216Y-60326960D01*
X119299490Y-60058838D01*
X119745361Y-59874152D01*
X119982029Y-59827076D01*
X120218695Y-59780000D01*
X120701305Y-59780000D01*
X120937971Y-59827076D01*
X120937971Y-59827076D01*
G37*
G36*
X157937971Y-59827076D02*
X158174639Y-59874152D01*
X158620510Y-60058838D01*
X159021784Y-60326960D01*
X159363040Y-60668216D01*
X159631162Y-61069490D01*
X159815848Y-61515361D01*
X159910000Y-61988696D01*
X159910000Y-62471304D01*
X159815848Y-62944639D01*
X159631162Y-63390510D01*
X159363040Y-63791784D01*
X159021784Y-64133040D01*
X158620510Y-64401162D01*
X158174639Y-64585848D01*
X157701305Y-64680000D01*
X157218695Y-64680000D01*
X156745361Y-64585848D01*
X156299490Y-64401162D01*
X155898216Y-64133040D01*
X155556960Y-63791784D01*
X155288838Y-63390510D01*
X155104152Y-62944639D01*
X155010000Y-62471304D01*
X155010000Y-61988696D01*
X155104152Y-61515361D01*
X155288838Y-61069490D01*
X155556960Y-60668216D01*
X155898216Y-60326960D01*
X156299490Y-60058838D01*
X156745361Y-59874152D01*
X156982029Y-59827076D01*
X157218695Y-59780000D01*
X157701305Y-59780000D01*
X157937971Y-59827076D01*
X157937971Y-59827076D01*
G37*
G36*
X139437971Y-59827076D02*
X139674639Y-59874152D01*
X140120510Y-60058838D01*
X140521784Y-60326960D01*
X140863040Y-60668216D01*
X141131162Y-61069490D01*
X141315848Y-61515361D01*
X141410000Y-61988696D01*
X141410000Y-62471304D01*
X141315848Y-62944639D01*
X141131162Y-63390510D01*
X140863040Y-63791784D01*
X140521784Y-64133040D01*
X140120510Y-64401162D01*
X139674639Y-64585848D01*
X139201305Y-64680000D01*
X138718695Y-64680000D01*
X138245361Y-64585848D01*
X137799490Y-64401162D01*
X137398216Y-64133040D01*
X137056960Y-63791784D01*
X136788838Y-63390510D01*
X136604152Y-62944639D01*
X136510000Y-62471304D01*
X136510000Y-61988696D01*
X136604152Y-61515361D01*
X136788838Y-61069490D01*
X137056960Y-60668216D01*
X137398216Y-60326960D01*
X137799490Y-60058838D01*
X138245361Y-59874152D01*
X138482029Y-59827076D01*
X138718695Y-59780000D01*
X139201305Y-59780000D01*
X139437971Y-59827076D01*
X139437971Y-59827076D01*
G37*
G36*
X176800000Y-63850000D02*
X174900000Y-63850000D01*
X174900000Y-62150000D01*
X176800000Y-62150000D01*
X176800000Y-63850000D01*
X176800000Y-63850000D01*
G37*
G36*
X174100000Y-63850000D02*
X172200000Y-63850000D01*
X172200000Y-62150000D01*
X174100000Y-62150000D01*
X174100000Y-63850000D01*
X174100000Y-63850000D01*
G37*
G36*
X112300000Y-63850000D02*
X110400000Y-63850000D01*
X110400000Y-62150000D01*
X112300000Y-62150000D01*
X112300000Y-63850000D01*
X112300000Y-63850000D01*
G37*
G36*
X109600000Y-63850000D02*
X107700000Y-63850000D01*
X107700000Y-62150000D01*
X109600000Y-62150000D01*
X109600000Y-63850000D01*
X109600000Y-63850000D01*
G37*
G36*
X178400857Y-59402272D02*
X178601042Y-59485191D01*
X178781213Y-59605578D01*
X178934422Y-59758787D01*
X179054809Y-59938958D01*
X179137728Y-60139143D01*
X179180000Y-60351658D01*
X179180000Y-60568342D01*
X179137728Y-60780857D01*
X179054809Y-60981042D01*
X178934422Y-61161213D01*
X178781213Y-61314422D01*
X178601042Y-61434809D01*
X178400857Y-61517728D01*
X178188342Y-61560000D01*
X177971658Y-61560000D01*
X177759143Y-61517728D01*
X177558958Y-61434809D01*
X177378787Y-61314422D01*
X177225578Y-61161213D01*
X177105191Y-60981042D01*
X177022272Y-60780857D01*
X176980000Y-60568342D01*
X176980000Y-60351658D01*
X177022272Y-60139143D01*
X177105191Y-59938958D01*
X177225578Y-59758787D01*
X177378787Y-59605578D01*
X177558958Y-59485191D01*
X177759143Y-59402272D01*
X177971658Y-59360000D01*
X178188342Y-59360000D01*
X178400857Y-59402272D01*
X178400857Y-59402272D01*
G37*
G36*
X104220857Y-59402272D02*
X104421042Y-59485191D01*
X104601213Y-59605578D01*
X104754422Y-59758787D01*
X104874809Y-59938958D01*
X104957728Y-60139143D01*
X105000000Y-60351658D01*
X105000000Y-60568342D01*
X104957728Y-60780857D01*
X104874809Y-60981042D01*
X104754422Y-61161213D01*
X104601213Y-61314422D01*
X104421042Y-61434809D01*
X104220857Y-61517728D01*
X104008342Y-61560000D01*
X103791658Y-61560000D01*
X103579143Y-61517728D01*
X103378958Y-61434809D01*
X103198787Y-61314422D01*
X103045578Y-61161213D01*
X102925191Y-60981042D01*
X102842272Y-60780857D01*
X102800000Y-60568342D01*
X102800000Y-60351658D01*
X102842272Y-60139143D01*
X102925191Y-59938958D01*
X103045578Y-59758787D01*
X103198787Y-59605578D01*
X103378958Y-59485191D01*
X103579143Y-59402272D01*
X103791658Y-59360000D01*
X104008342Y-59360000D01*
X104220857Y-59402272D01*
X104220857Y-59402272D01*
G37*
G36*
X106740857Y-59402272D02*
X106941042Y-59485191D01*
X107121213Y-59605578D01*
X107274422Y-59758787D01*
X107394809Y-59938958D01*
X107477728Y-60139143D01*
X107520000Y-60351658D01*
X107520000Y-60568342D01*
X107477728Y-60780857D01*
X107394809Y-60981042D01*
X107274422Y-61161213D01*
X107121213Y-61314422D01*
X106941042Y-61434809D01*
X106740857Y-61517728D01*
X106528342Y-61560000D01*
X106311658Y-61560000D01*
X106099143Y-61517728D01*
X105898958Y-61434809D01*
X105718787Y-61314422D01*
X105565578Y-61161213D01*
X105445191Y-60981042D01*
X105362272Y-60780857D01*
X105320000Y-60568342D01*
X105320000Y-60351658D01*
X105362272Y-60139143D01*
X105445191Y-59938958D01*
X105565578Y-59758787D01*
X105718787Y-59605578D01*
X105898958Y-59485191D01*
X106099143Y-59402272D01*
X106311658Y-59360000D01*
X106528342Y-59360000D01*
X106740857Y-59402272D01*
X106740857Y-59402272D01*
G37*
G36*
X101660857Y-59402272D02*
X101861042Y-59485191D01*
X102041213Y-59605578D01*
X102194422Y-59758787D01*
X102314809Y-59938958D01*
X102397728Y-60139143D01*
X102440000Y-60351658D01*
X102440000Y-60568342D01*
X102397728Y-60780857D01*
X102314809Y-60981042D01*
X102194422Y-61161213D01*
X102041213Y-61314422D01*
X101861042Y-61434809D01*
X101660857Y-61517728D01*
X101448342Y-61560000D01*
X101231658Y-61560000D01*
X101019143Y-61517728D01*
X100818958Y-61434809D01*
X100638787Y-61314422D01*
X100485578Y-61161213D01*
X100365191Y-60981042D01*
X100282272Y-60780857D01*
X100240000Y-60568342D01*
X100240000Y-60351658D01*
X100282272Y-60139143D01*
X100365191Y-59938958D01*
X100485578Y-59758787D01*
X100638787Y-59605578D01*
X100818958Y-59485191D01*
X101019143Y-59402272D01*
X101231658Y-59360000D01*
X101448342Y-59360000D01*
X101660857Y-59402272D01*
X101660857Y-59402272D01*
G37*
G36*
X173320857Y-59402272D02*
X173521042Y-59485191D01*
X173701213Y-59605578D01*
X173854422Y-59758787D01*
X173974809Y-59938958D01*
X174057728Y-60139143D01*
X174100000Y-60351658D01*
X174100000Y-60568342D01*
X174057728Y-60780857D01*
X173974809Y-60981042D01*
X173854422Y-61161213D01*
X173701213Y-61314422D01*
X173521042Y-61434809D01*
X173320857Y-61517728D01*
X173108342Y-61560000D01*
X172891658Y-61560000D01*
X172679143Y-61517728D01*
X172478958Y-61434809D01*
X172298787Y-61314422D01*
X172145578Y-61161213D01*
X172025191Y-60981042D01*
X171942272Y-60780857D01*
X171900000Y-60568342D01*
X171900000Y-60351658D01*
X171942272Y-60139143D01*
X172025191Y-59938958D01*
X172145578Y-59758787D01*
X172298787Y-59605578D01*
X172478958Y-59485191D01*
X172679143Y-59402272D01*
X172891658Y-59360000D01*
X173108342Y-59360000D01*
X173320857Y-59402272D01*
X173320857Y-59402272D01*
G37*
G36*
X180940857Y-59402272D02*
X181141042Y-59485191D01*
X181321213Y-59605578D01*
X181474422Y-59758787D01*
X181594809Y-59938958D01*
X181677728Y-60139143D01*
X181720000Y-60351658D01*
X181720000Y-60568342D01*
X181677728Y-60780857D01*
X181594809Y-60981042D01*
X181474422Y-61161213D01*
X181321213Y-61314422D01*
X181141042Y-61434809D01*
X180940857Y-61517728D01*
X180728342Y-61560000D01*
X180511658Y-61560000D01*
X180299143Y-61517728D01*
X180098958Y-61434809D01*
X179918787Y-61314422D01*
X179765578Y-61161213D01*
X179645191Y-60981042D01*
X179562272Y-60780857D01*
X179520000Y-60568342D01*
X179520000Y-60351658D01*
X179562272Y-60139143D01*
X179645191Y-59938958D01*
X179765578Y-59758787D01*
X179918787Y-59605578D01*
X180098958Y-59485191D01*
X180299143Y-59402272D01*
X180511658Y-59360000D01*
X180728342Y-59360000D01*
X180940857Y-59402272D01*
X180940857Y-59402272D01*
G37*
G36*
X183480857Y-59402272D02*
X183681042Y-59485191D01*
X183861213Y-59605578D01*
X184014422Y-59758787D01*
X184134809Y-59938958D01*
X184217728Y-60139143D01*
X184260000Y-60351658D01*
X184260000Y-60568342D01*
X184217728Y-60780857D01*
X184134809Y-60981042D01*
X184014422Y-61161213D01*
X183861213Y-61314422D01*
X183681042Y-61434809D01*
X183480857Y-61517728D01*
X183268342Y-61560000D01*
X183051658Y-61560000D01*
X182839143Y-61517728D01*
X182638958Y-61434809D01*
X182458787Y-61314422D01*
X182305578Y-61161213D01*
X182185191Y-60981042D01*
X182102272Y-60780857D01*
X182060000Y-60568342D01*
X182060000Y-60351658D01*
X182102272Y-60139143D01*
X182185191Y-59938958D01*
X182305578Y-59758787D01*
X182458787Y-59605578D01*
X182638958Y-59485191D01*
X182839143Y-59402272D01*
X183051658Y-59360000D01*
X183268342Y-59360000D01*
X183480857Y-59402272D01*
X183480857Y-59402272D01*
G37*
G36*
X111820857Y-59402272D02*
X112021042Y-59485191D01*
X112201213Y-59605578D01*
X112354422Y-59758787D01*
X112474809Y-59938958D01*
X112557728Y-60139143D01*
X112600000Y-60351658D01*
X112600000Y-60568342D01*
X112557728Y-60780857D01*
X112474809Y-60981042D01*
X112354422Y-61161213D01*
X112201213Y-61314422D01*
X112021042Y-61434809D01*
X111820857Y-61517728D01*
X111608342Y-61560000D01*
X111391658Y-61560000D01*
X111179143Y-61517728D01*
X110978958Y-61434809D01*
X110798787Y-61314422D01*
X110645578Y-61161213D01*
X110525191Y-60981042D01*
X110442272Y-60780857D01*
X110400000Y-60568342D01*
X110400000Y-60351658D01*
X110442272Y-60139143D01*
X110525191Y-59938958D01*
X110645578Y-59758787D01*
X110798787Y-59605578D01*
X110978958Y-59485191D01*
X111179143Y-59402272D01*
X111391658Y-59360000D01*
X111608342Y-59360000D01*
X111820857Y-59402272D01*
X111820857Y-59402272D01*
G37*
G36*
X162997666Y-53133037D02*
X163254639Y-53184152D01*
X163700510Y-53368838D01*
X164101784Y-53636960D01*
X164443040Y-53978216D01*
X164711162Y-54379490D01*
X164895848Y-54825361D01*
X164902909Y-54860858D01*
X164990000Y-55298695D01*
X164990000Y-55781305D01*
X164967499Y-55894425D01*
X164895848Y-56254639D01*
X164711162Y-56700510D01*
X164443040Y-57101784D01*
X164101784Y-57443040D01*
X163700510Y-57711162D01*
X163254639Y-57895848D01*
X163017971Y-57942924D01*
X162781305Y-57990000D01*
X162298695Y-57990000D01*
X162062029Y-57942924D01*
X161825361Y-57895848D01*
X161379490Y-57711162D01*
X160978216Y-57443040D01*
X160636960Y-57101784D01*
X160368838Y-56700510D01*
X160184152Y-56254639D01*
X160112501Y-55894425D01*
X160090000Y-55781305D01*
X160090000Y-55298695D01*
X160177091Y-54860858D01*
X160184152Y-54825361D01*
X160368838Y-54379490D01*
X160636960Y-53978216D01*
X160978216Y-53636960D01*
X161379490Y-53368838D01*
X161825361Y-53184152D01*
X162082334Y-53133037D01*
X162298695Y-53090000D01*
X162781305Y-53090000D01*
X162997666Y-53133037D01*
X162997666Y-53133037D01*
G37*
G36*
X144754639Y-52684152D02*
X145200510Y-52868838D01*
X145601784Y-53136960D01*
X145943040Y-53478216D01*
X146211162Y-53879490D01*
X146395848Y-54325361D01*
X146398519Y-54338791D01*
X146490000Y-54798695D01*
X146490000Y-55281305D01*
X146467499Y-55394425D01*
X146395848Y-55754639D01*
X146211162Y-56200510D01*
X145943040Y-56601784D01*
X145601784Y-56943040D01*
X145200510Y-57211162D01*
X144754639Y-57395848D01*
X144517971Y-57442924D01*
X144281305Y-57490000D01*
X143798695Y-57490000D01*
X143562029Y-57442924D01*
X143325361Y-57395848D01*
X142879490Y-57211162D01*
X142478216Y-56943040D01*
X142136960Y-56601784D01*
X141868838Y-56200510D01*
X141684152Y-55754639D01*
X141612501Y-55394425D01*
X141590000Y-55281305D01*
X141590000Y-54798695D01*
X141681481Y-54338791D01*
X141684152Y-54325361D01*
X141868838Y-53879490D01*
X142136960Y-53478216D01*
X142478216Y-53136960D01*
X142879490Y-52868838D01*
X143325361Y-52684152D01*
X143798695Y-52590000D01*
X144281305Y-52590000D01*
X144754639Y-52684152D01*
X144754639Y-52684152D01*
G37*
G36*
X126254639Y-52684152D02*
X126700510Y-52868838D01*
X127101784Y-53136960D01*
X127443040Y-53478216D01*
X127711162Y-53879490D01*
X127895848Y-54325361D01*
X127898519Y-54338791D01*
X127990000Y-54798695D01*
X127990000Y-55281305D01*
X127967499Y-55394425D01*
X127895848Y-55754639D01*
X127711162Y-56200510D01*
X127443040Y-56601784D01*
X127101784Y-56943040D01*
X126700510Y-57211162D01*
X126254639Y-57395848D01*
X126017971Y-57442924D01*
X125781305Y-57490000D01*
X125298695Y-57490000D01*
X125062029Y-57442924D01*
X124825361Y-57395848D01*
X124379490Y-57211162D01*
X123978216Y-56943040D01*
X123636960Y-56601784D01*
X123368838Y-56200510D01*
X123184152Y-55754639D01*
X123112501Y-55394425D01*
X123090000Y-55281305D01*
X123090000Y-54798695D01*
X123181481Y-54338791D01*
X123184152Y-54325361D01*
X123368838Y-53879490D01*
X123636960Y-53478216D01*
X123978216Y-53136960D01*
X124379490Y-52868838D01*
X124825361Y-52684152D01*
X125298695Y-52590000D01*
X125781305Y-52590000D01*
X126254639Y-52684152D01*
X126254639Y-52684152D01*
G37*
G36*
X178400857Y-53982272D02*
X178601042Y-54065191D01*
X178781213Y-54185578D01*
X178934422Y-54338787D01*
X178934424Y-54338790D01*
X178934425Y-54338791D01*
X179054807Y-54518955D01*
X179054809Y-54518958D01*
X179137728Y-54719143D01*
X179180000Y-54931658D01*
X179180000Y-55148342D01*
X179137728Y-55360857D01*
X179054809Y-55561042D01*
X178934422Y-55741213D01*
X178781213Y-55894422D01*
X178601042Y-56014809D01*
X178400857Y-56097728D01*
X178188342Y-56140000D01*
X177971658Y-56140000D01*
X177759143Y-56097728D01*
X177558958Y-56014809D01*
X177378787Y-55894422D01*
X177225578Y-55741213D01*
X177105191Y-55561042D01*
X177022272Y-55360857D01*
X176980000Y-55148342D01*
X176980000Y-54931658D01*
X177022272Y-54719143D01*
X177105191Y-54518958D01*
X177105193Y-54518955D01*
X177225575Y-54338791D01*
X177225576Y-54338790D01*
X177225578Y-54338787D01*
X177378787Y-54185578D01*
X177558958Y-54065191D01*
X177759143Y-53982272D01*
X177971658Y-53940000D01*
X178188342Y-53940000D01*
X178400857Y-53982272D01*
X178400857Y-53982272D01*
G37*
G36*
X183480857Y-53982272D02*
X183681042Y-54065191D01*
X183861213Y-54185578D01*
X184014422Y-54338787D01*
X184014424Y-54338790D01*
X184014425Y-54338791D01*
X184134807Y-54518955D01*
X184134809Y-54518958D01*
X184217728Y-54719143D01*
X184260000Y-54931658D01*
X184260000Y-55148342D01*
X184217728Y-55360857D01*
X184134809Y-55561042D01*
X184014422Y-55741213D01*
X183861213Y-55894422D01*
X183681042Y-56014809D01*
X183480857Y-56097728D01*
X183268342Y-56140000D01*
X183051658Y-56140000D01*
X182839143Y-56097728D01*
X182638958Y-56014809D01*
X182458787Y-55894422D01*
X182305578Y-55741213D01*
X182185191Y-55561042D01*
X182102272Y-55360857D01*
X182060000Y-55148342D01*
X182060000Y-54931658D01*
X182102272Y-54719143D01*
X182185191Y-54518958D01*
X182185193Y-54518955D01*
X182305575Y-54338791D01*
X182305576Y-54338790D01*
X182305578Y-54338787D01*
X182458787Y-54185578D01*
X182638958Y-54065191D01*
X182839143Y-53982272D01*
X183051658Y-53940000D01*
X183268342Y-53940000D01*
X183480857Y-53982272D01*
X183480857Y-53982272D01*
G37*
G36*
X180920857Y-53982272D02*
X181121042Y-54065191D01*
X181301213Y-54185578D01*
X181454422Y-54338787D01*
X181454424Y-54338790D01*
X181454425Y-54338791D01*
X181574807Y-54518955D01*
X181574809Y-54518958D01*
X181657728Y-54719143D01*
X181700000Y-54931658D01*
X181700000Y-55148342D01*
X181657728Y-55360857D01*
X181574809Y-55561042D01*
X181454422Y-55741213D01*
X181301213Y-55894422D01*
X181121042Y-56014809D01*
X180920857Y-56097728D01*
X180708342Y-56140000D01*
X180491658Y-56140000D01*
X180279143Y-56097728D01*
X180078958Y-56014809D01*
X179898787Y-55894422D01*
X179745578Y-55741213D01*
X179625191Y-55561042D01*
X179542272Y-55360857D01*
X179500000Y-55148342D01*
X179500000Y-54931658D01*
X179542272Y-54719143D01*
X179625191Y-54518958D01*
X179625193Y-54518955D01*
X179745575Y-54338791D01*
X179745576Y-54338790D01*
X179745578Y-54338787D01*
X179898787Y-54185578D01*
X180078958Y-54065191D01*
X180279143Y-53982272D01*
X180491658Y-53940000D01*
X180708342Y-53940000D01*
X180920857Y-53982272D01*
X180920857Y-53982272D01*
G37*
G36*
X173320857Y-53982272D02*
X173521042Y-54065191D01*
X173701213Y-54185578D01*
X173854422Y-54338787D01*
X173854424Y-54338790D01*
X173854425Y-54338791D01*
X173974807Y-54518955D01*
X173974809Y-54518958D01*
X174057728Y-54719143D01*
X174100000Y-54931658D01*
X174100000Y-55148342D01*
X174057728Y-55360857D01*
X173974809Y-55561042D01*
X173854422Y-55741213D01*
X173701213Y-55894422D01*
X173521042Y-56014809D01*
X173320857Y-56097728D01*
X173108342Y-56140000D01*
X172891658Y-56140000D01*
X172679143Y-56097728D01*
X172478958Y-56014809D01*
X172298787Y-55894422D01*
X172145578Y-55741213D01*
X172025191Y-55561042D01*
X171942272Y-55360857D01*
X171900000Y-55148342D01*
X171900000Y-54931658D01*
X171942272Y-54719143D01*
X172025191Y-54518958D01*
X172025193Y-54518955D01*
X172145575Y-54338791D01*
X172145576Y-54338790D01*
X172145578Y-54338787D01*
X172298787Y-54185578D01*
X172478958Y-54065191D01*
X172679143Y-53982272D01*
X172891658Y-53940000D01*
X173108342Y-53940000D01*
X173320857Y-53982272D01*
X173320857Y-53982272D01*
G37*
G36*
X111820857Y-53482272D02*
X112021042Y-53565191D01*
X112021045Y-53565193D01*
X112128452Y-53636960D01*
X112201213Y-53685578D01*
X112354422Y-53838787D01*
X112474809Y-54018958D01*
X112557728Y-54219143D01*
X112600000Y-54431658D01*
X112600000Y-54648342D01*
X112557728Y-54860857D01*
X112474809Y-55061042D01*
X112474807Y-55061045D01*
X112416478Y-55148341D01*
X112354422Y-55241213D01*
X112201213Y-55394422D01*
X112021042Y-55514809D01*
X111820857Y-55597728D01*
X111608342Y-55640000D01*
X111391658Y-55640000D01*
X111179143Y-55597728D01*
X110978958Y-55514809D01*
X110798787Y-55394422D01*
X110645578Y-55241213D01*
X110583523Y-55148341D01*
X110525193Y-55061045D01*
X110525191Y-55061042D01*
X110442272Y-54860857D01*
X110400000Y-54648342D01*
X110400000Y-54431658D01*
X110442272Y-54219143D01*
X110525191Y-54018958D01*
X110645578Y-53838787D01*
X110798787Y-53685578D01*
X110871549Y-53636960D01*
X110978955Y-53565193D01*
X110978958Y-53565191D01*
X111179143Y-53482272D01*
X111391658Y-53440000D01*
X111608342Y-53440000D01*
X111820857Y-53482272D01*
X111820857Y-53482272D01*
G37*
G36*
X101660857Y-53482272D02*
X101861042Y-53565191D01*
X101861045Y-53565193D01*
X101968452Y-53636960D01*
X102041213Y-53685578D01*
X102194422Y-53838787D01*
X102314809Y-54018958D01*
X102397728Y-54219143D01*
X102440000Y-54431658D01*
X102440000Y-54648342D01*
X102397728Y-54860857D01*
X102314809Y-55061042D01*
X102314807Y-55061045D01*
X102256478Y-55148341D01*
X102194422Y-55241213D01*
X102041213Y-55394422D01*
X101861042Y-55514809D01*
X101660857Y-55597728D01*
X101448342Y-55640000D01*
X101231658Y-55640000D01*
X101019143Y-55597728D01*
X100818958Y-55514809D01*
X100638787Y-55394422D01*
X100485578Y-55241213D01*
X100423523Y-55148341D01*
X100365193Y-55061045D01*
X100365191Y-55061042D01*
X100282272Y-54860857D01*
X100240000Y-54648342D01*
X100240000Y-54431658D01*
X100282272Y-54219143D01*
X100365191Y-54018958D01*
X100485578Y-53838787D01*
X100638787Y-53685578D01*
X100711549Y-53636960D01*
X100818955Y-53565193D01*
X100818958Y-53565191D01*
X101019143Y-53482272D01*
X101231658Y-53440000D01*
X101448342Y-53440000D01*
X101660857Y-53482272D01*
X101660857Y-53482272D01*
G37*
G36*
X106740857Y-53482272D02*
X106941042Y-53565191D01*
X106941045Y-53565193D01*
X107048452Y-53636960D01*
X107121213Y-53685578D01*
X107274422Y-53838787D01*
X107394809Y-54018958D01*
X107477728Y-54219143D01*
X107520000Y-54431658D01*
X107520000Y-54648342D01*
X107477728Y-54860857D01*
X107394809Y-55061042D01*
X107394807Y-55061045D01*
X107336478Y-55148341D01*
X107274422Y-55241213D01*
X107121213Y-55394422D01*
X106941042Y-55514809D01*
X106740857Y-55597728D01*
X106528342Y-55640000D01*
X106311658Y-55640000D01*
X106099143Y-55597728D01*
X105898958Y-55514809D01*
X105718787Y-55394422D01*
X105565578Y-55241213D01*
X105503523Y-55148341D01*
X105445193Y-55061045D01*
X105445191Y-55061042D01*
X105362272Y-54860857D01*
X105320000Y-54648342D01*
X105320000Y-54431658D01*
X105362272Y-54219143D01*
X105445191Y-54018958D01*
X105565578Y-53838787D01*
X105718787Y-53685578D01*
X105791549Y-53636960D01*
X105898955Y-53565193D01*
X105898958Y-53565191D01*
X106099143Y-53482272D01*
X106311658Y-53440000D01*
X106528342Y-53440000D01*
X106740857Y-53482272D01*
X106740857Y-53482272D01*
G37*
G36*
X104200857Y-53482272D02*
X104401042Y-53565191D01*
X104401045Y-53565193D01*
X104508452Y-53636960D01*
X104581213Y-53685578D01*
X104734422Y-53838787D01*
X104854809Y-54018958D01*
X104937728Y-54219143D01*
X104980000Y-54431658D01*
X104980000Y-54648342D01*
X104937728Y-54860857D01*
X104854809Y-55061042D01*
X104854807Y-55061045D01*
X104796478Y-55148341D01*
X104734422Y-55241213D01*
X104581213Y-55394422D01*
X104401042Y-55514809D01*
X104200857Y-55597728D01*
X103988342Y-55640000D01*
X103771658Y-55640000D01*
X103559143Y-55597728D01*
X103358958Y-55514809D01*
X103178787Y-55394422D01*
X103025578Y-55241213D01*
X102963523Y-55148341D01*
X102905193Y-55061045D01*
X102905191Y-55061042D01*
X102822272Y-54860857D01*
X102780000Y-54648342D01*
X102780000Y-54431658D01*
X102822272Y-54219143D01*
X102905191Y-54018958D01*
X103025578Y-53838787D01*
X103178787Y-53685578D01*
X103251549Y-53636960D01*
X103358955Y-53565193D01*
X103358958Y-53565191D01*
X103559143Y-53482272D01*
X103771658Y-53440000D01*
X103988342Y-53440000D01*
X104200857Y-53482272D01*
X104200857Y-53482272D01*
G37*
G36*
X157937388Y-49326960D02*
X158174639Y-49374152D01*
X158620510Y-49558838D01*
X159021784Y-49826960D01*
X159363040Y-50168216D01*
X159631162Y-50569490D01*
X159815848Y-51015361D01*
X159910000Y-51488696D01*
X159910000Y-51971304D01*
X159815848Y-52444639D01*
X159631162Y-52890510D01*
X159363040Y-53291784D01*
X159021784Y-53633040D01*
X158620510Y-53901162D01*
X158174639Y-54085848D01*
X157701305Y-54180000D01*
X157218695Y-54180000D01*
X156745361Y-54085848D01*
X156299490Y-53901162D01*
X155898216Y-53633040D01*
X155556960Y-53291784D01*
X155288838Y-52890510D01*
X155104152Y-52444639D01*
X155010000Y-51971304D01*
X155010000Y-51488696D01*
X155104152Y-51015361D01*
X155288838Y-50569490D01*
X155556960Y-50168216D01*
X155898216Y-49826960D01*
X156299490Y-49558838D01*
X156745361Y-49374152D01*
X156982612Y-49326960D01*
X157218695Y-49280000D01*
X157701305Y-49280000D01*
X157937388Y-49326960D01*
X157937388Y-49326960D01*
G37*
G36*
X139437971Y-48827076D02*
X139674639Y-48874152D01*
X140120510Y-49058838D01*
X140521784Y-49326960D01*
X140863040Y-49668216D01*
X141131162Y-50069490D01*
X141315848Y-50515361D01*
X141410000Y-50988696D01*
X141410000Y-51471304D01*
X141315848Y-51944639D01*
X141131162Y-52390510D01*
X140863040Y-52791784D01*
X140521784Y-53133040D01*
X140120510Y-53401162D01*
X139674639Y-53585848D01*
X139437971Y-53632924D01*
X139201305Y-53680000D01*
X138718695Y-53680000D01*
X138482029Y-53632924D01*
X138245361Y-53585848D01*
X137799490Y-53401162D01*
X137398216Y-53133040D01*
X137056960Y-52791784D01*
X136788838Y-52390510D01*
X136604152Y-51944639D01*
X136510000Y-51471304D01*
X136510000Y-50988696D01*
X136604152Y-50515361D01*
X136788838Y-50069490D01*
X137056960Y-49668216D01*
X137398216Y-49326960D01*
X137799490Y-49058838D01*
X138245361Y-48874152D01*
X138482029Y-48827076D01*
X138718695Y-48780000D01*
X139201305Y-48780000D01*
X139437971Y-48827076D01*
X139437971Y-48827076D01*
G37*
G36*
X120937971Y-48827076D02*
X121174639Y-48874152D01*
X121620510Y-49058838D01*
X122021784Y-49326960D01*
X122363040Y-49668216D01*
X122631162Y-50069490D01*
X122815848Y-50515361D01*
X122910000Y-50988696D01*
X122910000Y-51471304D01*
X122815848Y-51944639D01*
X122631162Y-52390510D01*
X122363040Y-52791784D01*
X122021784Y-53133040D01*
X121620510Y-53401162D01*
X121174639Y-53585848D01*
X120937971Y-53632924D01*
X120701305Y-53680000D01*
X120218695Y-53680000D01*
X119982029Y-53632924D01*
X119745361Y-53585848D01*
X119299490Y-53401162D01*
X118898216Y-53133040D01*
X118556960Y-52791784D01*
X118288838Y-52390510D01*
X118104152Y-51944639D01*
X118010000Y-51471304D01*
X118010000Y-50988696D01*
X118104152Y-50515361D01*
X118288838Y-50069490D01*
X118556960Y-49668216D01*
X118898216Y-49326960D01*
X119299490Y-49058838D01*
X119745361Y-48874152D01*
X119982029Y-48827076D01*
X120218695Y-48780000D01*
X120701305Y-48780000D01*
X120937971Y-48827076D01*
X120937971Y-48827076D01*
G37*
G36*
X176800000Y-53350000D02*
X174900000Y-53350000D01*
X174900000Y-51650000D01*
X176800000Y-51650000D01*
X176800000Y-53350000D01*
X176800000Y-53350000D01*
G37*
G36*
X174100000Y-53350000D02*
X172200000Y-53350000D01*
X172200000Y-51650000D01*
X174100000Y-51650000D01*
X174100000Y-53350000D01*
X174100000Y-53350000D01*
G37*
G36*
X112300000Y-52850000D02*
X110400000Y-52850000D01*
X110400000Y-51150000D01*
X112300000Y-51150000D01*
X112300000Y-52850000D01*
X112300000Y-52850000D01*
G37*
G36*
X109600000Y-52850000D02*
X107700000Y-52850000D01*
X107700000Y-51150000D01*
X109600000Y-51150000D01*
X109600000Y-52850000D01*
X109600000Y-52850000D01*
G37*
G36*
X183480857Y-48902272D02*
X183681042Y-48985191D01*
X183861213Y-49105578D01*
X184014422Y-49258787D01*
X184014424Y-49258790D01*
X184014425Y-49258791D01*
X184091507Y-49374152D01*
X184134809Y-49438958D01*
X184217728Y-49639143D01*
X184260000Y-49851658D01*
X184260000Y-50068342D01*
X184217728Y-50280857D01*
X184134809Y-50481042D01*
X184014422Y-50661213D01*
X183861213Y-50814422D01*
X183681042Y-50934809D01*
X183480857Y-51017728D01*
X183268342Y-51060000D01*
X183051658Y-51060000D01*
X182839143Y-51017728D01*
X182638958Y-50934809D01*
X182458787Y-50814422D01*
X182305578Y-50661213D01*
X182185191Y-50481042D01*
X182102272Y-50280857D01*
X182060000Y-50068342D01*
X182060000Y-49851658D01*
X182102272Y-49639143D01*
X182185191Y-49438958D01*
X182228493Y-49374152D01*
X182305575Y-49258791D01*
X182305576Y-49258790D01*
X182305578Y-49258787D01*
X182458787Y-49105578D01*
X182638958Y-48985191D01*
X182839143Y-48902272D01*
X183051658Y-48860000D01*
X183268342Y-48860000D01*
X183480857Y-48902272D01*
X183480857Y-48902272D01*
G37*
G36*
X173320857Y-48902272D02*
X173521042Y-48985191D01*
X173701213Y-49105578D01*
X173854422Y-49258787D01*
X173854424Y-49258790D01*
X173854425Y-49258791D01*
X173931507Y-49374152D01*
X173974809Y-49438958D01*
X174057728Y-49639143D01*
X174100000Y-49851658D01*
X174100000Y-50068342D01*
X174057728Y-50280857D01*
X173974809Y-50481042D01*
X173854422Y-50661213D01*
X173701213Y-50814422D01*
X173521042Y-50934809D01*
X173320857Y-51017728D01*
X173108342Y-51060000D01*
X172891658Y-51060000D01*
X172679143Y-51017728D01*
X172478958Y-50934809D01*
X172298787Y-50814422D01*
X172145578Y-50661213D01*
X172025191Y-50481042D01*
X171942272Y-50280857D01*
X171900000Y-50068342D01*
X171900000Y-49851658D01*
X171942272Y-49639143D01*
X172025191Y-49438958D01*
X172068493Y-49374152D01*
X172145575Y-49258791D01*
X172145576Y-49258790D01*
X172145578Y-49258787D01*
X172298787Y-49105578D01*
X172478958Y-48985191D01*
X172679143Y-48902272D01*
X172891658Y-48860000D01*
X173108342Y-48860000D01*
X173320857Y-48902272D01*
X173320857Y-48902272D01*
G37*
G36*
X180940857Y-48902272D02*
X181141042Y-48985191D01*
X181321213Y-49105578D01*
X181474422Y-49258787D01*
X181474424Y-49258790D01*
X181474425Y-49258791D01*
X181551507Y-49374152D01*
X181594809Y-49438958D01*
X181677728Y-49639143D01*
X181720000Y-49851658D01*
X181720000Y-50068342D01*
X181677728Y-50280857D01*
X181594809Y-50481042D01*
X181474422Y-50661213D01*
X181321213Y-50814422D01*
X181141042Y-50934809D01*
X180940857Y-51017728D01*
X180728342Y-51060000D01*
X180511658Y-51060000D01*
X180299143Y-51017728D01*
X180098958Y-50934809D01*
X179918787Y-50814422D01*
X179765578Y-50661213D01*
X179645191Y-50481042D01*
X179562272Y-50280857D01*
X179520000Y-50068342D01*
X179520000Y-49851658D01*
X179562272Y-49639143D01*
X179645191Y-49438958D01*
X179688493Y-49374152D01*
X179765575Y-49258791D01*
X179765576Y-49258790D01*
X179765578Y-49258787D01*
X179918787Y-49105578D01*
X180098958Y-48985191D01*
X180299143Y-48902272D01*
X180511658Y-48860000D01*
X180728342Y-48860000D01*
X180940857Y-48902272D01*
X180940857Y-48902272D01*
G37*
G36*
X178400857Y-48902272D02*
X178601042Y-48985191D01*
X178781213Y-49105578D01*
X178934422Y-49258787D01*
X178934424Y-49258790D01*
X178934425Y-49258791D01*
X179011507Y-49374152D01*
X179054809Y-49438958D01*
X179137728Y-49639143D01*
X179180000Y-49851658D01*
X179180000Y-50068342D01*
X179137728Y-50280857D01*
X179054809Y-50481042D01*
X178934422Y-50661213D01*
X178781213Y-50814422D01*
X178601042Y-50934809D01*
X178400857Y-51017728D01*
X178188342Y-51060000D01*
X177971658Y-51060000D01*
X177759143Y-51017728D01*
X177558958Y-50934809D01*
X177378787Y-50814422D01*
X177225578Y-50661213D01*
X177105191Y-50481042D01*
X177022272Y-50280857D01*
X176980000Y-50068342D01*
X176980000Y-49851658D01*
X177022272Y-49639143D01*
X177105191Y-49438958D01*
X177148493Y-49374152D01*
X177225575Y-49258791D01*
X177225576Y-49258790D01*
X177225578Y-49258787D01*
X177378787Y-49105578D01*
X177558958Y-48985191D01*
X177759143Y-48902272D01*
X177971658Y-48860000D01*
X178188342Y-48860000D01*
X178400857Y-48902272D01*
X178400857Y-48902272D01*
G37*
G36*
X101660857Y-48402272D02*
X101861042Y-48485191D01*
X102041213Y-48605578D01*
X102194422Y-48758787D01*
X102314809Y-48938958D01*
X102397728Y-49139143D01*
X102440000Y-49351658D01*
X102440000Y-49568342D01*
X102397728Y-49780857D01*
X102314809Y-49981042D01*
X102314807Y-49981045D01*
X102256478Y-50068341D01*
X102194422Y-50161213D01*
X102041213Y-50314422D01*
X101861042Y-50434809D01*
X101660857Y-50517728D01*
X101448342Y-50560000D01*
X101231658Y-50560000D01*
X101019143Y-50517728D01*
X100818958Y-50434809D01*
X100638787Y-50314422D01*
X100485578Y-50161213D01*
X100423523Y-50068341D01*
X100365193Y-49981045D01*
X100365191Y-49981042D01*
X100282272Y-49780857D01*
X100240000Y-49568342D01*
X100240000Y-49351658D01*
X100282272Y-49139143D01*
X100365191Y-48938958D01*
X100485578Y-48758787D01*
X100638787Y-48605578D01*
X100818958Y-48485191D01*
X101019143Y-48402272D01*
X101231658Y-48360000D01*
X101448342Y-48360000D01*
X101660857Y-48402272D01*
X101660857Y-48402272D01*
G37*
G36*
X111820857Y-48402272D02*
X112021042Y-48485191D01*
X112201213Y-48605578D01*
X112354422Y-48758787D01*
X112474809Y-48938958D01*
X112557728Y-49139143D01*
X112600000Y-49351658D01*
X112600000Y-49568342D01*
X112557728Y-49780857D01*
X112474809Y-49981042D01*
X112474807Y-49981045D01*
X112416478Y-50068341D01*
X112354422Y-50161213D01*
X112201213Y-50314422D01*
X112021042Y-50434809D01*
X111820857Y-50517728D01*
X111608342Y-50560000D01*
X111391658Y-50560000D01*
X111179143Y-50517728D01*
X110978958Y-50434809D01*
X110798787Y-50314422D01*
X110645578Y-50161213D01*
X110583523Y-50068341D01*
X110525193Y-49981045D01*
X110525191Y-49981042D01*
X110442272Y-49780857D01*
X110400000Y-49568342D01*
X110400000Y-49351658D01*
X110442272Y-49139143D01*
X110525191Y-48938958D01*
X110645578Y-48758787D01*
X110798787Y-48605578D01*
X110978958Y-48485191D01*
X111179143Y-48402272D01*
X111391658Y-48360000D01*
X111608342Y-48360000D01*
X111820857Y-48402272D01*
X111820857Y-48402272D01*
G37*
G36*
X104220857Y-48402272D02*
X104421042Y-48485191D01*
X104601213Y-48605578D01*
X104754422Y-48758787D01*
X104874809Y-48938958D01*
X104957728Y-49139143D01*
X105000000Y-49351658D01*
X105000000Y-49568342D01*
X104957728Y-49780857D01*
X104874809Y-49981042D01*
X104874807Y-49981045D01*
X104816478Y-50068341D01*
X104754422Y-50161213D01*
X104601213Y-50314422D01*
X104421042Y-50434809D01*
X104220857Y-50517728D01*
X104008342Y-50560000D01*
X103791658Y-50560000D01*
X103579143Y-50517728D01*
X103378958Y-50434809D01*
X103198787Y-50314422D01*
X103045578Y-50161213D01*
X102983523Y-50068341D01*
X102925193Y-49981045D01*
X102925191Y-49981042D01*
X102842272Y-49780857D01*
X102800000Y-49568342D01*
X102800000Y-49351658D01*
X102842272Y-49139143D01*
X102925191Y-48938958D01*
X103045578Y-48758787D01*
X103198787Y-48605578D01*
X103378958Y-48485191D01*
X103579143Y-48402272D01*
X103791658Y-48360000D01*
X104008342Y-48360000D01*
X104220857Y-48402272D01*
X104220857Y-48402272D01*
G37*
G36*
X106740857Y-48402272D02*
X106941042Y-48485191D01*
X107121213Y-48605578D01*
X107274422Y-48758787D01*
X107394809Y-48938958D01*
X107477728Y-49139143D01*
X107520000Y-49351658D01*
X107520000Y-49568342D01*
X107477728Y-49780857D01*
X107394809Y-49981042D01*
X107394807Y-49981045D01*
X107336478Y-50068341D01*
X107274422Y-50161213D01*
X107121213Y-50314422D01*
X106941042Y-50434809D01*
X106740857Y-50517728D01*
X106528342Y-50560000D01*
X106311658Y-50560000D01*
X106099143Y-50517728D01*
X105898958Y-50434809D01*
X105718787Y-50314422D01*
X105565578Y-50161213D01*
X105503523Y-50068341D01*
X105445193Y-49981045D01*
X105445191Y-49981042D01*
X105362272Y-49780857D01*
X105320000Y-49568342D01*
X105320000Y-49351658D01*
X105362272Y-49139143D01*
X105445191Y-48938958D01*
X105565578Y-48758787D01*
X105718787Y-48605578D01*
X105898958Y-48485191D01*
X106099143Y-48402272D01*
X106311658Y-48360000D01*
X106528342Y-48360000D01*
X106740857Y-48402272D01*
X106740857Y-48402272D01*
G37*
G36*
X162997666Y-42633037D02*
X163254639Y-42684152D01*
X163700510Y-42868838D01*
X164101784Y-43136960D01*
X164443040Y-43478216D01*
X164711162Y-43879490D01*
X164884803Y-44298696D01*
X164895848Y-44325362D01*
X164958434Y-44640000D01*
X164990000Y-44798696D01*
X164990000Y-45281304D01*
X164895848Y-45754639D01*
X164711162Y-46200510D01*
X164443040Y-46601784D01*
X164101784Y-46943040D01*
X163700510Y-47211162D01*
X163254639Y-47395848D01*
X163017971Y-47442924D01*
X162781305Y-47490000D01*
X162298695Y-47490000D01*
X162062029Y-47442924D01*
X161825361Y-47395848D01*
X161379490Y-47211162D01*
X160978216Y-46943040D01*
X160636960Y-46601784D01*
X160368838Y-46200510D01*
X160184152Y-45754639D01*
X160090000Y-45281304D01*
X160090000Y-44798696D01*
X160121567Y-44640000D01*
X160184152Y-44325362D01*
X160195197Y-44298696D01*
X160368838Y-43879490D01*
X160636960Y-43478216D01*
X160978216Y-43136960D01*
X161379490Y-42868838D01*
X161825361Y-42684152D01*
X162082334Y-42633037D01*
X162298695Y-42590000D01*
X162781305Y-42590000D01*
X162997666Y-42633037D01*
X162997666Y-42633037D01*
G37*
G36*
X144754639Y-42184152D02*
X145200510Y-42368838D01*
X145601784Y-42636960D01*
X145943040Y-42978216D01*
X146211162Y-43379490D01*
X146395848Y-43825361D01*
X146490000Y-44298696D01*
X146490000Y-44781304D01*
X146395848Y-45254639D01*
X146211162Y-45700510D01*
X145943040Y-46101784D01*
X145601784Y-46443040D01*
X145200510Y-46711162D01*
X144754639Y-46895848D01*
X144281305Y-46990000D01*
X143798695Y-46990000D01*
X143325361Y-46895848D01*
X142879490Y-46711162D01*
X142478216Y-46443040D01*
X142136960Y-46101784D01*
X141868838Y-45700510D01*
X141684152Y-45254639D01*
X141590000Y-44781304D01*
X141590000Y-44298696D01*
X141684152Y-43825361D01*
X141868838Y-43379490D01*
X142136960Y-42978216D01*
X142478216Y-42636960D01*
X142879490Y-42368838D01*
X143325361Y-42184152D01*
X143798695Y-42090000D01*
X144281305Y-42090000D01*
X144754639Y-42184152D01*
X144754639Y-42184152D01*
G37*
G36*
X126254639Y-42184152D02*
X126700510Y-42368838D01*
X127101784Y-42636960D01*
X127443040Y-42978216D01*
X127711162Y-43379490D01*
X127895848Y-43825361D01*
X127990000Y-44298696D01*
X127990000Y-44781304D01*
X127895848Y-45254639D01*
X127711162Y-45700510D01*
X127443040Y-46101784D01*
X127101784Y-46443040D01*
X126700510Y-46711162D01*
X126254639Y-46895848D01*
X125781305Y-46990000D01*
X125298695Y-46990000D01*
X124825361Y-46895848D01*
X124379490Y-46711162D01*
X123978216Y-46443040D01*
X123636960Y-46101784D01*
X123368838Y-45700510D01*
X123184152Y-45254639D01*
X123090000Y-44781304D01*
X123090000Y-44298696D01*
X123184152Y-43825361D01*
X123368838Y-43379490D01*
X123636960Y-42978216D01*
X123978216Y-42636960D01*
X124379490Y-42368838D01*
X124825361Y-42184152D01*
X125298695Y-42090000D01*
X125781305Y-42090000D01*
X126254639Y-42184152D01*
X126254639Y-42184152D01*
G37*
G36*
X101660857Y-42482272D02*
X101861042Y-42565191D01*
X101861045Y-42565193D01*
X101968452Y-42636960D01*
X102041213Y-42685578D01*
X102194422Y-42838787D01*
X102314809Y-43018958D01*
X102397728Y-43219143D01*
X102440000Y-43431658D01*
X102440000Y-43648342D01*
X102397728Y-43860857D01*
X102314809Y-44061042D01*
X102194422Y-44241213D01*
X102041213Y-44394422D01*
X101861042Y-44514809D01*
X101660857Y-44597728D01*
X101448342Y-44640000D01*
X101231658Y-44640000D01*
X101019143Y-44597728D01*
X100818958Y-44514809D01*
X100638787Y-44394422D01*
X100485578Y-44241213D01*
X100365191Y-44061042D01*
X100282272Y-43860857D01*
X100240000Y-43648342D01*
X100240000Y-43431658D01*
X100282272Y-43219143D01*
X100365191Y-43018958D01*
X100485578Y-42838787D01*
X100638787Y-42685578D01*
X100711549Y-42636960D01*
X100818955Y-42565193D01*
X100818958Y-42565191D01*
X101019143Y-42482272D01*
X101231658Y-42440000D01*
X101448342Y-42440000D01*
X101660857Y-42482272D01*
X101660857Y-42482272D01*
G37*
G36*
X106740857Y-42482272D02*
X106941042Y-42565191D01*
X106941045Y-42565193D01*
X107048452Y-42636960D01*
X107121213Y-42685578D01*
X107274422Y-42838787D01*
X107394809Y-43018958D01*
X107477728Y-43219143D01*
X107520000Y-43431658D01*
X107520000Y-43648342D01*
X107477728Y-43860857D01*
X107394809Y-44061042D01*
X107274422Y-44241213D01*
X107121213Y-44394422D01*
X106941042Y-44514809D01*
X106740857Y-44597728D01*
X106528342Y-44640000D01*
X106311658Y-44640000D01*
X106099143Y-44597728D01*
X105898958Y-44514809D01*
X105718787Y-44394422D01*
X105565578Y-44241213D01*
X105445191Y-44061042D01*
X105362272Y-43860857D01*
X105320000Y-43648342D01*
X105320000Y-43431658D01*
X105362272Y-43219143D01*
X105445191Y-43018958D01*
X105565578Y-42838787D01*
X105718787Y-42685578D01*
X105791549Y-42636960D01*
X105898955Y-42565193D01*
X105898958Y-42565191D01*
X106099143Y-42482272D01*
X106311658Y-42440000D01*
X106528342Y-42440000D01*
X106740857Y-42482272D01*
X106740857Y-42482272D01*
G37*
G36*
X104200857Y-42482272D02*
X104401042Y-42565191D01*
X104401045Y-42565193D01*
X104508452Y-42636960D01*
X104581213Y-42685578D01*
X104734422Y-42838787D01*
X104854809Y-43018958D01*
X104937728Y-43219143D01*
X104980000Y-43431658D01*
X104980000Y-43648342D01*
X104937728Y-43860857D01*
X104854809Y-44061042D01*
X104734422Y-44241213D01*
X104581213Y-44394422D01*
X104401042Y-44514809D01*
X104200857Y-44597728D01*
X103988342Y-44640000D01*
X103771658Y-44640000D01*
X103559143Y-44597728D01*
X103358958Y-44514809D01*
X103178787Y-44394422D01*
X103025578Y-44241213D01*
X102905191Y-44061042D01*
X102822272Y-43860857D01*
X102780000Y-43648342D01*
X102780000Y-43431658D01*
X102822272Y-43219143D01*
X102905191Y-43018958D01*
X103025578Y-42838787D01*
X103178787Y-42685578D01*
X103251549Y-42636960D01*
X103358955Y-42565193D01*
X103358958Y-42565191D01*
X103559143Y-42482272D01*
X103771658Y-42440000D01*
X103988342Y-42440000D01*
X104200857Y-42482272D01*
X104200857Y-42482272D01*
G37*
G36*
X171820857Y-42482272D02*
X172021042Y-42565191D01*
X172021045Y-42565193D01*
X172128452Y-42636960D01*
X172201213Y-42685578D01*
X172354422Y-42838787D01*
X172474809Y-43018958D01*
X172557728Y-43219143D01*
X172600000Y-43431658D01*
X172600000Y-43648342D01*
X172557728Y-43860857D01*
X172474809Y-44061042D01*
X172354422Y-44241213D01*
X172201213Y-44394422D01*
X172021042Y-44514809D01*
X171820857Y-44597728D01*
X171608342Y-44640000D01*
X171391658Y-44640000D01*
X171179143Y-44597728D01*
X170978958Y-44514809D01*
X170798787Y-44394422D01*
X170645578Y-44241213D01*
X170525191Y-44061042D01*
X170442272Y-43860857D01*
X170400000Y-43648342D01*
X170400000Y-43431658D01*
X170442272Y-43219143D01*
X170525191Y-43018958D01*
X170645578Y-42838787D01*
X170798787Y-42685578D01*
X170871549Y-42636960D01*
X170978955Y-42565193D01*
X170978958Y-42565191D01*
X171179143Y-42482272D01*
X171391658Y-42440000D01*
X171608342Y-42440000D01*
X171820857Y-42482272D01*
X171820857Y-42482272D01*
G37*
G36*
X176900857Y-42482272D02*
X177101042Y-42565191D01*
X177101045Y-42565193D01*
X177208452Y-42636960D01*
X177281213Y-42685578D01*
X177434422Y-42838787D01*
X177554809Y-43018958D01*
X177637728Y-43219143D01*
X177680000Y-43431658D01*
X177680000Y-43648342D01*
X177637728Y-43860857D01*
X177554809Y-44061042D01*
X177434422Y-44241213D01*
X177281213Y-44394422D01*
X177101042Y-44514809D01*
X176900857Y-44597728D01*
X176688342Y-44640000D01*
X176471658Y-44640000D01*
X176259143Y-44597728D01*
X176058958Y-44514809D01*
X175878787Y-44394422D01*
X175725578Y-44241213D01*
X175605191Y-44061042D01*
X175522272Y-43860857D01*
X175480000Y-43648342D01*
X175480000Y-43431658D01*
X175522272Y-43219143D01*
X175605191Y-43018958D01*
X175725578Y-42838787D01*
X175878787Y-42685578D01*
X175951549Y-42636960D01*
X176058955Y-42565193D01*
X176058958Y-42565191D01*
X176259143Y-42482272D01*
X176471658Y-42440000D01*
X176688342Y-42440000D01*
X176900857Y-42482272D01*
X176900857Y-42482272D01*
G37*
G36*
X179420857Y-42482272D02*
X179621042Y-42565191D01*
X179621045Y-42565193D01*
X179728452Y-42636960D01*
X179801213Y-42685578D01*
X179954422Y-42838787D01*
X180074809Y-43018958D01*
X180157728Y-43219143D01*
X180200000Y-43431658D01*
X180200000Y-43648342D01*
X180157728Y-43860857D01*
X180074809Y-44061042D01*
X179954422Y-44241213D01*
X179801213Y-44394422D01*
X179621042Y-44514809D01*
X179420857Y-44597728D01*
X179208342Y-44640000D01*
X178991658Y-44640000D01*
X178779143Y-44597728D01*
X178578958Y-44514809D01*
X178398787Y-44394422D01*
X178245578Y-44241213D01*
X178125191Y-44061042D01*
X178042272Y-43860857D01*
X178000000Y-43648342D01*
X178000000Y-43431658D01*
X178042272Y-43219143D01*
X178125191Y-43018958D01*
X178245578Y-42838787D01*
X178398787Y-42685578D01*
X178471549Y-42636960D01*
X178578955Y-42565193D01*
X178578958Y-42565191D01*
X178779143Y-42482272D01*
X178991658Y-42440000D01*
X179208342Y-42440000D01*
X179420857Y-42482272D01*
X179420857Y-42482272D01*
G37*
G36*
X111820857Y-42482272D02*
X112021042Y-42565191D01*
X112021045Y-42565193D01*
X112128452Y-42636960D01*
X112201213Y-42685578D01*
X112354422Y-42838787D01*
X112474809Y-43018958D01*
X112557728Y-43219143D01*
X112600000Y-43431658D01*
X112600000Y-43648342D01*
X112557728Y-43860857D01*
X112474809Y-44061042D01*
X112354422Y-44241213D01*
X112201213Y-44394422D01*
X112021042Y-44514809D01*
X111820857Y-44597728D01*
X111608342Y-44640000D01*
X111391658Y-44640000D01*
X111179143Y-44597728D01*
X110978958Y-44514809D01*
X110798787Y-44394422D01*
X110645578Y-44241213D01*
X110525191Y-44061042D01*
X110442272Y-43860857D01*
X110400000Y-43648342D01*
X110400000Y-43431658D01*
X110442272Y-43219143D01*
X110525191Y-43018958D01*
X110645578Y-42838787D01*
X110798787Y-42685578D01*
X110871549Y-42636960D01*
X110978955Y-42565193D01*
X110978958Y-42565191D01*
X111179143Y-42482272D01*
X111391658Y-42440000D01*
X111608342Y-42440000D01*
X111820857Y-42482272D01*
X111820857Y-42482272D01*
G37*
G36*
X181980857Y-42482272D02*
X182181042Y-42565191D01*
X182181045Y-42565193D01*
X182288452Y-42636960D01*
X182361213Y-42685578D01*
X182514422Y-42838787D01*
X182634809Y-43018958D01*
X182717728Y-43219143D01*
X182760000Y-43431658D01*
X182760000Y-43648342D01*
X182717728Y-43860857D01*
X182634809Y-44061042D01*
X182514422Y-44241213D01*
X182361213Y-44394422D01*
X182181042Y-44514809D01*
X181980857Y-44597728D01*
X181768342Y-44640000D01*
X181551658Y-44640000D01*
X181339143Y-44597728D01*
X181138958Y-44514809D01*
X180958787Y-44394422D01*
X180805578Y-44241213D01*
X180685191Y-44061042D01*
X180602272Y-43860857D01*
X180560000Y-43648342D01*
X180560000Y-43431658D01*
X180602272Y-43219143D01*
X180685191Y-43018958D01*
X180805578Y-42838787D01*
X180958787Y-42685578D01*
X181031549Y-42636960D01*
X181138955Y-42565193D01*
X181138958Y-42565191D01*
X181339143Y-42482272D01*
X181551658Y-42440000D01*
X181768342Y-42440000D01*
X181980857Y-42482272D01*
X181980857Y-42482272D01*
G37*
G36*
X157937388Y-38826960D02*
X158174639Y-38874152D01*
X158620510Y-39058838D01*
X159021784Y-39326960D01*
X159363040Y-39668216D01*
X159631162Y-40069490D01*
X159815848Y-40515361D01*
X159910000Y-40988696D01*
X159910000Y-41471304D01*
X159815848Y-41944639D01*
X159631162Y-42390510D01*
X159363040Y-42791784D01*
X159021784Y-43133040D01*
X158620510Y-43401162D01*
X158174639Y-43585848D01*
X157701305Y-43680000D01*
X157218695Y-43680000D01*
X156982029Y-43632924D01*
X156745361Y-43585848D01*
X156299490Y-43401162D01*
X155898216Y-43133040D01*
X155556960Y-42791784D01*
X155288838Y-42390510D01*
X155104152Y-41944639D01*
X155010000Y-41471304D01*
X155010000Y-40988696D01*
X155104152Y-40515361D01*
X155288838Y-40069490D01*
X155556960Y-39668216D01*
X155898216Y-39326960D01*
X156299490Y-39058838D01*
X156745361Y-38874152D01*
X156982612Y-38826960D01*
X157218695Y-38780000D01*
X157701305Y-38780000D01*
X157937388Y-38826960D01*
X157937388Y-38826960D01*
G37*
G36*
X120937971Y-38327076D02*
X121174639Y-38374152D01*
X121620510Y-38558838D01*
X122021784Y-38826960D01*
X122363040Y-39168216D01*
X122631162Y-39569490D01*
X122815848Y-40015361D01*
X122910000Y-40488696D01*
X122910000Y-40971304D01*
X122815848Y-41444639D01*
X122631162Y-41890510D01*
X122363040Y-42291784D01*
X122021784Y-42633040D01*
X121620510Y-42901162D01*
X121174639Y-43085848D01*
X120937971Y-43132924D01*
X120701305Y-43180000D01*
X120218695Y-43180000D01*
X119982029Y-43132924D01*
X119745361Y-43085848D01*
X119299490Y-42901162D01*
X118898216Y-42633040D01*
X118556960Y-42291784D01*
X118288838Y-41890510D01*
X118104152Y-41444639D01*
X118010000Y-40971304D01*
X118010000Y-40488696D01*
X118104152Y-40015361D01*
X118288838Y-39569490D01*
X118556960Y-39168216D01*
X118898216Y-38826960D01*
X119299490Y-38558838D01*
X119745361Y-38374152D01*
X120218695Y-38280000D01*
X120701305Y-38280000D01*
X120937971Y-38327076D01*
X120937971Y-38327076D01*
G37*
G36*
X139437971Y-38327076D02*
X139674639Y-38374152D01*
X140120510Y-38558838D01*
X140521784Y-38826960D01*
X140863040Y-39168216D01*
X141131162Y-39569490D01*
X141315848Y-40015361D01*
X141410000Y-40488696D01*
X141410000Y-40971304D01*
X141315848Y-41444639D01*
X141131162Y-41890510D01*
X140863040Y-42291784D01*
X140521784Y-42633040D01*
X140120510Y-42901162D01*
X139674639Y-43085848D01*
X139437971Y-43132924D01*
X139201305Y-43180000D01*
X138718695Y-43180000D01*
X138482029Y-43132924D01*
X138245361Y-43085848D01*
X137799490Y-42901162D01*
X137398216Y-42633040D01*
X137056960Y-42291784D01*
X136788838Y-41890510D01*
X136604152Y-41444639D01*
X136510000Y-40971304D01*
X136510000Y-40488696D01*
X136604152Y-40015361D01*
X136788838Y-39569490D01*
X137056960Y-39168216D01*
X137398216Y-38826960D01*
X137799490Y-38558838D01*
X138245361Y-38374152D01*
X138718695Y-38280000D01*
X139201305Y-38280000D01*
X139437971Y-38327076D01*
X139437971Y-38327076D01*
G37*
G36*
X112300000Y-41850000D02*
X110400000Y-41850000D01*
X110400000Y-40150000D01*
X112300000Y-40150000D01*
X112300000Y-41850000D01*
X112300000Y-41850000D01*
G37*
G36*
X109600000Y-41850000D02*
X107700000Y-41850000D01*
X107700000Y-40150000D01*
X109600000Y-40150000D01*
X109600000Y-41850000D01*
X109600000Y-41850000D01*
G37*
G36*
X172600000Y-41850000D02*
X170700000Y-41850000D01*
X170700000Y-40150000D01*
X172600000Y-40150000D01*
X172600000Y-41850000D01*
X172600000Y-41850000D01*
G37*
G36*
X175300000Y-41850000D02*
X173400000Y-41850000D01*
X173400000Y-40150000D01*
X175300000Y-40150000D01*
X175300000Y-41850000D01*
X175300000Y-41850000D01*
G37*
G36*
X176900857Y-37402272D02*
X177101042Y-37485191D01*
X177281213Y-37605578D01*
X177434422Y-37758787D01*
X177554809Y-37938958D01*
X177637728Y-38139143D01*
X177680000Y-38351658D01*
X177680000Y-38568342D01*
X177637728Y-38780857D01*
X177554809Y-38981042D01*
X177434422Y-39161213D01*
X177281213Y-39314422D01*
X177281210Y-39314424D01*
X177281209Y-39314425D01*
X177101045Y-39434807D01*
X177101042Y-39434809D01*
X176900857Y-39517728D01*
X176688342Y-39560000D01*
X176471658Y-39560000D01*
X176259143Y-39517728D01*
X176058958Y-39434809D01*
X176058955Y-39434807D01*
X175878791Y-39314425D01*
X175878790Y-39314424D01*
X175878787Y-39314422D01*
X175725578Y-39161213D01*
X175605191Y-38981042D01*
X175522272Y-38780857D01*
X175480000Y-38568342D01*
X175480000Y-38351658D01*
X175522272Y-38139143D01*
X175605191Y-37938958D01*
X175725578Y-37758787D01*
X175878787Y-37605578D01*
X176058958Y-37485191D01*
X176259143Y-37402272D01*
X176471658Y-37360000D01*
X176688342Y-37360000D01*
X176900857Y-37402272D01*
X176900857Y-37402272D01*
G37*
G36*
X181980857Y-37402272D02*
X182181042Y-37485191D01*
X182361213Y-37605578D01*
X182514422Y-37758787D01*
X182634809Y-37938958D01*
X182717728Y-38139143D01*
X182760000Y-38351658D01*
X182760000Y-38568342D01*
X182717728Y-38780857D01*
X182634809Y-38981042D01*
X182514422Y-39161213D01*
X182361213Y-39314422D01*
X182361210Y-39314424D01*
X182361209Y-39314425D01*
X182181045Y-39434807D01*
X182181042Y-39434809D01*
X181980857Y-39517728D01*
X181768342Y-39560000D01*
X181551658Y-39560000D01*
X181339143Y-39517728D01*
X181138958Y-39434809D01*
X181138955Y-39434807D01*
X180958791Y-39314425D01*
X180958790Y-39314424D01*
X180958787Y-39314422D01*
X180805578Y-39161213D01*
X180685191Y-38981042D01*
X180602272Y-38780857D01*
X180560000Y-38568342D01*
X180560000Y-38351658D01*
X180602272Y-38139143D01*
X180685191Y-37938958D01*
X180805578Y-37758787D01*
X180958787Y-37605578D01*
X181138958Y-37485191D01*
X181339143Y-37402272D01*
X181551658Y-37360000D01*
X181768342Y-37360000D01*
X181980857Y-37402272D01*
X181980857Y-37402272D01*
G37*
G36*
X101660857Y-37402272D02*
X101861042Y-37485191D01*
X102041213Y-37605578D01*
X102194422Y-37758787D01*
X102314809Y-37938958D01*
X102397728Y-38139143D01*
X102440000Y-38351658D01*
X102440000Y-38568342D01*
X102397728Y-38780857D01*
X102314809Y-38981042D01*
X102194422Y-39161213D01*
X102041213Y-39314422D01*
X102041210Y-39314424D01*
X102041209Y-39314425D01*
X101861045Y-39434807D01*
X101861042Y-39434809D01*
X101660857Y-39517728D01*
X101448342Y-39560000D01*
X101231658Y-39560000D01*
X101019143Y-39517728D01*
X100818958Y-39434809D01*
X100818955Y-39434807D01*
X100638791Y-39314425D01*
X100638790Y-39314424D01*
X100638787Y-39314422D01*
X100485578Y-39161213D01*
X100365191Y-38981042D01*
X100282272Y-38780857D01*
X100240000Y-38568342D01*
X100240000Y-38351658D01*
X100282272Y-38139143D01*
X100365191Y-37938958D01*
X100485578Y-37758787D01*
X100638787Y-37605578D01*
X100818958Y-37485191D01*
X101019143Y-37402272D01*
X101231658Y-37360000D01*
X101448342Y-37360000D01*
X101660857Y-37402272D01*
X101660857Y-37402272D01*
G37*
G36*
X104220857Y-37402272D02*
X104421042Y-37485191D01*
X104601213Y-37605578D01*
X104754422Y-37758787D01*
X104874809Y-37938958D01*
X104957728Y-38139143D01*
X105000000Y-38351658D01*
X105000000Y-38568342D01*
X104957728Y-38780857D01*
X104874809Y-38981042D01*
X104754422Y-39161213D01*
X104601213Y-39314422D01*
X104601210Y-39314424D01*
X104601209Y-39314425D01*
X104421045Y-39434807D01*
X104421042Y-39434809D01*
X104220857Y-39517728D01*
X104008342Y-39560000D01*
X103791658Y-39560000D01*
X103579143Y-39517728D01*
X103378958Y-39434809D01*
X103378955Y-39434807D01*
X103198791Y-39314425D01*
X103198790Y-39314424D01*
X103198787Y-39314422D01*
X103045578Y-39161213D01*
X102925191Y-38981042D01*
X102842272Y-38780857D01*
X102800000Y-38568342D01*
X102800000Y-38351658D01*
X102842272Y-38139143D01*
X102925191Y-37938958D01*
X103045578Y-37758787D01*
X103198787Y-37605578D01*
X103378958Y-37485191D01*
X103579143Y-37402272D01*
X103791658Y-37360000D01*
X104008342Y-37360000D01*
X104220857Y-37402272D01*
X104220857Y-37402272D01*
G37*
G36*
X106740857Y-37402272D02*
X106941042Y-37485191D01*
X107121213Y-37605578D01*
X107274422Y-37758787D01*
X107394809Y-37938958D01*
X107477728Y-38139143D01*
X107520000Y-38351658D01*
X107520000Y-38568342D01*
X107477728Y-38780857D01*
X107394809Y-38981042D01*
X107274422Y-39161213D01*
X107121213Y-39314422D01*
X107121210Y-39314424D01*
X107121209Y-39314425D01*
X106941045Y-39434807D01*
X106941042Y-39434809D01*
X106740857Y-39517728D01*
X106528342Y-39560000D01*
X106311658Y-39560000D01*
X106099143Y-39517728D01*
X105898958Y-39434809D01*
X105898955Y-39434807D01*
X105718791Y-39314425D01*
X105718790Y-39314424D01*
X105718787Y-39314422D01*
X105565578Y-39161213D01*
X105445191Y-38981042D01*
X105362272Y-38780857D01*
X105320000Y-38568342D01*
X105320000Y-38351658D01*
X105362272Y-38139143D01*
X105445191Y-37938958D01*
X105565578Y-37758787D01*
X105718787Y-37605578D01*
X105898958Y-37485191D01*
X106099143Y-37402272D01*
X106311658Y-37360000D01*
X106528342Y-37360000D01*
X106740857Y-37402272D01*
X106740857Y-37402272D01*
G37*
G36*
X171820857Y-37402272D02*
X172021042Y-37485191D01*
X172201213Y-37605578D01*
X172354422Y-37758787D01*
X172474809Y-37938958D01*
X172557728Y-38139143D01*
X172600000Y-38351658D01*
X172600000Y-38568342D01*
X172557728Y-38780857D01*
X172474809Y-38981042D01*
X172354422Y-39161213D01*
X172201213Y-39314422D01*
X172201210Y-39314424D01*
X172201209Y-39314425D01*
X172021045Y-39434807D01*
X172021042Y-39434809D01*
X171820857Y-39517728D01*
X171608342Y-39560000D01*
X171391658Y-39560000D01*
X171179143Y-39517728D01*
X170978958Y-39434809D01*
X170978955Y-39434807D01*
X170798791Y-39314425D01*
X170798790Y-39314424D01*
X170798787Y-39314422D01*
X170645578Y-39161213D01*
X170525191Y-38981042D01*
X170442272Y-38780857D01*
X170400000Y-38568342D01*
X170400000Y-38351658D01*
X170442272Y-38139143D01*
X170525191Y-37938958D01*
X170645578Y-37758787D01*
X170798787Y-37605578D01*
X170978958Y-37485191D01*
X171179143Y-37402272D01*
X171391658Y-37360000D01*
X171608342Y-37360000D01*
X171820857Y-37402272D01*
X171820857Y-37402272D01*
G37*
G36*
X111820857Y-37402272D02*
X112021042Y-37485191D01*
X112201213Y-37605578D01*
X112354422Y-37758787D01*
X112474809Y-37938958D01*
X112557728Y-38139143D01*
X112600000Y-38351658D01*
X112600000Y-38568342D01*
X112557728Y-38780857D01*
X112474809Y-38981042D01*
X112354422Y-39161213D01*
X112201213Y-39314422D01*
X112201210Y-39314424D01*
X112201209Y-39314425D01*
X112021045Y-39434807D01*
X112021042Y-39434809D01*
X111820857Y-39517728D01*
X111608342Y-39560000D01*
X111391658Y-39560000D01*
X111179143Y-39517728D01*
X110978958Y-39434809D01*
X110978955Y-39434807D01*
X110798791Y-39314425D01*
X110798790Y-39314424D01*
X110798787Y-39314422D01*
X110645578Y-39161213D01*
X110525191Y-38981042D01*
X110442272Y-38780857D01*
X110400000Y-38568342D01*
X110400000Y-38351658D01*
X110442272Y-38139143D01*
X110525191Y-37938958D01*
X110645578Y-37758787D01*
X110798787Y-37605578D01*
X110978958Y-37485191D01*
X111179143Y-37402272D01*
X111391658Y-37360000D01*
X111608342Y-37360000D01*
X111820857Y-37402272D01*
X111820857Y-37402272D01*
G37*
G36*
X179440857Y-37402272D02*
X179641042Y-37485191D01*
X179821213Y-37605578D01*
X179974422Y-37758787D01*
X180094809Y-37938958D01*
X180177728Y-38139143D01*
X180220000Y-38351658D01*
X180220000Y-38568342D01*
X180177728Y-38780857D01*
X180094809Y-38981042D01*
X179974422Y-39161213D01*
X179821213Y-39314422D01*
X179821210Y-39314424D01*
X179821209Y-39314425D01*
X179641045Y-39434807D01*
X179641042Y-39434809D01*
X179440857Y-39517728D01*
X179228342Y-39560000D01*
X179011658Y-39560000D01*
X178799143Y-39517728D01*
X178598958Y-39434809D01*
X178598955Y-39434807D01*
X178418791Y-39314425D01*
X178418790Y-39314424D01*
X178418787Y-39314422D01*
X178265578Y-39161213D01*
X178145191Y-38981042D01*
X178062272Y-38780857D01*
X178020000Y-38568342D01*
X178020000Y-38351658D01*
X178062272Y-38139143D01*
X178145191Y-37938958D01*
X178265578Y-37758787D01*
X178418787Y-37605578D01*
X178598958Y-37485191D01*
X178799143Y-37402272D01*
X179011658Y-37360000D01*
X179228342Y-37360000D01*
X179440857Y-37402272D01*
X179440857Y-37402272D01*
G37*
G36*
X126754639Y-29184152D02*
X127200510Y-29368838D01*
X127601784Y-29636960D01*
X127943040Y-29978216D01*
X128211162Y-30379490D01*
X128395848Y-30825361D01*
X128490000Y-31298696D01*
X128490000Y-31781304D01*
X128395848Y-32254639D01*
X128211162Y-32700510D01*
X127943040Y-33101784D01*
X127601784Y-33443040D01*
X127200510Y-33711162D01*
X126754639Y-33895848D01*
X126517971Y-33942924D01*
X126281305Y-33990000D01*
X125798695Y-33990000D01*
X125562029Y-33942924D01*
X125325361Y-33895848D01*
X124879490Y-33711162D01*
X124478216Y-33443040D01*
X124136960Y-33101784D01*
X123868838Y-32700510D01*
X123684152Y-32254639D01*
X123590000Y-31781304D01*
X123590000Y-31298696D01*
X123684152Y-30825361D01*
X123868838Y-30379490D01*
X124136960Y-29978216D01*
X124478216Y-29636960D01*
X124879490Y-29368838D01*
X125325361Y-29184152D01*
X125562029Y-29137076D01*
X125798695Y-29090000D01*
X126281305Y-29090000D01*
X126754639Y-29184152D01*
X126754639Y-29184152D01*
G37*
G36*
X143254639Y-29184152D02*
X143700510Y-29368838D01*
X144101784Y-29636960D01*
X144443040Y-29978216D01*
X144711162Y-30379490D01*
X144895848Y-30825361D01*
X144990000Y-31298696D01*
X144990000Y-31781304D01*
X144895848Y-32254639D01*
X144711162Y-32700510D01*
X144443040Y-33101784D01*
X144101784Y-33443040D01*
X143700510Y-33711162D01*
X143254639Y-33895848D01*
X143017971Y-33942924D01*
X142781305Y-33990000D01*
X142298695Y-33990000D01*
X142062029Y-33942924D01*
X141825361Y-33895848D01*
X141379490Y-33711162D01*
X140978216Y-33443040D01*
X140636960Y-33101784D01*
X140368838Y-32700510D01*
X140184152Y-32254639D01*
X140090000Y-31781304D01*
X140090000Y-31298696D01*
X140184152Y-30825361D01*
X140368838Y-30379490D01*
X140636960Y-29978216D01*
X140978216Y-29636960D01*
X141379490Y-29368838D01*
X141825361Y-29184152D01*
X142062029Y-29137076D01*
X142298695Y-29090000D01*
X142781305Y-29090000D01*
X143254639Y-29184152D01*
X143254639Y-29184152D01*
G37*
G36*
X160254639Y-29184152D02*
X160700510Y-29368838D01*
X161101784Y-29636960D01*
X161443040Y-29978216D01*
X161711162Y-30379490D01*
X161895848Y-30825361D01*
X161990000Y-31298696D01*
X161990000Y-31781304D01*
X161895848Y-32254639D01*
X161711162Y-32700510D01*
X161443040Y-33101784D01*
X161101784Y-33443040D01*
X160700510Y-33711162D01*
X160254639Y-33895848D01*
X160017971Y-33942924D01*
X159781305Y-33990000D01*
X159298695Y-33990000D01*
X159062029Y-33942924D01*
X158825361Y-33895848D01*
X158379490Y-33711162D01*
X157978216Y-33443040D01*
X157636960Y-33101784D01*
X157368838Y-32700510D01*
X157184152Y-32254639D01*
X157090000Y-31781304D01*
X157090000Y-31298696D01*
X157184152Y-30825361D01*
X157368838Y-30379490D01*
X157636960Y-29978216D01*
X157978216Y-29636960D01*
X158379490Y-29368838D01*
X158825361Y-29184152D01*
X159062029Y-29137076D01*
X159298695Y-29090000D01*
X159781305Y-29090000D01*
X160254639Y-29184152D01*
X160254639Y-29184152D01*
G37*
G36*
X180980857Y-31482272D02*
X181181042Y-31565191D01*
X181361213Y-31685578D01*
X181514422Y-31838787D01*
X181634809Y-32018958D01*
X181717728Y-32219143D01*
X181760000Y-32431658D01*
X181760000Y-32648342D01*
X181717728Y-32860857D01*
X181634809Y-33061042D01*
X181514422Y-33241213D01*
X181361213Y-33394422D01*
X181361210Y-33394424D01*
X181361209Y-33394425D01*
X181181045Y-33514807D01*
X181181042Y-33514809D01*
X180980857Y-33597728D01*
X180768342Y-33640000D01*
X180551658Y-33640000D01*
X180339143Y-33597728D01*
X180138958Y-33514809D01*
X180138955Y-33514807D01*
X179958791Y-33394425D01*
X179958790Y-33394424D01*
X179958787Y-33394422D01*
X179805578Y-33241213D01*
X179685191Y-33061042D01*
X179602272Y-32860857D01*
X179560000Y-32648342D01*
X179560000Y-32431658D01*
X179602272Y-32219143D01*
X179685191Y-32018958D01*
X179805578Y-31838787D01*
X179958787Y-31685578D01*
X180138958Y-31565191D01*
X180339143Y-31482272D01*
X180551658Y-31440000D01*
X180768342Y-31440000D01*
X180980857Y-31482272D01*
X180980857Y-31482272D01*
G37*
G36*
X104700857Y-31482272D02*
X104901042Y-31565191D01*
X105081213Y-31685578D01*
X105234422Y-31838787D01*
X105354809Y-32018958D01*
X105437728Y-32219143D01*
X105480000Y-32431658D01*
X105480000Y-32648342D01*
X105437728Y-32860857D01*
X105354809Y-33061042D01*
X105234422Y-33241213D01*
X105081213Y-33394422D01*
X105081210Y-33394424D01*
X105081209Y-33394425D01*
X104901045Y-33514807D01*
X104901042Y-33514809D01*
X104700857Y-33597728D01*
X104488342Y-33640000D01*
X104271658Y-33640000D01*
X104059143Y-33597728D01*
X103858958Y-33514809D01*
X103858955Y-33514807D01*
X103678791Y-33394425D01*
X103678790Y-33394424D01*
X103678787Y-33394422D01*
X103525578Y-33241213D01*
X103405191Y-33061042D01*
X103322272Y-32860857D01*
X103280000Y-32648342D01*
X103280000Y-32431658D01*
X103322272Y-32219143D01*
X103405191Y-32018958D01*
X103525578Y-31838787D01*
X103678787Y-31685578D01*
X103858958Y-31565191D01*
X104059143Y-31482272D01*
X104271658Y-31440000D01*
X104488342Y-31440000D01*
X104700857Y-31482272D01*
X104700857Y-31482272D01*
G37*
G36*
X178420857Y-31482272D02*
X178621042Y-31565191D01*
X178801213Y-31685578D01*
X178954422Y-31838787D01*
X179074809Y-32018958D01*
X179157728Y-32219143D01*
X179200000Y-32431658D01*
X179200000Y-32648342D01*
X179157728Y-32860857D01*
X179074809Y-33061042D01*
X178954422Y-33241213D01*
X178801213Y-33394422D01*
X178801210Y-33394424D01*
X178801209Y-33394425D01*
X178621045Y-33514807D01*
X178621042Y-33514809D01*
X178420857Y-33597728D01*
X178208342Y-33640000D01*
X177991658Y-33640000D01*
X177779143Y-33597728D01*
X177578958Y-33514809D01*
X177578955Y-33514807D01*
X177398791Y-33394425D01*
X177398790Y-33394424D01*
X177398787Y-33394422D01*
X177245578Y-33241213D01*
X177125191Y-33061042D01*
X177042272Y-32860857D01*
X177000000Y-32648342D01*
X177000000Y-32431658D01*
X177042272Y-32219143D01*
X177125191Y-32018958D01*
X177245578Y-31838787D01*
X177398787Y-31685578D01*
X177578958Y-31565191D01*
X177779143Y-31482272D01*
X177991658Y-31440000D01*
X178208342Y-31440000D01*
X178420857Y-31482272D01*
X178420857Y-31482272D01*
G37*
G36*
X170820857Y-31482272D02*
X171021042Y-31565191D01*
X171201213Y-31685578D01*
X171354422Y-31838787D01*
X171474809Y-32018958D01*
X171557728Y-32219143D01*
X171600000Y-32431658D01*
X171600000Y-32648342D01*
X171557728Y-32860857D01*
X171474809Y-33061042D01*
X171354422Y-33241213D01*
X171201213Y-33394422D01*
X171201210Y-33394424D01*
X171201209Y-33394425D01*
X171021045Y-33514807D01*
X171021042Y-33514809D01*
X170820857Y-33597728D01*
X170608342Y-33640000D01*
X170391658Y-33640000D01*
X170179143Y-33597728D01*
X169978958Y-33514809D01*
X169978955Y-33514807D01*
X169798791Y-33394425D01*
X169798790Y-33394424D01*
X169798787Y-33394422D01*
X169645578Y-33241213D01*
X169525191Y-33061042D01*
X169442272Y-32860857D01*
X169400000Y-32648342D01*
X169400000Y-32431658D01*
X169442272Y-32219143D01*
X169525191Y-32018958D01*
X169645578Y-31838787D01*
X169798787Y-31685578D01*
X169978958Y-31565191D01*
X170179143Y-31482272D01*
X170391658Y-31440000D01*
X170608342Y-31440000D01*
X170820857Y-31482272D01*
X170820857Y-31482272D01*
G37*
G36*
X175900857Y-31482272D02*
X176101042Y-31565191D01*
X176281213Y-31685578D01*
X176434422Y-31838787D01*
X176554809Y-32018958D01*
X176637728Y-32219143D01*
X176680000Y-32431658D01*
X176680000Y-32648342D01*
X176637728Y-32860857D01*
X176554809Y-33061042D01*
X176434422Y-33241213D01*
X176281213Y-33394422D01*
X176281210Y-33394424D01*
X176281209Y-33394425D01*
X176101045Y-33514807D01*
X176101042Y-33514809D01*
X175900857Y-33597728D01*
X175688342Y-33640000D01*
X175471658Y-33640000D01*
X175259143Y-33597728D01*
X175058958Y-33514809D01*
X175058955Y-33514807D01*
X174878791Y-33394425D01*
X174878790Y-33394424D01*
X174878787Y-33394422D01*
X174725578Y-33241213D01*
X174605191Y-33061042D01*
X174522272Y-32860857D01*
X174480000Y-32648342D01*
X174480000Y-32431658D01*
X174522272Y-32219143D01*
X174605191Y-32018958D01*
X174725578Y-31838787D01*
X174878787Y-31685578D01*
X175058958Y-31565191D01*
X175259143Y-31482272D01*
X175471658Y-31440000D01*
X175688342Y-31440000D01*
X175900857Y-31482272D01*
X175900857Y-31482272D01*
G37*
G36*
X107240857Y-31482272D02*
X107441042Y-31565191D01*
X107621213Y-31685578D01*
X107774422Y-31838787D01*
X107894809Y-32018958D01*
X107977728Y-32219143D01*
X108020000Y-32431658D01*
X108020000Y-32648342D01*
X107977728Y-32860857D01*
X107894809Y-33061042D01*
X107774422Y-33241213D01*
X107621213Y-33394422D01*
X107621210Y-33394424D01*
X107621209Y-33394425D01*
X107441045Y-33514807D01*
X107441042Y-33514809D01*
X107240857Y-33597728D01*
X107028342Y-33640000D01*
X106811658Y-33640000D01*
X106599143Y-33597728D01*
X106398958Y-33514809D01*
X106398955Y-33514807D01*
X106218791Y-33394425D01*
X106218790Y-33394424D01*
X106218787Y-33394422D01*
X106065578Y-33241213D01*
X105945191Y-33061042D01*
X105862272Y-32860857D01*
X105820000Y-32648342D01*
X105820000Y-32431658D01*
X105862272Y-32219143D01*
X105945191Y-32018958D01*
X106065578Y-31838787D01*
X106218787Y-31685578D01*
X106398958Y-31565191D01*
X106599143Y-31482272D01*
X106811658Y-31440000D01*
X107028342Y-31440000D01*
X107240857Y-31482272D01*
X107240857Y-31482272D01*
G37*
G36*
X112320857Y-31482272D02*
X112521042Y-31565191D01*
X112701213Y-31685578D01*
X112854422Y-31838787D01*
X112974809Y-32018958D01*
X113057728Y-32219143D01*
X113100000Y-32431658D01*
X113100000Y-32648342D01*
X113057728Y-32860857D01*
X112974809Y-33061042D01*
X112854422Y-33241213D01*
X112701213Y-33394422D01*
X112701210Y-33394424D01*
X112701209Y-33394425D01*
X112521045Y-33514807D01*
X112521042Y-33514809D01*
X112320857Y-33597728D01*
X112108342Y-33640000D01*
X111891658Y-33640000D01*
X111679143Y-33597728D01*
X111478958Y-33514809D01*
X111478955Y-33514807D01*
X111298791Y-33394425D01*
X111298790Y-33394424D01*
X111298787Y-33394422D01*
X111145578Y-33241213D01*
X111025191Y-33061042D01*
X110942272Y-32860857D01*
X110900000Y-32648342D01*
X110900000Y-32431658D01*
X110942272Y-32219143D01*
X111025191Y-32018958D01*
X111145578Y-31838787D01*
X111298787Y-31685578D01*
X111478958Y-31565191D01*
X111679143Y-31482272D01*
X111891658Y-31440000D01*
X112108342Y-31440000D01*
X112320857Y-31482272D01*
X112320857Y-31482272D01*
G37*
G36*
X102160857Y-31482272D02*
X102361042Y-31565191D01*
X102541213Y-31685578D01*
X102694422Y-31838787D01*
X102814809Y-32018958D01*
X102897728Y-32219143D01*
X102940000Y-32431658D01*
X102940000Y-32648342D01*
X102897728Y-32860857D01*
X102814809Y-33061042D01*
X102694422Y-33241213D01*
X102541213Y-33394422D01*
X102541210Y-33394424D01*
X102541209Y-33394425D01*
X102361045Y-33514807D01*
X102361042Y-33514809D01*
X102160857Y-33597728D01*
X101948342Y-33640000D01*
X101731658Y-33640000D01*
X101519143Y-33597728D01*
X101318958Y-33514809D01*
X101318955Y-33514807D01*
X101138791Y-33394425D01*
X101138790Y-33394424D01*
X101138787Y-33394422D01*
X100985578Y-33241213D01*
X100865191Y-33061042D01*
X100782272Y-32860857D01*
X100740000Y-32648342D01*
X100740000Y-32431658D01*
X100782272Y-32219143D01*
X100865191Y-32018958D01*
X100985578Y-31838787D01*
X101138787Y-31685578D01*
X101318958Y-31565191D01*
X101519143Y-31482272D01*
X101731658Y-31440000D01*
X101948342Y-31440000D01*
X102160857Y-31482272D01*
X102160857Y-31482272D01*
G37*
G36*
X174300000Y-30850000D02*
X172400000Y-30850000D01*
X172400000Y-29150000D01*
X174300000Y-29150000D01*
X174300000Y-30850000D01*
X174300000Y-30850000D01*
G37*
G36*
X112800000Y-30850000D02*
X110900000Y-30850000D01*
X110900000Y-29150000D01*
X112800000Y-29150000D01*
X112800000Y-30850000D01*
X112800000Y-30850000D01*
G37*
G36*
X110100000Y-30850000D02*
X108200000Y-30850000D01*
X108200000Y-29150000D01*
X110100000Y-29150000D01*
X110100000Y-30850000D01*
X110100000Y-30850000D01*
G37*
G36*
X171600000Y-30850000D02*
X169700000Y-30850000D01*
X169700000Y-29150000D01*
X171600000Y-29150000D01*
X171600000Y-30850000D01*
X171600000Y-30850000D01*
G37*
G36*
X121674639Y-25374152D02*
X122120510Y-25558838D01*
X122521784Y-25826960D01*
X122863040Y-26168216D01*
X123131162Y-26569490D01*
X123315848Y-27015361D01*
X123340470Y-27139143D01*
X123410000Y-27488695D01*
X123410000Y-27971305D01*
X123372226Y-28161209D01*
X123315848Y-28444639D01*
X123131162Y-28890510D01*
X122863040Y-29291784D01*
X122521784Y-29633040D01*
X122120510Y-29901162D01*
X121674639Y-30085848D01*
X121201305Y-30180000D01*
X120718695Y-30180000D01*
X120245361Y-30085848D01*
X119799490Y-29901162D01*
X119398216Y-29633040D01*
X119056960Y-29291784D01*
X118788838Y-28890510D01*
X118604152Y-28444639D01*
X118547774Y-28161209D01*
X118510000Y-27971305D01*
X118510000Y-27488695D01*
X118579530Y-27139143D01*
X118604152Y-27015361D01*
X118788838Y-26569490D01*
X119056960Y-26168216D01*
X119398216Y-25826960D01*
X119799490Y-25558838D01*
X120245361Y-25374152D01*
X120718695Y-25280000D01*
X121201305Y-25280000D01*
X121674639Y-25374152D01*
X121674639Y-25374152D01*
G37*
G36*
X155174639Y-25374152D02*
X155620510Y-25558838D01*
X156021784Y-25826960D01*
X156363040Y-26168216D01*
X156631162Y-26569490D01*
X156815848Y-27015361D01*
X156840470Y-27139143D01*
X156910000Y-27488695D01*
X156910000Y-27971305D01*
X156872226Y-28161209D01*
X156815848Y-28444639D01*
X156631162Y-28890510D01*
X156363040Y-29291784D01*
X156021784Y-29633040D01*
X155620510Y-29901162D01*
X155174639Y-30085848D01*
X154701305Y-30180000D01*
X154218695Y-30180000D01*
X153745361Y-30085848D01*
X153299490Y-29901162D01*
X152898216Y-29633040D01*
X152556960Y-29291784D01*
X152288838Y-28890510D01*
X152104152Y-28444639D01*
X152047774Y-28161209D01*
X152010000Y-27971305D01*
X152010000Y-27488695D01*
X152079530Y-27139143D01*
X152104152Y-27015361D01*
X152288838Y-26569490D01*
X152556960Y-26168216D01*
X152898216Y-25826960D01*
X153299490Y-25558838D01*
X153745361Y-25374152D01*
X154218695Y-25280000D01*
X154701305Y-25280000D01*
X155174639Y-25374152D01*
X155174639Y-25374152D01*
G37*
G36*
X138174639Y-25374152D02*
X138620510Y-25558838D01*
X139021784Y-25826960D01*
X139363040Y-26168216D01*
X139631162Y-26569490D01*
X139815848Y-27015361D01*
X139840470Y-27139143D01*
X139910000Y-27488695D01*
X139910000Y-27971305D01*
X139872226Y-28161209D01*
X139815848Y-28444639D01*
X139631162Y-28890510D01*
X139363040Y-29291784D01*
X139021784Y-29633040D01*
X138620510Y-29901162D01*
X138174639Y-30085848D01*
X137701305Y-30180000D01*
X137218695Y-30180000D01*
X136745361Y-30085848D01*
X136299490Y-29901162D01*
X135898216Y-29633040D01*
X135556960Y-29291784D01*
X135288838Y-28890510D01*
X135104152Y-28444639D01*
X135047774Y-28161209D01*
X135010000Y-27971305D01*
X135010000Y-27488695D01*
X135079530Y-27139143D01*
X135104152Y-27015361D01*
X135288838Y-26569490D01*
X135556960Y-26168216D01*
X135898216Y-25826960D01*
X136299490Y-25558838D01*
X136745361Y-25374152D01*
X137218695Y-25280000D01*
X137701305Y-25280000D01*
X138174639Y-25374152D01*
X138174639Y-25374152D01*
G37*
G36*
X180980857Y-26402272D02*
X181181042Y-26485191D01*
X181181045Y-26485193D01*
X181307206Y-26569491D01*
X181361213Y-26605578D01*
X181514422Y-26758787D01*
X181634809Y-26938958D01*
X181717728Y-27139143D01*
X181760000Y-27351658D01*
X181760000Y-27568342D01*
X181717728Y-27780857D01*
X181634809Y-27981042D01*
X181514422Y-28161213D01*
X181361213Y-28314422D01*
X181181042Y-28434809D01*
X180980857Y-28517728D01*
X180768342Y-28560000D01*
X180551658Y-28560000D01*
X180339143Y-28517728D01*
X180138958Y-28434809D01*
X179958787Y-28314422D01*
X179805578Y-28161213D01*
X179685191Y-27981042D01*
X179602272Y-27780857D01*
X179560000Y-27568342D01*
X179560000Y-27351658D01*
X179602272Y-27139143D01*
X179685191Y-26938958D01*
X179805578Y-26758787D01*
X179958787Y-26605578D01*
X180012795Y-26569491D01*
X180138955Y-26485193D01*
X180138958Y-26485191D01*
X180339143Y-26402272D01*
X180551658Y-26360000D01*
X180768342Y-26360000D01*
X180980857Y-26402272D01*
X180980857Y-26402272D01*
G37*
G36*
X170820857Y-26402272D02*
X171021042Y-26485191D01*
X171021045Y-26485193D01*
X171147206Y-26569491D01*
X171201213Y-26605578D01*
X171354422Y-26758787D01*
X171474809Y-26938958D01*
X171557728Y-27139143D01*
X171600000Y-27351658D01*
X171600000Y-27568342D01*
X171557728Y-27780857D01*
X171474809Y-27981042D01*
X171354422Y-28161213D01*
X171201213Y-28314422D01*
X171021042Y-28434809D01*
X170820857Y-28517728D01*
X170608342Y-28560000D01*
X170391658Y-28560000D01*
X170179143Y-28517728D01*
X169978958Y-28434809D01*
X169798787Y-28314422D01*
X169645578Y-28161213D01*
X169525191Y-27981042D01*
X169442272Y-27780857D01*
X169400000Y-27568342D01*
X169400000Y-27351658D01*
X169442272Y-27139143D01*
X169525191Y-26938958D01*
X169645578Y-26758787D01*
X169798787Y-26605578D01*
X169852795Y-26569491D01*
X169978955Y-26485193D01*
X169978958Y-26485191D01*
X170179143Y-26402272D01*
X170391658Y-26360000D01*
X170608342Y-26360000D01*
X170820857Y-26402272D01*
X170820857Y-26402272D01*
G37*
G36*
X107240857Y-26402272D02*
X107441042Y-26485191D01*
X107441045Y-26485193D01*
X107567206Y-26569491D01*
X107621213Y-26605578D01*
X107774422Y-26758787D01*
X107894809Y-26938958D01*
X107977728Y-27139143D01*
X108020000Y-27351658D01*
X108020000Y-27568342D01*
X107977728Y-27780857D01*
X107894809Y-27981042D01*
X107774422Y-28161213D01*
X107621213Y-28314422D01*
X107441042Y-28434809D01*
X107240857Y-28517728D01*
X107028342Y-28560000D01*
X106811658Y-28560000D01*
X106599143Y-28517728D01*
X106398958Y-28434809D01*
X106218787Y-28314422D01*
X106065578Y-28161213D01*
X105945191Y-27981042D01*
X105862272Y-27780857D01*
X105820000Y-27568342D01*
X105820000Y-27351658D01*
X105862272Y-27139143D01*
X105945191Y-26938958D01*
X106065578Y-26758787D01*
X106218787Y-26605578D01*
X106272795Y-26569491D01*
X106398955Y-26485193D01*
X106398958Y-26485191D01*
X106599143Y-26402272D01*
X106811658Y-26360000D01*
X107028342Y-26360000D01*
X107240857Y-26402272D01*
X107240857Y-26402272D01*
G37*
G36*
X112320857Y-26402272D02*
X112521042Y-26485191D01*
X112521045Y-26485193D01*
X112647206Y-26569491D01*
X112701213Y-26605578D01*
X112854422Y-26758787D01*
X112974809Y-26938958D01*
X113057728Y-27139143D01*
X113100000Y-27351658D01*
X113100000Y-27568342D01*
X113057728Y-27780857D01*
X112974809Y-27981042D01*
X112854422Y-28161213D01*
X112701213Y-28314422D01*
X112521042Y-28434809D01*
X112320857Y-28517728D01*
X112108342Y-28560000D01*
X111891658Y-28560000D01*
X111679143Y-28517728D01*
X111478958Y-28434809D01*
X111298787Y-28314422D01*
X111145578Y-28161213D01*
X111025191Y-27981042D01*
X110942272Y-27780857D01*
X110900000Y-27568342D01*
X110900000Y-27351658D01*
X110942272Y-27139143D01*
X111025191Y-26938958D01*
X111145578Y-26758787D01*
X111298787Y-26605578D01*
X111352795Y-26569491D01*
X111478955Y-26485193D01*
X111478958Y-26485191D01*
X111679143Y-26402272D01*
X111891658Y-26360000D01*
X112108342Y-26360000D01*
X112320857Y-26402272D01*
X112320857Y-26402272D01*
G37*
G36*
X104720857Y-26402272D02*
X104921042Y-26485191D01*
X104921045Y-26485193D01*
X105047206Y-26569491D01*
X105101213Y-26605578D01*
X105254422Y-26758787D01*
X105374809Y-26938958D01*
X105457728Y-27139143D01*
X105500000Y-27351658D01*
X105500000Y-27568342D01*
X105457728Y-27780857D01*
X105374809Y-27981042D01*
X105254422Y-28161213D01*
X105101213Y-28314422D01*
X104921042Y-28434809D01*
X104720857Y-28517728D01*
X104508342Y-28560000D01*
X104291658Y-28560000D01*
X104079143Y-28517728D01*
X103878958Y-28434809D01*
X103698787Y-28314422D01*
X103545578Y-28161213D01*
X103425191Y-27981042D01*
X103342272Y-27780857D01*
X103300000Y-27568342D01*
X103300000Y-27351658D01*
X103342272Y-27139143D01*
X103425191Y-26938958D01*
X103545578Y-26758787D01*
X103698787Y-26605578D01*
X103752795Y-26569491D01*
X103878955Y-26485193D01*
X103878958Y-26485191D01*
X104079143Y-26402272D01*
X104291658Y-26360000D01*
X104508342Y-26360000D01*
X104720857Y-26402272D01*
X104720857Y-26402272D01*
G37*
G36*
X175900857Y-26402272D02*
X176101042Y-26485191D01*
X176101045Y-26485193D01*
X176227206Y-26569491D01*
X176281213Y-26605578D01*
X176434422Y-26758787D01*
X176554809Y-26938958D01*
X176637728Y-27139143D01*
X176680000Y-27351658D01*
X176680000Y-27568342D01*
X176637728Y-27780857D01*
X176554809Y-27981042D01*
X176434422Y-28161213D01*
X176281213Y-28314422D01*
X176101042Y-28434809D01*
X175900857Y-28517728D01*
X175688342Y-28560000D01*
X175471658Y-28560000D01*
X175259143Y-28517728D01*
X175058958Y-28434809D01*
X174878787Y-28314422D01*
X174725578Y-28161213D01*
X174605191Y-27981042D01*
X174522272Y-27780857D01*
X174480000Y-27568342D01*
X174480000Y-27351658D01*
X174522272Y-27139143D01*
X174605191Y-26938958D01*
X174725578Y-26758787D01*
X174878787Y-26605578D01*
X174932795Y-26569491D01*
X175058955Y-26485193D01*
X175058958Y-26485191D01*
X175259143Y-26402272D01*
X175471658Y-26360000D01*
X175688342Y-26360000D01*
X175900857Y-26402272D01*
X175900857Y-26402272D01*
G37*
G36*
X178440857Y-26402272D02*
X178641042Y-26485191D01*
X178641045Y-26485193D01*
X178767206Y-26569491D01*
X178821213Y-26605578D01*
X178974422Y-26758787D01*
X179094809Y-26938958D01*
X179177728Y-27139143D01*
X179220000Y-27351658D01*
X179220000Y-27568342D01*
X179177728Y-27780857D01*
X179094809Y-27981042D01*
X178974422Y-28161213D01*
X178821213Y-28314422D01*
X178641042Y-28434809D01*
X178440857Y-28517728D01*
X178228342Y-28560000D01*
X178011658Y-28560000D01*
X177799143Y-28517728D01*
X177598958Y-28434809D01*
X177418787Y-28314422D01*
X177265578Y-28161213D01*
X177145191Y-27981042D01*
X177062272Y-27780857D01*
X177020000Y-27568342D01*
X177020000Y-27351658D01*
X177062272Y-27139143D01*
X177145191Y-26938958D01*
X177265578Y-26758787D01*
X177418787Y-26605578D01*
X177472795Y-26569491D01*
X177598955Y-26485193D01*
X177598958Y-26485191D01*
X177799143Y-26402272D01*
X178011658Y-26360000D01*
X178228342Y-26360000D01*
X178440857Y-26402272D01*
X178440857Y-26402272D01*
G37*
G36*
X102160857Y-26402272D02*
X102361042Y-26485191D01*
X102361045Y-26485193D01*
X102487206Y-26569491D01*
X102541213Y-26605578D01*
X102694422Y-26758787D01*
X102814809Y-26938958D01*
X102897728Y-27139143D01*
X102940000Y-27351658D01*
X102940000Y-27568342D01*
X102897728Y-27780857D01*
X102814809Y-27981042D01*
X102694422Y-28161213D01*
X102541213Y-28314422D01*
X102361042Y-28434809D01*
X102160857Y-28517728D01*
X101948342Y-28560000D01*
X101731658Y-28560000D01*
X101519143Y-28517728D01*
X101318958Y-28434809D01*
X101138787Y-28314422D01*
X100985578Y-28161213D01*
X100865191Y-27981042D01*
X100782272Y-27780857D01*
X100740000Y-27568342D01*
X100740000Y-27351658D01*
X100782272Y-27139143D01*
X100865191Y-26938958D01*
X100985578Y-26758787D01*
X101138787Y-26605578D01*
X101192795Y-26569491D01*
X101318955Y-26485193D01*
X101318958Y-26485191D01*
X101519143Y-26402272D01*
X101731658Y-26360000D01*
X101948342Y-26360000D01*
X102160857Y-26402272D01*
X102160857Y-26402272D01*
G37*
G36*
X172480857Y-20482272D02*
X172681042Y-20565191D01*
X172861213Y-20685578D01*
X173014422Y-20838787D01*
X173134809Y-21018958D01*
X173217728Y-21219143D01*
X173260000Y-21431658D01*
X173260000Y-21648342D01*
X173217728Y-21860857D01*
X173134809Y-22061042D01*
X173014422Y-22241213D01*
X172861213Y-22394422D01*
X172681042Y-22514809D01*
X172480857Y-22597728D01*
X172268342Y-22640000D01*
X172051658Y-22640000D01*
X171839143Y-22597728D01*
X171638958Y-22514809D01*
X171458787Y-22394422D01*
X171305578Y-22241213D01*
X171185191Y-22061042D01*
X171102272Y-21860857D01*
X171060000Y-21648342D01*
X171060000Y-21431658D01*
X171102272Y-21219143D01*
X171185191Y-21018958D01*
X171305578Y-20838787D01*
X171458787Y-20685578D01*
X171638958Y-20565191D01*
X171839143Y-20482272D01*
X172051658Y-20440000D01*
X172268342Y-20440000D01*
X172480857Y-20482272D01*
X172480857Y-20482272D01*
G37*
G36*
X112240857Y-20482272D02*
X112441042Y-20565191D01*
X112621213Y-20685578D01*
X112774422Y-20838787D01*
X112894809Y-21018958D01*
X112977728Y-21219143D01*
X113020000Y-21431658D01*
X113020000Y-21648342D01*
X112977728Y-21860857D01*
X112894809Y-22061042D01*
X112774422Y-22241213D01*
X112621213Y-22394422D01*
X112441042Y-22514809D01*
X112240857Y-22597728D01*
X112028342Y-22640000D01*
X111811658Y-22640000D01*
X111599143Y-22597728D01*
X111398958Y-22514809D01*
X111218787Y-22394422D01*
X111065578Y-22241213D01*
X110945191Y-22061042D01*
X110862272Y-21860857D01*
X110820000Y-21648342D01*
X110820000Y-21431658D01*
X110862272Y-21219143D01*
X110945191Y-21018958D01*
X111065578Y-20838787D01*
X111218787Y-20685578D01*
X111398958Y-20565191D01*
X111599143Y-20482272D01*
X111811658Y-20440000D01*
X112028342Y-20440000D01*
X112240857Y-20482272D01*
X112240857Y-20482272D01*
G37*
G36*
X107160857Y-20482272D02*
X107361042Y-20565191D01*
X107541213Y-20685578D01*
X107694422Y-20838787D01*
X107814809Y-21018958D01*
X107897728Y-21219143D01*
X107940000Y-21431658D01*
X107940000Y-21648342D01*
X107897728Y-21860857D01*
X107814809Y-22061042D01*
X107694422Y-22241213D01*
X107541213Y-22394422D01*
X107361042Y-22514809D01*
X107160857Y-22597728D01*
X106948342Y-22640000D01*
X106731658Y-22640000D01*
X106519143Y-22597728D01*
X106318958Y-22514809D01*
X106138787Y-22394422D01*
X105985578Y-22241213D01*
X105865191Y-22061042D01*
X105782272Y-21860857D01*
X105740000Y-21648342D01*
X105740000Y-21431658D01*
X105782272Y-21219143D01*
X105865191Y-21018958D01*
X105985578Y-20838787D01*
X106138787Y-20685578D01*
X106318958Y-20565191D01*
X106519143Y-20482272D01*
X106731658Y-20440000D01*
X106948342Y-20440000D01*
X107160857Y-20482272D01*
X107160857Y-20482272D01*
G37*
G36*
X117320857Y-20482272D02*
X117521042Y-20565191D01*
X117701213Y-20685578D01*
X117854422Y-20838787D01*
X117974809Y-21018958D01*
X118057728Y-21219143D01*
X118100000Y-21431658D01*
X118100000Y-21648342D01*
X118057728Y-21860857D01*
X117974809Y-22061042D01*
X117854422Y-22241213D01*
X117701213Y-22394422D01*
X117521042Y-22514809D01*
X117320857Y-22597728D01*
X117108342Y-22640000D01*
X116891658Y-22640000D01*
X116679143Y-22597728D01*
X116478958Y-22514809D01*
X116298787Y-22394422D01*
X116145578Y-22241213D01*
X116025191Y-22061042D01*
X115942272Y-21860857D01*
X115900000Y-21648342D01*
X115900000Y-21431658D01*
X115942272Y-21219143D01*
X116025191Y-21018958D01*
X116145578Y-20838787D01*
X116298787Y-20685578D01*
X116478958Y-20565191D01*
X116679143Y-20482272D01*
X116891658Y-20440000D01*
X117108342Y-20440000D01*
X117320857Y-20482272D01*
X117320857Y-20482272D01*
G37*
G36*
X109700857Y-20482272D02*
X109901042Y-20565191D01*
X110081213Y-20685578D01*
X110234422Y-20838787D01*
X110354809Y-21018958D01*
X110437728Y-21219143D01*
X110480000Y-21431658D01*
X110480000Y-21648342D01*
X110437728Y-21860857D01*
X110354809Y-22061042D01*
X110234422Y-22241213D01*
X110081213Y-22394422D01*
X109901042Y-22514809D01*
X109700857Y-22597728D01*
X109488342Y-22640000D01*
X109271658Y-22640000D01*
X109059143Y-22597728D01*
X108858958Y-22514809D01*
X108678787Y-22394422D01*
X108525578Y-22241213D01*
X108405191Y-22061042D01*
X108322272Y-21860857D01*
X108280000Y-21648342D01*
X108280000Y-21431658D01*
X108322272Y-21219143D01*
X108405191Y-21018958D01*
X108525578Y-20838787D01*
X108678787Y-20685578D01*
X108858958Y-20565191D01*
X109059143Y-20482272D01*
X109271658Y-20440000D01*
X109488342Y-20440000D01*
X109700857Y-20482272D01*
X109700857Y-20482272D01*
G37*
G36*
X162320857Y-20482272D02*
X162521042Y-20565191D01*
X162701213Y-20685578D01*
X162854422Y-20838787D01*
X162974809Y-21018958D01*
X163057728Y-21219143D01*
X163100000Y-21431658D01*
X163100000Y-21648342D01*
X163057728Y-21860857D01*
X162974809Y-22061042D01*
X162854422Y-22241213D01*
X162701213Y-22394422D01*
X162521042Y-22514809D01*
X162320857Y-22597728D01*
X162108342Y-22640000D01*
X161891658Y-22640000D01*
X161679143Y-22597728D01*
X161478958Y-22514809D01*
X161298787Y-22394422D01*
X161145578Y-22241213D01*
X161025191Y-22061042D01*
X160942272Y-21860857D01*
X160900000Y-21648342D01*
X160900000Y-21431658D01*
X160942272Y-21219143D01*
X161025191Y-21018958D01*
X161145578Y-20838787D01*
X161298787Y-20685578D01*
X161478958Y-20565191D01*
X161679143Y-20482272D01*
X161891658Y-20440000D01*
X162108342Y-20440000D01*
X162320857Y-20482272D01*
X162320857Y-20482272D01*
G37*
G36*
X167400857Y-20482272D02*
X167601042Y-20565191D01*
X167781213Y-20685578D01*
X167934422Y-20838787D01*
X168054809Y-21018958D01*
X168137728Y-21219143D01*
X168180000Y-21431658D01*
X168180000Y-21648342D01*
X168137728Y-21860857D01*
X168054809Y-22061042D01*
X167934422Y-22241213D01*
X167781213Y-22394422D01*
X167601042Y-22514809D01*
X167400857Y-22597728D01*
X167188342Y-22640000D01*
X166971658Y-22640000D01*
X166759143Y-22597728D01*
X166558958Y-22514809D01*
X166378787Y-22394422D01*
X166225578Y-22241213D01*
X166105191Y-22061042D01*
X166022272Y-21860857D01*
X165980000Y-21648342D01*
X165980000Y-21431658D01*
X166022272Y-21219143D01*
X166105191Y-21018958D01*
X166225578Y-20838787D01*
X166378787Y-20685578D01*
X166558958Y-20565191D01*
X166759143Y-20482272D01*
X166971658Y-20440000D01*
X167188342Y-20440000D01*
X167400857Y-20482272D01*
X167400857Y-20482272D01*
G37*
G36*
X169920857Y-20482272D02*
X170121042Y-20565191D01*
X170301213Y-20685578D01*
X170454422Y-20838787D01*
X170574809Y-21018958D01*
X170657728Y-21219143D01*
X170700000Y-21431658D01*
X170700000Y-21648342D01*
X170657728Y-21860857D01*
X170574809Y-22061042D01*
X170454422Y-22241213D01*
X170301213Y-22394422D01*
X170121042Y-22514809D01*
X169920857Y-22597728D01*
X169708342Y-22640000D01*
X169491658Y-22640000D01*
X169279143Y-22597728D01*
X169078958Y-22514809D01*
X168898787Y-22394422D01*
X168745578Y-22241213D01*
X168625191Y-22061042D01*
X168542272Y-21860857D01*
X168500000Y-21648342D01*
X168500000Y-21431658D01*
X168542272Y-21219143D01*
X168625191Y-21018958D01*
X168745578Y-20838787D01*
X168898787Y-20685578D01*
X169078958Y-20565191D01*
X169279143Y-20482272D01*
X169491658Y-20440000D01*
X169708342Y-20440000D01*
X169920857Y-20482272D01*
X169920857Y-20482272D01*
G37*
G36*
X115100000Y-19850000D02*
X113200000Y-19850000D01*
X113200000Y-18150000D01*
X115100000Y-18150000D01*
X115100000Y-19850000D01*
X115100000Y-19850000D01*
G37*
G36*
X117800000Y-19850000D02*
X115900000Y-19850000D01*
X115900000Y-18150000D01*
X117800000Y-18150000D01*
X117800000Y-19850000D01*
X117800000Y-19850000D01*
G37*
G36*
X163100000Y-19850000D02*
X161200000Y-19850000D01*
X161200000Y-18150000D01*
X163100000Y-18150000D01*
X163100000Y-19850000D01*
X163100000Y-19850000D01*
G37*
G36*
X165800000Y-19850000D02*
X163900000Y-19850000D01*
X163900000Y-18150000D01*
X165800000Y-18150000D01*
X165800000Y-19850000D01*
X165800000Y-19850000D01*
G37*
G36*
X117320857Y-15402272D02*
X117521042Y-15485191D01*
X117701213Y-15605578D01*
X117854422Y-15758787D01*
X117974809Y-15938958D01*
X118057728Y-16139143D01*
X118100000Y-16351658D01*
X118100000Y-16568342D01*
X118057728Y-16780857D01*
X117974809Y-16981042D01*
X117854422Y-17161213D01*
X117701213Y-17314422D01*
X117521042Y-17434809D01*
X117320857Y-17517728D01*
X117108342Y-17560000D01*
X116891658Y-17560000D01*
X116679143Y-17517728D01*
X116478958Y-17434809D01*
X116298787Y-17314422D01*
X116145578Y-17161213D01*
X116025191Y-16981042D01*
X115942272Y-16780857D01*
X115900000Y-16568342D01*
X115900000Y-16351658D01*
X115942272Y-16139143D01*
X116025191Y-15938958D01*
X116145578Y-15758787D01*
X116298787Y-15605578D01*
X116478958Y-15485191D01*
X116679143Y-15402272D01*
X116891658Y-15360000D01*
X117108342Y-15360000D01*
X117320857Y-15402272D01*
X117320857Y-15402272D01*
G37*
G36*
X162320857Y-15402272D02*
X162521042Y-15485191D01*
X162701213Y-15605578D01*
X162854422Y-15758787D01*
X162974809Y-15938958D01*
X163057728Y-16139143D01*
X163100000Y-16351658D01*
X163100000Y-16568342D01*
X163057728Y-16780857D01*
X162974809Y-16981042D01*
X162854422Y-17161213D01*
X162701213Y-17314422D01*
X162521042Y-17434809D01*
X162320857Y-17517728D01*
X162108342Y-17560000D01*
X161891658Y-17560000D01*
X161679143Y-17517728D01*
X161478958Y-17434809D01*
X161298787Y-17314422D01*
X161145578Y-17161213D01*
X161025191Y-16981042D01*
X160942272Y-16780857D01*
X160900000Y-16568342D01*
X160900000Y-16351658D01*
X160942272Y-16139143D01*
X161025191Y-15938958D01*
X161145578Y-15758787D01*
X161298787Y-15605578D01*
X161478958Y-15485191D01*
X161679143Y-15402272D01*
X161891658Y-15360000D01*
X162108342Y-15360000D01*
X162320857Y-15402272D01*
X162320857Y-15402272D01*
G37*
G36*
X172480857Y-15402272D02*
X172681042Y-15485191D01*
X172861213Y-15605578D01*
X173014422Y-15758787D01*
X173134809Y-15938958D01*
X173217728Y-16139143D01*
X173260000Y-16351658D01*
X173260000Y-16568342D01*
X173217728Y-16780857D01*
X173134809Y-16981042D01*
X173014422Y-17161213D01*
X172861213Y-17314422D01*
X172681042Y-17434809D01*
X172480857Y-17517728D01*
X172268342Y-17560000D01*
X172051658Y-17560000D01*
X171839143Y-17517728D01*
X171638958Y-17434809D01*
X171458787Y-17314422D01*
X171305578Y-17161213D01*
X171185191Y-16981042D01*
X171102272Y-16780857D01*
X171060000Y-16568342D01*
X171060000Y-16351658D01*
X171102272Y-16139143D01*
X171185191Y-15938958D01*
X171305578Y-15758787D01*
X171458787Y-15605578D01*
X171638958Y-15485191D01*
X171839143Y-15402272D01*
X172051658Y-15360000D01*
X172268342Y-15360000D01*
X172480857Y-15402272D01*
X172480857Y-15402272D01*
G37*
G36*
X167400857Y-15402272D02*
X167601042Y-15485191D01*
X167781213Y-15605578D01*
X167934422Y-15758787D01*
X168054809Y-15938958D01*
X168137728Y-16139143D01*
X168180000Y-16351658D01*
X168180000Y-16568342D01*
X168137728Y-16780857D01*
X168054809Y-16981042D01*
X167934422Y-17161213D01*
X167781213Y-17314422D01*
X167601042Y-17434809D01*
X167400857Y-17517728D01*
X167188342Y-17560000D01*
X166971658Y-17560000D01*
X166759143Y-17517728D01*
X166558958Y-17434809D01*
X166378787Y-17314422D01*
X166225578Y-17161213D01*
X166105191Y-16981042D01*
X166022272Y-16780857D01*
X165980000Y-16568342D01*
X165980000Y-16351658D01*
X166022272Y-16139143D01*
X166105191Y-15938958D01*
X166225578Y-15758787D01*
X166378787Y-15605578D01*
X166558958Y-15485191D01*
X166759143Y-15402272D01*
X166971658Y-15360000D01*
X167188342Y-15360000D01*
X167400857Y-15402272D01*
X167400857Y-15402272D01*
G37*
G36*
X169940857Y-15402272D02*
X170141042Y-15485191D01*
X170321213Y-15605578D01*
X170474422Y-15758787D01*
X170594809Y-15938958D01*
X170677728Y-16139143D01*
X170720000Y-16351658D01*
X170720000Y-16568342D01*
X170677728Y-16780857D01*
X170594809Y-16981042D01*
X170474422Y-17161213D01*
X170321213Y-17314422D01*
X170141042Y-17434809D01*
X169940857Y-17517728D01*
X169728342Y-17560000D01*
X169511658Y-17560000D01*
X169299143Y-17517728D01*
X169098958Y-17434809D01*
X168918787Y-17314422D01*
X168765578Y-17161213D01*
X168645191Y-16981042D01*
X168562272Y-16780857D01*
X168520000Y-16568342D01*
X168520000Y-16351658D01*
X168562272Y-16139143D01*
X168645191Y-15938958D01*
X168765578Y-15758787D01*
X168918787Y-15605578D01*
X169098958Y-15485191D01*
X169299143Y-15402272D01*
X169511658Y-15360000D01*
X169728342Y-15360000D01*
X169940857Y-15402272D01*
X169940857Y-15402272D01*
G37*
G36*
X107160857Y-15402272D02*
X107361042Y-15485191D01*
X107541213Y-15605578D01*
X107694422Y-15758787D01*
X107814809Y-15938958D01*
X107897728Y-16139143D01*
X107940000Y-16351658D01*
X107940000Y-16568342D01*
X107897728Y-16780857D01*
X107814809Y-16981042D01*
X107694422Y-17161213D01*
X107541213Y-17314422D01*
X107361042Y-17434809D01*
X107160857Y-17517728D01*
X106948342Y-17560000D01*
X106731658Y-17560000D01*
X106519143Y-17517728D01*
X106318958Y-17434809D01*
X106138787Y-17314422D01*
X105985578Y-17161213D01*
X105865191Y-16981042D01*
X105782272Y-16780857D01*
X105740000Y-16568342D01*
X105740000Y-16351658D01*
X105782272Y-16139143D01*
X105865191Y-15938958D01*
X105985578Y-15758787D01*
X106138787Y-15605578D01*
X106318958Y-15485191D01*
X106519143Y-15402272D01*
X106731658Y-15360000D01*
X106948342Y-15360000D01*
X107160857Y-15402272D01*
X107160857Y-15402272D01*
G37*
G36*
X109720857Y-15402272D02*
X109921042Y-15485191D01*
X110101213Y-15605578D01*
X110254422Y-15758787D01*
X110374809Y-15938958D01*
X110457728Y-16139143D01*
X110500000Y-16351658D01*
X110500000Y-16568342D01*
X110457728Y-16780857D01*
X110374809Y-16981042D01*
X110254422Y-17161213D01*
X110101213Y-17314422D01*
X109921042Y-17434809D01*
X109720857Y-17517728D01*
X109508342Y-17560000D01*
X109291658Y-17560000D01*
X109079143Y-17517728D01*
X108878958Y-17434809D01*
X108698787Y-17314422D01*
X108545578Y-17161213D01*
X108425191Y-16981042D01*
X108342272Y-16780857D01*
X108300000Y-16568342D01*
X108300000Y-16351658D01*
X108342272Y-16139143D01*
X108425191Y-15938958D01*
X108545578Y-15758787D01*
X108698787Y-15605578D01*
X108878958Y-15485191D01*
X109079143Y-15402272D01*
X109291658Y-15360000D01*
X109508342Y-15360000D01*
X109720857Y-15402272D01*
X109720857Y-15402272D01*
G37*
G36*
X112240857Y-15402272D02*
X112441042Y-15485191D01*
X112621213Y-15605578D01*
X112774422Y-15758787D01*
X112894809Y-15938958D01*
X112977728Y-16139143D01*
X113020000Y-16351658D01*
X113020000Y-16568342D01*
X112977728Y-16780857D01*
X112894809Y-16981042D01*
X112774422Y-17161213D01*
X112621213Y-17314422D01*
X112441042Y-17434809D01*
X112240857Y-17517728D01*
X112028342Y-17560000D01*
X111811658Y-17560000D01*
X111599143Y-17517728D01*
X111398958Y-17434809D01*
X111218787Y-17314422D01*
X111065578Y-17161213D01*
X110945191Y-16981042D01*
X110862272Y-16780857D01*
X110820000Y-16568342D01*
X110820000Y-16351658D01*
X110862272Y-16139143D01*
X110945191Y-15938958D01*
X111065578Y-15758787D01*
X111218787Y-15605578D01*
X111398958Y-15485191D01*
X111599143Y-15402272D01*
X111811658Y-15360000D01*
X112028342Y-15360000D01*
X112240857Y-15402272D01*
X112240857Y-15402272D01*
G37*
M02*
