G04 #@! TF.FileFunction,Paste,Bot*
%FSLAX46Y46*%
G04 Gerber Fmt 4.6, Leading zero omitted, Abs format (unit mm)*
G04 Created by KiCad (PCBNEW 4.0.7) date 12/14/17 19:40:57*
%MOMM*%
%LPD*%
G01*
G04 APERTURE LIST*
%ADD10C,0.100000*%
%ADD11R,1.500000X1.250000*%
%ADD12R,1.500000X1.300000*%
%ADD13R,1.300000X1.500000*%
%ADD14R,2.500000X3.200000*%
%ADD15R,1.500000X5.080000*%
G04 APERTURE END LIST*
D10*
D11*
X107250000Y-110500000D03*
X104750000Y-110500000D03*
D12*
X105350000Y-93500000D03*
X102650000Y-93500000D03*
X108400000Y-93500000D03*
X111100000Y-93500000D03*
X105650000Y-95750000D03*
X108350000Y-95750000D03*
X116400000Y-95750000D03*
X119100000Y-95750000D03*
X116350000Y-93500000D03*
X113650000Y-93500000D03*
X119400000Y-93500000D03*
X122100000Y-93500000D03*
D13*
X107000000Y-107850000D03*
X107000000Y-105150000D03*
D12*
X109150000Y-30000000D03*
X111850000Y-30000000D03*
X111350000Y-41000000D03*
X108650000Y-41000000D03*
X111350000Y-63000000D03*
X108650000Y-63000000D03*
X111350000Y-74000000D03*
X108650000Y-74000000D03*
X111350000Y-85000000D03*
X108650000Y-85000000D03*
X111350000Y-52000000D03*
X108650000Y-52000000D03*
X116850000Y-19000000D03*
X114150000Y-19000000D03*
X164850000Y-19000000D03*
X162150000Y-19000000D03*
X170650000Y-30000000D03*
X173350000Y-30000000D03*
X174350000Y-41000000D03*
X171650000Y-41000000D03*
X175850000Y-63000000D03*
X173150000Y-63000000D03*
X175850000Y-74000000D03*
X173150000Y-74000000D03*
X174350000Y-84500000D03*
X171650000Y-84500000D03*
X175850000Y-52500000D03*
X173150000Y-52500000D03*
D13*
X118000000Y-105150000D03*
X118000000Y-107850000D03*
D14*
X138000000Y-83350000D03*
X138000000Y-87650000D03*
D15*
X165750000Y-109500000D03*
X174250000Y-109500000D03*
X125250000Y-109500000D03*
X133750000Y-109500000D03*
M02*
