G04 #@! TF.FileFunction,Paste,Top*
%FSLAX46Y46*%
G04 Gerber Fmt 4.6, Leading zero omitted, Abs format (unit mm)*
G04 Created by KiCad (PCBNEW 4.0.7) date 12/14/17 19:40:57*
%MOMM*%
%LPD*%
G01*
G04 APERTURE LIST*
%ADD10C,0.100000*%
%ADD11R,1.500000X1.250000*%
%ADD12R,2.000000X1.600000*%
%ADD13R,1.600000X2.000000*%
%ADD14R,1.000000X1.600000*%
%ADD15R,1.250000X1.500000*%
%ADD16R,0.900000X0.800000*%
%ADD17R,1.900000X0.800000*%
%ADD18R,3.200000X2.500000*%
%ADD19R,1.300000X1.500000*%
%ADD20R,1.500000X1.300000*%
%ADD21R,1.000000X2.500000*%
%ADD22R,2.000000X4.000000*%
%ADD23R,2.000000X3.800000*%
%ADD24R,2.000000X1.500000*%
%ADD25R,1.500000X5.080000*%
G04 APERTURE END LIST*
D10*
D11*
X175350000Y-36000000D03*
X177850000Y-36000000D03*
D12*
X141000000Y-24000000D03*
X137000000Y-24000000D03*
D13*
X168000000Y-43500000D03*
X168000000Y-39500000D03*
D11*
X158750000Y-21500000D03*
X156250000Y-21500000D03*
X111450000Y-69000000D03*
X108950000Y-69000000D03*
X172250000Y-57500000D03*
X169750000Y-57500000D03*
X172250000Y-68500000D03*
X169750000Y-68500000D03*
X172250000Y-79000000D03*
X169750000Y-79000000D03*
D10*
G36*
X172972271Y-88643845D02*
X173856155Y-89527729D01*
X172795495Y-90588389D01*
X171911611Y-89704505D01*
X172972271Y-88643845D01*
X172972271Y-88643845D01*
G37*
G36*
X171204505Y-90411611D02*
X172088389Y-91295495D01*
X171027729Y-92356155D01*
X170143845Y-91472271D01*
X171204505Y-90411611D01*
X171204505Y-90411611D01*
G37*
D11*
X170250000Y-35000000D03*
X172750000Y-35000000D03*
X105150000Y-90000000D03*
X107650000Y-90000000D03*
X104350000Y-35200000D03*
X106850000Y-35200000D03*
X104350000Y-46000000D03*
X106850000Y-46000000D03*
X104350000Y-57000000D03*
X106850000Y-57000000D03*
X104150000Y-68200000D03*
X106650000Y-68200000D03*
X104150000Y-79000000D03*
X106650000Y-79000000D03*
X122450000Y-21600000D03*
X119950000Y-21600000D03*
X171750000Y-24600000D03*
X174250000Y-24600000D03*
X178350000Y-47600000D03*
X180850000Y-47600000D03*
X175350000Y-58000000D03*
X177850000Y-58000000D03*
X175350000Y-69000000D03*
X177850000Y-69000000D03*
X158450000Y-16600000D03*
X155950000Y-16600000D03*
X175350000Y-79400000D03*
X177850000Y-79400000D03*
X111750000Y-58000000D03*
X109250000Y-58000000D03*
X111750000Y-47000000D03*
X109250000Y-47000000D03*
X111850000Y-80000000D03*
X109350000Y-80000000D03*
X171950000Y-45800000D03*
X174450000Y-45800000D03*
X109250000Y-24500000D03*
X106750000Y-24500000D03*
X119750000Y-16500000D03*
X122250000Y-16500000D03*
X111750000Y-36000000D03*
X109250000Y-36000000D03*
D14*
X143500000Y-95000000D03*
X140500000Y-95000000D03*
D15*
X111500000Y-108000000D03*
X111500000Y-105500000D03*
X113250000Y-108000000D03*
X113250000Y-105500000D03*
X122750000Y-108000000D03*
X122750000Y-105500000D03*
D13*
X114500000Y-37500000D03*
X114500000Y-41500000D03*
X114500000Y-49500000D03*
X114500000Y-53500000D03*
X114500000Y-60500000D03*
X114500000Y-64500000D03*
X114500000Y-70500000D03*
X114500000Y-74500000D03*
D12*
X123000000Y-34000000D03*
X119000000Y-34000000D03*
X129000000Y-34000000D03*
X133000000Y-34000000D03*
X128500000Y-47000000D03*
X132500000Y-47000000D03*
X129000000Y-57500000D03*
X133000000Y-57500000D03*
X122500000Y-68500000D03*
X118500000Y-68500000D03*
X123000000Y-79500000D03*
X119000000Y-79500000D03*
X123000000Y-36500000D03*
X119000000Y-36500000D03*
X122500000Y-47000000D03*
X118500000Y-47000000D03*
X122000000Y-57500000D03*
X118000000Y-57500000D03*
X130000000Y-23750000D03*
X126000000Y-23750000D03*
X129000000Y-36500000D03*
X133000000Y-36500000D03*
D13*
X133500000Y-44000000D03*
X133500000Y-40000000D03*
X131000000Y-44000000D03*
X131000000Y-40000000D03*
X133500000Y-54500000D03*
X133500000Y-50500000D03*
X131000000Y-54500000D03*
X131000000Y-50500000D03*
X132500000Y-65500000D03*
X132500000Y-61500000D03*
X132500000Y-75500000D03*
X132500000Y-71500000D03*
D12*
X139500000Y-34000000D03*
X135500000Y-34000000D03*
X147000000Y-57500000D03*
X151000000Y-57500000D03*
X141000000Y-68500000D03*
X137000000Y-68500000D03*
X141500000Y-79500000D03*
X137500000Y-79500000D03*
X141000000Y-47000000D03*
X137000000Y-47000000D03*
X146000000Y-34000000D03*
X150000000Y-34000000D03*
X141000000Y-57500000D03*
X137000000Y-57500000D03*
X147000000Y-68500000D03*
X151000000Y-68500000D03*
X146500000Y-79500000D03*
X150500000Y-79500000D03*
X151000000Y-24000000D03*
X147000000Y-24000000D03*
D13*
X151000000Y-44000000D03*
X151000000Y-40000000D03*
X152000000Y-54500000D03*
X152000000Y-50500000D03*
X149500000Y-54500000D03*
X149500000Y-50500000D03*
X149500000Y-65500000D03*
X149500000Y-61500000D03*
X152000000Y-65500000D03*
X152000000Y-61500000D03*
X149500000Y-76500000D03*
X149500000Y-72500000D03*
X152000000Y-76500000D03*
X152000000Y-72500000D03*
D12*
X162500000Y-34000000D03*
X166500000Y-34000000D03*
X165500000Y-47500000D03*
X169500000Y-47500000D03*
X159500000Y-58000000D03*
X155500000Y-58000000D03*
X159500000Y-68500000D03*
X155500000Y-68500000D03*
X160000000Y-79500000D03*
X156000000Y-79500000D03*
X156500000Y-34000000D03*
X152500000Y-34000000D03*
X159500000Y-47500000D03*
X155500000Y-47500000D03*
D13*
X167500000Y-30500000D03*
X167500000Y-26500000D03*
X165000000Y-30500000D03*
X165000000Y-26500000D03*
X170500000Y-54500000D03*
X170500000Y-50500000D03*
X168000000Y-54500000D03*
X168000000Y-50500000D03*
X169500000Y-65000000D03*
X169500000Y-61000000D03*
X169500000Y-76000000D03*
X169500000Y-72000000D03*
X115000000Y-26000000D03*
X115000000Y-30000000D03*
D16*
X124000000Y-97800000D03*
X124000000Y-95700000D03*
X124000000Y-94300000D03*
X124000000Y-92200000D03*
X126250000Y-95700000D03*
X126250000Y-97800000D03*
X126250000Y-92200000D03*
X126250000Y-94300000D03*
D17*
X138000000Y-92450000D03*
X138000000Y-90550000D03*
X135000000Y-91500000D03*
D11*
X148250000Y-84500000D03*
X145750000Y-84500000D03*
X140750000Y-86500000D03*
X143250000Y-86500000D03*
X140750000Y-92500000D03*
X143250000Y-92500000D03*
X140750000Y-90500000D03*
X143250000Y-90500000D03*
X157250000Y-84500000D03*
X154750000Y-84500000D03*
D15*
X125500000Y-87750000D03*
X125500000Y-90250000D03*
D11*
X161750000Y-84500000D03*
X159250000Y-84500000D03*
D15*
X123500000Y-87750000D03*
X123500000Y-90250000D03*
D18*
X115350000Y-89500000D03*
X119650000Y-89500000D03*
D11*
X166250000Y-84500000D03*
X163750000Y-84500000D03*
X170750000Y-84500000D03*
X168250000Y-84500000D03*
D19*
X159000000Y-86650000D03*
X159000000Y-89350000D03*
X164000000Y-86650000D03*
X164000000Y-89350000D03*
X168250000Y-86650000D03*
X168250000Y-89350000D03*
D20*
X143350000Y-88500000D03*
X140650000Y-88500000D03*
D19*
X135000000Y-94150000D03*
X135000000Y-96850000D03*
D21*
X153000000Y-85020000D03*
X151500000Y-85020000D03*
X150000000Y-85020000D03*
D22*
X151500000Y-88980000D03*
D10*
G36*
X150500000Y-87005000D02*
X151000000Y-86255000D01*
X152000000Y-86255000D01*
X152500000Y-87005000D01*
X150500000Y-87005000D01*
X150500000Y-87005000D01*
G37*
D20*
X148350000Y-88500000D03*
X145650000Y-88500000D03*
D23*
X134650000Y-88000000D03*
D24*
X128350000Y-88000000D03*
X128350000Y-90300000D03*
X128350000Y-85700000D03*
D25*
X165750000Y-109500000D03*
X174250000Y-109500000D03*
X170000000Y-109500000D03*
X125250000Y-109500000D03*
X133750000Y-109500000D03*
X129500000Y-109500000D03*
M02*
