M48
;DRILL file {KiCad (5.0.2)-1} date 14/03/2019 15:44:59
;FORMAT={-:-/ absolute / inch / decimal}
FMAT,2
INCH,TZ
T1C0.0118
T2C0.0157
T3C0.0354
T4C0.0400
T5C0.0591
T6C0.0669
T7C0.1378
%
G90
G05
T1
X5.5512Y-0.5315
X3.7008Y-3.8189
X3.7008Y-2.9921
X3.7008Y-2.0079
X7.4409Y-2.5591
X5.8858Y-4.252
X5.3937Y-0.5315
X3.5827Y-3.6614
X3.7008Y-2.4803
X3.5827Y-2.4803
X7.4409Y-2.6772
X6.3976Y-4.252
X5.8661Y-0.5315
X3.5827Y-3.5433
X3.7008Y-1.9291
X7.4409Y-3.0315
X7.4409Y-3.2283
X5.9843Y-0.5315
X5.Y-0.5315
X3.7008Y-1.8504
X7.4409Y-3.4646
X4.8031Y-0.5709
X6.4961Y-0.5315
X4.4882Y-0.5315
X7.4409Y-3.5433
X5.1969Y-0.5709
X6.9685Y-0.5315
X4.5669Y-0.5315
X5.9449Y-0.5709
X7.0079Y-0.5315
X4.8819Y-0.5315
X5.8661Y-0.5709
X4.5669Y-0.5709
X4.2913Y-0.5315
X5.4921Y-4.2126
X6.437Y-4.2126
X5.6693Y-0.5709
X3.8583Y-0.5709
X5.5315Y-4.2126
X5.8858Y-4.2126
X3.5827Y-4.0157
X6.2992Y-0.5709
X4.0945Y-0.5709
X6.4764Y-4.2126
X3.5827Y-4.0551
X6.811Y-0.5709
X7.1654Y-0.5315
X3.5827Y-1.1024
X7.4409Y-1.4961
X3.622Y-0.8661
X3.7008Y-1.5354
X7.4409Y-1.4567
X5.4134Y-4.3701
X6.0827Y-4.3307
X6.0039Y-4.3307
X3.5827Y-0.9055
X3.5827Y-1.3386
X7.4409Y-0.9055
X5.5315Y-4.3307
X6.3976Y-4.3701
X6.437Y-4.3307
X6.8898Y-0.5709
X3.5827Y-3.7795
X3.5827Y-2.9921
X3.7008Y-1.5748
X5.8071Y-4.3701
X3.5827Y-3.4646
X3.5827Y-2.5197
X3.5827Y-1.7717
X7.4409Y-1.811
X6.0827Y-4.3701
X3.7008Y-3.5827
X3.5827Y-2.6772
X3.7008Y-2.1654
X7.4409Y-2.9921
X5.6102Y-4.252
X6.3189Y-4.252
X5.5906Y-0.5315
X3.7008Y-3.189
X3.5827Y-3.1102
X3.5827Y-2.126
X7.4409Y-2.6378
X6.0039Y-4.252
X5.4724Y-0.5315
X3.7008Y-3.8583
X3.5827Y-2.5984
X3.7008Y-2.2441
X7.4409Y-2.8346
X6.437Y-4.252
X6.2598Y-0.5315
X3.5827Y-3.8189
X3.7008Y-1.9685
X7.4409Y-3.1496
X7.4409Y-3.7008
X6.063Y-0.5315
X5.2362Y-0.5315
X3.7008Y-1.7323
X7.4409Y-3.622
X5.0787Y-0.5709
X6.6929Y-0.5315
X4.7244Y-0.5315
X7.4409Y-3.7795
X5.2362Y-0.5709
X7.126Y-0.5315
X3.8976Y-0.5315
X5.7087Y-0.5709
X4.6457Y-0.5709
X5.0787Y-0.5315
X5.7283Y-4.2126
X6.063Y-0.5709
X6.3386Y-0.5315
X4.8031Y-0.5315
X5.4134Y-4.2126
X6.2795Y-4.2126
X6.1417Y-0.5709
X4.7638Y-0.5709
X5.5709Y-4.2126
X6.0039Y-4.2126
X7.4409Y-1.1811
X6.3386Y-0.5709
X4.1732Y-0.5709
X5.2953Y-4.2126
X6.9685Y-0.5709
X4.2126Y-0.5709
X3.7008Y-1.1024
X7.4409Y-1.5748
X3.6614Y-0.8661
X3.7008Y-1.2598
X7.4409Y-1.6929
X5.6102Y-4.3307
X5.5709Y-4.3701
X6.122Y-4.3307
X5.7283Y-4.3307
X3.5827Y-0.9843
X3.7008Y-1.3386
X7.4409Y-1.063
X5.689Y-4.3307
X5.374Y-4.3701
X3.5827Y-0.8661
X3.7008Y-3.5433
X3.5827Y-2.7953
X3.5827Y-1.6535
X6.2402Y-4.3701
X3.7008Y-3.5039
X3.7008Y-2.5197
X3.7008Y-1.7717
X7.4409Y-1.8898
X3.5827Y-3.7008
X3.5827Y-2.7559
X3.5827Y-2.2047
X7.4409Y-2.0079
X5.689Y-4.252
X6.0827Y-4.252
X5.5118Y-0.5315
X3.7008Y-3.622
X3.5827Y-2.9528
X3.7008Y-2.126
X7.4409Y-2.7953
X5.4921Y-4.252
X5.6299Y-0.5315
X3.5827Y-3.4252
X3.5827Y-2.6378
X3.5827Y-2.0866
X7.4409Y-1.8504
X5.2953Y-4.3307
X5.7087Y-0.5315
X3.5827Y-1.6929
X7.4409Y-2.0472
X7.4409Y-3.2677
X6.1024Y-0.5315
X4.7638Y-0.5315
X3.7008Y-2.0866
X7.4409Y-3.8189
X4.8425Y-0.5709
X6.4173Y-0.5315
X5.1969Y-0.5315
X7.4409Y-3.6614
X5.748Y-0.5709
X3.8976Y-0.5709
X4.8425Y-0.5315
X5.8268Y-0.5709
X6.6142Y-0.5315
X4.252Y-0.5315
X7.4409Y-3.937
X5.5906Y-0.5709
X6.5354Y-0.5315
X4.5276Y-0.5315
X5.3346Y-4.2126
X6.1614Y-4.2126
X5.9055Y-0.5709
X3.937Y-0.5709
X5.6102Y-4.2126
X5.2953Y-4.252
X3.7008Y-3.937
X3.7008Y-0.9449
X4.7244Y-0.5709
X3.7008Y-1.063
X7.4409Y-1.1417
X7.0079Y-0.5709
X4.0551Y-0.5709
X3.5827Y-1.1417
X7.4409Y-1.6535
X7.126Y-0.5709
X3.5827Y-1.4961
X3.7008Y-4.0157
X5.374Y-4.3307
X5.8465Y-4.3701
X6.1614Y-4.3307
X6.0433Y-4.3307
X6.8504Y-0.5709
X3.7008Y-2.5984
X3.7008Y-1.4173
X7.4409Y-1.2992
X5.4921Y-4.3307
X5.5315Y-4.3701
X3.5827Y-1.0236
X3.5827Y-3.622
X3.5827Y-3.0315
X3.7008Y-1.6142
X6.4764Y-4.3701
X3.5827Y-3.8976
X3.7008Y-3.0315
X3.5827Y-1.8504
X7.4409Y-1.9685
X5.7283Y-4.252
X3.7008Y-3.7795
X3.7008Y-2.7559
X3.5827Y-1.9685
X7.4409Y-2.7165
X5.9252Y-4.252
X6.122Y-4.252
X5.315Y-0.5315
X3.7008Y-3.2677
X3.7008Y-3.1102
X3.5827Y-2.2441
X7.4409Y-2.9134
X5.5709Y-4.252
X6.0236Y-0.5315
X3.7008Y-3.4252
X3.7008Y-2.5591
X3.7008Y-2.3622
X7.4409Y-2.9528
X6.4764Y-4.252
X5.748Y-0.5315
X3.5827Y-1.811
X7.4409Y-2.3228
X7.4409Y-3.3071
X6.1417Y-0.5315
X4.3307Y-0.5315
X3.7008Y-1.811
X7.4409Y-3.3858
X4.9213Y-0.5709
X6.4567Y-0.5315
X7.4409Y-3.8976
X5.2756Y-0.5709
X4.252Y-0.5709
X4.1339Y-0.5315
X5.3543Y-0.5709
X4.4882Y-0.5709
X4.0551Y-0.5315
X7.4409Y-3.9764
X6.0236Y-0.5709
X3.9764Y-0.5709
X5.374Y-4.2126
X6.2008Y-4.2126
X3.8583Y-0.5315
X5.7874Y-0.5709
X4.3701Y-0.5709
X5.8071Y-4.2126
X6.122Y-4.2126
X3.5827Y-3.9764
X6.5354Y-0.5709
X7.0866Y-0.5315
X3.7008Y-1.1417
X7.4409Y-1.2205
X6.4173Y-0.5709
X3.5827Y-1.063
X7.4409Y-0.9449
X5.8071Y-4.3307
X6.6142Y-0.5709
X3.5827Y-1.2992
X7.4409Y-0.8661
X5.5709Y-4.3307
X5.4528Y-4.3701
X6.2795Y-4.3307
X5.8465Y-4.3307
X3.7008Y-0.8661
X3.7008Y-2.6378
X3.7008Y-1.378
X7.4409Y-1.378
X6.3189Y-4.3701
X5.6102Y-4.3701
X3.7008Y-1.0236
X3.5827Y-3.2283
X3.7008Y-2.874
X3.5827Y-1.6142
X7.4409Y-2.4803
X6.1614Y-4.3701
X3.7008Y-3.7402
X3.5827Y-3.0709
X3.5827Y-1.8898
X7.4409Y-2.3622
X5.374Y-4.252
X6.2795Y-4.252
X3.7008Y-3.2283
X3.7008Y-2.7953
X3.7008Y-2.0472
X7.4409Y-2.126
X5.7677Y-4.252
X6.0433Y-4.252
X5.3543Y-0.5315
X3.7008Y-3.3071
X3.5827Y-3.189
X3.5827Y-2.1654
X7.4409Y-3.1102
X5.3346Y-4.252
X5.9449Y-0.5315
X3.5827Y-3.8583
X3.5827Y-2.4016
X7.4409Y-2.4409
X5.2953Y-4.2913
X5.8268Y-0.5315
X4.2126Y-0.5315
X3.5827Y-2.0079
X7.4409Y-2.7559
X7.4409Y-3.5827
X4.9606Y-0.5709
X6.2205Y-0.5315
X4.3701Y-0.5315
X3.7008Y-2.2835
X7.4409Y-3.7402
X5.Y-0.5709
X6.6535Y-0.5315
X5.315Y-0.5709
X4.3307Y-0.5709
X4.685Y-0.5315
X5.4724Y-0.5709
X6.7323Y-0.5315
X4.4094Y-0.5315
X7.4409Y-4.0157
X5.9646Y-4.2126
X5.9843Y-0.5709
X4.5276Y-0.5709
X3.9764Y-0.5315
X5.7677Y-4.2126
X6.3976Y-4.2126
X6.1024Y-0.5709
X4.685Y-0.5709
X5.6496Y-4.2126
X6.0433Y-4.2126
X3.7008Y-3.9764
X7.0472Y-0.5709
X4.4488Y-0.5709
X3.5827Y-1.1811
X7.4409Y-1.2598
X6.4567Y-0.5709
X3.7008Y-1.2205
X7.4409Y-0.9843
X5.4921Y-4.3701
X5.9252Y-4.3307
X6.6535Y-0.5709
X3.7008Y-1.2992
X7.4409Y-1.7323
X5.6496Y-4.3307
X6.2008Y-4.3701
X5.6496Y-4.3701
X6.3583Y-4.3307
X5.7677Y-4.3307
X3.5827Y-0.9449
X3.7008Y-2.6772
X3.5827Y-1.5354
X7.4409Y-1.6142
X5.9252Y-4.3701
X5.7283Y-4.3701
X6.9291Y-0.5709
X3.5827Y-3.3071
X3.7008Y-2.9528
X3.7008Y-1.4567
X7.4409Y-2.5984
X5.9646Y-4.3701
X3.7008Y-3.6614
X3.7008Y-3.0709
X3.7008Y-2.3228
X7.4409Y-2.2835
X5.4134Y-4.252
X6.3583Y-4.252
X3.7008Y-3.3858
X3.5827Y-2.874
X3.7008Y-2.2047
X7.4409Y-2.1654
X5.8465Y-4.252
X6.1614Y-4.252
X5.4331Y-0.5315
X3.5827Y-3.3858
X3.7008Y-2.9134
X3.7008Y-2.4409
X7.4409Y-3.189
X5.9646Y-4.252
X6.437Y-4.2913
X5.6693Y-0.5315
X3.7008Y-3.4646
X3.5827Y-2.3228
X7.4409Y-1.9291
X5.3346Y-4.2913
X6.1811Y-0.5315
X4.6063Y-0.5315
X3.5827Y-2.2835
X7.4409Y-3.8583
X5.1181Y-0.5709
X6.8504Y-0.5315
X5.0394Y-0.5315
X3.5827Y-2.0472
X7.4409Y-3.4252
X4.8819Y-0.5709
X6.7717Y-0.5315
X4.0945Y-0.5315
X5.3937Y-0.5709
X4.6063Y-0.5709
X5.1575Y-0.5315
X5.5118Y-0.5709
X6.8898Y-0.5315
X4.1732Y-0.5315
X7.4409Y-4.0551
X6.2402Y-4.2126
X5.6299Y-0.5709
X6.5748Y-0.5315
X4.9606Y-0.5315
X5.4528Y-4.2126
X5.9252Y-4.2126
X3.7008Y-3.8976
X6.2598Y-0.5709
X6.2992Y-0.5315
X6.0827Y-4.2126
X3.622Y-4.0551
X7.1654Y-0.5709
X4.1339Y-0.5709
X3.5827Y-1.2205
X7.4409Y-1.3386
X6.4961Y-0.5709
X3.5827Y-1.2598
X7.4409Y-1.5354
X5.8858Y-4.3701
X6.2008Y-4.3307
X5.9646Y-4.3307
X6.7323Y-0.5709
X3.5827Y-1.5748
X3.6614Y-4.0551
X5.4134Y-4.3307
X6.3583Y-4.3701
X5.689Y-4.3701
X6.2402Y-4.3307
X3.7008Y-0.9055
X3.5827Y-3.1496
X3.7008Y-1.4961
X7.4409Y-1.7717
X6.122Y-4.3701
X6.4764Y-4.3307
X6.2205Y-0.5709
X3.5827Y-3.3465
X3.7008Y-2.7165
X3.7008Y-1.6929
X7.4409Y-2.874
X6.437Y-4.3701
X3.5827Y-3.2677
X3.5827Y-2.5591
X3.7008Y-2.4016
X7.4409Y-2.2047
X5.4528Y-4.252
X6.2008Y-4.252
X3.5827Y-3.7402
X3.5827Y-2.9134
X3.5827Y-2.4409
X7.4409Y-2.2441
X5.8071Y-4.252
X5.2756Y-0.5315
X3.5827Y-3.5827
X3.7008Y-3.1496
X3.5827Y-2.3622
X7.4409Y-2.4016
X5.6496Y-4.252
X6.4764Y-4.2913
X5.7874Y-0.5315
X3.5827Y-3.5039
X3.7008Y-1.8898
X7.4409Y-2.0866
X5.3346Y-4.3307
X5.9055Y-0.5315
X4.9213Y-0.5315
X3.7008Y-1.6535
X7.4409Y-3.3465
X5.0394Y-0.5709
X6.378Y-0.5315
X4.4488Y-0.5315
X7.4409Y-3.5039
X5.1575Y-0.5709
X6.9291Y-0.5315
X4.0157Y-0.5315
X5.4331Y-0.5709
X4.2913Y-0.5709
X3.937Y-0.5315
X5.5512Y-0.5709
X6.811Y-0.5315
X5.1181Y-0.5315
X5.2953Y-4.2126
X6.3583Y-4.2126
X6.1811Y-0.5709
X7.0472Y-0.5315
X4.6457Y-0.5315
X5.689Y-4.2126
X5.8465Y-4.2126
X3.5827Y-3.937
X6.378Y-0.5709
X4.0157Y-0.5709
X6.3189Y-4.2126
X7.4409Y-1.1024
X6.6929Y-0.5709
X4.4094Y-0.5709
X3.7008Y-1.1811
X7.4409Y-1.4173
X7.0866Y-0.5709
X3.5827Y-1.378
X7.4409Y-1.0236
X5.2953Y-4.3701
X6.3189Y-4.3307
X5.8858Y-4.3307
X6.7717Y-0.5709
X3.5827Y-1.4567
X3.7008Y-4.0551
X5.4528Y-4.3307
X6.2795Y-4.3701
X5.7677Y-4.3701
X6.3976Y-4.3307
X3.7008Y-0.9843
X3.5827Y-2.7165
X3.5827Y-1.4173
X6.0039Y-4.3701
X5.3346Y-4.3701
X6.5748Y-0.5709
X3.7008Y-3.7008
X3.7008Y-2.8346
X3.5827Y-1.7323
X7.4409Y-3.0709
X6.0433Y-4.3701
X3.7008Y-3.3465
X3.5827Y-2.8346
X3.5827Y-1.9291
X7.4409Y-2.5197
X5.5315Y-4.252
X6.2402Y-4.252
T2
X3.7402Y-3.7008
X3.7795Y-3.7402
X3.8189Y-3.7795
X3.8583Y-3.4055
X3.8583Y-3.4449
X3.8583Y-3.4843
X3.8583Y-3.5236
X3.8583Y-3.563
X3.8583Y-3.6024
X3.8583Y-3.8189
X3.8976Y-1.1417
X3.8976Y-1.2598
X3.8976Y-1.2992
X3.8976Y-1.3386
X3.8976Y-1.378
X3.8976Y-1.4173
X3.8976Y-1.4567
X3.8976Y-1.4961
X3.8976Y-1.5354
X3.8976Y-1.6535
X3.8976Y-1.6929
X3.8976Y-1.7323
X3.8976Y-1.7717
X3.8976Y-1.811
X3.8976Y-1.8504
X3.8976Y-1.8898
X3.8976Y-1.9291
X3.8976Y-1.9685
X3.8976Y-2.126
X3.8976Y-2.1654
X3.8976Y-2.2835
X3.8976Y-2.3228
X3.8976Y-2.3622
X3.8976Y-2.4016
X3.8976Y-2.4409
X3.8976Y-2.4803
X3.8976Y-2.5197
X3.8976Y-2.5591
X3.8976Y-2.5984
X3.8976Y-2.6378
X3.8976Y-2.6772
X3.8976Y-2.7165
X3.8976Y-2.7559
X3.8976Y-2.7953
X3.8976Y-2.8346
X3.8976Y-2.874
X3.8976Y-2.9921
X3.8976Y-3.0315
X3.8976Y-3.0709
X3.8976Y-3.1102
X3.8976Y-3.2283
X3.8976Y-3.6417
X3.8976Y-3.8583
X3.8976Y-4.3661
X3.937Y-3.6811
X3.937Y-3.8976
X3.937Y-3.937
X3.937Y-3.9764
X3.937Y-4.0157
X3.937Y-4.0551
X3.937Y-4.0945
X3.937Y-4.3661
X3.9764Y-3.7205
X3.9764Y-4.1339
X3.9764Y-4.3661
X4.0157Y-3.7598
X4.0157Y-3.9764
X4.0157Y-4.0157
X4.0157Y-4.0551
X4.0157Y-4.1732
X4.0157Y-4.3661
X4.0551Y-3.7992
X4.0551Y-4.2126
X4.1929Y-3.6024
X4.2323Y-3.6024
X4.2638Y-4.374
X4.2717Y-3.6024
X4.2913Y-4.374
X4.311Y-3.6024
X4.3307Y-4.374
X4.3701Y-3.6024
X4.3701Y-4.374
X4.4094Y-4.374
X4.4291Y-3.7402
X4.4291Y-3.7795
X4.4291Y-3.8189
X4.4291Y-3.8583
X4.4291Y-3.8976
X4.4291Y-4.0157
X4.4291Y-4.0551
X4.4291Y-4.0945
X4.4488Y-4.374
X4.4882Y-3.3858
X4.4882Y-4.374
X4.5276Y-4.374
X4.5315Y-3.3425
X4.5669Y-1.7323
X4.5669Y-4.374
X4.5709Y-3.3031
X4.6063Y-1.7323
X4.6063Y-3.0709
X4.6063Y-3.3031
X4.6063Y-4.374
X4.6457Y-1.7323
X4.6457Y-3.3031
X4.6457Y-4.374
X4.685Y-1.7323
X4.685Y-4.374
X4.689Y-3.3031
X4.7047Y-3.0709
X4.7244Y-1.7323
X4.7244Y-2.6378
X4.7244Y-3.3031
X4.7244Y-4.374
X4.7638Y-1.7323
X4.7638Y-2.6378
X4.7638Y-3.3031
X4.7638Y-4.374
X4.8031Y-1.7323
X4.8031Y-3.0709
X4.8031Y-3.3031
X4.8031Y-4.374
X4.8071Y-2.6378
X4.811Y-3.7323
X4.811Y-3.7795
X4.8117Y-3.8671
X4.8189Y-3.8346
X4.8425Y-1.939
X4.8425Y-2.3622
X4.8425Y-3.3031
X4.8425Y-4.374
X4.8819Y-0.6693
X4.8819Y-1.939
X4.8819Y-2.3622
X4.8819Y-2.7953
X4.8819Y-4.3307
X4.8858Y-3.3031
X4.8996Y-0.811
X4.9213Y-0.6693
X4.9213Y-1.0236
X4.9213Y-1.437
X4.9213Y-1.937
X4.9213Y-2.3622
X4.9213Y-2.7953
X4.9213Y-3.3031
X4.9606Y-0.6693
X4.9606Y-0.811
X4.9606Y-1.0236
X4.9606Y-1.437
X4.9606Y-1.939
X4.9606Y-2.3622
X4.9606Y-2.7953
X4.9606Y-3.3031
X5.Y-0.6693
X5.Y-0.811
X5.Y-1.0236
X5.Y-1.437
X5.Y-1.939
X5.Y-2.3622
X5.Y-2.7953
X5.0039Y-3.3031
X5.0394Y-2.6772
X5.0394Y-0.6693
X5.0394Y-0.811
X5.0394Y-1.0236
X5.0394Y-1.939
X5.0394Y-2.3622
X5.0394Y-2.7953
X5.0394Y-3.3031
X5.0787Y-0.6693
X5.0787Y-0.811
X5.0787Y-1.0236
X5.0787Y-1.9409
X5.0787Y-2.3622
X5.0787Y-2.6772
X5.0787Y-2.7953
X5.0787Y-3.0709
X5.0787Y-3.3031
X5.1181Y-0.6693
X5.1181Y-0.811
X5.1181Y-1.0236
X5.1181Y-1.2598
X5.1181Y-2.3622
X5.1181Y-2.6772
X5.1181Y-3.0709
X5.1181Y-3.3031
X5.1181Y-3.5551
X5.122Y-2.7913
X5.1535Y-3.5551
X5.1575Y-0.6693
X5.1575Y-0.811
X5.1575Y-1.2598
X5.1575Y-1.437
X5.1575Y-2.3622
X5.1575Y-2.6772
X5.1575Y-3.0709
X5.1575Y-3.3031
X5.1575Y-1.0236
X5.189Y-3.5551
X5.1969Y-0.6693
X5.1969Y-0.811
X5.1969Y-1.0236
X5.1969Y-1.2598
X5.1969Y-2.6772
X5.1969Y-3.0709
X5.1969Y-3.3031
X5.2244Y-3.5551
X5.2362Y-0.6693
X5.2362Y-0.811
X5.2362Y-1.0236
X5.2362Y-1.2598
X5.2362Y-2.6772
X5.2362Y-3.0709
X5.2362Y-3.3031
X5.2756Y-0.6693
X5.2756Y-0.811
X5.2756Y-1.0236
X5.2756Y-1.2598
X5.2756Y-2.3622
X5.2756Y-2.6772
X5.2756Y-3.0709
X5.2756Y-3.3031
X5.311Y-2.7756
X5.315Y-0.6693
X5.315Y-0.811
X5.315Y-1.0236
X5.315Y-1.2598
X5.315Y-1.437
X5.315Y-1.811
X5.315Y-2.3622
X5.315Y-2.6772
X5.315Y-3.0709
X5.315Y-3.3031
X5.3543Y-0.6693
X5.3543Y-0.811
X5.3543Y-1.2598
X5.3543Y-1.437
X5.3543Y-2.7756
X5.3543Y-3.0709
X5.3583Y-2.3622
X5.3937Y-0.6693
X5.3937Y-0.811
X5.3937Y-1.2598
X5.3937Y-1.437
X5.3937Y-3.0709
X5.4331Y-0.6693
X5.4331Y-0.811
X5.4331Y-1.2598
X5.4331Y-1.437
X5.4331Y-1.7323
X5.4331Y-3.0709
X5.4331Y-3.4055
X5.4331Y-3.4508
X5.4331Y-3.5039
X5.4724Y-0.6693
X5.4724Y-0.811
X5.4724Y-1.2598
X5.4724Y-1.437
X5.4724Y-1.7323
X5.4724Y-3.0709
X5.5118Y-0.6693
X5.5118Y-0.811
X5.5118Y-1.437
X5.5118Y-1.7323
X5.5118Y-3.6811
X5.5118Y-3.7205
X5.5118Y-3.8189
X5.5512Y-0.6693
X5.5512Y-0.811
X5.5512Y-1.437
X5.5512Y-1.7323
X5.5512Y-3.8189
X5.5748Y-1.937
X5.5906Y-0.6693
X5.5906Y-0.811
X5.5906Y-1.437
X5.5906Y-2.3622
X5.5906Y-2.7953
X5.6142Y-1.937
X5.6299Y-0.6693
X5.6299Y-0.811
X5.6299Y-1.437
X5.6299Y-2.3622
X5.6299Y-2.7953
X5.6535Y-1.937
X5.6693Y-0.6693
X5.6693Y-0.811
X5.6693Y-1.437
X5.6693Y-2.3622
X5.6693Y-2.7953
X5.6693Y-3.248
X5.6929Y-1.937
X5.7087Y-0.6693
X5.7087Y-0.811
X5.7087Y-1.1024
X5.7087Y-1.437
X5.7087Y-2.3622
X5.7087Y-2.7953
X5.7087Y-3.248
X5.7323Y-1.937
X5.748Y-2.7953
X5.748Y-0.6693
X5.748Y-0.811
X5.748Y-1.063
X5.748Y-1.2598
X5.748Y-1.437
X5.748Y-2.3622
X5.748Y-3.248
X5.748Y-3.6614
X5.7717Y-1.937
X5.7874Y-0.6693
X5.7874Y-0.811
X5.7874Y-1.0236
X5.7874Y-1.2598
X5.7874Y-1.437
X5.7874Y-2.3622
X5.7874Y-2.7795
X5.7874Y-3.248
X5.7874Y-3.563
X5.7874Y-3.6614
X5.8071Y-1.8307
X5.811Y-1.937
X5.8268Y-0.6693
X5.8268Y-0.811
X5.8268Y-1.0236
X5.8268Y-1.2598
X5.8268Y-1.437
X5.8268Y-2.3622
X5.8268Y-2.7795
X5.8268Y-3.0709
X5.8268Y-3.248
X5.8268Y-3.563
X5.8268Y-3.6614
X5.8465Y-1.8307
X5.8661Y-0.6693
X5.8661Y-0.811
X5.8661Y-1.0236
X5.8661Y-1.2598
X5.8661Y-1.437
X5.8661Y-2.7795
X5.8661Y-3.248
X5.8661Y-3.563
X5.8661Y-3.6614
X5.8858Y-1.8307
X5.9055Y-0.6693
X5.9055Y-0.811
X5.9055Y-1.0236
X5.9055Y-1.2598
X5.9055Y-1.437
X5.9055Y-2.7795
X5.9055Y-3.248
X5.9055Y-3.563
X5.9055Y-3.6614
X5.9252Y-1.8307
X5.9449Y-0.6693
X5.9449Y-0.811
X5.9449Y-1.063
X5.9449Y-1.2598
X5.9449Y-1.437
X5.9449Y-2.7795
X5.9449Y-3.248
X5.9449Y-3.6614
X5.9646Y-1.8307
X5.9803Y-1.437
X5.9843Y-0.6693
X5.9843Y-0.811
X5.9843Y-1.2598
X5.9843Y-2.7795
X5.9843Y-3.248
X5.9843Y-3.6614
X6.0039Y-1.8307
X6.0236Y-0.6693
X6.0236Y-0.811
X6.0236Y-1.2598
X6.0236Y-1.437
X6.0236Y-2.2146
X6.0236Y-2.7795
X6.0236Y-3.248
X6.0433Y-1.8307
X6.0433Y-3.563
X6.0472Y-3.6614
X6.063Y-2.7795
X6.063Y-0.6693
X6.063Y-0.811
X6.063Y-1.2598
X6.063Y-1.437
X6.063Y-2.3622
X6.063Y-3.0709
X6.063Y-3.248
X6.0827Y-3.563
X6.1024Y-1.2598
X6.1024Y-1.437
X6.1024Y-2.3622
X6.1024Y-3.0709
X6.1024Y-3.248
X6.1024Y-3.6614
X6.122Y-1.939
X6.122Y-2.2146
X6.122Y-3.563
X6.1339Y-3.0394
X6.1417Y-1.437
X6.1417Y-1.2598
X6.1417Y-3.248
X6.1614Y-3.4055
X6.1614Y-3.4449
X6.1614Y-3.4843
X6.1614Y-3.5236
X6.1614Y-3.563
X6.1693Y-3.0039
X6.1811Y-0.9843
X6.1811Y-1.437
X6.1811Y-3.0709
X6.1811Y-3.248
X6.2008Y-3.563
X6.2205Y-0.9843
X6.2205Y-1.437
X6.2205Y-2.2146
X6.2205Y-3.248
X6.2402Y-3.0709
X6.2402Y-3.563
X6.2598Y-0.9843
X6.2598Y-1.437
X6.2598Y-3.248
X6.2795Y-3.563
X6.2992Y-0.9843
X6.2992Y-1.437
X6.2992Y-1.937
X6.2992Y-2.3622
X6.2992Y-3.248
X6.3189Y-3.563
X6.3386Y-0.9843
X6.3386Y-1.437
X6.3386Y-1.939
X6.3386Y-2.3622
X6.3386Y-2.7953
X6.3386Y-3.248
X6.3583Y-3.4055
X6.3583Y-3.4449
X6.3583Y-3.4843
X6.3583Y-3.5236
X6.3583Y-3.563
X6.378Y-0.9843
X6.378Y-1.437
X6.378Y-1.939
X6.378Y-2.3622
X6.378Y-2.7953
X6.378Y-3.248
X6.3976Y-3.563
X6.4173Y-0.9843
X6.4173Y-1.437
X6.4173Y-1.9409
X6.4173Y-2.3622
X6.4173Y-2.7953
X6.4173Y-3.248
X6.437Y-3.563
X6.4567Y-1.437
X6.4567Y-1.939
X6.4567Y-2.3622
X6.4567Y-2.7953
X6.4567Y-3.248
X6.4764Y-3.563
X6.4961Y-0.9449
X6.4961Y-1.437
X6.4961Y-1.9409
X6.4961Y-2.3622
X6.4961Y-2.7953
X6.4961Y-3.248
X6.5157Y-3.563
X6.5354Y-0.9055
X6.5354Y-1.9409
X6.5354Y-2.2539
X6.5354Y-2.3622
X6.5354Y-2.7953
X6.5354Y-3.248
X6.5354Y-1.437
X6.5394Y-3.0315
X6.5394Y-3.0709
X6.5551Y-3.4055
X6.5551Y-3.4449
X6.5551Y-3.4843
X6.5551Y-3.5236
X6.5551Y-3.563
X6.5748Y-1.437
X6.5748Y-2.2539
X6.5748Y-2.7953
X6.5748Y-3.0315
X6.5748Y-3.0709
X6.5748Y-3.248
X6.5945Y-3.563
X6.6142Y-1.437
X6.6142Y-2.2539
X6.6142Y-2.7953
X6.6142Y-3.0315
X6.6142Y-3.0709
X6.6142Y-3.937
X6.6142Y-3.9764
X6.6142Y-4.0157
X6.6142Y-4.0551
X6.6142Y-3.248
X6.6535Y-1.437
X6.6535Y-3.248
X6.6535Y-3.8976
X6.6929Y-1.437
X6.6929Y-3.248
X6.6929Y-3.4055
X6.6929Y-3.4449
X6.6929Y-3.4843
X6.7323Y-1.437
X6.7323Y-3.248
X6.7323Y-3.4449
X6.7717Y-1.874
X6.7717Y-3.937
X6.7717Y-3.9764
X6.7717Y-4.0157
X6.7717Y-4.0551
X6.811Y-1.874
X6.811Y-3.8976
X6.8504Y-0.8465
X6.8504Y-1.874
X6.8504Y-3.7008
X6.8504Y-4.3701
X6.8898Y-0.6693
X6.8898Y-0.8858
X6.8898Y-1.874
X6.8898Y-3.6614
X6.8898Y-4.3701
X6.9094Y-1.3583
X6.9291Y-0.9252
X6.9291Y-1.8701
X6.9291Y-3.622
X6.9291Y-4.3701
X6.9331Y-1.811
X6.9488Y-0.6693
X6.9488Y-1.3583
X6.9685Y-0.9646
X6.9685Y-1.811
X6.9685Y-3.5827
X6.9685Y-4.3701
X6.9882Y-0.7087
X6.9882Y-1.3583
X7.0079Y-1.0039
X7.0079Y-1.811
X7.0079Y-3.5433
X7.0079Y-4.3701
X7.0276Y-0.748
X7.0276Y-1.3583
X7.0472Y-3.5039
X7.0472Y-3.7008
X7.0472Y-4.3701
X7.0512Y-1.811
X7.0571Y-3.1201
X7.0669Y-0.7874
X7.0669Y-1.3583
X7.0669Y-2.2835
X7.0669Y-2.7165
X7.0866Y-1.811
X7.0866Y-3.6614
X7.0866Y-4.3701
X7.0965Y-3.1201
X7.1063Y-0.8268
X7.1063Y-2.2835
X7.1063Y-2.7165
X7.126Y-1.811
X7.126Y-3.622
X7.1299Y-4.3701
X7.1358Y-3.1201
X7.1457Y-0.8661
X7.1457Y-2.2835
X7.1457Y-2.7165
X7.1654Y-3.5827
X7.185Y-0.9055
X7.1969Y-3.5512
X7.2244Y-0.9449
X7.2244Y-3.5236
X7.2441Y-3.5039
X7.2697Y-2.1654
X7.2697Y-2.1949
X7.2697Y-2.2244
X7.2697Y-2.2638
X7.2697Y-2.2933
X7.2697Y-2.3228
X7.2697Y-2.3524
X7.2697Y-2.4114
X7.2697Y-2.4606
X7.2697Y-2.4902
X7.2697Y-2.5197
X7.2697Y-2.5492
X7.2697Y-2.628
X7.2697Y-2.6575
X7.2697Y-2.687
X7.2697Y-2.7165
X7.2697Y-2.7461
X7.2697Y-2.7756
X7.2697Y-2.8543
X7.2697Y-2.8839
X7.2697Y-2.9134
X7.2697Y-2.9429
X7.2697Y-2.9724
X7.2697Y-3.0512
X7.2697Y-3.0807
X7.2697Y-3.1102
X7.2697Y-3.1398
X7.2697Y-3.1693
X7.2697Y-3.248
X7.2697Y-3.2776
X7.2697Y-3.3071
X7.2697Y-3.3366
X7.2697Y-3.3661
X7.2697Y-3.3957
X7.2697Y-3.4646
X7.2835Y-0.9843
X7.2835Y-1.1811
X7.2835Y-1.378
X7.2835Y-1.4173
X7.2835Y-1.4567
X7.2835Y-1.4961
X7.2835Y-1.5354
X7.2835Y-1.5748
X7.2835Y-1.6142
X7.2835Y-1.6535
X7.2835Y-1.7323
X7.2835Y-1.7717
X7.2835Y-1.811
X7.2835Y-1.8504
X7.2835Y-1.8898
X7.2835Y-1.9291
X7.2835Y-1.9685
X7.2835Y-2.0079
X7.2835Y-2.0472
X7.2835Y-3.7402
X7.2835Y-3.937
T3
X6.378Y-0.648
X6.378Y-0.848
X6.578Y-0.648
X6.578Y-0.848
X6.6772Y-0.848
X6.678Y-0.648
X6.778Y-0.648
X6.778Y-0.848
X4.5457Y-3.852
X4.5457Y-3.952
X4.5457Y-4.052
X4.5457Y-4.252
X4.7457Y-3.852
X4.7457Y-3.9528
X4.7457Y-4.052
X4.7457Y-4.252
X6.811Y-3.2268
X6.811Y-3.4268
X7.011Y-3.2268
X7.011Y-3.4268
X7.1102Y-3.4268
X7.111Y-3.2268
X7.211Y-3.2268
X7.211Y-3.4268
X4.1126Y-3.852
X4.1126Y-3.952
X4.1126Y-4.052
X4.1126Y-4.252
X4.3126Y-3.852
X4.3126Y-3.9528
X4.3126Y-4.052
X4.3126Y-4.252
X4.0094Y-1.0811
X4.0094Y-1.2811
X4.1094Y-1.2811
X4.1102Y-1.0811
X4.2094Y-1.0811
X4.2094Y-1.2811
X4.4094Y-1.0811
X4.4094Y-1.2811
X3.9898Y-2.8134
X3.9898Y-3.0134
X4.0898Y-3.0134
X4.0906Y-2.8134
X4.1898Y-2.8134
X4.1898Y-3.0134
X4.3898Y-2.8134
X4.3898Y-3.0134
X6.811Y-2.8134
X6.811Y-3.0134
X7.011Y-2.8134
X7.011Y-3.0134
X7.1102Y-3.0134
X7.111Y-2.8134
X7.211Y-2.8134
X7.211Y-3.0134
X3.9898Y-1.9472
X3.9898Y-2.1472
X4.0898Y-2.1472
X4.0906Y-1.9472
X4.1898Y-1.9472
X4.1898Y-2.1472
X4.3898Y-1.9472
X4.3898Y-2.1472
X6.752Y-1.5142
X6.752Y-1.7142
X6.952Y-1.5142
X6.952Y-1.7142
X7.0512Y-1.7142
X7.052Y-1.5142
X7.152Y-1.5142
X7.152Y-1.7142
X6.811Y-2.3803
X6.811Y-2.5803
X7.011Y-2.3803
X7.011Y-2.5803
X7.1102Y-2.5803
X7.111Y-2.3803
X7.211Y-2.3803
X7.211Y-2.5803
X4.2063Y-0.648
X4.2063Y-0.848
X4.3063Y-0.848
X4.3071Y-0.648
X4.4063Y-0.648
X4.4063Y-0.848
X4.6063Y-0.648
X4.6063Y-0.848
X3.9898Y-3.2465
X3.9898Y-3.4465
X4.0898Y-3.4465
X4.0906Y-3.2465
X4.1898Y-3.2465
X4.1898Y-3.4465
X4.3898Y-3.2465
X4.3898Y-3.4465
X3.9898Y-1.5142
X3.9898Y-1.7142
X4.0898Y-1.7142
X4.0906Y-1.5142
X4.1898Y-1.5142
X4.1898Y-1.7142
X4.3898Y-1.5142
X4.3898Y-1.7142
X6.7126Y-1.0811
X6.7126Y-1.2811
X6.9126Y-1.0811
X6.9126Y-1.2811
X7.0118Y-1.2811
X7.0126Y-1.0811
X7.1126Y-1.0811
X7.1126Y-1.2811
X6.811Y-1.9669
X6.811Y-2.1669
X7.011Y-1.9669
X7.011Y-2.1669
X7.1102Y-2.1669
X7.111Y-1.9669
X7.211Y-1.9669
X7.211Y-2.1669
X3.9898Y-2.3803
X3.9898Y-2.5803
X4.0898Y-2.5803
X4.0906Y-2.3803
X4.1898Y-2.3803
X4.1898Y-2.5803
X4.3898Y-2.3803
X4.3898Y-2.5803
T4
X5.6417Y-3.937
X5.6417Y-4.037
X5.7417Y-3.937
X5.7417Y-4.037
X5.8417Y-3.937
X5.8417Y-4.037
X5.9417Y-3.937
X5.9417Y-4.037
X6.0417Y-3.937
X6.0417Y-4.037
X6.1417Y-3.937
X6.1417Y-4.037
T5
X4.7425Y-2.0169
X4.9425Y-2.1669
X4.7425Y-2.45
X4.9425Y-2.6
X6.1992Y-2.8634
X6.3992Y-3.0134
X5.4709Y-2.8634
X5.6709Y-3.0134
X4.7622Y-1.0917
X4.9622Y-1.2417
X4.7425Y-1.6035
X4.9425Y-1.7535
X6.6929Y-4.2323
X5.4709Y-2.45
X5.6709Y-2.6
X5.0984Y-4.2323
X6.0811Y-1.0917
X6.2811Y-1.2417
X6.1992Y-2.0366
X6.3992Y-2.1866
X5.4709Y-1.6035
X5.6709Y-1.7535
X6.1992Y-2.45
X6.3992Y-2.6
X5.4709Y-2.0169
X5.6709Y-2.1669
X4.7425Y-2.8634
X4.9425Y-3.0134
X6.1992Y-1.6232
X6.3992Y-1.7732
X5.4118Y-1.0917
X5.6118Y-1.2417
T6
X6.5929Y-4.1323
X6.5929Y-4.3323
X6.7929Y-4.1323
X6.7929Y-4.3323
X4.9984Y-4.1323
X4.9984Y-4.3323
X5.1984Y-4.1323
X5.1984Y-4.3323
T7
X7.2835Y-4.2323
X3.7402Y-0.689
X7.2835Y-0.689
X3.7402Y-4.2323
T0
M30
