M48
;DRILL file {KiCad 4.0.7} date 12/16/17 23:36:46
;FORMAT={3:3/ absolute / metric / suppress leading zeros}
FMAT,2
METRIC,TZ
T1C0.400
T2C0.900
T3C1.016
T4C1.500
T5C1.700
T6C3.500
%
G90
G05
M71
T1
X92500Y-25000
X92500Y-30000
X92500Y-35000
X92500Y-40000
X92500Y-45000
X92500Y-50000
X92500Y-55000
X92500Y-60000
X92500Y-65000
X92500Y-70000
X92500Y-75000
X92500Y-80000
X92500Y-85000
X92500Y-90000
X92500Y-95000
X92500Y-100000
X99000Y-14000
X99000Y-29000
X99000Y-32000
X99000Y-35000
X99000Y-39000
X99000Y-44000
X99000Y-47000
X99000Y-50000
X99000Y-55000
X99000Y-58000
X99000Y-61000
X99000Y-64000
X99000Y-67000
X99000Y-70000
X99000Y-73000
X99000Y-76000
X99000Y-79000
X99000Y-82000
X99000Y-110900
X102000Y-110900
X104000Y-14000
X108300Y-111100
X109000Y-14000
X111000Y-111100
X114000Y-14000
X114000Y-111100
X115750Y-85000
X116900Y-111100
X117000Y-78000
X118250Y-85000
X119000Y-14000
X119500Y-67000
X119500Y-78000
X120000Y-111100
X120500Y-46500
X120750Y-85000
X122000Y-67000
X122000Y-78000
X122100Y-70500
X122200Y-94800
X122200Y-96000
X122217Y-98225
X122400Y-97400
X123000Y-49250
X123000Y-60000
X123250Y-85000
X123500Y-111100
X124000Y-14000
X124100Y-70500
X125000Y-36500
X125250Y-109700
X125500Y-21000
X125500Y-26000
X125500Y-49250
X125750Y-60000
X125750Y-85000
X126300Y-70500
X127000Y-36500
X127800Y-94000
X128000Y-21000
X128000Y-26000
X128500Y-49250
X128500Y-60000
X128500Y-68000
X128500Y-70500
X128500Y-78000
X128500Y-85750
X129000Y-14000
X129200Y-94000
X129500Y-32000
X130200Y-90400
X130200Y-93000
X130500Y-21000
X130500Y-26000
X130750Y-85000
X130800Y-70500
X131000Y-32000
X131000Y-36500
X131000Y-60000
X131000Y-68000
X131000Y-78000
X131000Y-93000
X132000Y-93000
X132000Y-99000
X133000Y-21000
X133000Y-26000
X133000Y-93000
X133000Y-100000
X133250Y-85000
X133500Y-68000
X133500Y-78000
X134000Y-14000
X134000Y-32000
X134000Y-109400
X134250Y-60000
X134600Y-70500
X135000Y-26000
X135000Y-102000
X135250Y-46500
X135250Y-98500
X135500Y-21000
X135750Y-85000
X136000Y-104000
X136000Y-106000
X136250Y-60000
X136500Y-32000
X136500Y-36500
X136500Y-78000
X136500Y-99500
X136700Y-70500
X138000Y-21000
X138000Y-86500
X138000Y-87650
X138000Y-89000
X138000Y-101000
X138250Y-85000
X138750Y-102250
X138750Y-103750
X139000Y-14000
X139000Y-32000
X139000Y-36500
X139000Y-78000
X139000Y-111000
X140500Y-21000
X140750Y-85000
X141500Y-36500
X141500Y-49250
X141500Y-60000
X141500Y-70500
X143500Y-21000
X144000Y-14000
X144000Y-36500
X144000Y-49250
X144000Y-49250
X144000Y-60000
X144000Y-70500
X144000Y-111000
X144250Y-82500
X145000Y-29000
X145000Y-86500
X145000Y-90500
X146000Y-86500
X146000Y-90500
X146400Y-93000
X146500Y-20800
X146500Y-32000
X146500Y-36500
X146500Y-46500
X146500Y-60000
X146500Y-70500
X147000Y-82500
X147000Y-86500
X147000Y-90500
X147500Y-26500
X147750Y-60000
X148000Y-78000
X149000Y-14000
X149000Y-32000
X149000Y-36500
X149000Y-46500
X149000Y-70500
X149000Y-93000
X149000Y-111000
X149500Y-21000
X149500Y-82500
X150500Y-26500
X151400Y-93000
X151500Y-29000
X151500Y-32000
X151500Y-36500
X151500Y-46500
X151500Y-70500
X152000Y-21000
X152000Y-82500
X153000Y-56250
X153500Y-60000
X153500Y-78000
X153600Y-93000
X154000Y-14000
X154000Y-32000
X154000Y-36500
X154000Y-70500
X154000Y-111000
X154500Y-21000
X154500Y-82500
X155000Y-60000
X155500Y-49250
X155500Y-56250
X156000Y-78000
X156500Y-25500
X156500Y-32000
X156500Y-36500
X157000Y-82500
X158000Y-25500
X158000Y-56250
X158500Y-78000
X159000Y-14000
X159000Y-36500
X159000Y-111000
X159500Y-60000
X159500Y-82500
X160500Y-25500
X160500Y-49250
X160500Y-70500
X161500Y-36500
X162000Y-60000
X162000Y-82500
X162500Y-25500
X162750Y-49250
X163000Y-70500
X164000Y-14000
X164000Y-36500
X164000Y-60000
X164000Y-111000
X164500Y-82500
X165500Y-49250
X165500Y-70500
X165750Y-109500
X166000Y-57250
X166000Y-60000
X166500Y-36500
X166500Y-78000
X166500Y-82500
X167800Y-100400
X168000Y-57250
X168000Y-70500
X168200Y-98400
X168400Y-82500
X169000Y-14000
X169000Y-36500
X170200Y-82500
X171800Y-98400
X171800Y-100400
X172000Y-47600
X172000Y-93200
X173400Y-91800
X173800Y-47600
X174000Y-14000
X174200Y-109400
X175000Y-90200
X175800Y-47600
X175800Y-93600
X176400Y-88800
X177200Y-92200
X179000Y-14000
X179000Y-91600
X179000Y-111000
X179400Y-67600
X179400Y-69600
X179600Y-57000
X179600Y-58600
X181000Y-91400
X181600Y-57000
X181600Y-58600
X181600Y-67600
X181600Y-69600
X182800Y-90200
X184000Y-89000
X184650Y-55000
X184650Y-57500
X184650Y-62500
X184650Y-67500
X184650Y-72500
X184650Y-77500
X184650Y-82500
X185000Y-25000
X185000Y-30000
X185000Y-35000
X185000Y-40000
X185000Y-45000
X185000Y-50000
X185000Y-95000
X185000Y-100000
X240250Y-169250
X241500Y-168000
X241500Y-168000
T2
X101340Y-38460
X101340Y-43540
X101340Y-49460
X101340Y-54540
X101340Y-60460
X101340Y-65540
X101340Y-71460
X101340Y-76540
X101340Y-82460
X101340Y-87540
X101840Y-27460
X101840Y-32540
X103880Y-43540
X103880Y-54540
X103880Y-65540
X103880Y-76540
X103880Y-87540
X103900Y-38460
X103900Y-49460
X103900Y-60460
X103900Y-71460
X103900Y-82460
X104380Y-32540
X104400Y-27460
X104460Y-97840
X104460Y-100380
X104460Y-102920
X104460Y-108000
X106420Y-38460
X106420Y-43540
X106420Y-49460
X106420Y-54540
X106420Y-60460
X106420Y-65540
X106420Y-71460
X106420Y-76540
X106420Y-82460
X106420Y-87540
X106840Y-16460
X106840Y-21540
X106920Y-27460
X106920Y-32540
X109380Y-21540
X109400Y-16460
X109540Y-97840
X109540Y-100400
X109540Y-102920
X109540Y-108000
X111500Y-38460
X111500Y-43540
X111500Y-49460
X111500Y-54540
X111500Y-60460
X111500Y-65540
X111500Y-71460
X111500Y-76540
X111500Y-82460
X111500Y-87540
X111920Y-16460
X111920Y-21540
X112000Y-27460
X112000Y-32540
X115460Y-97840
X115460Y-100380
X115460Y-102920
X115460Y-108000
X117000Y-16460
X117000Y-21540
X120540Y-97840
X120540Y-100400
X120540Y-102920
X120540Y-108000
X162000Y-16460
X162000Y-21540
X167080Y-16460
X167080Y-21540
X169600Y-21540
X169620Y-16460
X170500Y-27460
X170500Y-32540
X171500Y-38460
X171500Y-43540
X172160Y-16460
X172160Y-21540
X173000Y-49960
X173000Y-55040
X173000Y-60460
X173000Y-65540
X173000Y-71460
X173000Y-76540
X173000Y-81960
X173000Y-87040
X175580Y-27460
X175580Y-32540
X176580Y-38460
X176580Y-43540
X178080Y-49960
X178080Y-55040
X178080Y-60460
X178080Y-65540
X178080Y-71460
X178080Y-76540
X178080Y-81960
X178080Y-87040
X178100Y-32540
X178120Y-27460
X179100Y-43540
X179120Y-38460
X180600Y-55040
X180600Y-65540
X180600Y-76540
X180600Y-87040
X180620Y-49960
X180620Y-60460
X180620Y-71460
X180620Y-81960
X180660Y-27460
X180660Y-32540
X181660Y-38460
X181660Y-43540
X183160Y-49960
X183160Y-55040
X183160Y-60460
X183160Y-65540
X183160Y-71460
X183160Y-76540
X183160Y-81960
X183160Y-87040
T3
X143300Y-100000
X143300Y-102540
X145840Y-100000
X145840Y-102540
X148380Y-100000
X148380Y-102540
X150920Y-100000
X150920Y-102540
X153460Y-100000
X153460Y-102540
X156000Y-100000
X156000Y-102540
T4
X120460Y-40730
X120460Y-51230
X120460Y-62230
X120460Y-72730
X120960Y-27730
X125540Y-44540
X125540Y-55040
X125540Y-66040
X125540Y-76540
X126040Y-31540
X129500Y-105000
X137460Y-27730
X138960Y-40730
X138960Y-51230
X138960Y-62230
X138960Y-72730
X142540Y-31540
X144040Y-44540
X144040Y-55040
X144040Y-66040
X144040Y-76540
X154460Y-27730
X157460Y-41230
X157460Y-51730
X157460Y-62230
X157460Y-72730
X159540Y-31540
X162540Y-45040
X162540Y-55540
X162540Y-66040
X162540Y-76540
X170000Y-105000
T5
X126960Y-102460
X126960Y-107540
X132040Y-102460
X132040Y-107540
X167460Y-102460
X167460Y-107540
X172540Y-102460
X172540Y-107540
T6
X95000Y-17500
X95000Y-107500
X185000Y-17500
X185000Y-107500
T0
M30
