M48
;DRILL file {KiCad 4.0.7} date 01/14/18 17:35:27
;FORMAT={3:3/ absolute / metric / suppress leading zeros}
FMAT,2
METRIC,TZ
T1C0.300
T2C0.400
T3C0.900
T4C1.016
T5C1.500
T6C1.700
T7C3.500
%
G90
G05
M71
T1
X91000Y-22000
X91000Y-23000
X91000Y-24000
X91000Y-25000
X91000Y-26000
X91000Y-27000
X91000Y-28000
X91000Y-29000
X91000Y-30000
X91000Y-31000
X91000Y-32000
X91000Y-33000
X91000Y-34000
X91000Y-35000
X91000Y-36000
X91000Y-37000
X91000Y-38000
X91000Y-39000
X91000Y-40000
X91000Y-41000
X91000Y-42000
X91000Y-43000
X91000Y-44000
X91000Y-45000
X91000Y-46000
X91000Y-47000
X91000Y-48000
X91000Y-49000
X91000Y-50000
X91000Y-51000
X91000Y-52000
X91000Y-53000
X91000Y-54000
X91000Y-55000
X91000Y-56000
X91000Y-57000
X91000Y-58000
X91000Y-59000
X91000Y-60000
X91000Y-61000
X91000Y-62000
X91000Y-63000
X91000Y-64000
X91000Y-65000
X91000Y-66000
X91000Y-67000
X91000Y-68000
X91000Y-69000
X91000Y-70000
X91000Y-71000
X91000Y-72000
X91000Y-73000
X91000Y-74000
X91000Y-75000
X91000Y-76000
X91000Y-77000
X91000Y-78000
X91000Y-79000
X91000Y-80000
X91000Y-81000
X91000Y-82000
X91000Y-83000
X91000Y-84000
X91000Y-85000
X91000Y-86000
X91000Y-87000
X91000Y-88000
X91000Y-89000
X91000Y-90000
X91000Y-91000
X91000Y-92000
X91000Y-93000
X91000Y-94000
X91000Y-95000
X91000Y-96000
X91000Y-97000
X91000Y-98000
X91000Y-99000
X91000Y-100000
X91000Y-101000
X91000Y-102000
X91000Y-103000
X92000Y-22000
X92000Y-103000
X93000Y-22000
X93000Y-103000
X94000Y-22000
X94000Y-23000
X94000Y-24000
X94000Y-25000
X94000Y-26000
X94000Y-27000
X94000Y-28000
X94000Y-29000
X94000Y-30000
X94000Y-31000
X94000Y-32000
X94000Y-33000
X94000Y-34000
X94000Y-35000
X94000Y-36000
X94000Y-37000
X94000Y-38000
X94000Y-39000
X94000Y-40000
X94000Y-41000
X94000Y-42000
X94000Y-43000
X94000Y-44000
X94000Y-45000
X94000Y-46000
X94000Y-47000
X94000Y-48000
X94000Y-49000
X94000Y-50000
X94000Y-51000
X94000Y-52000
X94000Y-53000
X94000Y-54000
X94000Y-55000
X94000Y-56000
X94000Y-57000
X94000Y-58000
X94000Y-59000
X94000Y-60000
X94000Y-61000
X94000Y-62000
X94000Y-63000
X94000Y-64000
X94000Y-65000
X94000Y-66000
X94000Y-67000
X94000Y-68000
X94000Y-69000
X94000Y-70000
X94000Y-71000
X94000Y-72000
X94000Y-73000
X94000Y-74000
X94000Y-75000
X94000Y-76000
X94000Y-77000
X94000Y-78000
X94000Y-79000
X94000Y-80000
X94000Y-81000
X94000Y-82000
X94000Y-83000
X94000Y-84000
X94000Y-85000
X94000Y-86000
X94000Y-87000
X94000Y-88000
X94000Y-89000
X94000Y-90000
X94000Y-91000
X94000Y-92000
X94000Y-93000
X94000Y-94000
X94000Y-95000
X94000Y-96000
X94000Y-97000
X94000Y-98000
X94000Y-99000
X94000Y-100000
X94000Y-101000
X94000Y-102000
X94000Y-103000
X98000Y-13500
X98000Y-14500
X99000Y-13500
X99000Y-14500
X100000Y-13500
X100000Y-14500
X101000Y-13500
X101000Y-14500
X102000Y-13500
X102000Y-14500
X103000Y-13500
X103000Y-14500
X104000Y-13500
X104000Y-14500
X105000Y-13500
X105000Y-14500
X106000Y-13500
X106000Y-14500
X107000Y-13500
X107000Y-14500
X108000Y-13500
X108000Y-14500
X109000Y-13500
X109000Y-14500
X110000Y-13500
X110000Y-14500
X111000Y-13500
X111000Y-14500
X112000Y-13500
X112000Y-14500
X113000Y-13500
X113000Y-14500
X114000Y-13500
X114000Y-14500
X115000Y-13500
X115000Y-14500
X116000Y-13500
X116000Y-14500
X117000Y-13500
X117000Y-14500
X118000Y-13500
X118000Y-14500
X119000Y-13500
X119000Y-14500
X120000Y-13500
X120000Y-14500
X121000Y-13500
X121000Y-14500
X122000Y-13500
X122000Y-14500
X123000Y-13500
X123000Y-14500
X124000Y-13500
X124000Y-14500
X125000Y-13500
X125000Y-14500
X126000Y-13500
X126000Y-14500
X127000Y-13500
X127000Y-14500
X128000Y-13500
X128000Y-14500
X129000Y-13500
X129000Y-14500
X130000Y-13500
X130000Y-14500
X131000Y-13500
X131000Y-14500
X132000Y-13500
X132000Y-14500
X133000Y-13500
X133000Y-14500
X134000Y-13500
X134000Y-14500
X134500Y-107000
X134500Y-107000
X134500Y-108000
X134500Y-109000
X134500Y-110000
X134500Y-111000
X135000Y-13500
X135000Y-14500
X135500Y-107000
X135500Y-108000
X135500Y-109000
X135500Y-110000
X135500Y-111000
X136000Y-13500
X136000Y-14500
X136500Y-107000
X136500Y-108000
X136500Y-110000
X136500Y-111000
X137000Y-13500
X137000Y-14500
X137500Y-107000
X137500Y-108000
X137500Y-110000
X137500Y-111000
X138000Y-13500
X138000Y-14500
X138500Y-107000
X138500Y-108000
X138500Y-110000
X138500Y-111000
X139000Y-13500
X139000Y-14500
X139500Y-107000
X139500Y-108000
X139500Y-110000
X139500Y-111000
X140000Y-13500
X140000Y-14500
X140500Y-107000
X140500Y-108000
X140500Y-110000
X140500Y-111000
X141000Y-13500
X141000Y-14500
X141500Y-107000
X141500Y-108000
X141500Y-110000
X141500Y-111000
X142000Y-13500
X142000Y-14500
X142500Y-107000
X142500Y-108000
X142500Y-110000
X142500Y-111000
X143000Y-13500
X143000Y-14500
X143500Y-107000
X143500Y-108000
X143500Y-110000
X143500Y-111000
X144000Y-13500
X144000Y-14500
X144500Y-107000
X144500Y-108000
X144500Y-110000
X144500Y-111000
X145000Y-13500
X145000Y-14500
X145500Y-107000
X145500Y-108000
X145500Y-110000
X145500Y-111000
X146000Y-13500
X146000Y-14500
X146500Y-107000
X146500Y-108000
X146500Y-110000
X146500Y-111000
X147000Y-13500
X147000Y-14500
X147500Y-107000
X147500Y-108000
X147500Y-110000
X147500Y-111000
X148000Y-13500
X148000Y-14500
X148500Y-107000
X148500Y-108000
X148500Y-110000
X148500Y-111000
X149000Y-13500
X149000Y-14500
X149500Y-107000
X149500Y-108000
X149500Y-110000
X149500Y-111000
X150000Y-13500
X150000Y-14500
X150500Y-107000
X150500Y-108000
X150500Y-110000
X150500Y-111000
X151000Y-13500
X151000Y-14500
X151500Y-107000
X151500Y-108000
X151500Y-110000
X151500Y-111000
X152000Y-13500
X152000Y-14500
X152500Y-107000
X152500Y-108000
X152500Y-110000
X152500Y-111000
X153000Y-13500
X153000Y-14500
X153500Y-107000
X153500Y-108000
X153500Y-110000
X153500Y-111000
X154000Y-13500
X154000Y-14500
X154500Y-107000
X154500Y-108000
X154500Y-110000
X154500Y-111000
X155000Y-13500
X155000Y-14500
X155500Y-107000
X155500Y-108000
X155500Y-110000
X155500Y-111000
X156000Y-13500
X156000Y-14500
X156500Y-107000
X156500Y-108000
X156500Y-110000
X156500Y-111000
X157000Y-13500
X157000Y-14500
X157500Y-107000
X157500Y-108000
X157500Y-110000
X157500Y-111000
X158000Y-13500
X158000Y-14500
X158500Y-107000
X158500Y-108000
X158500Y-110000
X158500Y-111000
X159000Y-13500
X159000Y-14500
X159500Y-107000
X159500Y-108000
X159500Y-110000
X159500Y-111000
X160000Y-13500
X160000Y-14500
X160500Y-107000
X160500Y-108000
X160500Y-110000
X160500Y-111000
X161000Y-13500
X161000Y-14500
X161500Y-107000
X161500Y-108000
X161500Y-110000
X161500Y-111000
X162000Y-13500
X162000Y-14500
X162500Y-107000
X162500Y-108000
X162500Y-110000
X162500Y-111000
X163000Y-13500
X163000Y-14500
X163500Y-107000
X163500Y-108000
X163500Y-109000
X163500Y-110000
X163500Y-111000
X164000Y-13500
X164000Y-14500
X164500Y-107000
X164500Y-108000
X164500Y-109000
X164500Y-110000
X164500Y-111000
X165000Y-13500
X165000Y-14500
X166000Y-13500
X166000Y-14500
X167000Y-13500
X167000Y-14500
X168000Y-13500
X168000Y-14500
X169000Y-13500
X169000Y-14500
X170000Y-13500
X170000Y-14500
X171000Y-13500
X171000Y-14500
X172000Y-13500
X172000Y-14500
X173000Y-13500
X173000Y-14500
X174000Y-13500
X174000Y-14500
X175000Y-13500
X175000Y-14500
X176000Y-13500
X176000Y-14500
X177000Y-13500
X177000Y-14500
X178000Y-13500
X178000Y-14500
X179000Y-13500
X179000Y-14500
X180000Y-13500
X180000Y-14500
X181000Y-13500
X181000Y-14500
X182000Y-13500
X182000Y-14500
X189000Y-22000
X189000Y-23000
X189000Y-24000
X189000Y-25000
X189000Y-26000
X189000Y-27000
X189000Y-28000
X189000Y-29000
X189000Y-30000
X189000Y-31000
X189000Y-32000
X189000Y-33000
X189000Y-34000
X189000Y-35000
X189000Y-36000
X189000Y-37000
X189000Y-38000
X189000Y-39000
X189000Y-40000
X189000Y-41000
X189000Y-42000
X189000Y-43000
X189000Y-44000
X189000Y-45000
X189000Y-46000
X189000Y-47000
X189000Y-48000
X189000Y-49000
X189000Y-50000
X189000Y-51000
X189000Y-52000
X189000Y-53000
X189000Y-54000
X189000Y-55000
X189000Y-56000
X189000Y-57000
X189000Y-58000
X189000Y-59000
X189000Y-60000
X189000Y-61000
X189000Y-62000
X189000Y-63000
X189000Y-64000
X189000Y-65000
X189000Y-66000
X189000Y-67000
X189000Y-68000
X189000Y-69000
X189000Y-70000
X189000Y-71000
X189000Y-72000
X189000Y-73000
X189000Y-74000
X189000Y-75000
X189000Y-76000
X189000Y-77000
X189000Y-78000
X189000Y-79000
X189000Y-80000
X189000Y-81000
X189000Y-82000
X189000Y-83000
X189000Y-84000
X189000Y-85000
X189000Y-86000
X189000Y-87000
X189000Y-88000
X189000Y-89000
X189000Y-90000
X189000Y-91000
X189000Y-92000
X189000Y-93000
X189000Y-94000
X189000Y-95000
X189000Y-96000
X189000Y-97000
X189000Y-98000
X189000Y-99000
X189000Y-100000
X189000Y-101000
X189000Y-102000
X189000Y-103000
T2
X95000Y-94000
X96000Y-95000
X97000Y-96000
X98000Y-86500
X98000Y-87500
X98000Y-88500
X98000Y-89500
X98000Y-90500
X98000Y-91500
X98000Y-97000
X99000Y-29000
X99000Y-32000
X99000Y-33000
X99000Y-34000
X99000Y-35000
X99000Y-36000
X99000Y-37000
X99000Y-38000
X99000Y-39000
X99000Y-42000
X99000Y-43000
X99000Y-44000
X99000Y-45000
X99000Y-46000
X99000Y-47000
X99000Y-48000
X99000Y-49000
X99000Y-50000
X99000Y-54000
X99000Y-55000
X99000Y-58000
X99000Y-59000
X99000Y-60000
X99000Y-61000
X99000Y-62000
X99000Y-63000
X99000Y-64000
X99000Y-65000
X99000Y-66000
X99000Y-67000
X99000Y-68000
X99000Y-69000
X99000Y-70000
X99000Y-71000
X99000Y-72000
X99000Y-73000
X99000Y-76000
X99000Y-77000
X99000Y-78000
X99000Y-79000
X99000Y-82000
X99000Y-92500
X99000Y-98000
X99000Y-110900
X100000Y-93500
X100000Y-99000
X100000Y-100000
X100000Y-101000
X100000Y-102000
X100000Y-103000
X100000Y-104000
X100000Y-110900
X101000Y-94500
X101000Y-105000
X101000Y-110900
X102000Y-95500
X102000Y-101000
X102000Y-102000
X102000Y-103000
X102000Y-106000
X102000Y-110900
X103000Y-96500
X103000Y-107000
X106500Y-91500
X107500Y-91500
X108300Y-111100
X108500Y-91500
X109000Y-111100
X109500Y-91500
X110000Y-111100
X111000Y-91500
X111000Y-111100
X112000Y-111100
X112500Y-95000
X112500Y-96000
X112500Y-97000
X112500Y-98000
X112500Y-99000
X112500Y-102000
X112500Y-103000
X112500Y-104000
X113000Y-111100
X114000Y-86000
X114000Y-111100
X115000Y-111100
X115100Y-84900
X116000Y-44000
X116000Y-111100
X116100Y-83900
X117000Y-44000
X117000Y-78000
X117000Y-83900
X117000Y-111100
X118000Y-44000
X118000Y-83900
X118000Y-111100
X119000Y-44000
X119000Y-111100
X119100Y-83900
X119500Y-78000
X120000Y-44000
X120000Y-67000
X120000Y-83900
X120000Y-111100
X121000Y-44000
X121000Y-67000
X121000Y-83900
X121000Y-111100
X122000Y-44000
X122000Y-78000
X122000Y-83900
X122000Y-111100
X122100Y-67000
X122200Y-94800
X122200Y-96000
X122217Y-98225
X122400Y-97400
X123000Y-49250
X123000Y-60000
X123000Y-83900
X123000Y-111100
X124000Y-17000
X124000Y-49250
X124000Y-60000
X124000Y-71000
X124000Y-110000
X124100Y-83900
X124450Y-20600
X125000Y-17000
X125000Y-26000
X125000Y-36500
X125000Y-49200
X125000Y-60000
X125000Y-71000
X125000Y-83900
X125000Y-109000
X126000Y-17000
X126000Y-20600
X126000Y-26000
X126000Y-36500
X126000Y-49250
X126000Y-60000
X126000Y-71000
X126000Y-83900
X127000Y-17000
X127000Y-20600
X127000Y-26000
X127000Y-36500
X127000Y-49250
X127000Y-60000
X127000Y-71000
X127100Y-83900
X128000Y-68000
X128000Y-17000
X128000Y-20600
X128000Y-26000
X128000Y-49250
X128000Y-60000
X128000Y-71000
X128000Y-83900
X129000Y-17000
X129000Y-20600
X129000Y-26000
X129000Y-49300
X129000Y-60000
X129000Y-68000
X129000Y-71000
X129000Y-78000
X129000Y-83900
X130000Y-17000
X130000Y-20600
X130000Y-26000
X130000Y-32000
X130000Y-60000
X130000Y-68000
X130000Y-78000
X130000Y-83900
X130000Y-90300
X130100Y-70900
X130900Y-90300
X131000Y-17000
X131000Y-20600
X131000Y-32000
X131000Y-36500
X131000Y-60000
X131000Y-68000
X131000Y-78000
X131000Y-83900
X131000Y-26000
X131800Y-90300
X132000Y-17000
X132000Y-20600
X132000Y-26000
X132000Y-32000
X132000Y-68000
X132000Y-78000
X132000Y-83900
X132700Y-90300
X133000Y-17000
X133000Y-20600
X133000Y-26000
X133000Y-32000
X133000Y-68000
X133000Y-78000
X133000Y-83900
X134000Y-17000
X134000Y-20600
X134000Y-26000
X134000Y-32000
X134000Y-60000
X134000Y-68000
X134000Y-78000
X134000Y-83900
X134900Y-70500
X135000Y-17000
X135000Y-20600
X135000Y-26000
X135000Y-32000
X135000Y-36500
X135000Y-46000
X135000Y-60000
X135000Y-68000
X135000Y-78000
X135000Y-83900
X136000Y-17000
X136000Y-20600
X136000Y-32000
X136000Y-36500
X136000Y-70500
X136000Y-78000
X136100Y-60000
X137000Y-17000
X137000Y-20600
X137000Y-32000
X137000Y-36500
X137000Y-78000
X138000Y-17000
X138000Y-20600
X138000Y-32000
X138000Y-36500
X138000Y-44000
X138000Y-78000
X138000Y-86500
X138000Y-87650
X138000Y-89000
X139000Y-17000
X139000Y-20600
X139000Y-32000
X139000Y-36500
X139000Y-44000
X139000Y-78000
X140000Y-17000
X140000Y-20600
X140000Y-36500
X140000Y-44000
X140000Y-93500
X140000Y-94500
X140000Y-97000
X141000Y-17000
X141000Y-20600
X141000Y-36500
X141000Y-44000
X141000Y-97000
X141600Y-49200
X142000Y-17000
X142000Y-20600
X142000Y-36500
X142000Y-60000
X142000Y-71000
X142600Y-49200
X143000Y-17000
X143000Y-20600
X143000Y-36500
X143000Y-60000
X143000Y-71000
X143600Y-49200
X144000Y-17000
X144000Y-20600
X144000Y-36500
X144000Y-60000
X144000Y-71000
X144000Y-82500
X144600Y-49200
X145000Y-17000
X145000Y-20600
X145000Y-28000
X145000Y-36500
X145000Y-60000
X145000Y-71000
X145000Y-82500
X145600Y-49200
X146000Y-71000
X146000Y-17000
X146000Y-20600
X146000Y-27000
X146000Y-32000
X146000Y-36500
X146000Y-60000
X146000Y-82500
X146000Y-93000
X146600Y-49200
X147000Y-17000
X147000Y-20600
X147000Y-26000
X147000Y-32000
X147000Y-36500
X147000Y-60000
X147000Y-70600
X147000Y-82500
X147000Y-90500
X147000Y-93000
X147500Y-46500
X147600Y-49200
X148000Y-17000
X148000Y-20600
X148000Y-26000
X148000Y-32000
X148000Y-36500
X148000Y-60000
X148000Y-70600
X148000Y-78000
X148000Y-82500
X148000Y-90500
X148000Y-93000
X148500Y-46500
X149000Y-17000
X149000Y-20600
X149000Y-26000
X149000Y-32000
X149000Y-36500
X149000Y-70600
X149000Y-82500
X149000Y-90500
X149000Y-93000
X149500Y-46500
X150000Y-17000
X150000Y-20600
X150000Y-26000
X150000Y-32000
X150000Y-36500
X150000Y-70600
X150000Y-82500
X150000Y-90500
X150000Y-93000
X150500Y-46500
X151000Y-17000
X151000Y-20600
X151000Y-27000
X151000Y-32000
X151000Y-36500
X151000Y-70600
X151000Y-82500
X151000Y-93000
X151500Y-46500
X151900Y-36500
X152000Y-17000
X152000Y-20600
X152000Y-32000
X152000Y-70600
X152000Y-82500
X152000Y-93000
X152500Y-46500
X153000Y-17000
X153000Y-20600
X153000Y-32000
X153000Y-36500
X153000Y-56250
X153000Y-70600
X153000Y-82500
X153500Y-46500
X153500Y-90500
X153600Y-93000
X154000Y-70600
X154000Y-17000
X154000Y-20600
X154000Y-32000
X154000Y-36500
X154000Y-60000
X154000Y-78000
X154000Y-82500
X154500Y-90500
X155000Y-32000
X155000Y-36500
X155000Y-60000
X155000Y-78000
X155000Y-82500
X155000Y-93000
X155500Y-49250
X155500Y-56250
X155500Y-90500
X155800Y-77200
X156000Y-36500
X156000Y-32000
X156000Y-82500
X156500Y-86500
X156500Y-87500
X156500Y-88500
X156500Y-89500
X156500Y-90500
X156700Y-76300
X157000Y-25000
X157000Y-36500
X157000Y-78000
X157000Y-82500
X157500Y-90500
X158000Y-25000
X158000Y-36500
X158000Y-56250
X158000Y-82500
X158500Y-78000
X158500Y-90500
X159000Y-25000
X159000Y-36500
X159000Y-82500
X159500Y-90500
X160000Y-25000
X160000Y-36500
X160000Y-49200
X160000Y-60000
X160000Y-82500
X160500Y-90500
X161000Y-25000
X161000Y-36500
X161000Y-49250
X161000Y-60000
X161000Y-71000
X161000Y-82500
X161500Y-86500
X161500Y-87500
X161500Y-88500
X161500Y-89500
X161500Y-90500
X162000Y-25000
X162000Y-36500
X162000Y-49250
X162000Y-60000
X162000Y-71000
X162000Y-82500
X162500Y-90500
X163000Y-25000
X163000Y-36500
X163000Y-49300
X163000Y-60000
X163000Y-71000
X163000Y-82500
X163500Y-90500
X164000Y-36500
X164000Y-49250
X164000Y-60000
X164000Y-71000
X164000Y-82500
X164500Y-90500
X165000Y-24000
X165000Y-36500
X165000Y-49300
X165000Y-60000
X165000Y-71000
X165000Y-82500
X165500Y-90500
X166000Y-23000
X166000Y-49300
X166000Y-57250
X166000Y-60000
X166000Y-71000
X166000Y-82500
X166000Y-36500
X166100Y-77000
X166100Y-78000
X166500Y-86500
X166500Y-87500
X166500Y-88500
X166500Y-89500
X166500Y-90500
X167000Y-36500
X167000Y-57250
X167000Y-71000
X167000Y-77000
X167000Y-78000
X167000Y-82500
X167500Y-90500
X167800Y-100400
X168000Y-36500
X168000Y-57250
X168000Y-71000
X168000Y-77000
X168000Y-78000
X168000Y-82500
X168200Y-98400
X168200Y-99300
X169000Y-36500
X169000Y-82500
X170000Y-36500
X170000Y-82500
X170000Y-86500
X170000Y-87500
X170000Y-88500
X171000Y-36500
X171000Y-82500
X171000Y-87500
X171800Y-98400
X171800Y-99300
X171800Y-100400
X172000Y-47600
X172000Y-93200
X173000Y-47600
X173400Y-91800
X174000Y-21500
X174000Y-47600
X174000Y-111000
X175000Y-17000
X175000Y-22500
X175000Y-34500
X175000Y-47600
X175000Y-90200
X175000Y-111000
X175800Y-93600
X176000Y-23500
X176000Y-34500
X176000Y-47500
X176000Y-111000
X176100Y-46000
X176400Y-88800
X176500Y-17000
X177000Y-24500
X177000Y-34500
X177000Y-46000
X177000Y-111000
X177200Y-92200
X177500Y-18000
X178000Y-25500
X178000Y-34500
X178000Y-46000
X178000Y-111000
X178500Y-19000
X179000Y-34500
X179000Y-91600
X179000Y-111000
X179100Y-46000
X179250Y-79250
X179500Y-20000
X179500Y-58000
X179500Y-69000
X180000Y-34500
X180000Y-46000
X180000Y-91600
X180000Y-111000
X180250Y-79250
X180500Y-21000
X180500Y-58000
X180500Y-69000
X181000Y-46000
X181000Y-91500
X181100Y-111000
X181250Y-79250
X181500Y-22000
X181500Y-58000
X181500Y-69000
X182000Y-91000
X182500Y-23000
X182800Y-90200
X183500Y-24000
X183500Y-89500
X184000Y-89000
X184650Y-55000
X184650Y-55750
X184650Y-56500
X184650Y-57500
X184650Y-58250
X184650Y-59000
X184650Y-59750
X184650Y-61250
X184650Y-62500
X184650Y-63250
X184650Y-64000
X184650Y-64750
X184650Y-66750
X184650Y-67500
X184650Y-68250
X184650Y-69000
X184650Y-69750
X184650Y-70500
X184650Y-72500
X184650Y-73250
X184650Y-74000
X184650Y-74750
X184650Y-75500
X184650Y-77500
X184650Y-78250
X184650Y-79000
X184650Y-79750
X184650Y-80500
X184650Y-82500
X184650Y-83250
X184650Y-84000
X184650Y-84750
X184650Y-85500
X184650Y-86250
X184650Y-88000
X185000Y-25000
X185000Y-30000
X185000Y-35000
X185000Y-36000
X185000Y-37000
X185000Y-38000
X185000Y-39000
X185000Y-40000
X185000Y-41000
X185000Y-42000
X185000Y-44000
X185000Y-45000
X185000Y-46000
X185000Y-47000
X185000Y-48000
X185000Y-49000
X185000Y-50000
X185000Y-51000
X185000Y-52000
X185000Y-95000
X185000Y-100000
T3
X101340Y-38460
X101340Y-43540
X101340Y-49460
X101340Y-54540
X101340Y-60460
X101340Y-65540
X101340Y-71460
X101340Y-76540
X101340Y-82460
X101340Y-87540
X101840Y-27460
X101840Y-32540
X103880Y-43540
X103880Y-54540
X103880Y-65540
X103880Y-76540
X103880Y-87540
X103900Y-38460
X103900Y-49460
X103900Y-60460
X103900Y-71460
X103900Y-82460
X104380Y-32540
X104400Y-27460
X104460Y-97840
X104460Y-100380
X104460Y-102920
X104460Y-108000
X106420Y-38460
X106420Y-43540
X106420Y-49460
X106420Y-54540
X106420Y-60460
X106420Y-65540
X106420Y-71460
X106420Y-76540
X106420Y-82460
X106420Y-87540
X106840Y-16460
X106840Y-21540
X106920Y-27460
X106920Y-32540
X109380Y-21540
X109400Y-16460
X109540Y-97840
X109540Y-100400
X109540Y-102920
X109540Y-108000
X111500Y-38460
X111500Y-43540
X111500Y-49460
X111500Y-54540
X111500Y-60460
X111500Y-65540
X111500Y-71460
X111500Y-76540
X111500Y-82460
X111500Y-87540
X111920Y-16460
X111920Y-21540
X112000Y-27460
X112000Y-32540
X115460Y-97840
X115460Y-100380
X115460Y-102920
X115460Y-108000
X117000Y-16460
X117000Y-21540
X120540Y-97840
X120540Y-100400
X120540Y-102920
X120540Y-108000
X162000Y-16460
X162000Y-21540
X167080Y-16460
X167080Y-21540
X169600Y-21540
X169620Y-16460
X170500Y-27460
X170500Y-32540
X171500Y-38460
X171500Y-43540
X172160Y-16460
X172160Y-21540
X173000Y-49960
X173000Y-55040
X173000Y-60460
X173000Y-65540
X173000Y-71460
X173000Y-76540
X173000Y-81960
X173000Y-87040
X175580Y-27460
X175580Y-32540
X176580Y-38460
X176580Y-43540
X178080Y-49960
X178080Y-55040
X178080Y-60460
X178080Y-65540
X178080Y-71460
X178080Y-76540
X178080Y-81960
X178080Y-87040
X178100Y-32540
X178120Y-27460
X179100Y-43540
X179120Y-38460
X180600Y-55040
X180600Y-65540
X180600Y-76540
X180600Y-87040
X180620Y-49960
X180620Y-60460
X180620Y-71460
X180620Y-81960
X180660Y-27460
X180660Y-32540
X181660Y-38460
X181660Y-43540
X183160Y-49960
X183160Y-55040
X183160Y-60460
X183160Y-65540
X183160Y-71460
X183160Y-76540
X183160Y-81960
X183160Y-87040
T4
X143300Y-100000
X143300Y-102540
X145840Y-100000
X145840Y-102540
X148380Y-100000
X148380Y-102540
X150920Y-100000
X150920Y-102540
X153460Y-100000
X153460Y-102540
X156000Y-100000
X156000Y-102540
T5
X120460Y-40730
X120460Y-51230
X120460Y-62230
X120460Y-72730
X120960Y-27730
X125540Y-44540
X125540Y-55040
X125540Y-66040
X125540Y-76540
X126040Y-31540
X129500Y-105000
X137460Y-27730
X138960Y-40730
X138960Y-51230
X138960Y-62230
X138960Y-72730
X142540Y-31540
X144040Y-44540
X144040Y-55040
X144040Y-66040
X144040Y-76540
X154460Y-27730
X157460Y-41230
X157460Y-51730
X157460Y-62230
X157460Y-72730
X159540Y-31540
X162540Y-45040
X162540Y-55540
X162540Y-66040
X162540Y-76540
X170000Y-105000
T6
X126960Y-102460
X126960Y-107540
X132040Y-102460
X132040Y-107540
X167460Y-102460
X167460Y-107540
X172540Y-102460
X172540Y-107540
T7
X95000Y-17500
X95000Y-107500
X185000Y-17500
X185000Y-107500
T0
M30
